<svg id="Camada_1" data-name="Camada 1" xmlns="http://www.w3.org/2000/svg" viewBox="0 0 24 24"><title>add</title><path d="M20.4245,11.29224l-7.7843.06756.0675-7.7843a.69956.69956,0,0,0-.71075-.71075.73929.73929,0,0,0-.72717.72717L11.206,11.206l-7.61407.06379a.73929.73929,0,0,0-.72717.72717.69956.69956,0,0,0,.71075.71075l7.78442-.06762-.06768,7.78442a.69968.69968,0,0,0,.71081.71075.73937.73937,0,0,0,.72717-.72717L12.794,12.794l7.61407-.06379a.73937.73937,0,0,0,.72717-.72717A.69968.69968,0,0,0,20.4245,11.29224Z"/></svg>