<svg id="Camada_1" data-name="Camada 1" xmlns="http://www.w3.org/2000/svg" viewBox="0 0 24 24"><title>advance</title><path d="M2.528,20.09036a.806.806,0,0,0,.27243.05448.72322.72322,0,0,0,.62659-.3814c1.71631-3.26916,3.65056-5.96622,9.58954-5.77552v2.45187a.95648.95648,0,0,0,.57211.84454.7626.7626,0,0,0,.87177-.1907l7.27389-6.12969a.7013.7013,0,0,0,.27243-.59934.76137.76137,0,0,0-.29967-.59935L14.43317,4.017a.90872.90872,0,0,0-1.41664.70832V7.20441c-9.644,1.08972-10.51581,8.09118-10.87,11.11515-.05448.35416-.08173.68108-.13621.899A.76738.76738,0,0,0,2.528,20.09036ZM13.34345,8.26688a.89943.89943,0,0,0,.7628-.81729V5.16118l6.62006,5.2579L14.10625,16.0039V13.71549a.87541.87541,0,0,0-.79-.81729C7.56793,12.653,5.08881,14.88694,3.318,17.693,3.7539,14.53278,5.03433,9.11142,13.34345,8.26688Z"/></svg>