<svg id="Camada_1" data-name="Camada 1" xmlns="http://www.w3.org/2000/svg" viewBox="0 0 24 24"><title>bag-money-black</title><path d="M14.91755,7.17555c1.04631-2.21332,1.167-2.9377,1.167-3.27976a1.39039,1.39039,0,0,0-.94567-1.328,1.47448,1.47448,0,0,0-1.67008.62377c-.0201.02013-.0201.02013-.0201.04023L13.328,3.11109a1.79345,1.79345,0,0,0-1.26763-.6439,2.02646,2.02646,0,0,0-1.26763.58351c-.06036.04026-.12072.10061-.1811.14087V3.17144a1.52145,1.52145,0,0,0-1.7304-.64386A1.389,1.389,0,0,0,7.87518,3.83543,8.8225,8.8225,0,0,0,9.00194,7.19565c-2.29378,1.81092-4.50711,4.96991-4.50711,7.82711C4.49483,18.98661,7.43251,21.542,12,21.542s7.50517-2.55539,7.50517-6.51924C19.485,12.16556,17.25159,8.98644,14.91755,7.17555ZM12.56338,17.83972v.84509a.1731.1731,0,0,1-.161.161h-.825a.1731.1731,0,0,1-.161-.161v-.825A1.74166,1.74166,0,0,1,9.8068,16.31051a.154.154,0,0,1,.161-.18109h.825a.153.153,0,0,1,.161.12074.58491.58491,0,0,0,.56338.44267h.72438a.86916.86916,0,0,0,.86521-.7445.836.836,0,0,0-.825-.90545h-.54326a2.03164,2.03164,0,0,1-2.05236-1.77065,1.98933,1.98933,0,0,1,1.7103-2.153V10.2742a.17311.17311,0,0,1,.161-.161h.825a.1731.1731,0,0,1,.161.161v.82495a1.74164,1.74164,0,0,1,1.60969,1.54934.154.154,0,0,1-.161.18107h-.825a.153.153,0,0,1-.161-.12072.58491.58491,0,0,0-.56341-.44267H11.7183a.86915.86915,0,0,0-.86522.74448.836.836,0,0,0,.825.90547h.62373a2.00056,2.00056,0,0,1,1.97188,2.17307A2.02766,2.02766,0,0,1,12.56338,17.83972ZM13.69017,6.89385a20.34163,20.34163,0,0,1-3.50108,0A8.23061,8.23061,0,0,1,9.06232,3.83543c.0201,0,.08049-.08048.18107-.12071.02013,0,.04026-.02012.08048-.02012a.419.419,0,0,1,.28171.18109,1.3133,1.3133,0,0,0,.84509.58351,1.40409,1.40409,0,0,0,1.12679-.48293c.161-.14084.36216-.3018.4829-.3018.10061,0,.2817.161.42254.3018a1.41479,1.41479,0,0,0,1.08653.52316,1.31208,1.31208,0,0,0,.90545-.62374c.10061-.14087.22135-.20122.30183-.18109.02013,0,.10061.04022.10061.161A10.16019,10.16019,0,0,1,13.69017,6.89385Z"/></svg>