<svg id="Camada_1" data-name="Camada 1" xmlns="http://www.w3.org/2000/svg" viewBox="0 0 24 24"><title>bag</title><path d="M14.91751,7.17562c1.04628-2.21329,1.167-2.93764,1.167-3.27969a1.39036,1.39036,0,0,0-.94568-1.328,1.47436,1.47436,0,0,0-1.67.62374c-.02012.02013-.02012.02013-.02012.04025L13.328,3.11122a1.7934,1.7934,0,0,0-1.26761-.64386h0a2.0264,2.0264,0,0,0-1.26761.5835c-.06036.04024-.12072.1006-.18108.14084V3.17158a1.52149,1.52149,0,0,0-1.73039-.64386,1.389,1.389,0,0,0-1.006,1.30785A8.82281,8.82281,0,0,0,9.002,7.19574C6.70824,9.00661,4.495,12.16557,4.495,15.02272c0,3.96379,2.93763,6.51913,7.50505,6.51913s7.50505-2.55534,7.50505-6.51913C19.48493,12.16557,17.25152,8.98649,14.91751,7.17562ZM9.24345,3.71484c.02012,0,.04024-.02012.08049-.02012a.41915.41915,0,0,1,.28169.18109,1.31323,1.31323,0,0,0,.84507.5835,1.404,1.404,0,0,0,1.12676-.4829c.161-.14084.36218-.30181.4829-.30181h0c.10061,0,.28169.161.42254.30181a1.41487,1.41487,0,0,0,1.08652.52315,1.31212,1.31212,0,0,0,.90543-.62375c.10061-.14084.22133-.20121.30182-.18109.02012,0,.1006.04025.1006.161a10.15945,10.15945,0,0,1-1.18713,3.03824,20.34283,20.34283,0,0,1-3.501,0A8.2306,8.2306,0,0,1,9.06237,3.83557C9.08249,3.83557,9.14285,3.75509,9.24345,3.71484Zm2.73643,16.63988c-3.94367,0-6.27768-1.97183-6.27768-5.29176,0-2.495,2.07244-5.35212,4.12476-6.94166a18.5184,18.5184,0,0,0,2.15292.12072A18.2673,18.2673,0,0,0,14.1328,8.1213c2.05232,1.58954,4.12476,4.44669,4.12476,6.94166C18.25756,18.38289,15.92355,20.35472,11.97988,20.35472Z"/></svg>