<svg id="Camada_1" data-name="Camada 1" xmlns="http://www.w3.org/2000/svg" viewBox="0 0 24 24"><title>b</title><path d="M14.29343,11.50464a3.10045,3.10045,0,0,0,1.88135-2.936c0-2.54549-1.60189-3.94756-4.5105-3.94756H7.98376a.84074.84074,0,0,0-.82962.82962V18.54931a.84074.84074,0,0,0,.82962.82962h4.33c2.83774,0,4.53206-1.58911,4.53206-4.2504A3.50328,3.50328,0,0,0,14.29343,11.50464Zm.87163,3.62389c0,1.755-1.02032,2.72121-2.87281,2.72121H8.81339v-5.4205h3.47886A2.5633,2.5633,0,0,1,15.16506,15.12853ZM8.81339,10.98626V6.15063h2.82934c1.86491,0,2.85089.8362,2.85089,2.418,0,1.5365-1.03895,2.41763-2.85089,2.41763Z"/></svg>