<svg id="Camada_1" data-name="Camada 1" xmlns="http://www.w3.org/2000/svg" viewBox="0 0 24 24"><title>box</title><path d="M23.41532,9.32975,20.6354,5.29381l-.0434-.04954-.04252.04253V5.20394l.00087-.00088-.00087-.00087V5.14782L16.05015,3.59325a.547.547,0,0,0-.69706.31.52709.52709,0,0,0,.01622.41911.56727.56727,0,0,0,.30644.28321l2.96492,1.01753L11.99448,8.20481,5.34874,5.62305,8.32593,4.6007a.55735.55735,0,0,0,.3025-.29768.51775.51775,0,0,0,.00789-.39938.538.538,0,0,0-.68566-.31522L3.64116,5.07856a.29028.29028,0,0,0-.07935.03112L.58242,9.31791A.53536.53536,0,0,0,.5,9.66951l.01359.085a.4982.4982,0,0,0,.3082.32223l8.17665,3.569a.43961.43961,0,0,0,.24331.06138.5148.5148,0,0,0,.45419-.27839l1.76238-2.77815v8.44363L4.32594,15.98777V12.26222a.53661.53661,0,0,0-1.07321,0v4.08943a.48348.48348,0,0,0,.32267.4875l8.20514,3.555.12363.04866h.06357a.37187.37187,0,0,0,.22008-.06269l8.18673-3.54756a.52187.52187,0,0,0,.3082-.48092V12.26222a.53639.53639,0,1,0-1.07277,0v3.72643l-7.07889,3.10477V10.65066l1.779,2.804a.53728.53728,0,0,0,.43752.25252.43763.43763,0,0,0,.24288-.06138l8.15429-3.53352a.595.595,0,0,0,.331-.331A.56.56,0,0,0,23.41532,9.32975ZM1.84546,9.36614l2.15124-3.11L11.19177,9.054,9.03,12.48449Zm18.14637-3.11,2.15256,3.135-7.18455,3.09381L12.79764,9.054Zm.505-.91627-.095.095L20.387,5.42h0l.06034-.08012Z"/></svg>