<svg id="Camada_1" data-name="Camada 1" xmlns="http://www.w3.org/2000/svg" viewBox="0 0 24 24"><title>cadeado</title><path d="M17.198,10.09092V7.19805a5.19805,5.19805,0,1,0-10.3961,0v2.89287a2.67433,2.67433,0,0,0-2.52723,2.66732v6.57094A2.67368,2.67368,0,0,0,6.94536,22H17.05464a2.67369,2.67369,0,0,0,2.67064-2.67082V12.75824A2.67433,2.67433,0,0,0,17.198,10.09092ZM12,3.29689A3.90452,3.90452,0,0,1,15.90029,7.197v2.88937H8.09971V7.197A3.90452,3.90452,0,0,1,12,3.29689Zm-6.42752,9.4603A1.37433,1.37433,0,0,1,6.94536,11.3843H17.05464a1.37433,1.37433,0,0,1,1.37288,1.37289v6.57094A1.37432,1.37432,0,0,1,17.05464,20.701H6.94536a1.37432,1.37432,0,0,1-1.37288-1.37288Z"/></svg>