<svg id="Camada_1" data-name="Camada 1" xmlns="http://www.w3.org/2000/svg" viewBox="0 0 24 24"><title>calendar</title><path d="M18.49606,4.278H17.22238V2.77863H15.77131V4.278H8.22781V2.77863H6.77652V4.278H5.50394A2.728,2.728,0,0,0,2.779,7.00277v11.4934a2.72836,2.72836,0,0,0,2.725,2.7252H18.49606a2.72836,2.72836,0,0,0,2.725-2.7252V7.00189A2.72864,2.72864,0,0,0,18.49606,4.278Zm0,15.49029H5.50394a1.27477,1.27477,0,0,1-1.27369-1.273V9.72665H19.76887v8.76864A1.2743,1.2743,0,0,1,18.49606,19.76831ZM8.22781,6.72787V5.72931h7.5435v.99944h1.45107V5.72931h1.27368a1.27421,1.27421,0,0,1,1.27281,1.27258V8.27536H4.23025V7.00189A1.27515,1.27515,0,0,1,5.50394,5.72843H6.7774v.99944Z"/></svg>