<svg id="Camada_1" data-name="Camada 1" xmlns="http://www.w3.org/2000/svg" viewBox="0 0 24 24"><title>cellphone</title><path d="M17.95409,3.90988a1.275,1.275,0,0,0-.36445-.66707,1.308,1.308,0,0,0-.65784-.36445c-.083-.02015-.08471-.02049-4.89491-.0222-1.12-.00034-4.7617-.001-4.87.00751a1.32951,1.32951,0,0,0-.49184.16976,1.22976,1.22976,0,0,0-.2876.23055,1.3144,1.3144,0,0,0-.34224.6476c-.01981.09427-.02015.096-.02015,8.08885s.00034,7.99457.02049,8.09089a1.35229,1.35229,0,0,0,1.03049,1.03117c.097.02152.097.02152,4.92394.02152,4.82626,0,4.828-.00034,4.92223-.02049a1.3528,1.3528,0,0,0,1.03186-1.03288c.02083-.095.02083-.095.02083-8.09021S17.97492,4.00517,17.95409,3.90988Zm-.8522,13.546H6.89742c.00376-.69371.00444-3.32031.00444-5.56847l.001-5.51655H17.09711l.00069,5.52133C17.09916,15.83786,17.10053,17.06475,17.10189,17.45584ZM16.68451,3.73261a.64024.64024,0,0,1,.09427.016.45205.45205,0,0,1,.27871.236c.03928.07822.04.07958.042.79379l.00171.70976H6.89879L6.9005,4.7771c.002-.7125.00273-.71386.04952-.80779a.46884.46884,0,0,1,.25891-.22l4.71319-.01468C14.56546,3.73226,16.63225,3.73261,16.68451,3.73261Zm.4126,14.601v.83853c0,.76442-.00136.76715-.04782.86a.43854.43854,0,0,1-.27051.21963L7.269,20.2662l-.04918-.01434a.44283.44283,0,0,1-.2695-.21929.37807.37807,0,0,1-.04747-.1759c-.001-.03723-.00171-.43481-.001-.88225l.00069-.64555Z"/><path d="M10.97942,4.28491a.4397.4397,0,0,0-.23261.18581.36237.36237,0,0,0-.0584.20289.37794.37794,0,0,0,.02835.1981.44883.44883,0,0,0,.21279.22031l.0888.04338h2.13818l.0888-.04338a.437.437,0,0,0,.24627-.4027.43053.43053,0,0,0-.25412-.3887l-.04782-.0222-1.08822-.0181A4.99152,4.99152,0,0,0,10.97942,4.28491Z"/><path d="M11.53411,19.86418a.78871.78871,0,0,0,1.33721-.65921.80132.80132,0,0,0-.37811-.581.82908.82908,0,0,0-.57758-.09393.97358.97358,0,0,0-.18444.069.77967.77967,0,0,0-.39006.444.97987.97987,0,0,0,.00034.51917A.77413.77413,0,0,0,11.53411,19.86418Z"/></svg>