<svg id="Camada_1" data-name="Camada 1" xmlns="http://www.w3.org/2000/svg" xmlns:xlink="http://www.w3.org/1999/xlink" viewBox="0 0 24 24"><defs><style>.cls-1{clip-path:url(#clip-path);}.cls-2{fill-rule:evenodd;}</style><clipPath id="clip-path"><path d="M22-34.79l-2.88,3.27-4.52-3.86a2.12,2.12,0,0,0-1.41-.52,2.07,2.07,0,0,0-1,.24l-.63.31a.75.75,0,0,1-1-.25.75.75,0,0,1-.12-.58.76.76,0,0,1,.34-.5L12.7-37.9A1.55,1.55,0,0,1,14.33-38l1.15.64a2.37,2.37,0,0,0,2.4-.06l1.44-.9a.75.75,0,0,1,1,.17L22-35.93A.89.89,0,0,1,22-34.79ZM19.4-29.33a.6.6,0,0,1-.43.2.59.59,0,0,1-.46-.16L15.59-32A.43.43,0,0,0,15-32a.43.43,0,0,0,0,.6l3.18,3a.69.69,0,0,1,0,.95.67.67,0,0,1-1,.05l-.51-.47h0l-2.47-2.23a.44.44,0,0,0-.61,0,.44.44,0,0,0,0,.61l2.47,2.24a.75.75,0,0,1,.24.51.78.78,0,0,1-.19.54.75.75,0,0,1-1,.05L13.85-27.3h0l-1.25-1.14a.44.44,0,0,0-.61,0,.43.43,0,0,0,0,.6l1.26,1.13a.63.63,0,0,1,.21.42.57.57,0,0,1-.16.45.61.61,0,0,1-.86.05l-1.12-.94a1.6,1.6,0,0,0-.42-1.67,1.58,1.58,0,0,0-1.12-.42H9.75a1.55,1.55,0,0,0-.49-1.14,1.7,1.7,0,0,0-.79-.4A1.54,1.54,0,0,0,8.05-32a1.57,1.57,0,0,0-1.22-.42h0a1.47,1.47,0,0,0-.5-1.09,1.57,1.57,0,0,0-2.22.08L3.77-33,2-34.52A.78.78,0,0,1,1.75-35a.83.83,0,0,1,.19-.56l1.93-2.19A1.08,1.08,0,0,1,5.22-38l.27.15a3.5,3.5,0,0,0,3.24.09L9.14-38a2.19,2.19,0,0,1,2,0l-.82.53a1.65,1.65,0,0,0-.71,1,1.69,1.69,0,0,0,.26,1.24,1.64,1.64,0,0,0,2,.52l.63-.32a1.35,1.35,0,0,1,1.46.18l4.84,4.13.45.39a.6.6,0,0,1,.22.43A.52.52,0,0,1,19.4-29.33ZM9.59-25.86a.72.72,0,0,1-1,0,.72.72,0,0,1,0-1l.81-.87a.72.72,0,0,1,.5-.22.66.66,0,0,1,.52.19.72.72,0,0,1,0,1Zm-3.32-.85a.73.73,0,0,1-.23-.5.72.72,0,0,1,.2-.52L7-28.57l.65-.7a.71.71,0,0,1,1,0,.72.72,0,0,1,0,1l-.19.19-.63.68-.62.67A.73.73,0,0,1,6.27-26.71ZM4.18-27.83A.73.73,0,0,1,4-28.32a.71.71,0,0,1,.2-.52l2.32-2.49a.72.72,0,0,1,1,0,.72.72,0,0,1,0,1l-.47.51-.65.69L5.19-27.86A.72.72,0,0,1,4.18-27.83ZM3.1-30a.75.75,0,0,1-.23-.5A.7.7,0,0,1,3.06-31l1.7-1.82a.73.73,0,0,1,.52-.23.71.71,0,0,1,.49.2.73.73,0,0,1,.23.5.74.74,0,0,1-.2.52L4.1-30a.67.67,0,0,1-.49.23A.74.74,0,0,1,3.1-30Zm19.6-6.47L21-38.65A1.6,1.6,0,0,0,18.86-39l-1.44.9a1.54,1.54,0,0,1-1.54,0l-1.15-.64a2.43,2.43,0,0,0-2.51.09l-.27.17-.26-.16a3,3,0,0,0-2.92-.13l-.4.21a2.65,2.65,0,0,1-2.45-.07l-.27-.15a2,2,0,0,0-2.41.41L1.32-36.16A1.6,1.6,0,0,0,.92-35a1.61,1.61,0,0,0,.57,1.11L3.2-32.42l-.76.83A1.55,1.55,0,0,0,2-30.47a1.59,1.59,0,0,0,.5,1.1,1.83,1.83,0,0,0,.74.39,1.49,1.49,0,0,0-.14.7,1.51,1.51,0,0,0,.5,1.09h0a1.56,1.56,0,0,0,1.07.42,1.54,1.54,0,0,0,.56-.1,1.68,1.68,0,0,0,.45.8h0a1.6,1.6,0,0,0,1.08.42,1.63,1.63,0,0,0,.8-.22,1.42,1.42,0,0,0,.42.69H8a1.56,1.56,0,0,0,1.07.42,1.52,1.52,0,0,0,1.15-.5l.67-.71,1.06.88a1.5,1.5,0,0,0,.94.35,1.48,1.48,0,0,0,1.1-.49,1.3,1.3,0,0,0,.31-.56l.32.29a1.61,1.61,0,0,0,2.24-.11,1.65,1.65,0,0,0,.4-.83,1.54,1.54,0,0,0,1.6-.43,1.56,1.56,0,0,0,.34-1.41,1.4,1.4,0,0,0,.83-.47,1.47,1.47,0,0,0,.38-1.08,1.48,1.48,0,0,0-.51-1l-.12-.1,2.87-3.26A1.77,1.77,0,0,0,22.7-36.48Z"/></clipPath></defs><path d="M22-34.79l-2.88,3.27-4.52-3.86a2.12,2.12,0,0,0-1.41-.52,2.07,2.07,0,0,0-1,.24l-.63.31a.75.75,0,0,1-1-.25.75.75,0,0,1-.12-.58.76.76,0,0,1,.34-.5L12.7-37.9A1.55,1.55,0,0,1,14.33-38l1.15.64a2.37,2.37,0,0,0,2.4-.06l1.44-.9a.75.75,0,0,1,1,.17L22-35.93A.89.89,0,0,1,22-34.79ZM19.4-29.33a.6.6,0,0,1-.43.2.59.59,0,0,1-.46-.16L15.59-32A.43.43,0,0,0,15-32a.43.43,0,0,0,0,.6l3.18,3a.69.69,0,0,1,0,.95.67.67,0,0,1-1,.05l-.51-.47h0l-2.47-2.23a.44.44,0,0,0-.61,0,.44.44,0,0,0,0,.61l2.47,2.24a.75.75,0,0,1,.24.51.78.78,0,0,1-.19.54.75.75,0,0,1-1,.05L13.85-27.3h0l-1.25-1.14a.44.44,0,0,0-.61,0,.43.43,0,0,0,0,.6l1.26,1.13a.63.63,0,0,1,.21.42.57.57,0,0,1-.16.45.61.61,0,0,1-.86.05l-1.12-.94a1.6,1.6,0,0,0-.42-1.67,1.58,1.58,0,0,0-1.12-.42H9.75a1.55,1.55,0,0,0-.49-1.14,1.7,1.7,0,0,0-.79-.4A1.54,1.54,0,0,0,8.05-32a1.57,1.57,0,0,0-1.22-.42h0a1.47,1.47,0,0,0-.5-1.09,1.57,1.57,0,0,0-2.22.08L3.77-33,2-34.52A.78.78,0,0,1,1.75-35a.83.83,0,0,1,.19-.56l1.93-2.19A1.08,1.08,0,0,1,5.22-38l.27.15a3.5,3.5,0,0,0,3.24.09L9.14-38a2.19,2.19,0,0,1,2,0l-.82.53a1.65,1.65,0,0,0-.71,1,1.69,1.69,0,0,0,.26,1.24,1.64,1.64,0,0,0,2,.52l.63-.32a1.35,1.35,0,0,1,1.46.18l4.84,4.13.45.39a.6.6,0,0,1,.22.43A.52.52,0,0,1,19.4-29.33ZM9.59-25.86a.72.72,0,0,1-1,0,.72.72,0,0,1,0-1l.81-.87a.72.72,0,0,1,.5-.22.66.66,0,0,1,.52.19.72.72,0,0,1,0,1Zm-3.32-.85a.73.73,0,0,1-.23-.5.72.72,0,0,1,.2-.52L7-28.57l.65-.7a.71.71,0,0,1,1,0,.72.72,0,0,1,0,1l-.19.19-.63.68-.62.67A.73.73,0,0,1,6.27-26.71ZM4.18-27.83A.73.73,0,0,1,4-28.32a.71.71,0,0,1,.2-.52l2.32-2.49a.72.72,0,0,1,1,0,.72.72,0,0,1,0,1l-.47.51-.65.69L5.19-27.86A.72.72,0,0,1,4.18-27.83ZM3.1-30a.75.75,0,0,1-.23-.5A.7.7,0,0,1,3.06-31l1.7-1.82a.73.73,0,0,1,.52-.23.71.71,0,0,1,.49.2.73.73,0,0,1,.23.5.74.74,0,0,1-.2.52L4.1-30a.67.67,0,0,1-.49.23A.74.74,0,0,1,3.1-30Zm19.6-6.47L21-38.65A1.6,1.6,0,0,0,18.86-39l-1.44.9a1.54,1.54,0,0,1-1.54,0l-1.15-.64a2.43,2.43,0,0,0-2.51.09l-.27.17-.26-.16a3,3,0,0,0-2.92-.13l-.4.21a2.65,2.65,0,0,1-2.45-.07l-.27-.15a2,2,0,0,0-2.41.41L1.32-36.16A1.6,1.6,0,0,0,.92-35a1.61,1.61,0,0,0,.57,1.11L3.2-32.42l-.76.83A1.55,1.55,0,0,0,2-30.47a1.59,1.59,0,0,0,.5,1.1,1.83,1.83,0,0,0,.74.39,1.49,1.49,0,0,0-.14.7,1.51,1.51,0,0,0,.5,1.09h0a1.56,1.56,0,0,0,1.07.42,1.54,1.54,0,0,0,.56-.1,1.68,1.68,0,0,0,.45.8h0a1.6,1.6,0,0,0,1.08.42,1.63,1.63,0,0,0,.8-.22,1.42,1.42,0,0,0,.42.69H8a1.56,1.56,0,0,0,1.07.42,1.52,1.52,0,0,0,1.15-.5l.67-.71,1.06.88a1.5,1.5,0,0,0,.94.35,1.48,1.48,0,0,0,1.1-.49,1.3,1.3,0,0,0,.31-.56l.32.29a1.61,1.61,0,0,0,2.24-.11,1.65,1.65,0,0,0,.4-.83,1.54,1.54,0,0,0,1.6-.43,1.56,1.56,0,0,0,.34-1.41,1.4,1.4,0,0,0,.83-.47,1.47,1.47,0,0,0,.38-1.08,1.48,1.48,0,0,0-.51-1l-.12-.1,2.87-3.26A1.77,1.77,0,0,0,22.7-36.48Z"/>
<path class="cls-2" d="M7.71,4.29a1,1,0,0,1,0,1.42L4.41,9H14a9,9,0,0,1,9,9v1a1,1,0,0,1-2,0V18a7,7,0,0,0-7-7H4.41l3.3,3.29a1,1,0,1,1-1.42,1.42l-5-5a1,1,0,0,1,0-1.42l5-5A1,1,0,0,1,7.71,4.29Z"/></svg>