<svg id="Camada_1" data-name="Camada 1" xmlns="http://www.w3.org/2000/svg" viewBox="0 0 24 24"><defs><style>.cls-1{fill-rule:evenodd;}</style></defs><path class="cls-1" d="M3.43,3A.43.43,0,0,0,3,3.43V20.57a.43.43,0,0,0,.43.43H6.71V17.71a2.42,2.42,0,0,1,2.43-2.42h5.72a2.42,2.42,0,0,1,2.43,2.42V21h3.28a.43.43,0,0,0,.43-.43V8.31A.44.44,0,0,0,20.87,8L16,3.13A.44.44,0,0,0,15.69,3ZM15.29,21V17.71a.43.43,0,0,0-.43-.42H9.14a.43.43,0,0,0-.43.42V21ZM1,3.43A2.43,2.43,0,0,1,3.43,1H15.69a2.44,2.44,0,0,1,1.72.71l4.88,4.88A2.44,2.44,0,0,1,23,8.31V20.57A2.43,2.43,0,0,1,20.57,23H3.43A2.43,2.43,0,0,1,1,20.57ZM12,7a2,2,0,1,0,2,2A2,2,0,0,0,12,7ZM8,9a4,4,0,1,1,4,4A4,4,0,0,1,8,9Z"/></svg>