<svg id="Camada_1" data-name="Camada 1" xmlns="http://www.w3.org/2000/svg" viewBox="0 0 24 24"><title>chart-line</title><path d="M7.88675,14.71355a.685.685,0,0,0,.48537-.20063l3.6446-3.64485,1.99311,1.99286a.70216.70216,0,0,0,.97048,0l3.7841-3.7851v.67976a.6865.6865,0,0,0,1.373,0l-.001-2.27335a.72261.72261,0,0,0,.00648-.09383.68718.68718,0,0,0-.68649-.68624H17.12016a.6865.6865,0,1,0,0,1.373h.70471L14.495,11.40459,12.50208,9.41222a.70247.70247,0,0,0-.97073,0l-4.13,4.13a.686.686,0,0,0,.48536,1.17136Z"/><path d="M20.104,19.41747H4.58228V3.89579a.68637.68637,0,0,0-1.37274,0V20.10421a.6867.6867,0,0,0,.68649.68625H20.104a.6865.6865,0,0,0,0-1.373Z"/></svg>