<svg id="Camada_1" data-name="Camada 1" xmlns="http://www.w3.org/2000/svg" viewBox="0 0 24 24"><defs><style>.cls-1{fill-rule:evenodd;}.cls-2{opacity:0.32;isolation:isolate;}</style></defs><path class="cls-1" d="M22.71,5.29a1,1,0,0,1,0,1.42l-3,3A1,1,0,0,1,19,10H16.49l-3.2,4.11a1,1,0,0,1-.73.39,1,1,0,0,1-.77-.29L8,10.41l-5.29,5.3a1,1,0,0,1-1.42-1.42l6-6a1,1,0,0,1,1.42,0l3.7,3.7,2.8-3.6A1,1,0,0,1,16,8h2.59l2.7-2.71A1,1,0,0,1,22.71,5.29Z"/><path class="cls-2" d="M8,12,1,19H23V8l-2.71,2.71a1,1,0,0,1-.7.29H17l-3.8,4.64a1,1,0,0,1-1.48.08Z"/></svg>