<svg id="Camada_1" data-name="Camada 1" xmlns="http://www.w3.org/2000/svg" viewBox="0 0 24 24"><defs><style>.cls-1{fill:none;}</style></defs><circle class="cls-1" cx="12" cy="12" r="9.17"/><circle class="cls-1" cx="12" cy="12" r="9.17"/><path d="M12,1A11,11,0,1,0,23,12,11,11,0,0,0,12,1Zm0,20.17A9.17,9.17,0,1,1,21.17,12,9.18,9.18,0,0,1,12,21.17Z"/><path d="M16.58,11.08H12.92V7.42a.92.92,0,0,0-1.84,0v3.66H7.42a.92.92,0,0,0,0,1.84h3.66v3.66a.92.92,0,1,0,1.84,0V12.92h3.66a.92.92,0,0,0,0-1.84Z"/></svg>