<svg id="Camada_1" data-name="Camada 1" xmlns="http://www.w3.org/2000/svg" viewBox="0 0 24 24"><title>circle-more</title><path d="M14.56824,11.77606l-2.129.02741.02734-2.12909a.29836.29836,0,0,0-.3031-.3031.31526.31526,0,0,0-.31006.31012l-.02722,2.05786-2.05786.02722a.31535.31535,0,0,0-.31012.31012.2984.2984,0,0,0,.3031.3031l2.12915-.02747L11.863,14.48138a.29838.29838,0,0,0,.3031.3031.31535.31535,0,0,0,.31012-.31011l.02716-2.05793,2.05792-.02716a.31535.31535,0,0,0,.31006-.31012A.29836.29836,0,0,0,14.56824,11.77606Z"/><path d="M12.0001,2.8559A9.1441,9.1441,0,1,0,21.144,12,9.15439,9.15439,0,0,0,12.0001,2.8559Zm0,17.80361A8.65971,8.65971,0,1,1,20.6596,12,8.66941,8.66941,0,0,1,12.0001,20.65951Z"/></svg>