<svg id="Camada_1" data-name="Camada 1" xmlns="http://www.w3.org/2000/svg" viewBox="0 0 24 24"><title>config</title><path d="M12.59631,21.144H11.411a1.07922,1.07922,0,0,1-.91459-.50668c-.086-.13536-.61094-1.01519-.878-1.5365l-.94751-.38962c-.578.18292-1.61881.44266-1.70844.46461a1.08283,1.08283,0,0,1-1.00787-.289L5.115,18.04722a1.08105,1.08105,0,0,1-.289-1.00787c.03659-.15731.28535-1.15054.46461-1.70844L4.901,14.38706c-.54875-.278-1.46334-.83227-1.5365-.878a1.0792,1.0792,0,0,1-.50668-.91459v-1.189a1.0792,1.0792,0,0,1,.50668-.91459c.13536-.086,1.01519-.61094,1.5365-.878l.38961-.94385c-.18292-.578-.44266-1.61881-.46461-1.70844a1.08288,1.08288,0,0,1,.289-1.00787l.83959-.83959a1.08106,1.08106,0,0,1,1.00787-.289c.15731.03658,1.15055.28535,1.70844.46461l.94385-.38961c.278-.54875.83228-1.46334.878-1.5365a1.07917,1.07917,0,0,1,.91458-.50668h1.1853a1.07918,1.07918,0,0,1,.91458.50668c.086.13535.611,1.01518.878,1.5365l.94385.38961c.578-.18292,1.61882-.44266,1.70845-.46461a1.08288,1.08288,0,0,1,1.00787.289l.83959.83959a1.08106,1.08106,0,0,1,.289,1.00787c-.03658.15731-.28535,1.15055-.46461,1.70844l.38961.94385c.54875.278,1.46334.83227,1.5365.878a1.0792,1.0792,0,0,1,.50668.91459v1.1853a1.07918,1.07918,0,0,1-.50668.91458c-.13536.086-1.01519.61094-1.5365.878l-.3823.94751c.18292.578.44266,1.61882.46461,1.70844a1.08285,1.08285,0,0,1-.289,1.00788l-.83959.83959a1.08285,1.08285,0,0,1-1.00787.289c-.15731-.03658-1.15054-.28535-1.70844-.4646l-.94385.38961c-.278.54875-.83227,1.46333-.878,1.5365A1.07922,1.07922,0,0,1,12.59631,21.144Zm-3.898-3.51932,1.65906.68959.08231.18292c.16828.36584.77557,1.39383.91458,1.60418a.06953.06953,0,0,0,.06037.03293H12.6a.0695.0695,0,0,0,.06036-.03293c.10792-.17194.73167-1.21456.91458-1.60418l.08232-.18292,1.66454-.68959.18292.06768c.37863.139,1.53284.43534,1.77612.49387a.06218.06218,0,0,0,.064-.01829l.83959-.83959a.064.064,0,0,0,.01829-.064c-.04573-.19572-.34206-1.37553-.49388-1.77612l-.06768-.18292.68594-1.66088.18292-.08231c.36583-.16829,1.39382-.77557,1.60418-.91459a.06951.06951,0,0,0,.03292-.06036v-1.1853a.06951.06951,0,0,0-.03292-.06036h0c-.17194-.10792-1.21457-.73167-1.60418-.91459l-.18292-.08231-.6896-1.66454.06768-.18292c.139-.37864.43535-1.53284.49388-1.77612a.06954.06954,0,0,0-.01829-.064l-.83959-.83959a.064.064,0,0,0-.064-.01829c-.19572.04573-1.37188.342-1.77612.49387l-.18292.06768-1.6682-.68594-.08231-.18291C13.39931,5.126,12.792,4.098,12.653,3.88764a.0695.0695,0,0,0-.06036-.03293h-1.178a.06952.06952,0,0,0-.06037.03293c-.10792.17194-.73166,1.21457-.91458,1.60418l-.08231.18291-1.66455.6896L8.51,6.29665c-.37864-.139-1.53285-.43534-1.77613-.49387a.06218.06218,0,0,0-.064.01829l-.83958.83959a.064.064,0,0,0-.0183.064c.04573.19572.34206,1.37553.49388,1.77612l.06768.18292-.68594,1.6682-.18292.08231c-.36583.16828-1.39382.77557-1.60418.91458a.06954.06954,0,0,0-.03292.06037v1.1853a.06951.06951,0,0,0,.03292.06036c.172.10792,1.21457.73167,1.60418.91458l.18292.08232.6896,1.66454-.06768.18292c-.139.37863-.43534,1.53284-.49388,1.77612a.06954.06954,0,0,0,.01829.064l.83959.83959a.064.064,0,0,0,.064.01829c.19572-.04573,1.37188-.34206,1.77613-.49388Zm3.30531-1.35359a4.27294,4.27294,0,1,1,4.27293-4.27293h0A4.28024,4.28024,0,0,1,12.00366,16.2711Zm0-7.53434a3.26141,3.26141,0,1,0,3.2614,3.26141h0A3.26506,3.26506,0,0,0,12.00366,8.73676Z"/></svg>