<svg id="Camada_1" data-name="Camada 1" xmlns="http://www.w3.org/2000/svg" viewBox="0 0 24 24"><title>console</title><path d="M17.44177,3.51274H6.558A3.04883,3.04883,0,0,0,3.51246,6.558V17.44168A3.04891,3.04891,0,0,0,6.558,20.48726H17.44177a3.04907,3.04907,0,0,0,3.04577-3.04558V6.558A3.049,3.049,0,0,0,17.44177,3.51274Zm1.728,13.95279a1.73,1.73,0,0,1-1.728,1.72836H6.558a1.73,1.73,0,0,1-1.728-1.72836V6.558A1.73,1.73,0,0,1,6.558,4.83H17.44177a1.73,1.73,0,0,1,1.728,1.728Z"/><path d="M11.55375,13.31965a.66324.66324,0,0,0,.1981-.46032.65518.65518,0,0,0-.19773-.46032L8.35553,9.20023a.66242.66242,0,0,0-.43926-.26314.67411.67411,0,0,0-.09449-.00671.65873.65873,0,0,0-.52573,1.05408.66065.66065,0,0,0,.13194.13195l2.71945,2.74292-.04007.04026L7.43414,15.59666a.663.663,0,0,0-.26333.43908.6588.6588,0,0,0,1.04756.62022.66261.66261,0,0,0,.13176-.13157Z"/><path d="M16.1292,15.11249H12.16708a.65862.65862,0,1,0,0,1.31723H16.1292a.65862.65862,0,1,0,0-1.31723Z"/></svg>