<svg id="Camada_1" data-name="Camada 1" xmlns="http://www.w3.org/2000/svg" viewBox="0 0 24 24"><title>coupom</title><path d="M20.29061,3.73282a2.20392,2.20392,0,0,0-1.58418-.66206l-4.82223.07162a3.75045,3.75045,0,0,0-2.60909,1.10418L3.72124,11.80011a2.2204,2.2204,0,0,0,0,3.14l5.33851,5.33914a2.22041,2.22041,0,0,0,3.14-.00063l7.55355-7.55387a3.74942,3.74942,0,0,0,1.10386-2.6091l.07161-4.79135A2.2049,2.2049,0,0,0,20.29061,3.73282ZM12.20772,18.6203l-.833.833a1.07936,1.07936,0,0,1-1.48963.00032L4.54627,14.11478a1.05352,1.05352,0,0,1,0-1.489l.83362-.83331ZM19.76159,5.30681,19.69,10.09848a2.5917,2.5917,0,0,1-.76169,1.80157L13.03307,17.795,6.20524,10.96712l5.8949-5.89553a2.59222,2.59222,0,0,1,1.80157-.762L18.7093,4.238a1.0537,1.0537,0,0,1,1.05229,1.06885Z"/><path d="M17.69106,6.30913a2.11592,2.11592,0,1,0,.61845,1.49474A2.09941,2.09941,0,0,0,17.69106,6.30913Zm-.82567,2.16475a.97074.97074,0,0,1-1.33908,0,.9471.9471,0,1,1,1.33908,0Z"/></svg>