<svg width="32" height="32" viewBox="0 0 32 32" fill="none" xmlns="http://www.w3.org/2000/svg">
<path fill-rule="evenodd" clip-rule="evenodd" d="M6.46666 4.20001C6.45396 4.20001 6.44127 4.20031 6.42859 4.20092C5.82492 4.22968 5.25579 4.49089 4.84038 4.92984C4.42572 5.36799 4.19633 5.94931 4.19999 6.55247V22.6831H4.19996L4.20003 22.6906C4.20278 22.9866 4.26529 23.279 4.38381 23.5502C4.50233 23.8215 4.67441 24.066 4.88974 24.2692C5.10508 24.4723 5.35922 24.6298 5.63693 24.7323C5.90781 24.8323 6.19567 24.878 6.48405 24.8667H11.6C12.0418 24.8667 12.4 24.5085 12.4 24.0667C12.4 23.6249 12.0418 23.2667 11.6 23.2667H6.46666C6.45359 23.2667 6.44052 23.267 6.42747 23.2676C6.347 23.2716 6.26657 23.2592 6.191 23.2313C6.11542 23.2034 6.04626 23.1606 5.98766 23.1053C5.92906 23.05 5.88223 22.9835 5.84997 22.9096C5.81811 22.8367 5.80112 22.7582 5.79999 22.6786V6.54979H5.80002L5.79997 6.5438C5.79854 6.35269 5.87111 6.16843 6.00248 6.02962C6.13027 5.89459 6.30406 5.81274 6.48916 5.80001H16.8593H16.8595C17.036 5.8001 17.2053 5.8702 17.3302 5.99494L17.3303 5.99505L17.3304 5.99512L20.1382 8.80294C20.2631 8.92787 20.3332 9.09725 20.3333 9.27388V9.27405V11.6C20.3333 12.0418 20.6915 12.4 21.1333 12.4C21.5752 12.4 21.9333 12.0418 21.9333 11.6V9.27388V9.27371C21.9332 8.67297 21.6946 8.09685 21.27 7.67193L21.2698 7.67175L18.4616 4.86357L18.4614 4.86339C18.0365 4.43874 17.4604 4.20014 16.8596 4.20001H16.8595H6.46666ZM13.1333 10.8667C13.1333 10.4248 12.7751 10.0667 12.3333 10.0667C11.8914 10.0667 11.5333 10.4248 11.5333 10.8667V17.4H10.1999V13.8C10.1999 13.3582 9.84177 13 9.39995 13C8.95812 13 8.59995 13.3582 8.59995 13.8V17.4H7.93327C7.49144 17.4 7.13327 17.7581 7.13327 18.2C7.13327 18.6418 7.49144 19 7.93327 19H9.39215L9.39995 19L9.40774 19H12.3274L12.3333 19C12.6094 19 12.8529 18.8601 12.9966 18.6473C13.0829 18.5196 13.1333 18.3657 13.1333 18.2L13.1333 18.2L13.1333 18.1967V10.8667ZM16.4192 16.4193C17.6695 15.1691 19.3652 14.4667 21.1333 14.4667C22.9014 14.4667 24.5971 15.1691 25.8473 16.4193C27.0976 17.6695 27.7999 19.3652 27.7999 21.1333C27.7999 22.9015 27.0976 24.5971 25.8473 25.8474C24.5971 27.0976 22.9014 27.8 21.1333 27.8C19.3652 27.8 17.6695 27.0976 16.4192 25.8474C15.169 24.5971 14.4666 22.9015 14.4666 21.1333C14.4666 19.3652 15.169 17.6695 16.4192 16.4193ZM21.1333 16.0667C19.7895 16.0667 18.5008 16.6005 17.5506 17.5507C16.6004 18.5009 16.0666 19.7896 16.0666 21.1333C16.0666 22.4771 16.6004 23.7658 17.5506 24.716C18.5008 25.6662 19.7895 26.2 21.1333 26.2C22.477 26.2 23.7658 25.6662 24.716 24.716C25.6661 23.7658 26.1999 22.4771 26.1999 21.1333C26.1999 19.7896 25.6661 18.5009 24.716 17.5507C23.7658 16.6005 22.477 16.0667 21.1333 16.0667ZM15.2666 11.5333C15.7084 11.5333 16.0666 11.8915 16.0666 12.3333V13.8C16.0666 14.2418 15.7084 14.6 15.2666 14.6C14.8248 14.6 14.4666 14.2418 14.4666 13.8V12.3333C14.4666 11.8915 14.8248 11.5333 15.2666 11.5333ZM21.9398 17.32C21.9398 16.8782 21.5816 16.52 21.1398 16.52C20.698 16.52 20.3398 16.8782 20.3398 17.32V17.7955C19.8286 17.8206 19.3725 18.072 19.0531 18.4506C18.7197 18.8458 18.5499 19.3569 18.5499 19.867C18.5499 20.3771 18.7197 20.8881 19.0531 21.2834C19.39 21.6827 19.879 21.9406 20.4243 21.9406H21.8568C21.8814 21.9406 21.9389 21.9511 22.005 22.0294C22.0746 22.1119 22.1312 22.2487 22.1312 22.4142C22.1312 22.5796 22.0746 22.7164 22.005 22.7989C21.9389 22.8772 21.8814 22.8877 21.8568 22.8877H20.4549C20.4326 22.8844 20.3991 22.8728 20.359 22.8376C20.3101 22.7946 20.2566 22.7196 20.2242 22.6107C20.0983 22.1872 19.6529 21.9459 19.2294 22.0719C18.8059 22.1978 18.5646 22.6432 18.6906 23.0667C18.8007 23.4372 19.0076 23.7802 19.3033 24.0399C19.5904 24.292 19.9496 24.454 20.3398 24.4839V24.9615C20.3398 25.4034 20.698 25.7615 21.1398 25.7615C21.5816 25.7615 21.9398 25.4034 21.9398 24.9615V24.4857C22.4516 24.4611 22.9083 24.2095 23.228 23.8306C23.5614 23.4353 23.7312 22.9243 23.7312 22.4142C23.7312 21.904 23.5614 21.393 23.228 20.9978C22.8911 20.5984 22.4021 20.3406 21.8568 20.3406H20.4243C20.3997 20.3406 20.3422 20.3301 20.2761 20.2517C20.2066 20.1693 20.1499 20.0324 20.1499 19.867C20.1499 19.7016 20.2066 19.5647 20.2761 19.4823C20.3422 19.4039 20.3997 19.3934 20.4243 19.3934H21.1218L21.1398 19.3936L21.1578 19.3934H21.8263C21.8485 19.3967 21.882 19.4083 21.9221 19.4435C21.971 19.4865 22.0245 19.5615 22.0569 19.6705C22.1829 20.094 22.6282 20.3352 23.0518 20.2093C23.4753 20.0834 23.7165 19.638 23.5906 19.2145C23.4804 18.8439 23.2736 18.5009 22.9778 18.2413C22.6904 17.9889 22.3306 17.8268 21.9398 17.7971V17.32Z" />
</svg>