<svg id="Camada_1" data-name="Camada 1" xmlns="http://www.w3.org/2000/svg" viewBox="0 0 24 24"><defs><style>.cls-1{fill:#1e2b3d;}.cls-2{fill:#8cabc8;}</style></defs><title>diamond-blue-dark</title><path class="cls-1" d="M12.00017,19.96194a.72693.72693,0,0,1-.53222-.23208L2.65888,10.23448a.72576.72576,0,0,1-.19379-.49394V9.05423A.72579.72579,0,0,1,2.60452,8.626l2.8601-3.9184a.742.742,0,0,1,.2042-.18906l.60028-.372a.72809.72809,0,0,1,.38239-.10871h10.6969a.72806.72806,0,0,1,.38238.10871l.60076.372a.72254.72254,0,0,1,.20419.18954l2.85963,3.9184a.72458.72458,0,0,1,.139.45659L21.506,9.7982a.72872.72872,0,0,1-.19332.46511L12.5324,19.72986A.72616.72616,0,0,1,12.00017,19.96194Z"/><path class="cls-1" d="M17.3483,4.76408l.60061.37175L20.809,9.05411l-.0286.715L12,19.23592,3.191,9.74054V9.05411L6.05108,5.13583l.60061-.37175H17.3483m0-1.452H6.65169a1.45154,1.45154,0,0,0-.76421.21743l-.60061.37175a1.45116,1.45116,0,0,0-.40862.37848L2.01818,8.198a1.45249,1.45249,0,0,0-.2792.85611v.68643a1.45191,1.45191,0,0,0,.38753.98752l8.809,9.49538A1.45231,1.45231,0,0,0,12,20.688h.00008a1.452,1.452,0,0,0,1.06454-.46463L21.845,10.75653a1.452,1.452,0,0,0,.38626-.92937l.0286-.715a1.45241,1.45241,0,0,0-.27805-.91413L19.12174,4.27971a1.451,1.451,0,0,0-.40862-.37848l-.60061-.37175a1.45154,1.45154,0,0,0-.76421-.21743Z"/><path class="cls-2" d="M11.8856,19.236a.40771.40771,0,0,0,.34321-.17161L20.666,9.76918H14.94586l-2.71705,8.72317c0,.0286,0,.0286-.0286.0286,0,.0286,0,.0286-.0286.0286-.0286.0286-.0286.0572-.05721.0572l-.0286.0286a.21682.21682,0,0,1-.1144.0572h-.0858a.21619.21619,0,0,1-.1144-.0286h0a.21688.21688,0,0,1-.11441-.0572l-.0286-.0286-.0572-.0572a.09985.09985,0,0,1-.0286-.0572l-.0286-.0286L9.02554,9.74058H3.07662l8.43717,9.29518A.4502.4502,0,0,0,11.8856,19.236Z"/><polygon class="cls-2" points="8.797 9.054 5.937 5.136 3.077 9.054 8.797 9.054"/><polygon class="cls-2" points="14.202 9.769 9.798 9.769 11.914 17.148 14.202 9.769"/><path class="cls-2" d="M17.23391,4.76407H6.53729L9.22575,8.45355l2.37384-3.31767a.35751.35751,0,0,1,.572,0l2.60266,3.34627Z"/><polygon class="cls-2" points="11.914 5.965 9.683 9.054 14.317 9.054 11.914 5.965"/><polygon class="cls-2" points="17.835 5.136 15.232 9.054 20.695 9.054 17.835 5.136"/></svg>