<svg id="Camada_1" data-name="Camada 1" xmlns="http://www.w3.org/2000/svg" xmlns:xlink="http://www.w3.org/1999/xlink" viewBox="0 0 24 24"><defs><style>.cls-1{clip-path:url(#clip-path);}.cls-2{fill:none;}</style><clipPath id="clip-path"><path d="M22-122.79l-2.88,3.27-4.52-3.86a2.12,2.12,0,0,0-1.41-.52,2.07,2.07,0,0,0-1,.24l-.63.31a.75.75,0,0,1-1-.25.75.75,0,0,1-.12-.58.76.76,0,0,1,.34-.5l1.86-1.22a1.55,1.55,0,0,1,1.63-.06l1.15.64a2.37,2.37,0,0,0,2.4-.06l1.44-.9a.75.75,0,0,1,1,.17L22-123.93A.89.89,0,0,1,22-122.79Zm-2.61,5.46a.6.6,0,0,1-.43.2.59.59,0,0,1-.46-.16L15.59-120a.43.43,0,0,0-.61,0,.43.43,0,0,0,0,.6l3.18,3a.69.69,0,0,1,0,1,.67.67,0,0,1-1,0l-.51-.47h0l-2.47-2.23a.44.44,0,0,0-.61,0,.44.44,0,0,0,0,.61l2.47,2.24a.75.75,0,0,1,.24.51.78.78,0,0,1-.19.54.75.75,0,0,1-1,.05l-1.32-1.17h0l-1.25-1.14a.44.44,0,0,0-.61,0,.43.43,0,0,0,0,.6l1.26,1.13a.63.63,0,0,1,.21.42.57.57,0,0,1-.16.45.61.61,0,0,1-.86,0l-1.12-.94a1.6,1.6,0,0,0-.42-1.67,1.58,1.58,0,0,0-1.12-.42H9.75a1.55,1.55,0,0,0-.49-1.14,1.7,1.7,0,0,0-.79-.4A1.54,1.54,0,0,0,8.05-120a1.57,1.57,0,0,0-1.22-.42h0a1.47,1.47,0,0,0-.5-1.09,1.57,1.57,0,0,0-2.22.08l-.34.38L2-122.52a.78.78,0,0,1-.27-.52.83.83,0,0,1,.19-.56l1.93-2.19A1.08,1.08,0,0,1,5.22-126l.27.15a3.5,3.5,0,0,0,3.24.09l.41-.21a2.19,2.19,0,0,1,2,0l-.82.53a1.65,1.65,0,0,0-.71,1,1.69,1.69,0,0,0,.26,1.24,1.64,1.64,0,0,0,2,.52l.63-.32a1.35,1.35,0,0,1,1.46.18l4.84,4.13.45.39a.6.6,0,0,1,.22.43A.52.52,0,0,1,19.4-117.33Zm-9.81,3.47a.72.72,0,0,1-1,0,.72.72,0,0,1,0-1l.81-.87a.72.72,0,0,1,.5-.22.66.66,0,0,1,.52.19.72.72,0,0,1,0,1Zm-3.32-.85a.73.73,0,0,1-.23-.5.72.72,0,0,1,.2-.52l.79-.84.65-.7a.71.71,0,0,1,1,0,.72.72,0,0,1,0,1l-.19.19-.63.68-.62.67A.73.73,0,0,1,6.27-114.71Zm-2.09-1.12a.73.73,0,0,1-.23-.49.71.71,0,0,1,.2-.52l2.32-2.49a.72.72,0,0,1,1,0,.72.72,0,0,1,0,1l-.47.51-.65.69-1.21,1.29A.72.72,0,0,1,4.18-115.83ZM3.1-118a.75.75,0,0,1-.23-.5.7.7,0,0,1,.19-.52l1.7-1.82a.73.73,0,0,1,.52-.23.71.71,0,0,1,.49.2.73.73,0,0,1,.23.5.74.74,0,0,1-.2.52L4.1-118a.67.67,0,0,1-.49.23A.74.74,0,0,1,3.1-118Zm19.6-6.47L21-126.65a1.6,1.6,0,0,0-2.11-.36l-1.44.9a1.54,1.54,0,0,1-1.54,0l-1.15-.64a2.43,2.43,0,0,0-2.51.09l-.27.17-.26-.16a3,3,0,0,0-2.92-.13l-.4.21a2.65,2.65,0,0,1-2.45-.07l-.27-.15a2,2,0,0,0-2.41.41l-1.92,2.18A1.6,1.6,0,0,0,.92-123a1.61,1.61,0,0,0,.57,1.11l1.71,1.44-.76.83A1.55,1.55,0,0,0,2-118.47a1.59,1.59,0,0,0,.5,1.1,1.83,1.83,0,0,0,.74.39,1.49,1.49,0,0,0-.14.7,1.51,1.51,0,0,0,.5,1.09h0a1.56,1.56,0,0,0,1.07.42,1.54,1.54,0,0,0,.56-.1,1.68,1.68,0,0,0,.45.8h0a1.6,1.6,0,0,0,1.08.42,1.63,1.63,0,0,0,.8-.22,1.42,1.42,0,0,0,.42.69H8a1.56,1.56,0,0,0,1.07.42,1.52,1.52,0,0,0,1.15-.5l.67-.71,1.06.88a1.5,1.5,0,0,0,.94.35,1.48,1.48,0,0,0,1.1-.49,1.3,1.3,0,0,0,.31-.56l.32.29a1.61,1.61,0,0,0,2.24-.11,1.65,1.65,0,0,0,.4-.83,1.54,1.54,0,0,0,1.6-.43,1.56,1.56,0,0,0,.34-1.41,1.4,1.4,0,0,0,.83-.47,1.47,1.47,0,0,0,.38-1.08,1.48,1.48,0,0,0-.51-1l-.12-.1,2.87-3.26A1.77,1.77,0,0,0,22.7-124.48Z"/></clipPath></defs><path d="M22-122.79l-2.88,3.27-4.52-3.86a2.12,2.12,0,0,0-1.41-.52,2.07,2.07,0,0,0-1,.24l-.63.31a.75.75,0,0,1-1-.25.75.75,0,0,1-.12-.58.76.76,0,0,1,.34-.5l1.86-1.22a1.55,1.55,0,0,1,1.63-.06l1.15.64a2.37,2.37,0,0,0,2.4-.06l1.44-.9a.75.75,0,0,1,1,.17L22-123.93A.89.89,0,0,1,22-122.79Zm-2.61,5.46a.6.6,0,0,1-.43.2.59.59,0,0,1-.46-.16L15.59-120a.43.43,0,0,0-.61,0,.43.43,0,0,0,0,.6l3.18,3a.69.69,0,0,1,0,1,.67.67,0,0,1-1,0l-.51-.47h0l-2.47-2.23a.44.44,0,0,0-.61,0,.44.44,0,0,0,0,.61l2.47,2.24a.75.75,0,0,1,.24.51.78.78,0,0,1-.19.54.75.75,0,0,1-1,.05l-1.32-1.17h0l-1.25-1.14a.44.44,0,0,0-.61,0,.43.43,0,0,0,0,.6l1.26,1.13a.63.63,0,0,1,.21.42.57.57,0,0,1-.16.45.61.61,0,0,1-.86,0l-1.12-.94a1.6,1.6,0,0,0-.42-1.67,1.58,1.58,0,0,0-1.12-.42H9.75a1.55,1.55,0,0,0-.49-1.14,1.7,1.7,0,0,0-.79-.4A1.54,1.54,0,0,0,8.05-120a1.57,1.57,0,0,0-1.22-.42h0a1.47,1.47,0,0,0-.5-1.09,1.57,1.57,0,0,0-2.22.08l-.34.38L2-122.52a.78.78,0,0,1-.27-.52.83.83,0,0,1,.19-.56l1.93-2.19A1.08,1.08,0,0,1,5.22-126l.27.15a3.5,3.5,0,0,0,3.24.09l.41-.21a2.19,2.19,0,0,1,2,0l-.82.53a1.65,1.65,0,0,0-.71,1,1.69,1.69,0,0,0,.26,1.24,1.64,1.64,0,0,0,2,.52l.63-.32a1.35,1.35,0,0,1,1.46.18l4.84,4.13.45.39a.6.6,0,0,1,.22.43A.52.52,0,0,1,19.4-117.33Zm-9.81,3.47a.72.72,0,0,1-1,0,.72.72,0,0,1,0-1l.81-.87a.72.72,0,0,1,.5-.22.66.66,0,0,1,.52.19.72.72,0,0,1,0,1Zm-3.32-.85a.73.73,0,0,1-.23-.5.72.72,0,0,1,.2-.52l.79-.84.65-.7a.71.71,0,0,1,1,0,.72.72,0,0,1,0,1l-.19.19-.63.68-.62.67A.73.73,0,0,1,6.27-114.71Zm-2.09-1.12a.73.73,0,0,1-.23-.49.71.71,0,0,1,.2-.52l2.32-2.49a.72.72,0,0,1,1,0,.72.72,0,0,1,0,1l-.47.51-.65.69-1.21,1.29A.72.72,0,0,1,4.18-115.83ZM3.1-118a.75.75,0,0,1-.23-.5.7.7,0,0,1,.19-.52l1.7-1.82a.73.73,0,0,1,.52-.23.71.71,0,0,1,.49.2.73.73,0,0,1,.23.5.74.74,0,0,1-.2.52L4.1-118a.67.67,0,0,1-.49.23A.74.74,0,0,1,3.1-118Zm19.6-6.47L21-126.65a1.6,1.6,0,0,0-2.11-.36l-1.44.9a1.54,1.54,0,0,1-1.54,0l-1.15-.64a2.43,2.43,0,0,0-2.51.09l-.27.17-.26-.16a3,3,0,0,0-2.92-.13l-.4.21a2.65,2.65,0,0,1-2.45-.07l-.27-.15a2,2,0,0,0-2.41.41l-1.92,2.18A1.6,1.6,0,0,0,.92-123a1.61,1.61,0,0,0,.57,1.11l1.71,1.44-.76.83A1.55,1.55,0,0,0,2-118.47a1.59,1.59,0,0,0,.5,1.1,1.83,1.83,0,0,0,.74.39,1.49,1.49,0,0,0-.14.7,1.51,1.51,0,0,0,.5,1.09h0a1.56,1.56,0,0,0,1.07.42,1.54,1.54,0,0,0,.56-.1,1.68,1.68,0,0,0,.45.8h0a1.6,1.6,0,0,0,1.08.42,1.63,1.63,0,0,0,.8-.22,1.42,1.42,0,0,0,.42.69H8a1.56,1.56,0,0,0,1.07.42,1.52,1.52,0,0,0,1.15-.5l.67-.71,1.06.88a1.5,1.5,0,0,0,.94.35,1.48,1.48,0,0,0,1.1-.49,1.3,1.3,0,0,0,.31-.56l.32.29a1.61,1.61,0,0,0,2.24-.11,1.65,1.65,0,0,0,.4-.83,1.54,1.54,0,0,0,1.6-.43,1.56,1.56,0,0,0,.34-1.41,1.4,1.4,0,0,0,.83-.47,1.47,1.47,0,0,0,.38-1.08,1.48,1.48,0,0,0-.51-1l-.12-.1,2.87-3.26A1.77,1.77,0,0,0,22.7-124.48Z"/><g class="cls-1"><rect x="-76.32" y="-356.07" width="270.68" height="586.11"/></g><circle class="cls-2" cx="4" cy="9" r="1"/><circle class="cls-2" cx="15" cy="20" r="1"/><path d="M22.71,12.29a1,1,0,0,0-1.42,0l-5,5a3,3,0,0,0-2.58,0l-2.8-2.79L17.2,8.21A1,1,0,0,0,15.79,6.8L9.5,13.09l-2.79-2.8a3,3,0,0,0,0-2.58l5-5a1,1,0,1,0-1.42-1.42l-5,5A2.94,2.94,0,0,0,4,6a3,3,0,0,0,0,6,3.09,3.09,0,0,0,1.29-.29l2.8,2.79-6.8,6.79a1,1,0,0,0,1.42,1.42l6.79-6.8,2.79,2.8A3.09,3.09,0,0,0,12,20a3,3,0,0,0,6,0,2.94,2.94,0,0,0-.29-1.29l5-5A1,1,0,0,0,22.71,12.29ZM4,10A1,1,0,1,1,5,9,1,1,0,0,1,4,10ZM15,21a1,1,0,1,1,1-1A1,1,0,0,1,15,21Z"/></svg>