<svg id="Camada_1" data-name="Camada 1" xmlns="http://www.w3.org/2000/svg" viewBox="0 0 24 24"><title>emoji-folha</title><path d="M20.77511,3.99411a.76192.76192,0,0,0-.77889-.77889H14.96765A9.87389,9.87389,0,0,0,5.12989,13.053v4.69833L3.43483,19.44591A.78452.78452,0,0,0,4.54419,20.5555L6.239,18.86044h4.69833A9.8419,9.8419,0,0,0,20.79445,9.0406Zm-6.859,7.18926h3.5083a.77889.77889,0,0,0,.00189-1.55778L15.48872,9.6105l.59018-.59018a.78427.78427,0,1,0-1.10912-1.10913l-4.42424,4.42424v-3.217a.779.779,0,0,0-1.558-.00094l-.01864,4.79457L6.707,16.1742V13.03364A8.22544,8.22544,0,0,1,9.13118,7.17806a8.32051,8.32051,0,0,1,5.85487-2.42441l4.23129.0184V9.02268a8.22544,8.22544,0,0,1-2.42442,5.85557,8.31935,8.31935,0,0,1-5.8544,2.42442l-3.12546-.01652Z"/></svg>