<svg id="Camada_1" data-name="Camada 1" xmlns="http://www.w3.org/2000/svg" viewBox="0 0 24 24"><title>emoji-hamburger</title><path d="M20.9811,9.85445c-.1358-4.48122-4.99724-6.81688-8.96243-6.81688s-8.8538,2.33566-8.9896,6.78972a3.00681,3.00681,0,0,0,0,5.64905c0,2.79736.95056,5.48609,4.31827,5.48609h9.3155c3.3677,0,4.31826-2.68873,4.31826-5.48609A2.99271,2.99271,0,0,0,20.9811,9.85445Zm-1.00488,3.80224H4.034a1.00526,1.00526,0,0,1,0-2.00976H19.97622A1.00526,1.00526,0,0,1,19.97622,13.65669ZM18.97134,9.66434H5.03883C5.60917,3.55359,18.401,3.55359,18.97134,9.66434Zm-2.3085,9.28834H7.34734c-2.09124,0-2.30851-1.73817-2.30851-3.31339H18.97134C18.97134,17.21451,18.75407,18.95268,16.66284,18.95268Z"/></svg>