<svg id="Camada_1" data-name="Camada 1" xmlns="http://www.w3.org/2000/svg" viewBox="0 0 24 24"><title>emoji-ball</title><path d="M21.44266,11.93489A9.59131,9.59131,0,0,0,12.004,2.55757a8.90583,8.90583,0,0,0-6.4398,2.5926.834.834,0,0,0-.15739.11771.85578.85578,0,0,0-.12464.15957,9.899,9.899,0,0,0-2.72484,6.56972A8.99053,8.99053,0,0,0,5.34312,18.6439a9.89974,9.89974,0,0,0,6.65428,2.79947c.05661.00141.11275.00189.16936.00189a8.99645,8.99645,0,0,0,6.47737-2.78721,9.90512,9.90512,0,0,0,2.79853-6.59153c.00141-.0217.00188-.04341.00141-.06605C21.44454,11.9783,21.44407,11.95612,21.44266,11.93489ZM5.38216,7.70326a.84062.84062,0,0,0,.4122.66507.68744.68744,0,0,0,.3352.08775.75234.75234,0,0,0,.3885-.11228l.22759-.13634c.11111.20734.21009.41869.30179.63264l-.172.05142a.74557.74557,0,0,0-.50267.96477.72614.72614,0,0,0,.686.54253.79915.79915,0,0,0,.22975-.03538l.22489-.06723a8.03372,8.03372,0,0,1,.15026.91311H7.31581a.76452.76452,0,0,0,0,1.52852h.353c-.02084.22739-.05345.45384-.09376.67923L7.296,13.33368a.7023.7023,0,0,0-.70128.15191.84277.84277,0,0,0-.22952.7855.7265.7265,0,0,0,.5173.534l.28126.08409a8.03473,8.03473,0,0,1-.38827.85189l-.25059-.15A.72434.72434,0,0,0,5.50234,15.86a.8372.8372,0,0,0-.116.37517,8.13164,8.13164,0,0,1-1.30028-4.238A7.42839,7.42839,0,0,1,5.38216,7.70326ZM7.2554,17.81005l.42438.254a.754.754,0,0,0,.389.11275.68289.68289,0,0,0,.33519-.08822.84183.84183,0,0,0,.418-.70341.72113.72113,0,0,0-.3675-.63924l-.37161-.22244a9.567,9.567,0,0,0,.54035-1.19782l.41389.12384a.79915.79915,0,0,0,.22975.03538.72675.72675,0,0,0,.68619-.54253.74556.74556,0,0,0-.50267-.96476l-.40852-.12207a9.56584,9.56584,0,0,0,.15188-1.11774h.371a.76451.76451,0,0,0,0-1.52852H9.18856a9.55883,9.55883,0,0,0-.21383-1.3502L9.44325,9.719a.72727.72727,0,0,0,.51729-.534.84308.84308,0,0,0-.22975-.78549A.70322.70322,0,0,0,9.03,8.24756L8.523,8.39911a9.59645,9.59645,0,0,0-.46894-.975l.39349-.23565a.72135.72135,0,0,0,.3675-.63877.84387.84387,0,0,0-.418-.70388.70961.70961,0,0,0-.72417.02453l-.45584.27292c-.0603-.07808-.11954-.15639-.18255-.233A8.16951,8.16951,0,0,1,12.004,4.08563c.04529-.00048.08964-.001.13493-.001a7.50784,7.50784,0,0,1,4.69223,1.696c-.10181.11959-.20239.23954-.29745.36267l-.456-.273a.7087.7087,0,0,0-.72369-.02453.84218.84218,0,0,0-.418.70388.71965.71965,0,0,0,.367.6383l.39375.236a9.59067,9.59067,0,0,0-.469.975l-.50692-.15144a.70293.70293,0,0,0-.701.15191.8428.8428,0,0,0-.22975.785.72742.72742,0,0,0,.51753.53451l.46846.14012a9.55731,9.55731,0,0,0-.2138,1.3502h-.37638a.76742.76742,0,0,0-.16008,1.51248.76987.76987,0,0,0,.329.06982h.20469a9.56533,9.56533,0,0,0,.14964,1.06384l-.40858.12219a.74573.74573,0,0,0-.50291.96429.72758.72758,0,0,0,.68643.543.80222.80222,0,0,0,.23022-.03538l.41359-.12372a9.56748,9.56748,0,0,0,.54035,1.19747l-.37178.22267a.72116.72116,0,0,0-.36751.63924.84289.84289,0,0,0,.418.70341.6844.6844,0,0,0,.33543.08822.75885.75885,0,0,0,.38873-.11228l.4248-.25452c.1024.13457.21235.26478.32275.39511a8.046,8.046,0,0,1-4.82126,1.71015c-.04482.00048-.08964.00095-.13493.00095a7.53453,7.53453,0,0,1-4.84228-1.81135C7.10045,18.00749,7.17953,17.90971,7.2554,17.81005Zm10.55577-.78785.18947-.11346A.73857.73857,0,0,0,18.24832,15.86a.72514.72514,0,0,0-1.02232-.26938l-.25057.15a8.02809,8.02809,0,0,1-.38806-.8513l.2815-.08421a.727.727,0,0,0,.51706-.534.84251.84251,0,0,0-.22975-.7855.70064.70064,0,0,0-.701-.15191l-.27914.08351q-.05563-.31137-.08636-.62557h.51411a.76745.76745,0,0,0,.16031-1.51248.77072.77072,0,0,0-.32921-.06982h-.34742a8.04229,8.04229,0,0,1,.15017-.91311l.22462.06723a.79915.79915,0,0,0,.22975.03538.72724.72724,0,0,0,.68642-.54253.74578.74578,0,0,0-.50243-.96477L16.70352,8.84c.09161-.21371.19047-.42506.30146-.63205l.22762.13634a.757.757,0,0,0,.38874.11181.6862.6862,0,0,0,.3359-.08822.8426.8426,0,0,0,.41751-.70341.72042.72042,0,0,0-.3675-.63877l-.15687-.09388c.02465-.03055.05364-.05862.07879-.08893a8.17582,8.17582,0,0,1,1.98638,5.1576,8.04265,8.04265,0,0,1-1.98806,5.15524C17.88989,17.11054,17.84761,17.068,17.81117,17.0222Z"/></svg>