<svg id="Camada_1" data-name="Camada 1" xmlns="http://www.w3.org/2000/svg" viewBox="0 0 24 24"><title>emoji-lamp</title><path d="M18.51156,6.49984a6.64521,6.64521,0,0,0-.61283-1.42143A7.35485,7.35485,0,0,0,16.59288,3.4593,10.66456,10.66456,0,0,0,14.653,2.22657c-.08255-.03963-.16983-.07548-.25711-.11086-.09058-.03633-.18163-.07266-.28966-.12785a3.04721,3.04721,0,0,0-.63689-.20617,5.95933,5.95933,0,0,0-4.39829.4279,10.03782,10.03782,0,0,0-.97609.60528,7.4966,7.4966,0,0,0-1.13365.95485.96912.96912,0,0,0-.09907.11464.82036.82036,0,0,1-.05614.06463l-.359.45384-.06982.10474a5.2982,5.2982,0,0,0-.82371,1.65684,4.14455,4.14455,0,0,0-.20569.87089l-.01132.07029c-.0184.11983-.04057.26042-.06133.43308l.00142.22126a1.04118,1.04118,0,0,0-.00378.40336.75666.75666,0,0,1,.00236.0802v.25287l.07171.49772a9.37506,9.37506,0,0,0,.70954,2.46451c.10567.23824.43355.93646.5949,1.21527.075.12361.14153.23872.20663.35147.14011.24249.27221.4713.46563.74964.6652.98788.92514,1.31812,1.6276,2.20787a1.412,1.412,0,0,1,.00849.30382c-.00188.06652-.00424.13587-.00424.20663l-.00047.14436c-.01557,3.64441.00707,3.69017.05708,3.79018l.13068.1873A3.75869,3.75869,0,0,0,11.79784,22.455a2.11859,2.11859,0,0,0,1.29877-.32694,3.078,3.078,0,0,0,.84494-.63028,7.84912,7.84912,0,0,0,.87277-1.0728.70569.70569,0,0,0,.1637-.53734c-.00141-.042-.0033-.09483-.0033-.16512V15.99841l1.57051-1.99133.49678-.74162.23824-.40242a11.50963,11.50963,0,0,0,1.03647-2.20976A6.94959,6.94959,0,0,0,18.51156,6.49984ZM10.08768,14.9374c-.2406-.27457-.92608-1.20348-1.02987-1.354-.34863-.4963-.53781-.80767-.80012-1.23886l-.22031-.3576-.22409-.45431a4.37492,4.37492,0,0,1-.218-.40808l-.12219-.28872c-.08491-.1972-.16842-.392-.25239-.62557a6.77968,6.77968,0,0,1-.41374-2.138,4.54593,4.54593,0,0,1,.476-2.0904,5.25023,5.25023,0,0,1,.769-1.10912l.0703-.08351a.9313.9313,0,0,1,.18446-.17785.47913.47913,0,0,0,.11652-.10379.58433.58433,0,0,0,.10427-.08869.48745.48745,0,0,1,.04528-.03822A1.16508,1.16508,0,0,0,8.679,4.28914l.74681-.50291a5.6098,5.6098,0,0,1,1.30585-.55951,4.97975,4.97975,0,0,1,3.81047.68312l.04859.03161a7.67646,7.67646,0,0,1,1.13036.79634.75361.75361,0,0,0,.07878.10568l.24626.25994a.37108.37108,0,0,1,.03869.05189,1.05344,1.05344,0,0,0,.11794.14625,4.20586,4.20586,0,0,1,.484.78031,4.56744,4.56744,0,0,1,.39487,3.23019,5.318,5.318,0,0,1-.26843.97042c-.04954.10662-.10332.243-.15616.3793-.0434.1104-.08633.22032-.1203.29675-.02028.04057-.03632.07689-.05236.11322-.0151.034-.02973.06841-.05567.11653-.28212.55055-.42459.81285-.70577,1.2733-.03963.05991-.07925.11935-.13917.2071a19.07549,19.07549,0,0,1-1.52617,2.02577l-.20663.243s-.44016.4963-1.88565.4963S10.08768,14.9374,10.08768,14.9374Zm2.0286,0,1.32708,4.43934v.31608a3.2585,3.2585,0,0,1-.21041.27976c-.05755.07123-.109.13634-.14247.18446a5.40873,5.40873,0,0,1-.459.44346c-.08492.0585-.14294.09766-.24107.159a1.05465,1.05465,0,0,1-.46941.1637.86155.86155,0,0,1-.42365-.12408l-.05284-.025a.26243.26243,0,0,1-.11888-.07312l-.05048-.04105a1.74824,1.74824,0,0,1-.37789-.3359c-.04953-.05425-.1019-.11228-.15521-.16511-.04717-.0519-.18635-.22362-.25475-.317v-.46516Z"/></svg>