<svg id="Camada_1" data-name="Camada 1" xmlns="http://www.w3.org/2000/svg" viewBox="0 0 24 24"><title>emoji-face</title><path d="M12,3.42A8.58,8.58,0,1,0,20.58,12,8.58771,8.58771,0,0,0,12,3.42Zm0,15.57032A6.99039,6.99039,0,1,1,18.99042,12,7.00746,7.00746,0,0,1,12,18.99036Z"/><path d="M14.96234,13.75208A3.94356,3.94356,0,0,1,12,15.01648a3.94356,3.94356,0,0,1-2.96234-1.2644.79692.79692,0,1,0-1.24634.99346,5.69044,5.69044,0,0,0,8.41736,0,.7789.7789,0,0,0-.12647-1.1018A.8.8,0,0,0,14.96234,13.75208Z"/><path d="M9.16412,11.151a1.10184,1.10184,0,1,0-1.10186-1.10181A1.1018,1.1018,0,0,0,9.16412,11.151Z"/><path d="M14.83588,11.151a1.10184,1.10184,0,1,0-1.10181-1.10181A1.10181,1.10181,0,0,0,14.83588,11.151Z"/></svg>