<svg id="Camada_1" data-name="Camada 1" xmlns="http://www.w3.org/2000/svg" viewBox="0 0 24 24"><title>external-link</title><path d="M16.84631,3.7555a.58972.58972,0,0,0,.06134,1.17785h1.32507l-5.66836,5.66836a.589.589,0,1,0,.8343.82817L19.067,5.76152v1.3312a.589.589,0,0,0,1.17784.01666q.00012-.00832,0-.01666V4.34442A.589.589,0,0,0,19.656,3.7555h-2.7483A.592.592,0,0,0,16.84631,3.7555ZM4.28265,5.326a.589.589,0,0,0-.52757.58892v13.7415a.589.589,0,0,0,.58892.58892H18.08549a.589.589,0,0,0,.58893-.58892V12.6946a.589.589,0,0,0-1.17785-.01665q-.0001.00833,0,.01665v6.37285H4.93292V6.5038h6.37285A.589.589,0,1,0,11.32243,5.326q-.00834-.00012-.01666,0H4.344A.58667.58667,0,0,0,4.28265,5.326Z"/></svg>