<svg id="Camada_1" data-name="Camada 1" xmlns="http://www.w3.org/2000/svg" viewBox="0 0 24 24"><title>file-people</title><path d="M17.93605,20.692H6.06405a1.27339,1.27339,0,0,1-1.272-1.272V6.79606a.424.424,0,0,1,.12422-.29978L7.98074,3.43222A.4237.4237,0,0,1,8.28052,3.308h9.65553a1.27339,1.27339,0,0,1,1.272,1.272V19.42A1.27339,1.27339,0,0,1,17.93605,20.692ZM5.64,6.97163V19.42a.42442.42442,0,0,0,.424.424h11.872a.42442.42442,0,0,0,.424-.424V4.58a.42442.42442,0,0,0-.424-.424h-9.48Z"/><path d="M8.28052,7.22006H5.21605a.424.424,0,0,1-.29978-.72378L7.98074,3.43222a.424.424,0,0,1,.72378.29978V6.79606A.42389.42389,0,0,1,8.28052,7.22006Zm-2.04091-.848H7.85652V4.75556Z"/><path d="M12.00005,9.76406a1.696,1.696,0,1,1,1.696-1.696A1.69781,1.69781,0,0,1,12.00005,9.76406Zm0-2.544a.848.848,0,1,0,.848.848A.849.849,0,0,0,12.00005,7.22006Z"/><path d="M14.32,13.08277H9.68047a1.28643,1.28643,0,0,1-1.04882-.5447,1.22635,1.22635,0,0,1-.15942-1.13059,3.74362,3.74362,0,0,1,7.056.0002,1.226,1.226,0,0,1-.15941,1.13039A1.28643,1.28643,0,0,1,14.32,13.08277Zm-2.32-3.31871A2.89972,2.89972,0,0,0,9.27138,11.6909a.3873.3873,0,0,0,.053.35817.43743.43743,0,0,0,.35609.1857H14.32a.43744.43744,0,0,0,.35609-.1857.387.387,0,0,0,.053-.358A2.89977,2.89977,0,0,0,12.00005,9.76406Z"/><path d="M12.77559,18.11115H8.25692a.424.424,0,1,1,0-.848h4.51867a.424.424,0,1,1,0,.848Z"/><path d="M15.74359,15.56715H8.25692a.424.424,0,0,1,0-.848h7.48667a.424.424,0,1,1,0,.848Z"/></svg>