<svg width="24" height="23" viewBox="0 0 24 23" fill="none" xmlns="http://www.w3.org/2000/svg">
<path d="M15.6667 4.05556C15.6667 4.86594 15.9887 5.64314 16.5617 6.21617C17.1347 6.7892 17.9119 7.11112 18.7223 7.11112C19.5327 7.11112 20.3099 6.7892 20.8829 6.21617C21.4559 5.64314 21.7779 4.86594 21.7779 4.05556C21.7779 3.24518 21.4559 2.46798 20.8829 1.89495C20.3099 1.32192 19.5327 1 18.7223 1C17.9119 1 17.1347 1.32192 16.5617 1.89495C15.9887 2.46798 15.6667 3.24518 15.6667 4.05556V4.05556Z" stroke="#74788C" stroke-width="1.6" stroke-linecap="round" stroke-linejoin="round"/>
<path d="M20.8831 6.21545L23 8.33332" stroke="#74788C" stroke-width="1.6" stroke-linecap="round" stroke-linejoin="round"/>
<path d="M12.7334 6.86668H2.46667C2.07768 6.86668 1.70463 6.71216 1.42958 6.4371C1.15452 6.16205 1 5.789 1 5.40001V3.93334C1 3.54436 1.15452 3.17131 1.42958 2.89625C1.70463 2.6212 2.07768 2.46667 2.46667 2.46667H12.7334" stroke="#74788C" stroke-width="1.6" stroke-linecap="round" stroke-linejoin="round"/>
<path d="M6 12H17.7334" stroke="#74788C" stroke-width="1.6" stroke-linecap="round" stroke-linejoin="round"/>
<path d="M2 12H3" stroke="#74788C" stroke-width="1.6" stroke-linecap="round" stroke-linejoin="round"/>
<path d="M6.1333 17H17.8667" stroke="#74788C" stroke-width="1.6" stroke-linecap="round" stroke-linejoin="round"/>
<path d="M2 17H3" stroke="#74788C" stroke-width="1.6" stroke-linecap="round" stroke-linejoin="round"/>
<path d="M6.1333 22H17.8667" stroke="#74788C" stroke-width="1.6" stroke-linecap="round" stroke-linejoin="round"/>
<path d="M2 22H3" stroke="#74788C" stroke-width="1.6" stroke-linecap="round" stroke-linejoin="round"/>
</svg>
