<svg id="Camada_1" data-name="Camada 1" xmlns="http://www.w3.org/2000/svg" viewBox="0 0 24 24"><title>grid</title><path d="M9.60569,11.23419H4.95347A1.58943,1.58943,0,0,1,3.36573,9.64661V5.10008A1.58942,1.58942,0,0,1,4.95347,3.5125H9.60569a1.58928,1.58928,0,0,1,1.58757,1.58758V9.64661A1.58929,1.58929,0,0,1,9.60569,11.23419ZM4.95347,4.57342a.52735.52735,0,0,0-.52683.52666V9.64661a.52735.52735,0,0,0,.52683.52666H9.60569a.52721.52721,0,0,0,.52666-.52666V5.10008a.52721.52721,0,0,0-.52666-.52666Z"/><path d="M19.04635,11.23419H14.39414a1.58929,1.58929,0,0,1-1.58757-1.58758V5.10008A1.58928,1.58928,0,0,1,14.39414,3.5125h4.65221a1.58957,1.58957,0,0,1,1.58792,1.58758V9.64661A1.58958,1.58958,0,0,1,19.04635,11.23419ZM14.39414,4.57342a.52721.52721,0,0,0-.52666.52666V9.64661a.52721.52721,0,0,0,.52666.52666h4.65221a.52751.52751,0,0,0,.527-.52666V5.10008a.52751.52751,0,0,0-.527-.52666Z"/><path d="M9.60569,20.4875H4.95347a1.58942,1.58942,0,0,1-1.58774-1.58758V14.35339a1.58943,1.58943,0,0,1,1.58774-1.58758H9.60569a1.58929,1.58929,0,0,1,1.58757,1.58758v4.54653A1.58928,1.58928,0,0,1,9.60569,20.4875ZM4.95347,13.82673a.52735.52735,0,0,0-.52683.52666v4.54653a.52735.52735,0,0,0,.52683.52666H9.60569a.52721.52721,0,0,0,.52666-.52666V14.35339a.52721.52721,0,0,0-.52666-.52666Z"/><path d="M19.04635,20.4875H14.39414a1.58928,1.58928,0,0,1-1.58757-1.58758V14.35339a1.58929,1.58929,0,0,1,1.58757-1.58758h4.65221a1.58958,1.58958,0,0,1,1.58792,1.58758v4.54653A1.58957,1.58957,0,0,1,19.04635,20.4875Zm-4.65221-6.66077a.52721.52721,0,0,0-.52666.52666v4.54653a.52721.52721,0,0,0,.52666.52666h4.65221a.52751.52751,0,0,0,.527-.52666V14.35339a.52751.52751,0,0,0-.527-.52666Z"/></svg>