<svg id="Camada_1" data-name="Camada 1" xmlns="http://www.w3.org/2000/svg" viewBox="0 0 24 24"><defs><style>.cls-1{fill:#1e2b3d;}.cls-2{fill:#f0f2f5;}</style></defs><title>hammer-blue-gray</title><path class="cls-1" d="M18.612,19.93586a1.57013,1.57013,0,0,1-1.04166-.40761l-5.44184-4.89459-.64726.73926a1.91526,1.91526,0,0,1,.2406,1.76677A2.02663,2.02663,0,0,1,9.855,18.4446a1.89677,1.89677,0,0,1-1.24829-.47177L4.4613,14.49072a1.89879,1.89879,0,0,1-.59725-2.15362,1.95978,1.95978,0,0,1,1.822-1.32425,2.04979,2.04979,0,0,1,.86475.19814L9.95032,7.14011a1.90663,1.90663,0,0,1-.225-1.74837,2.05155,2.05155,0,0,1,1.889-1.32755,1.9499,1.9499,0,0,1,1.24358.45572l4.10627,3.49533a1.97754,1.97754,0,0,1,.593,2.22863,1.9101,1.9101,0,0,1-1.788,1.27849h-.00047a2.05845,2.05845,0,0,1-.83975-.18588l-.69208.81569,5.45693,4.90827a1.57515,1.57515,0,0,1,.451,1.77007A1.66854,1.66854,0,0,1,18.612,19.93586Z"/><path class="cls-2" d="M11.614,4.78883a1.226,1.226,0,0,1,.78464.29193l4.09547,3.48668a1.2556,1.2556,0,0,1-.72506,2.23043,1.57035,1.57035,0,0,1-.99061-.40407l-1.54964,1.82636,5.98055,5.37915a.9277.9277,0,0,1-.59754,1.61186.84956.84956,0,0,1-.56469-.22825l-5.98055-5.37915-1.54964,1.771a1.26692,1.26692,0,0,1-.6619,2.34528,1.18,1.18,0,0,1-.77705-.29754L4.92718,13.93583a1.244,1.244,0,0,1,.75893-2.19821,1.56423,1.56423,0,0,1,1.01208.4272l4.20616-5.03633A1.27651,1.27651,0,0,1,11.614,4.78883m0-1.44927A2.75244,2.75244,0,0,0,9.04543,5.14129a2.59539,2.59539,0,0,0,.0401,1.90411L6.3143,10.36358a2.64317,2.64317,0,0,0-3.13294,1.72994,2.643,2.643,0,0,0,.82808,2.964l4.1364,3.47473a2.60439,2.60439,0,0,0,1.7092.6371,2.72817,2.72817,0,0,0,2.54629-1.77813,2.55947,2.55947,0,0,0,.09973-1.44739l4.5769,4.11664a2.29832,2.29832,0,0,0,1.53386.6,2.39673,2.39673,0,0,0,2.21156-1.57538,2.28845,2.28845,0,0,0-.65966-2.57643l-4.76715-4.28792A2.61619,2.61619,0,0,0,18.23618,10.497a2.71857,2.71857,0,0,0-.7948-3.02643L13.33813,3.97723l-.02175-.01815A2.66579,2.66579,0,0,0,11.614,3.33956Z"/></svg>