<svg id="Camada_1" data-name="Camada 1" xmlns="http://www.w3.org/2000/svg" viewBox="0 0 24 24"><defs><style>.cls-1{fill:#fff;}.cls-2{fill:#1e2b3d;}</style></defs><title>hammer-white-blue</title><path class="cls-1" d="M18.61193,19.93586a1.57013,1.57013,0,0,1-1.04166-.40761L12.1282,14.63366l-.64679.73926a1.91584,1.91584,0,0,1,.24036,1.76677,2.02694,2.02694,0,0,1-1.867,1.30491,1.89774,1.89774,0,0,1-1.2483-.47177L4.461,14.49072a1.89877,1.89877,0,0,1-.59725-2.15362A1.95984,1.95984,0,0,1,5.686,11.01285a2.0506,2.0506,0,0,1,.86475.19814L9.95028,7.14011a1.9059,1.9059,0,0,1-.22479-1.74837A2.05141,2.05141,0,0,1,11.614,4.06419a1.949,1.949,0,0,1,1.24358.45572l4.1065,3.49533a1.97754,1.97754,0,0,1,.593,2.22863,1.9101,1.9101,0,0,1-1.788,1.27849h-.00047a2.05655,2.05655,0,0,1-.83951-.18588l-.69232.81569,5.45694,4.90827a1.57515,1.57515,0,0,1,.451,1.77007A1.66855,1.66855,0,0,1,18.61193,19.93586Z"/><path class="cls-2" d="M11.614,4.78883a1.226,1.226,0,0,1,.78464.29193l4.09547,3.48668a1.2556,1.2556,0,0,1-.72507,2.23043,1.57033,1.57033,0,0,1-.9906-.40407l-1.54964,1.82636,5.98054,5.37915a.9277.9277,0,0,1-.59753,1.61186.84954.84954,0,0,1-.56469-.22825l-5.98055-5.37915-1.54964,1.771A1.26692,1.26692,0,0,1,9.855,17.72006a1.18,1.18,0,0,1-.777-.29754L4.92718,13.93583a1.244,1.244,0,0,1,.75894-2.19821,1.56423,1.56423,0,0,1,1.01207.4272l4.20616-5.03633A1.27652,1.27652,0,0,1,11.614,4.78883m0-1.44927A2.75245,2.75245,0,0,0,9.04543,5.14129a2.59544,2.59544,0,0,0,.0401,1.90411L6.31431,10.36358a2.64318,2.64318,0,0,0-3.13295,1.72994,2.643,2.643,0,0,0,.82808,2.964l4.13639,3.47473a2.60439,2.60439,0,0,0,1.7092.6371,2.72821,2.72821,0,0,0,2.54631-1.77813,2.55947,2.55947,0,0,0,.09972-1.44739L17.078,20.06045a2.29834,2.29834,0,0,0,1.53387.6,2.39672,2.39672,0,0,0,2.21155-1.57538,2.28841,2.28841,0,0,0-.65967-2.57643l-4.76714-4.28792A2.6162,2.6162,0,0,0,18.23618,10.497a2.71855,2.71855,0,0,0-.79479-3.02643L13.33813,3.97723l-.02175-.01815A2.66576,2.66576,0,0,0,11.614,3.33956Z"/></svg>