<svg id="Camada_1" data-name="Camada 1" xmlns="http://www.w3.org/2000/svg" viewBox="0 0 24 24"><title>hand</title><path d="M14.56872,4.5686a1.85346,1.85346,0,0,0-.62432.107l-.0768.02745-.00437-.082a1.866,1.866,0,0,0-3.72645,0l-.004.082-.07719-.02745a1.8674,1.8674,0,0,0-2.48775,1.6581l-.004.082-.0772-.02746A1.867,1.867,0,0,0,4.99655,8.14662v6.5361a7.01436,7.01436,0,0,0,1.56022,4.54933,5.34935,5.34935,0,0,0,4.14942,1.912H12.428a6.22953,6.22953,0,0,0,3.73082-1.01626,6.52138,6.52138,0,0,0,2.84467-5.05348V10.558a.802.802,0,0,0-.71584-.80737,4.5761,4.5761,0,0,0-.94226-.04217l-.20731.00039a1.84731,1.84731,0,0,0-.62194.10625l-.08157.029V6.434A1.8676,1.8676,0,0,0,14.56872,4.5686ZM17.138,10.87073l.2101-.0004c.19139-.0004.33027.0004.43332.002l.06009.00119v4.20076A5.33028,5.33028,0,0,1,15.548,19.13933a5.08878,5.08878,0,0,1-3.12.84278H10.70619c-2.635,0-4.54773-2.2287-4.54773-5.29939V8.14662a.70351.70351,0,0,1,1.407,0v4.28153a.581.581,0,1,0,1.1619,0V6.434a.70351.70351,0,1,1,1.407,0v5.13784a.58095.58095,0,0,0,1.1619,0V4.7214a.70351.70351,0,1,1,1.407,0v6.85045a.581.581,0,0,0,1.16191,0V6.434a.70371.70371,0,0,1,1.40741,0v8.56306a.58095.58095,0,1,0,1.1619,0V11.57423A.70424.70424,0,0,1,17.138,10.87073Z"/></svg>