<svg id="Camada_1" data-name="Camada 1" xmlns="http://www.w3.org/2000/svg" viewBox="0 0 24 24"><title>heart</title><path d="M12,20.00446c-.25512,0-.93174.00061-7.60694-7.2847a5.117,5.117,0,0,1,7.24549-7.22769A5.18364,5.18364,0,0,1,12,5.89315a5.22654,5.22654,0,0,1,.36145-.40148A5.11711,5.11711,0,1,1,19.598,12.72846C12.933,20.00446,12.25512,20.00446,12,20.00446Zm.1312-1.083Zm-.2624,0ZM8.02015,5.10009a4.01064,4.01064,0,0,0-2.83706,6.847l.01678.01719A84.59966,84.59966,0,0,0,12,18.84328a84.60727,84.60727,0,0,0,6.80013-6.87857A4.01238,4.01238,0,1,0,12.483,7.14147a.55348.55348,0,0,1-.46354.28059.56014.56014,0,0,1-.48073-.25067l-.03942-.06146A4.01618,4.01618,0,0,0,8.02015,5.10009Z"/></svg>