<svg id="Camada_1" data-name="Camada 1" xmlns="http://www.w3.org/2000/svg" viewBox="0 0 24 24"><title>image</title><path d="M19.90011,17.15709a1.17649,1.17649,0,0,1-.01239.1715c.00826-.05579.01446-.10951.02272-.1653a1.35764,1.35764,0,0,1-.08884.32233l.062-.14877a1.39545,1.39545,0,0,1-.1095.20456c-.01034.01446-.02067.02893-.031.04545-.03512.05786.093-.1095.04753-.062-.02893.02893-.05373.062-.08265.09091-.0248.0248-.05372.04959-.08059.07232-.062.05785.062-.04959.062-.04752a.233.233,0,0,1-.04339.031,1.44689,1.44689,0,0,1-.21489.11777l.14877-.062a1.33173,1.33173,0,0,1-.32233.08884c.05579-.00826.10951-.01446.1653-.02272a4.45149,4.45149,0,0,1-.52482.01239H4.75483a1.40637,1.40637,0,0,1-.186-.01239c.05579.00826.10951.01446.1653.02272a1.358,1.358,0,0,1-.32233-.08884l.14877.062a1.395,1.395,0,0,1-.20456-.10951c-.01446-.01033-.02893-.02066-.04546-.031-.05785-.03512.10951.093.062.04752-.02893-.02892-.062-.05372-.09091-.08264-.0248-.0248-.04959-.05372-.07232-.08059-.05785-.062.04959.062.04752.062a.233.233,0,0,1-.031-.04339,1.44689,1.44689,0,0,1-.11777-.21489l.062.14877a1.33173,1.33173,0,0,1-.08884-.32233c.00826.05579.01446.10951.02272.1653a3.47293,3.47293,0,0,1-.01239-.41531V8.06579c0-.405-.00414-.812,0-1.217A1.31486,1.31486,0,0,1,4.104,6.669c-.00826.05578-.01446.10951-.02272.16529A1.358,1.358,0,0,1,4.17009,6.512l-.062.14876a1.39541,1.39541,0,0,1,.10951-.20455c.01033-.01447.02066-.02893.031-.04546.03512-.05785-.093.10951-.04752.062.02892-.02893.05372-.062.08264-.09092.0248-.02479.05373-.04958.08059-.07231.062-.05786-.062.04959-.062.04752a.23256.23256,0,0,1,.04339-.031,1.447,1.447,0,0,1,.21489-.11778l-.14877.062a1.33175,1.33175,0,0,1,.32233-.08885c-.05579.00827-.10951.01447-.1653.02273a4.45154,4.45154,0,0,1,.52482-.0124H19.23686a1.40638,1.40638,0,0,1,.186.0124c-.05579-.00826-.10951-.01446-.1653-.02273a1.35814,1.35814,0,0,1,.32233.08885l-.14877-.062a1.396,1.396,0,0,1,.20456.10951c.01446.01033.02893.02066.04546.031.05785.03512-.10951-.093-.062-.04753.02893.02893.062.05372.09091.08265.0248.0248.04959.05372.07232.08058.05785.062-.04959-.062-.04752-.062a.23268.23268,0,0,1,.031.04339,1.44728,1.44728,0,0,1,.11777.21488l-.062-.14876a1.33133,1.33133,0,0,1,.08884.32232c-.00826-.05578-.01446-.10951-.02272-.16529a3.41691,3.41691,0,0,1,.01239.41117v8.78551c0,.42357-.00826.84714,0,1.27071v.02066a.61987.61987,0,1,0,1.23973,0V7.16286a2.62,2.62,0,0,0-.09711-.91326,1.93033,1.93033,0,0,0-1.26246-1.21906,1.97959,1.97959,0,0,0-.57233-.07439H5.633a3.14738,3.14738,0,0,0-1.97736.34919A1.92413,1.92413,0,0,0,2.856,6.84466v10.267a1.90029,1.90029,0,0,0,1.41328,1.87611,2.90167,2.90167,0,0,0,.73144.05992H17.81118c.47936,0,.95872.00414,1.43808,0a1.85721,1.85721,0,0,0,1.09509-.34919,1.92136,1.92136,0,0,0,.79962-1.53932.62194.62194,0,0,0-1.24386-.00207Z"/><path d="M3.92421,15.72521q.69115-.71283,1.38023-1.42568,1.091-1.125,2.18191-2.25216c.16737-.1715.33473-.34506.5-.51655H7.1103c.42771.35332.85541.70871,1.28312,1.062q1.02276.8461,2.04554,1.69429l.47109.39051a.66887.66887,0,0,0,.438.18182.61986.61986,0,0,0,.438-1.05789c-.42771-.35332-.85541-.70871-1.28312-1.062q-1.02276-.84612-2.04554-1.69429l-.47109-.39051a.61855.61855,0,0,0-.87608,0q-.69114.71283-1.38022,1.42568-1.091,1.125-2.18191,2.25216c-.16737.1715-.33473.34506-.5.51655a.61948.61948,0,1,0,.87607.87607Z"/><path d="M10.21374,16.25l.62813-.62813,1.50006-1.50006,1.82033-1.82033,1.56825-1.56825c.25414-.25414.51862-.50415.76656-.76656l.01033-.01033h-.87607q.73145.57647,1.46081,1.15088,1.16533.91738,2.32861,1.83479c.1777.1405.35746.281.53515.4215a.67928.67928,0,0,0,.438.18183.62081.62081,0,0,0,.61986-.61986.59575.59575,0,0,0-.18183-.438q-.73143-.57646-1.46081-1.15087-1.16533-.9174-2.32861-1.83479c-.17769-.14051-.35745-.281-.53515-.42151a.65462.65462,0,0,0-.438-.18183.64106.64106,0,0,0-.438.18183l-.62813.62813-1.50006,1.50006-1.82033,1.82033-1.56825,1.56825c-.25414.25414-.51655.50622-.76656.76656l-.01033.01033a.61948.61948,0,1,0,.87607.87607Z"/><path d="M11.86051,8.87368a1.60441,1.60441,0,0,1-.01447.20042c.00827-.05579.01447-.10951.02273-.1653a1.54644,1.54644,0,0,1-.09711.34713l.062-.14877a1.56638,1.56638,0,0,1-.11571.21695c-.0124.0186-.02686.03719-.03926.05579-.031.05372.10745-.126.03926-.05166-.02686.031-.05372.05992-.08265.08885s-.05992.05579-.08884.08265c-.06406.05785.062-.04959.062-.04752,0,.00826-.04959.03512-.05579.03925a1.61465,1.61465,0,0,1-.22728.124l.14877-.062a1.44512,1.44512,0,0,1-.34712.09711c.05578-.00826.1095-.01446.16529-.02273a1.44669,1.44669,0,0,1-.40084,0c.05579.00827.10951.01447.16529.02273a1.54651,1.54651,0,0,1-.34712-.09711l.14877.062a1.56745,1.56745,0,0,1-.21695-.11571c-.0186-.0124-.03719-.02686-.05579-.03926-.05372-.031.126.10744.05166.03926-.031-.02686-.05992-.05372-.08885-.08265s-.05579-.05992-.08265-.08885c-.05785-.064.04959.062.04752.062-.00826,0-.03512-.04959-.03925-.05579a1.61577,1.61577,0,0,1-.124-.22728l.062.14877A1.44519,1.44519,0,0,1,10.315,8.9088c.00826.05579.01446.10951.02273.1653a1.44669,1.44669,0,0,1,0-.40084c-.00827.05578-.01447.10951-.02273.16529a1.54636,1.54636,0,0,1,.09711-.34712l-.062.14877a1.56581,1.56581,0,0,1,.11571-.217c.0124-.0186.02686-.0372.03926-.05579.031-.05372-.10744.126-.03926.05165.02686-.031.05372-.05992.08265-.08884s.05992-.05579.08885-.08265c.064-.05785-.062.04959-.062.04752,0-.00826.04959-.03512.05579-.03926a1.61561,1.61561,0,0,1,.22728-.124l-.14877.062a1.44479,1.44479,0,0,1,.34712-.09711c-.05578.00826-.1095.01446-.16529.02272a1.44747,1.44747,0,0,1,.40084,0c-.05579-.00826-.10951-.01446-.16529-.02272a1.54636,1.54636,0,0,1,.34712.09711l-.14877-.062a1.56638,1.56638,0,0,1,.217.11571c.0186.0124.03719.02686.05579.03926.05372.031-.126-.10745-.05165-.03926.031.02686.05992.05372.08884.08265s.05579.05992.08265.08884c.05785.06406-.04959-.062-.04752-.062.00826,0,.03512.04959.03926.05579a1.61561,1.61561,0,0,1,.124.22728l-.062-.14877a1.44512,1.44512,0,0,1,.09711.34712c-.00826-.05578-.01446-.10951-.02273-.16529a1.60413,1.60413,0,0,1,.01447.20042.61986.61986,0,0,0,1.23972,0,1.989,1.989,0,0,0-.343-1.12195,2.14208,2.14208,0,0,0-1.01864-.781A2.00624,2.00624,0,0,0,9.567,7.56164,2.10484,2.10484,0,0,0,9.08146,8.758a2.00011,2.00011,0,0,0,1.11989,1.91951,2.11174,2.11174,0,0,0,1.3079.16116,2.03042,2.03042,0,0,0,1.591-1.967.62573.62573,0,0,0-.61986-.61986A.63309.63309,0,0,0,11.86051,8.87368Z"/></svg>