<svg width="32" height="32" viewBox="0 0 32 32" fill="none" xmlns="http://www.w3.org/2000/svg">
<path d="M23.5319 13.4997C23.4933 13.4251 23.4349 13.3626 23.3631 13.319C23.2914 13.2753 23.209 13.2523 23.125 13.2523H16.3647L18.0731 5.55897C18.0964 5.45572 18.0832 5.34761 18.0358 5.25299C17.9884 5.15836 17.9097 5.08307 17.813 5.03988C17.7164 4.9967 17.6078 4.98829 17.5057 5.01609C17.4036 5.04388 17.3142 5.10616 17.2528 5.19236L8.0876 18.0237C8.03778 18.0922 8.00793 18.1732 8.00137 18.2577C7.99482 18.3422 8.01181 18.4268 8.05046 18.5022C8.0891 18.5776 8.1479 18.6408 8.2203 18.6848C8.29271 18.7288 8.3759 18.7518 8.46062 18.7514H15.2209L13.5125 26.441C13.4892 26.5443 13.5024 26.6524 13.5498 26.747C13.5972 26.8416 13.6759 26.9169 13.7726 26.9601C13.8692 27.0033 13.9778 27.0117 14.0799 26.9839C14.182 26.9561 14.2714 26.8938 14.3328 26.8076L23.498 13.9763C23.547 13.9077 23.576 13.8269 23.582 13.7428C23.588 13.6587 23.5707 13.5746 23.5319 13.4997Z" />
</svg>
