<svg id="Camada_1" data-name="Camada 1" xmlns="http://www.w3.org/2000/svg" viewBox="0 0 24 24"><title>link</title><path d="M10.3835,18.90666a3.7407,3.7407,0,1,1-5.29016-5.29015l2.939-2.939a3.74632,3.74632,0,0,1,5.2902,0c.34436.00123.6216.53643.62037.88079a.62352.62352,0,0,1-.62573.6213c-.34262-.00123-.62007-.27867-.87634-.62038a2.47478,2.47478,0,0,0-3.52681,0l-2.939,2.939A2.49381,2.49381,0,1,0,9.50181,18.025l2.79207-2.79209a.62352.62352,0,1,1,.8937.86971l-.012.012L10.3835,18.90668Zm5.58414-5.58416a3.74634,3.74634,0,0,1-5.29019.00007.62349.62349,0,1,1,.88174-.88176l0,0a2.47475,2.47475,0,0,0,3.52679,0l2.939-2.939A2.49381,2.49381,0,1,0,14.4982,5.975L11.70613,8.76711a.62351.62351,0,1,1-.89429-.86909l.01259-.0126L13.6165,5.09335a3.7407,3.7407,0,1,1,5.29016,5.29015l-2.939,2.939Z"/></svg>