<svg width="24" height="24" viewBox="0 0 24 24" fill="none" xmlns="http://www.w3.org/2000/svg">
<mask id="mask0" mask-type="alpha" maskUnits="userSpaceOnUse" x="0" y="0" width="24" height="24">
<path fill-rule="evenodd" clip-rule="evenodd" d="M0 0L24 0V24H0L0 0Z" fill="white"/>
</mask>
<g mask="url(#mask0)">
<path fill-rule="evenodd" clip-rule="evenodd" d="M17.6 -6.10352e-05H6.4C2.86526 -6.10352e-05 0 2.8652 0 6.39994L0 17.5999C0 21.1347 2.86526 23.9999 6.4 23.9999H17.6C21.1347 23.9999 24 21.1347 24 17.5999V6.39994C24 2.8652 21.1347 -6.10352e-05 17.6 -6.10352e-05Z" fill="#4364E8"/>
</g>
<path fill-rule="evenodd" clip-rule="evenodd" d="M13.2168 15.244C13.4442 16.0798 13.9153 16.6596 14.5945 16.98C15.2328 17.2811 16.2071 17.4213 17.5444 17.4213H18.5435C19.4719 17.4213 20.2244 16.6688 20.2244 15.7404C20.2244 15.6444 20.1469 15.5669 20.0509 15.5669H17.8829C16.6016 15.5669 16.189 15.4419 15.925 15.3408C15.6105 15.22 15.4063 14.9013 15.301 14.4739C15.1751 13.9619 15.0614 13.3653 15.0614 12.0301C15.0614 10.6949 15.1751 10.0491 15.301 9.53705C15.4063 9.10969 15.6105 8.80821 15.9254 8.68737C16.1886 8.5859 16.6008 8.48021 17.8829 8.48021H18.5393C19.4656 8.48021 20.2164 7.72948 20.2164 6.80316C20.2164 6.70927 20.1402 6.63305 20.0463 6.63305L19.8442 6.63221C16.8025 6.63221 17.9612 6.62463 17.5553 6.62463C16.2185 6.62463 15.2884 6.77116 14.65 7.07221C13.9713 7.39263 13.4471 7.97579 13.2197 8.80611C13.0096 9.57411 12.9048 10.3985 12.9048 12.0293C12.9048 13.6491 13.0067 14.4709 13.2168 15.244Z" fill="white"/>
<path fill-rule="evenodd" clip-rule="evenodd" d="M11.8154 6.62476H4.11307C3.92655 6.62476 3.77539 6.77591 3.77539 6.96202V8.21718C3.77539 8.4037 3.92655 8.55444 4.11265 8.55444H6.5615V17.1351C6.5615 17.3216 6.71265 17.4723 6.89876 17.4723C7.9375 17.4723 8.77918 16.6306 8.77918 15.5923V8.72033C8.77918 8.62897 8.85328 8.55444 8.94507 8.55444H10.4032C11.311 8.55444 12.0583 7.86644 12.1518 6.98307C12.1724 6.78686 12.0129 6.62476 11.8154 6.62476Z" fill="white"/>
</svg>
