<svg id="Camada_1" data-name="Camada 1" xmlns="http://www.w3.org/2000/svg" viewBox="0 0 24 24"><title>marker</title><path d="M21.139,8.5929a.60029.60029,0,0,0-.17042-.50138L15.90507,3.028a.59915.59915,0,0,0-.942.1231L11.98569,8.2895A7.01359,7.01359,0,0,0,5.39557,9.43093a.59869.59869,0,0,0-.0572.89733L8.08008,13.07,3.05161,19.50255a.93379.93379,0,0,0,.0635,1.2175l.13777.14287a.92743.92743,0,0,0,1.24087.08626h-.0003l6.43467-5.03087,2.74021,2.74022a.59956.59956,0,0,0,.42351.17551l.038-.0012a.59867.59867,0,0,0,.43579-.23152,7.01352,7.01352,0,0,0,1.14143-6.59011l5.13839-2.97743A.60157.60157,0,0,0,21.139,8.5929ZM10.07392,15.06561,4.84448,19.15392l4.0886-5.23064Zm4.99851-4.07154-.61908-.61938a.59914.59914,0,0,0-.84762.847l.85481.8548a5.78787,5.78787,0,0,1-.45076,5.22914L6.691,9.98682a5.78692,5.78692,0,0,1,5.22915-.45076l.52084.52085a.59915.59915,0,0,0,.847-.84762l-.28544-.28513,2.60664-4.498,3.96161,3.96162Z"/></svg>