<svg width="20" height="20" viewBox="0 0 20 20" fill="none" xmlns="http://www.w3.org/2000/svg">
<path d="M8.99997 3.882V17.24C8.99967 17.6545 8.85311 18.0555 8.58611 18.3725C8.31911 18.6896 7.9488 18.9022 7.54041 18.9729C7.13203 19.0437 6.71178 18.968 6.35369 18.7593C5.99561 18.5506 5.72267 18.2222 5.58297 17.832L3.43597 11.682M3.43597 11.682C2.58719 11.3211 1.88915 10.6791 1.46 9.86267C1.03084 9.04627 0.896923 8.10668 1.0809 7.2029C1.26488 6.29912 1.75546 5.48665 2.46962 4.903C3.18378 4.31935 4.07765 4.00035 4.99997 4H6.83197C10.932 4 14.457 2.766 16 1V15C14.457 13.234 10.933 12 6.83197 12H4.99997C4.4626 12.0008 3.93062 11.892 3.43597 11.682ZM16 11C16.7956 11 17.5587 10.6839 18.1213 10.1213C18.6839 9.55871 19 8.79565 19 8C19 7.20435 18.6839 6.44129 18.1213 5.87868C17.5587 5.31607 16.7956 5 16 5V11Z" stroke="white" stroke-width="1.5" stroke-linecap="round" stroke-linejoin="round"/>
</svg>
