<svg id="Camada_1" data-name="Camada 1" xmlns="http://www.w3.org/2000/svg" viewBox="0 0 24 24"><title>microphone</title><path d="M11.99976,16.342a5.13014,5.13014,0,0,1-4.83057-5.374V6.17847a5.12984,5.12984,0,0,1,4.83057-5.374,5.13022,5.13022,0,0,1,4.831,5.374V10.968A5.13053,5.13053,0,0,1,11.99976,16.342Zm0-14.17236A3.77131,3.77131,0,0,0,8.53442,6.17847V10.968a3.771,3.771,0,0,0,3.46534,4.00879A3.771,3.771,0,0,0,15.46558,10.968V6.17847A3.77135,3.77135,0,0,0,11.99976,2.16968Z"/><path d="M11.99976,19.61841c-4.209,0-7.63379-2.80567-7.63379-6.25391a.68262.68262,0,1,1,1.36523,0c0,2.69531,2.812,4.88867,6.26856,4.88867,3.457,0,6.269-2.19336,6.269-4.88867a.68262.68262,0,1,1,1.36523,0C19.634,16.81274,16.20923,19.61841,11.99976,19.61841Z"/><path d="M11.99976,23.19556a.68268.68268,0,0,1-.68262-.68262V18.93188a.68262.68262,0,0,1,1.36523,0v3.58106A.68268.68268,0,0,1,11.99976,23.19556Z"/></svg>