<svg id="Camada_1" data-name="Camada 1" xmlns="http://www.w3.org/2000/svg" viewBox="0 0 24 24"><defs><style>.cls-1{fill:#fff;}.cls-2{fill:#4567e9;}</style></defs><title>moderador-blue</title><circle class="cls-1" cx="12.53686" cy="12.60129" r="6.28319"/><path class="cls-2" d="M12,3.31a8.69,8.69,0,1,0,8.69,8.69005A8.69,8.69,0,0,0,12,3.31Zm3.30573,11.66014a.58891.58891,0,0,1-1.17782,0V11.21l-1.62165,2.88192a.58747.58747,0,0,1-1.01252,0L9.87186,11.21v3.76012a.5888.5888,0,1,1-1.17759,0V9.03037a.59544.59544,0,0,1,.58879-.58928.58208.58208,0,0,1,.52684.33054L12,12.69738l2.1901-3.92575a.58159.58159,0,0,1,.52684-.33054.59544.59544,0,0,1,.58879.58928Z"/></svg>