<svg id="Camada_1" data-name="Camada 1" xmlns="http://www.w3.org/2000/svg" viewBox="0 0 24 24"><defs><style>.cls-1{fill:#8cabc8;}.cls-2{fill:#1e2b3d;}.cls-3{fill:#fff;}</style></defs><title>moderador-blue-dark</title><circle class="cls-1" cx="11.99998" cy="12.00009" r="8.10015"/><path class="cls-2" d="M12,20.69a8.69,8.69,0,1,1,8.69019-8.68981A8.69977,8.69977,0,0,1,12,20.69ZM12,4.48979a7.51021,7.51021,0,1,0,7.5104,7.5104A7.519,7.519,0,0,0,12,4.48979Z"/><path class="cls-3" d="M11.52808,13.95005l-1.51179-2.68637v3.505a.54883.54883,0,1,1-1.09765,0V9.23194a.555.555,0,0,1,.54882-.54924.54256.54256,0,0,1,.49108.30813L12,12.65008l2.04143-3.65925a.54209.54209,0,0,1,.49108-.30813.555.555,0,0,1,.54882.54924v5.53671a.54893.54893,0,0,1-1.09786,0v-3.505l-1.51158,2.68637a.54761.54761,0,0,1-.94379,0Z"/></svg>