<svg id="Camada_1" data-name="Camada 1" xmlns="http://www.w3.org/2000/svg" viewBox="0 0 24 24"><defs><style>.cls-1{fill:#8cabc8;}.cls-2{fill:#f0f2f5;}.cls-3{fill:#fff;}</style></defs><title>moderador-blue-grey</title><circle class="cls-1" cx="11.99991" cy="12.00009" r="8.10015"/><path class="cls-2" d="M11.99981,20.69A8.69,8.69,0,1,1,20.69,12.00019,8.69944,8.69944,0,0,1,11.99981,20.69Zm0-16.20021a7.51021,7.51021,0,1,0,7.5104,7.5104A7.51868,7.51868,0,0,0,11.99981,4.48979Z"/><path class="cls-3" d="M11.528,13.95005l-1.5118-2.68637v3.505a.54882.54882,0,1,1-1.09764,0V9.23194A.555.555,0,0,1,9.4674,8.6827a.54254.54254,0,0,1,.49107.30813l2.04144,3.65925,2.04144-3.65925a.54207.54207,0,0,1,.49107-.30813.555.555,0,0,1,.54883.54924v5.53671a.54893.54893,0,0,1-1.09786,0v-3.505l-1.51158,2.68637a.54761.54761,0,0,1-.94379,0Z"/></svg>