<svg id="Camada_1" data-name="Camada 1" xmlns="http://www.w3.org/2000/svg" xmlns:xlink="http://www.w3.org/1999/xlink" viewBox="0 0 24 24"><defs><style>.cls-1{clip-path:url(#clip-path);}.cls-2{clip-path:url(#clip-path-2);}</style><clipPath id="clip-path"><path d="M22.0088,9.21319l-2.87958,3.2693L14.615,8.61778a2.16536,2.16536,0,0,0-1.41814-.51962,2.13182,2.13182,0,0,0-.98512.23816l-.62788.31394a.76009.76009,0,0,1-1.08255-.83356.79914.79914,0,0,1,.33559-.498l1.862-1.22328a1.55991,1.55991,0,0,1,1.63465-.05412L15.481,6.68a2.361,2.361,0,0,0,2.40326-.065l1.4398-.89851a.74291.74291,0,0,1,.98512.17321l1.73208,2.17592A.89937.89937,0,0,1,22.0088,9.21319Zm-2.60895,5.456a.61022.61022,0,0,1-.433.20569.637.637,0,0,1-.45468-.16238l-2.92289-2.728a.42894.42894,0,1,0-.58457.62788l3.17188,2.98784a.69074.69074,0,0,1,.0433.95264.67348.67348,0,0,1-.96347.0433l-.50881-.46549-.01082-.01083-2.46821-2.23a.42928.42928,0,1,0-.57376.6387L16.163,16.76939a.7518.7518,0,0,1,.23816.5088.77759.77759,0,0,1-.19486.54128.74592.74592,0,0,1-1.03924.05412l-1.32072-1.16915-.01083-.01083-1.24493-1.1475a.42928.42928,0,0,0-.57375.63871l1.26658,1.12585a.63016.63016,0,0,1,.20569.42219.5696.5696,0,0,1-.16239.44385.61206.61206,0,0,1-.85521.05413L11.34568,17.289a1.57217,1.57217,0,0,0-1.53722-2.08933H9.75433a1.51159,1.51159,0,0,0-.498-1.13667,1.5765,1.5765,0,0,0-.79027-.40055,1.54273,1.54273,0,0,0-.41137-1.66713A1.58429,1.58429,0,0,0,6.83144,11.584h0a1.50244,1.50244,0,0,0-.498-1.09337,1.56283,1.56283,0,0,0-2.21923.07578l-.34642.37889L2.02492,9.48382a.74583.74583,0,0,1-.27064-.51962.82176.82176,0,0,1,.184-.56292L3.86525,6.21452a1.09026,1.09026,0,0,1,1.35319-.22733l.27064.15155a3.46049,3.46049,0,0,0,3.23682.08661l.41137-.20569a2.17042,2.17042,0,0,1,2.01355.0433l-.82274.53046a1.61725,1.61725,0,0,0,1.60217,2.8038l.62789-.31394a1.33774,1.33774,0,0,1,1.46144.17321l4.839,4.13534.45467.38972a.60174.60174,0,0,1,.21651.433A.51079.51079,0,0,1,19.39985,14.66924Zm-9.8079,3.475a.71992.71992,0,1,1-1.05008-.98512l.81192-.866a.71991.71991,0,1,1,1.05007.98512ZM6.26851,17.289a.73649.73649,0,0,1-.22733-.498.7091.7091,0,0,1,.19486-.51962L7.0263,15.427l.64953-.69283a.71991.71991,0,1,1,1.05007.98512l-.184.19486-.62788.67118-.62788.67118A.729.729,0,0,1,6.26851,17.289ZM4.17919,16.174a.73649.73649,0,0,1-.22733-.498.70912.70912,0,0,1,.19486-.51963L6.4742,12.66653a.71991.71991,0,1,1,1.05007.98512l-.47632.5088-.64953.69283L5.186,16.14151A.71535.71535,0,0,1,4.17919,16.174ZM3.09664,13.98724a.73649.73649,0,0,1-.22733-.498.70913.70913,0,0,1,.19485-.51962L4.76377,11.151a.70694.70694,0,0,1,1.00677-.03248.73651.73651,0,0,1,.22734.498.726.726,0,0,1-.19486.51962L4.10341,13.95476a.71536.71536,0,0,1-.498.22734.749.749,0,0,1-.5088-.19486Zm19.605-6.46283L20.96956,5.34848a1.59737,1.59737,0,0,0-2.111-.35724l-1.43979.89852a1.53042,1.53042,0,0,1-1.53723.0433l-1.1475-.6387a2.43437,2.43437,0,0,0-2.51151.0866l-.27064.17321-.25982-.16238a3.02175,3.02175,0,0,0-2.92288-.12992l-.40055.20569A2.64173,2.64173,0,0,1,5.9221,5.40261l-.27064-.15156a1.952,1.952,0,0,0-2.41409.41137L1.32126,7.83835a1.58643,1.58643,0,0,0-.40055,1.1908,1.61029,1.61029,0,0,0,.57376,1.115L3.2049,11.584l-.76862.82275a1.58664,1.58664,0,0,0-.42219,1.12585,1.54432,1.54432,0,0,0,.498,1.09337,1.67628,1.67628,0,0,0,.73614.38972,1.56623,1.56623,0,0,0,.35724,1.797h0a1.561,1.561,0,0,0,1.07172.4222,1.44688,1.44688,0,0,0,.56293-.10826,1.5718,1.5718,0,0,0,.45467.80109h0a1.5611,1.5611,0,0,0,1.07173.4222,1.61744,1.61744,0,0,0,.80109-.21651,1.4546,1.4546,0,0,0,.42219.682h0a1.561,1.561,0,0,0,1.07173.4222,1.53449,1.53449,0,0,0,1.1475-.498l.67118-.71449,1.0609.88769a1.512,1.512,0,0,0,.94182.34642,1.46511,1.46511,0,0,0,1.09338-.48715,1.32387,1.32387,0,0,0,.31393-.56293l.32477.29229a1.60642,1.60642,0,0,0,2.23005-.10825,1.58148,1.58148,0,0,0,.40055-.83357,1.53155,1.53155,0,0,0,1.94859-1.84033,1.40972,1.40972,0,0,0,.82274-.4655,1.46549,1.46549,0,0,0,.37889-1.08255,1.43007,1.43007,0,0,0-.5088-1.0176l-.11908-.10825,2.86877-3.25848A1.75342,1.75342,0,0,0,22.70163,7.52441Z"/></clipPath><clipPath id="clip-path-2"><rect x="-76.31783" y="-224.07388"  /></clipPath></defs><title>parcerias</title><path d="M22.0088,9.21319l-2.87958,3.2693L14.615,8.61778a2.16536,2.16536,0,0,0-1.41814-.51962,2.13182,2.13182,0,0,0-.98512.23816l-.62788.31394a.76009.76009,0,0,1-1.08255-.83356.79914.79914,0,0,1,.33559-.498l1.862-1.22328a1.55991,1.55991,0,0,1,1.63465-.05412L15.481,6.68a2.361,2.361,0,0,0,2.40326-.065l1.4398-.89851a.74291.74291,0,0,1,.98512.17321l1.73208,2.17592A.89937.89937,0,0,1,22.0088,9.21319Zm-2.60895,5.456a.61022.61022,0,0,1-.433.20569.637.637,0,0,1-.45468-.16238l-2.92289-2.728a.42894.42894,0,1,0-.58457.62788l3.17188,2.98784a.69074.69074,0,0,1,.0433.95264.67348.67348,0,0,1-.96347.0433l-.50881-.46549-.01082-.01083-2.46821-2.23a.42928.42928,0,1,0-.57376.6387L16.163,16.76939a.7518.7518,0,0,1,.23816.5088.77759.77759,0,0,1-.19486.54128.74592.74592,0,0,1-1.03924.05412l-1.32072-1.16915-.01083-.01083-1.24493-1.1475a.42928.42928,0,0,0-.57375.63871l1.26658,1.12585a.63016.63016,0,0,1,.20569.42219.5696.5696,0,0,1-.16239.44385.61206.61206,0,0,1-.85521.05413L11.34568,17.289a1.57217,1.57217,0,0,0-1.53722-2.08933H9.75433a1.51159,1.51159,0,0,0-.498-1.13667,1.5765,1.5765,0,0,0-.79027-.40055,1.54273,1.54273,0,0,0-.41137-1.66713A1.58429,1.58429,0,0,0,6.83144,11.584h0a1.50244,1.50244,0,0,0-.498-1.09337,1.56283,1.56283,0,0,0-2.21923.07578l-.34642.37889L2.02492,9.48382a.74583.74583,0,0,1-.27064-.51962.82176.82176,0,0,1,.184-.56292L3.86525,6.21452a1.09026,1.09026,0,0,1,1.35319-.22733l.27064.15155a3.46049,3.46049,0,0,0,3.23682.08661l.41137-.20569a2.17042,2.17042,0,0,1,2.01355.0433l-.82274.53046a1.61725,1.61725,0,0,0,1.60217,2.8038l.62789-.31394a1.33774,1.33774,0,0,1,1.46144.17321l4.839,4.13534.45467.38972a.60174.60174,0,0,1,.21651.433A.51079.51079,0,0,1,19.39985,14.66924Zm-9.8079,3.475a.71992.71992,0,1,1-1.05008-.98512l.81192-.866a.71991.71991,0,1,1,1.05007.98512ZM6.26851,17.289a.73649.73649,0,0,1-.22733-.498.7091.7091,0,0,1,.19486-.51962L7.0263,15.427l.64953-.69283a.71991.71991,0,1,1,1.05007.98512l-.184.19486-.62788.67118-.62788.67118A.729.729,0,0,1,6.26851,17.289ZM4.17919,16.174a.73649.73649,0,0,1-.22733-.498.70912.70912,0,0,1,.19486-.51963L6.4742,12.66653a.71991.71991,0,1,1,1.05007.98512l-.47632.5088-.64953.69283L5.186,16.14151A.71535.71535,0,0,1,4.17919,16.174ZM3.09664,13.98724a.73649.73649,0,0,1-.22733-.498.70913.70913,0,0,1,.19485-.51962L4.76377,11.151a.70694.70694,0,0,1,1.00677-.03248.73651.73651,0,0,1,.22734.498.726.726,0,0,1-.19486.51962L4.10341,13.95476a.71536.71536,0,0,1-.498.22734.749.749,0,0,1-.5088-.19486Zm19.605-6.46283L20.96956,5.34848a1.59737,1.59737,0,0,0-2.111-.35724l-1.43979.89852a1.53042,1.53042,0,0,1-1.53723.0433l-1.1475-.6387a2.43437,2.43437,0,0,0-2.51151.0866l-.27064.17321-.25982-.16238a3.02175,3.02175,0,0,0-2.92288-.12992l-.40055.20569A2.64173,2.64173,0,0,1,5.9221,5.40261l-.27064-.15156a1.952,1.952,0,0,0-2.41409.41137L1.32126,7.83835a1.58643,1.58643,0,0,0-.40055,1.1908,1.61029,1.61029,0,0,0,.57376,1.115L3.2049,11.584l-.76862.82275a1.58664,1.58664,0,0,0-.42219,1.12585,1.54432,1.54432,0,0,0,.498,1.09337,1.67628,1.67628,0,0,0,.73614.38972,1.56623,1.56623,0,0,0,.35724,1.797h0a1.561,1.561,0,0,0,1.07172.4222,1.44688,1.44688,0,0,0,.56293-.10826,1.5718,1.5718,0,0,0,.45467.80109h0a1.5611,1.5611,0,0,0,1.07173.4222,1.61744,1.61744,0,0,0,.80109-.21651,1.4546,1.4546,0,0,0,.42219.682h0a1.561,1.561,0,0,0,1.07173.4222,1.53449,1.53449,0,0,0,1.1475-.498l.67118-.71449,1.0609.88769a1.512,1.512,0,0,0,.94182.34642,1.46511,1.46511,0,0,0,1.09338-.48715,1.32387,1.32387,0,0,0,.31393-.56293l.32477.29229a1.60642,1.60642,0,0,0,2.23005-.10825,1.58148,1.58148,0,0,0,.40055-.83357,1.53155,1.53155,0,0,0,1.94859-1.84033,1.40972,1.40972,0,0,0,.82274-.4655,1.46549,1.46549,0,0,0,.37889-1.08255,1.43007,1.43007,0,0,0-.5088-1.0176l-.11908-.10825,2.86877-3.25848A1.75342,1.75342,0,0,0,22.70163,7.52441Z"/><g class="cls-1"><rect x="-76.31783" y="-224.07388"  /><g class="cls-2"><rect x="-2.69293" y="1.13168"  /></g></g></svg>