<svg id="Camada_1" data-name="Camada 1" xmlns="http://www.w3.org/2000/svg" viewBox="0 0 24 24"><title>plantao</title><path d="M17.9437,19.681a8.1313,8.1313,0,0,0,.60368-.75237c.09992-.14274.229-.33188.33961-.52993a4.60827,4.60827,0,0,0,.2718-.58168,6.53319,6.53319,0,0,0,.34437-1.24572,7.06762,7.06762,0,0,0,.10289-1.55857,5.79733,5.79733,0,0,0-.51327-2.186,6.18369,6.18369,0,0,0-.9998-1.4878c-.16058-.18021-.339-.3628-.56145-.57424-.09159-.08653-.18616-.17307-.28251-.25931-.11538-.10319-.23314-.20609-.3515-.309l-.03331-.02884a12.56908,12.56908,0,0,1-1.3727-1.32394,6.8066,6.8066,0,0,1-.68755-.97243,5.21941,5.21941,0,0,1-.37113-.75148A5.91938,5.91938,0,0,1,14.07,5.19622,10.03126,10.03126,0,0,1,14.31745,2.673l.08684-.35358a.56078.56078,0,0,0-.00476-.15583.49262.49262,0,0,0-.28787-.35775.47836.47836,0,0,0-.12489-.0342l-.10468-.00416-.02379.00327a.49118.49118,0,0,0-.16773.05353.392.392,0,0,0-.06126.03955,11.46194,11.46194,0,0,0-1.15175,1.07711c-.201.21411-.39343.433-.57216.64977-.1472.17873-.29143.36459-.42882.55283a7.55675,7.55675,0,0,0-1.569,3.87873,5.44255,5.44255,0,0,0-.00655.64769,5.17285,5.17285,0,0,0,.121.88679,5.55494,5.55494,0,0,0,.44607,1.23948l.19657.36012c.06661.11449.13441.23226.19478.35389.04163.08356.08089.1701.11687.25723a2.43252,2.43252,0,0,1,.16059,1.64035,1.67585,1.67585,0,0,1-.24832.50614,1.64008,1.64008,0,0,1-1.279.67088l-.00922.0003a2.22227,2.22227,0,0,1-.46569-.05263,2.15769,2.15769,0,0,1-.52339-.18408,1.97275,1.97275,0,0,1-.68308-.58079,3.19428,3.19428,0,0,1-.51387-1.12766,7.17312,7.17312,0,0,1-.20668-1.76852l.00119-.30778a.539.539,0,0,0-.04491-.21412.49364.49364,0,0,0-.41246-.28191l-.01309-.0003a.516.516,0,0,0-.15791.02052l-.05382.01992a1.29586,1.29586,0,0,0-.154.07286,2.77268,2.77268,0,0,0-.33187.20936,3.64736,3.64736,0,0,0-1.00842,1.17613,5.94314,5.94314,0,0,0-.645,2.96964A8.03419,8.03419,0,0,0,4.845,17.13126,7.5991,7.5991,0,0,0,8.25,21.20952a7.71819,7.71819,0,0,0,1.94784.77914,8.00938,8.00938,0,0,0,4.03574-.02915,7.64682,7.64682,0,0,0,2.24581-1.01822A7.78208,7.78208,0,0,0,17.9437,19.681ZM13.97963,21.0192a6.8897,6.8897,0,0,1-1.8045.23671c-.08832,0-.17635-.00178-.265-.00475a7.13545,7.13545,0,0,1-1.64064-.25159,6.72327,6.72327,0,0,1-1.74889-.76307,6.64492,6.64492,0,0,1-2.06858-2.02992,6.76356,6.76356,0,0,1-.90254-2.12775,7.24051,7.24051,0,0,1-.18587-1.85119,5.52542,5.52542,0,0,1,.24415-1.54251L6.069,11.23868l.35923,1.475a5.103,5.103,0,0,0,.38987,1.10477,3.191,3.191,0,0,0,1.07741,1.23918,2.95483,2.95483,0,0,0,.54866.28221,3.23948,3.23948,0,0,0,.61706.17129,2.79876,2.79876,0,0,0,.75981.03628,2.61423,2.61423,0,0,0,1.28527-.49008,2.58171,2.58171,0,0,0,.54064-.53023,2.63376,2.63376,0,0,0,.4092-.79192,2.96851,2.96851,0,0,0,.12371-1.12826,3.89766,3.89766,0,0,0-.25248-1.08633,5.3475,5.3475,0,0,0-.22958-.51208l-.15226-.27627c-.07047-.12133-.14214-.245-.20667-.37321a4.45834,4.45834,0,0,1-.367-1.017,4.2773,4.2773,0,0,1-.09249-.63015c-.0104-.15077-.01338-.30005-.00892-.44428a6.1726,6.1726,0,0,1,1.10863-3.13647c.08506-.13114.17457-.26021.26646-.38719l-.0009-.00089.14126-.19062.0003.0003.68992-.92664.01427,1.26506a7.37178,7.37178,0,0,0,.36578,2.393c.05888.1707.12549.33664.19746.49335.06661.14394.14393.29411.24445.47254a7.7493,7.7493,0,0,0,.84991,1.22372,9.885,9.885,0,0,0,.72441.75832c.09338.08624.19092.17575.28906.26466.12847.1139.25991.2281.39135.342.32652.28281.69646.60309,1.02953.95043a6.33452,6.33452,0,0,1,.69408.86,4.15888,4.15888,0,0,1,.29143.50138,5.1324,5.1324,0,0,1,.45321,2.63984c-.01606.20192-.04223.40682-.07732.60993a5.67357,5.67357,0,0,1-.21887.85943,3.92337,3.92337,0,0,1-.28786.662c-.06781.12193-.14631.24147-.22661.358a7.22414,7.22414,0,0,1-.51744.66791,6.9035,6.9035,0,0,1-1.35367,1.183A6.71861,6.71861,0,0,1,13.97963,21.0192Z"/></svg>