<svg width="13" height="11" viewBox="0 0 13 11" fill="none" xmlns="http://www.w3.org/2000/svg">
<path d="M8.60618 5.17703L5.5593 3.27274C5.44187 3.19936 5.29389 3.19547 5.17281 3.26258C5.05169 3.32969 4.97656 3.45725 4.97656 3.5957V7.4043C4.97656 7.54275 5.05169 7.67029 5.17281 7.73742C5.23034 7.76931 5.29392 7.78516 5.35742 7.78516C5.42758 7.78516 5.49763 7.76579 5.55928 7.72727L8.60615 5.82297C8.71752 5.75337 8.78516 5.63132 8.78516 5.5C8.78516 5.36868 8.71754 5.24663 8.60618 5.17703ZM5.73831 6.71713V4.28285L7.68572 5.5L5.73831 6.71713Z" fill="#74788C"/>
<path d="M11.0957 0.548828H1.9043C0.854268 0.548828 0 1.4031 0 2.45312V8.54688C0 9.5969 0.854268 10.4512 1.9043 10.4512H11.0957C12.1457 10.4512 13 9.5969 13 8.54688V2.45312C13 1.4031 12.1457 0.548828 11.0957 0.548828ZM12.2383 8.54688C12.2383 9.17689 11.7257 9.68945 11.0957 9.68945H1.9043C1.27428 9.68945 0.761719 9.17689 0.761719 8.54688V2.45312C0.761719 1.82311 1.27428 1.31055 1.9043 1.31055H11.0957C11.7257 1.31055 12.2383 1.82311 12.2383 2.45312V8.54688Z" fill="#74788C"/>
</svg>
