<svg id="Camada_1" data-name="Camada 1" xmlns="http://www.w3.org/2000/svg" viewBox="0 0 24 24"><title>reload</title><path d="M15.86407,4.24954,13.017,2.12393a.75436.75436,0,0,0-.48991-.20043A.47811.47811,0,0,0,12.33,1.963a.54486.54486,0,0,0-.27383.55078V4.01271l-.07966.00078a9.03165,9.03165,0,0,0,.02369,18.063H12.001A9.00853,9.00853,0,0,0,20.993,13.044c0-.04385-.011-.85964-.75689-.85964h-.00039c-.69444,0-.73457.80288-.73633.85181V13.044a7.50772,7.50772,0,1,1-7.5242-7.53673l.081-.00078v1.4433a.546.546,0,0,0,.27363.55117.66757.66757,0,0,0,.68075-.15658l2.86-2.13109a.804.804,0,0,0,.27852-.4815A.75038.75038,0,0,0,15.86407,4.24954Z"/></svg>