<svg width="24" height="24" viewBox="0 0 24 24" fill="none" xmlns="http://www.w3.org/2000/svg">
<path fill-rule="evenodd" clip-rule="evenodd" d="M12 10.5C11.1716 10.5 10.5 11.1716 10.5 12C10.5 12.8284 11.1716 13.5 12 13.5C12.8284 13.5 13.5 12.8284 13.5 12C13.5 11.1716 12.8284 10.5 12 10.5ZM9 12C9 10.3431 10.3431 9 12 9C13.6569 9 15 10.3431 15 12C15 13.6569 13.6569 15 12 15C10.3431 15 9 13.6569 9 12Z"/>
<path fill-rule="evenodd" clip-rule="evenodd" d="M12 4.5C11.8011 4.5 11.6103 4.57902 11.4697 4.71967C11.329 4.86032 11.25 5.05109 11.25 5.25V5.38049C11.2485 5.7681 11.1336 6.14679 10.9196 6.46996C10.7056 6.79313 10.4017 7.04666 10.0454 7.19935C9.98203 7.22653 9.91531 7.24477 9.84721 7.25367C9.52348 7.36704 9.17499 7.39498 8.83575 7.33347C8.445 7.26262 8.08444 7.07634 7.80055 6.79865L7.79464 6.79286L7.74967 6.74783C7.68002 6.6781 7.597 6.62248 7.50596 6.58474C7.41491 6.547 7.31731 6.52757 7.21875 6.52757C7.12019 6.52757 7.02259 6.547 6.93154 6.58474C6.8405 6.62248 6.75778 6.6778 6.68813 6.74754L6.68754 6.74813C6.6178 6.81778 6.56248 6.9005 6.52474 6.99154C6.487 7.08259 6.46757 7.18019 6.46757 7.27875C6.46757 7.37731 6.487 7.47491 6.52474 7.56596C6.56248 7.657 6.6178 7.73972 6.68754 7.80937L6.73868 7.86052C7.01637 8.14441 7.20262 8.505 7.27347 8.89575C7.34291 9.27872 7.29835 9.67347 7.14559 10.0311C7.00642 10.396 6.76273 10.712 6.44479 10.9394C6.12041 11.1714 5.73374 11.3005 5.33504 11.3098L5.3175 11.31H5.25C5.05109 11.31 4.86032 11.389 4.71967 11.5297C4.57902 11.6703 4.5 11.8611 4.5 12.06C4.5 12.2589 4.57902 12.4497 4.71967 12.5903C4.86032 12.731 5.05109 12.81 5.25 12.81H5.38049C5.7681 12.8115 6.14679 12.9264 6.46996 13.1404C6.79201 13.3537 7.0449 13.6562 7.19776 14.0108C7.35681 14.3732 7.40408 14.7748 7.33347 15.1642C7.26262 15.555 7.07634 15.9156 6.79865 16.1994L6.79286 16.2054L6.74783 16.2503C6.6781 16.32 6.62248 16.403 6.58474 16.494C6.547 16.5851 6.52757 16.6827 6.52757 16.7812C6.52757 16.8798 6.547 16.9774 6.58474 17.0685C6.62248 17.1595 6.6778 17.2422 6.74754 17.3119L6.74813 17.3125C6.81778 17.3822 6.90049 17.4375 6.99154 17.4753C7.08259 17.513 7.18019 17.5324 7.27875 17.5324C7.37731 17.5324 7.47491 17.513 7.56596 17.4753C7.65701 17.4375 7.73972 17.3822 7.80937 17.3125L7.86052 17.2613C8.14441 16.9836 8.505 16.7974 8.89575 16.7265C9.27872 16.6571 9.67347 16.7017 10.0311 16.8544C10.396 16.9936 10.712 17.2373 10.9394 17.5552C11.1714 17.8796 11.3005 18.2663 11.3098 18.665L11.31 18.6825V18.75C11.31 18.9489 11.389 19.1397 11.5297 19.2803C11.6703 19.421 11.8611 19.5 12.06 19.5C12.2589 19.5 12.4497 19.421 12.5903 19.2803C12.731 19.1397 12.81 18.9489 12.81 18.75V18.6225L12.81 18.6195C12.8116 18.2319 12.9264 17.8532 13.1404 17.53C13.3537 17.208 13.6562 16.9551 14.0109 16.8022C14.3733 16.6432 14.7748 16.5959 15.1642 16.6665C15.555 16.7374 15.9156 16.9237 16.1994 17.2014L16.2054 17.2071L16.2503 17.2522C16.32 17.3219 16.403 17.3775 16.494 17.4153C16.5851 17.453 16.6827 17.4724 16.7812 17.4724C16.8798 17.4724 16.9774 17.453 17.0685 17.4153C17.1595 17.3775 17.2422 17.3222 17.3119 17.2525L17.3125 17.2519C17.3822 17.1822 17.4375 17.0995 17.4753 17.0085C17.513 16.9174 17.5324 16.8198 17.5324 16.7213C17.5324 16.6227 17.513 16.5251 17.4753 16.434C17.4375 16.343 17.3822 16.2603 17.3125 16.1906L17.2613 16.1395C16.9836 15.8556 16.7974 15.495 16.7265 15.1042C16.6559 14.7148 16.7032 14.3133 16.8622 13.9509C17.0151 13.5962 17.268 13.2937 17.59 13.0804C17.9132 12.8664 18.2919 12.7516 18.6795 12.75L18.6825 12.75L18.75 12.75C18.9489 12.75 19.1397 12.671 19.2803 12.5303C19.421 12.3897 19.5 12.1989 19.5 12C19.5 11.8011 19.421 11.6103 19.2803 11.4697C19.1397 11.329 18.9489 11.25 18.75 11.25H18.6225L18.6195 11.25C18.2319 11.2484 17.8532 11.1336 17.53 10.9196C17.2069 10.7056 16.9533 10.4017 16.8006 10.0454C16.7735 9.98203 16.7552 9.91531 16.7463 9.84721C16.633 9.52348 16.605 9.17499 16.6665 8.83575C16.7374 8.445 16.9237 8.08444 17.2014 7.80055L17.2071 7.79464L17.2522 7.74967C17.3219 7.68002 17.3775 7.597 17.4153 7.50596C17.453 7.41491 17.4724 7.31731 17.4724 7.21875C17.4724 7.12019 17.453 7.02259 17.4153 6.93154C17.3775 6.8405 17.3222 6.75778 17.2525 6.68813L17.2519 6.68754C17.1822 6.6178 17.0995 6.56248 17.0085 6.52474C16.9174 6.487 16.8198 6.46757 16.7213 6.46757C16.6227 6.46757 16.5251 6.487 16.434 6.52474C16.343 6.56248 16.2603 6.6178 16.1906 6.68754L16.1395 6.73868C15.8556 7.01637 15.495 7.20262 15.1042 7.27347C14.7148 7.34408 14.3132 7.29681 13.9508 7.13776C13.5962 6.9849 13.2937 6.73201 13.0804 6.40996C12.8664 6.08679 12.7516 5.7081 12.75 5.32049L12.75 5.3175V5.25C12.75 5.05109 12.671 4.86032 12.5303 4.71967C12.3897 4.57902 12.1989 4.5 12 4.5ZM17.55 14.25L18.2361 14.5528C18.1968 14.6419 18.1851 14.7408 18.2025 14.8366C18.2197 14.9314 18.2645 15.019 18.3314 15.0882L18.3725 15.1294C18.3726 15.1295 18.3724 15.1293 18.3725 15.1294C18.5816 15.3383 18.7477 15.5866 18.8609 15.8596C18.9741 16.1328 19.0324 16.4256 19.0324 16.7213C19.0324 17.0169 18.9741 17.3097 18.8609 17.5829C18.7477 17.856 18.5817 18.1042 18.3725 18.3131L17.8425 17.7825L18.3731 18.3125C18.1642 18.5217 17.916 18.6877 17.6429 18.8009C17.3697 18.9141 17.0769 18.9724 16.7812 18.9724C16.4856 18.9724 16.1928 18.9141 15.9196 18.8009C15.6466 18.6877 15.3986 18.5219 15.1897 18.3128C15.1896 18.3127 15.1898 18.3129 15.1897 18.3128L15.1482 18.2714C15.079 18.2045 14.9914 18.1597 14.8966 18.1425C14.8008 18.1251 14.7019 18.1368 14.6128 18.1761L14.6055 18.1794C14.5181 18.2168 14.4435 18.279 14.391 18.3583C14.3387 18.4372 14.3106 18.5297 14.31 18.6244V18.75C14.31 19.3467 14.0729 19.919 13.651 20.341C13.229 20.7629 12.6567 21 12.06 21C11.4633 21 10.891 20.7629 10.469 20.341C10.0471 19.919 9.81 19.3467 9.81 18.75V18.6933C9.80644 18.5979 9.77495 18.5056 9.71936 18.4278C9.66245 18.3483 9.58292 18.2877 9.49111 18.2539C9.47628 18.2484 9.46163 18.2425 9.44718 18.2361C9.35806 18.1968 9.25921 18.1851 9.16337 18.2025C9.06856 18.2197 8.981 18.2645 8.91172 18.3314L8.87063 18.3725C8.87053 18.3726 8.87072 18.3724 8.87063 18.3725C8.66172 18.5816 8.41338 18.7477 8.14037 18.8609C7.86722 18.9741 7.57444 19.0324 7.27875 19.0324C6.98306 19.0324 6.69028 18.9741 6.41713 18.8609C6.14425 18.7478 5.89631 18.582 5.68746 18.3731C5.47827 18.1642 5.31231 17.916 5.19908 17.6429C5.08585 17.3697 5.02757 17.0769 5.02757 16.7812C5.02757 16.4856 5.08585 16.1928 5.19908 15.9196C5.31231 15.6465 5.47827 15.3983 5.68746 15.1894L5.72858 15.1483C5.79546 15.079 5.84035 14.9914 5.85754 14.8966C5.87491 14.8008 5.86318 14.7019 5.82385 14.6128L5.82061 14.6055C5.78315 14.5181 5.721 14.4435 5.64174 14.391C5.56278 14.3387 5.47031 14.3106 5.37562 14.31H5.25C4.65326 14.31 4.08097 14.0729 3.65901 13.651C3.23705 13.229 3 12.6567 3 12.06C3 11.4633 3.23705 10.891 3.65901 10.469C4.08097 10.0471 4.65326 9.81 5.25 9.81H5.30673C5.40213 9.80644 5.49444 9.77495 5.57216 9.71936C5.65173 9.66245 5.71233 9.58292 5.7461 9.49111C5.75155 9.47628 5.75747 9.46163 5.76385 9.44718C5.80318 9.35806 5.81491 9.25921 5.79754 9.16337C5.78035 9.06857 5.73546 8.98101 5.66857 8.91173L5.62747 8.87063C5.41827 8.66166 5.25231 8.41351 5.13908 8.14037C5.02585 7.86722 4.96757 7.57443 4.96757 7.27875C4.96757 6.98307 5.02585 6.69028 5.13908 6.41713C5.25226 6.14412 5.41811 5.89607 5.62717 5.68717C5.83607 5.47811 6.08412 5.31226 6.35713 5.19908C6.63028 5.08585 6.92307 5.02757 7.21875 5.02757C7.51443 5.02757 7.80722 5.08585 8.08037 5.19908C8.35351 5.31231 8.60166 5.47827 8.81063 5.68746L8.85173 5.72857C8.92101 5.79546 9.00857 5.84035 9.10337 5.85754C9.19921 5.87491 9.29806 5.86318 9.38718 5.82385C9.43521 5.80266 9.48519 5.78662 9.5363 5.77592C9.58859 5.74042 9.63374 5.69492 9.66896 5.64174C9.72125 5.56278 9.74941 5.47031 9.75 5.37562V5.25C9.75 4.65326 9.98705 4.08097 10.409 3.65901C10.831 3.23705 11.4033 3 12 3C12.5967 3 13.169 3.23705 13.591 3.65901C14.0129 4.08097 14.25 4.65326 14.25 5.25V5.31562C14.2506 5.41031 14.2787 5.50278 14.331 5.58174C14.3835 5.661 14.4581 5.72319 14.5454 5.76064L14.5528 5.76381C14.642 5.80314 14.7408 5.81491 14.8366 5.79754C14.9314 5.78035 15.019 5.73546 15.0883 5.66858L15.1294 5.62747C15.3383 5.41827 15.5865 5.25231 15.8596 5.13908C16.1328 5.02585 16.4256 4.96757 16.7213 4.96757C17.0169 4.96757 17.3097 5.02585 17.5829 5.13908C17.856 5.25231 18.1042 5.41827 18.3131 5.62747C18.522 5.83631 18.6878 6.08424 18.8009 6.35713C18.9141 6.63028 18.9724 6.92306 18.9724 7.21875C18.9724 7.51444 18.9141 7.80722 18.8009 8.08037C18.6877 8.35338 18.5219 8.60143 18.3128 8.81033C18.3127 8.81043 18.3129 8.81023 18.3128 8.81033L18.2714 8.85173C18.2045 8.92101 18.1597 9.00857 18.1425 9.10337C18.1251 9.19921 18.1368 9.29806 18.1761 9.38718C18.1973 9.43521 18.2134 9.48519 18.2241 9.5363C18.2596 9.58859 18.3051 9.63374 18.3583 9.66896C18.4372 9.72125 18.5297 9.74941 18.6244 9.75H18.75C19.3467 9.75 19.919 9.98705 20.341 10.409C20.7629 10.831 21 11.4033 21 12C21 12.5967 20.7629 13.169 20.341 13.591C19.919 14.0129 19.3467 14.25 18.75 14.25H18.6844C18.5897 14.2506 18.4972 14.2787 18.4183 14.331C18.339 14.3835 18.2768 14.4581 18.2394 14.5454L17.55 14.25Z"/>
</svg>
