<svg id="Camada_1" data-name="Camada 1" xmlns="http://www.w3.org/2000/svg" viewBox="0 0 24 24"><title>share</title><path d="M21.1425,13.16631a.7136.7136,0,0,0-1.42717,0v6.783H4.28447v-6.783a.7135.7135,0,0,0-1.427,0v7.501a.71016.71016,0,0,0,.7121.70932H20.4302a.71566.71566,0,0,0,.50607-.20939.70091.70091,0,0,0,.20623-.49993Z"/><path d="M15.15813,5.49037,12.49677,2.8288a.69906.69906,0,0,0-.49519-.20306l-.03681-.00237a.69769.69769,0,0,0-.4649.20543L8.8389,5.49a.69506.69506,0,0,0-.20287.49756.71832.71832,0,0,0,.71349.71725.73928.73928,0,0,0,.49835-.20584l1.43865-1.43765v9.51537a.71348.71348,0,0,0,1.427,0V5.06406L14.149,6.49934a.71622.71622,0,0,0,1.21461-.511A.6949.6949,0,0,0,15.15813,5.49037Z"/></svg>