<svg width="24" height="24" viewBox="0 0 24 24" fill="none" xmlns="http://www.w3.org/2000/svg">
<path fill-rule="evenodd" clip-rule="evenodd" d="M5.10536 12.2265C5.04569 12.1456 4.99136 12.0698 4.94242 12C4.99136 11.9302 5.04569 11.8544 5.10536 11.7735C5.44149 11.3181 5.94049 10.7109 6.58857 10.1061C7.89475 8.88695 9.72464 7.75 12 7.75C14.2754 7.75 16.1053 8.88695 17.4114 10.1061C18.0595 10.7109 18.5585 11.3181 18.8946 11.7735C18.9543 11.8544 19.0086 11.9302 19.0576 12C19.0086 12.0698 18.9543 12.1456 18.8946 12.2265C18.5585 12.6819 18.0595 13.2891 17.4114 13.8939C16.1053 15.113 14.2754 16.25 12 16.25C9.72464 16.25 7.89475 15.113 6.58857 13.8939C5.94049 13.2891 5.44149 12.6819 5.10536 12.2265ZM21.1178 11.5032C21.118 11.5035 21.1182 11.5039 20.25 12C21.1182 12.4961 21.118 12.4965 21.1178 12.4968L21.1174 12.4977L21.1162 12.4997L21.1131 12.5051L21.1034 12.5216C21.0955 12.5351 21.0846 12.5535 21.0707 12.5764C21.043 12.6223 21.0034 12.6865 20.952 12.7663C20.8494 12.9259 20.6996 13.1489 20.5038 13.4142C20.1134 13.9431 19.5342 14.6484 18.7761 15.3561C17.2697 16.762 14.9746 18.25 12 18.25C9.02536 18.25 6.73025 16.762 5.22393 15.3561C4.46576 14.6484 3.88663 13.9431 3.49621 13.4142C3.30044 13.1489 3.15058 12.9259 3.04798 12.7663C2.99664 12.6865 2.95702 12.6223 2.92928 12.5764C2.91541 12.5535 2.9045 12.5351 2.89658 12.5216L2.88692 12.5051L2.88378 12.4997L2.88263 12.4977L2.88216 12.4968C2.88195 12.4965 2.88176 12.4961 3.75 12C2.88176 11.5039 2.88195 11.5035 2.88216 11.5032L2.88263 11.5023L2.88378 11.5003L2.88692 11.4949L2.89658 11.4784C2.9045 11.4649 2.91541 11.4465 2.92928 11.4236C2.95702 11.3777 2.99664 11.3135 3.04798 11.2337C3.15058 11.0741 3.30044 10.8511 3.49621 10.5858C3.88663 10.0569 4.46576 9.35157 5.22393 8.64394C6.73025 7.23805 9.02536 5.75 12 5.75C14.9746 5.75 17.2697 7.23805 18.7761 8.64394C19.5342 9.35157 20.1134 10.0569 20.5038 10.5858C20.6996 10.8511 20.8494 11.0741 20.952 11.2337C21.0034 11.3135 21.043 11.3777 21.0707 11.4236C21.0846 11.4465 21.0955 11.4649 21.1034 11.4784L21.1131 11.4949L21.1162 11.5003L21.1174 11.5023L21.1178 11.5032ZM20.25 12L21.1182 11.5039C21.2939 11.8113 21.2939 12.1887 21.1182 12.4961L20.25 12ZM2.88176 11.5039L3.75 12L2.88176 12.4961C2.70608 12.1887 2.70608 11.8113 2.88176 11.5039ZM4.61745 11.5025C4.61724 11.5021 4.61719 11.502 4.61732 11.5022L4.61745 11.5025ZM14.25 12C14.25 13.2426 13.2426 14.25 12 14.25C10.7574 14.25 9.75 13.2426 9.75 12C9.75 10.7574 10.7574 9.75 12 9.75C13.2426 9.75 14.25 10.7574 14.25 12Z"/>
</svg>
