<svg id="Camada_1" data-name="Camada 1" xmlns="http://www.w3.org/2000/svg" viewBox="0 0 24 24"><title>sign-out</title><path d="M20.95618,12.45417A.62143.62143,0,0,0,21.144,12a.53792.53792,0,0,0-.171-.41441L17.37048,7.96014a.62532.62532,0,0,0-.88365.885L19.024,11.382H8.56033a.618.618,0,0,0,0,1.236H19.048l-2.53682,2.53682a.61183.61183,0,0,0,0,.88434.60012.60012,0,0,0,.86,0Z"/><path d="M12.19366,18.16433H6.09A2.00045,2.00045,0,0,1,4.09166,16.166V7.834A2.02519,2.02519,0,0,1,6.09,5.83567h6.10366a.61784.61784,0,1,0,0-1.23568H6.09A3.23788,3.23788,0,0,0,2.856,7.834v8.308A3.24987,3.24987,0,0,0,6.09,19.4h6.10366a.61784.61784,0,1,0,0-1.23568Z"/></svg>