<svg id="Camada_1" data-name="Camada 1" xmlns="http://www.w3.org/2000/svg" viewBox="0 0 24 24"><defs><style>.cls-1{fill:#fc3;}.cls-2{fill:#1e2b3d;}</style></defs><title>star-yellow-blue</title><path class="cls-1" d="M7.29407,19.96526a.72476.72476,0,0,1-.68878-.94966l1.64553-5.03376L3.961,10.87666A.72468.72468,0,0,1,4.3861,9.56515l5.2963.01038q.81414-2.51923,1.62641-5.03848a.72472.72472,0,0,1,.68949-.50243h.00024a.72474.72474,0,0,1,.68949.502s1.12327,3.47551,1.62689,5.039l5.298-.01038a.72468.72468,0,0,1,.42506,1.31151l-4.29144,3.1047,1.64695,5.03376a.72468.72468,0,0,1-1.11573.811l-4.27917-3.12216-4.277,3.12169A.72439.72439,0,0,1,7.29407,19.96526Z"/><path class="cls-2" d="M11.99851,4.75925q.89547,2.77091,1.78907,5.5418l5.82526-.01127q-2.35977,1.70926-4.71954,3.4148.90674,2.7681,1.8116,5.53617-2.35414-1.71774-4.70639-3.43359Q9.64719,17.5249,7.294,19.24075q.90393-2.7681,1.80972-5.53617-2.35695-1.70644-4.71766-3.4148l5.82339.01127q.89547-2.7709,1.78907-5.5418m7.61433,5.53053h.00241M11.99852,3.31h-.00067a1.44928,1.44928,0,0,0-1.37879,1.00487q-.73047,2.2674-1.46368,4.53489L8.755,8.849,4.38885,8.84051H4.386a1.44927,1.44927,0,0,0-.85013,2.623l2.74522,1.9872,1.11666.80821-.57638,1.76323-.90507,2.76873A1.44926,1.44926,0,0,0,8.14891,20.411l2.35094-1.71582,1.49883-1.09393,1.511,1.10239,2.34092,1.70784a1.44927,1.44927,0,0,0,2.23152-1.62188l-.90559-2.76746-.57691-1.763q1.91869-1.38757,3.83733-2.77679a1.449,1.449,0,0,0-.82174-2.64183h-.00241l-.00547,0-4.7649.00921Q14.111,6.58164,13.37755,4.3136A1.44928,1.44928,0,0,0,11.99852,3.31Z"/></svg>