<svg id="Camada_1" data-name="Camada 1" xmlns="http://www.w3.org/2000/svg" viewBox="0 0 24 24"><defs><style>.cls-1{fill:#fc3;}.cls-2{fill:#f0f2f5;}</style></defs><title>star-yellow-grey</title><path class="cls-1" d="M7.294,19.96557a.72475.72475,0,0,1-.68878-.94966l1.64552-5.03424L3.961,10.8765A.72458.72458,0,0,1,4.38606,9.565l5.29654.01038s1.10252-3.4123,1.62618-5.03848a.72464.72464,0,0,1,.68925-.50243h.00047a.72526.72526,0,0,1,.68973.502l1.62665,5.039L19.61283,9.565a.72458.72458,0,0,1,.42506,1.31151l-4.29167,3.10565,1.64741,5.03328a.72468.72468,0,0,1-1.11573.811l-4.2794-3.12216-4.277,3.12169A.72442.72442,0,0,1,7.294,19.96557Z"/><path class="cls-2" d="M11.99851,4.75925q.89547,2.77091,1.78907,5.5418l5.82526-.01128q-2.35978,1.70928-4.71954,3.41481.90674,2.7681,1.8116,5.53617-2.35413-1.71774-4.70639-3.43359Q9.64719,17.52489,7.294,19.24075q.90393-2.7681,1.80972-5.53617-2.35695-1.70644-4.71766-3.41481l5.82339.01128q.89547-2.7709,1.78907-5.5418m7.61433,5.53052h.00241M11.99852,3.31h-.00067a1.44929,1.44929,0,0,0-1.37879,1.00487Q9.88859,6.58231,9.15538,8.84974L7.30056,8.84615,4.38886,8.8405H4.386a1.44927,1.44927,0,0,0-.85015,2.623l2.75187,1.992,1.11.8034-.57639,1.76323-.90506,2.76873A1.44927,1.44927,0,0,0,8.14892,20.411l2.3568-1.72011,1.493-1.08964,1.47343,1.075,2.37854,1.73528a1.44927,1.44927,0,0,0,2.23151-1.62188l-.90429-2.76346-.57821-1.767q1.91869-1.38757,3.8373-2.77678a1.449,1.449,0,0,0-.82171-2.64185h-.00788l-2.9187.00565-1.8462.00357q-.7272-2.25495-1.4564-4.50979l-.00851-.02634A1.4493,1.4493,0,0,0,11.99852,3.31Z"/></svg>