<svg width="32" height="32" viewBox="0 0 32 32" fill="none" xmlns="http://www.w3.org/2000/svg">
<path fill-rule="evenodd" clip-rule="evenodd" d="M5 9.40002C5 8.84774 5.44772 8.40002 6 8.40002H25.8C26.3523 8.40002 26.8 8.84774 26.8 9.40002C26.8 9.95231 26.3523 10.4 25.8 10.4H6C5.44772 10.4 5 9.95231 5 9.40002Z" />
<path fill-rule="evenodd" clip-rule="evenodd" d="M13.7 6C13.3818 6 13.0765 6.12643 12.8515 6.35147C12.6264 6.57652 12.5 6.88174 12.5 7.2V8.4H19.3V7.2C19.3 6.88174 19.1736 6.57652 18.9485 6.35147C18.7235 6.12643 18.4183 6 18.1 6H13.7ZM21.3 8.4V7.2C21.3 6.35131 20.9629 5.53737 20.3628 4.93726C19.7626 4.33714 18.9487 4 18.1 4H13.7C12.8513 4 12.0374 4.33714 11.4373 4.93726C10.8372 5.53737 10.5 6.35131 10.5 7.2V8.4H8.20001C7.64773 8.4 7.20001 8.84772 7.20001 9.4V24.8C7.20001 25.6487 7.53715 26.4626 8.13727 27.0627C8.73739 27.6629 9.55132 28 10.4 28H21.4C22.2487 28 23.0626 27.6629 23.6628 27.0627C24.2629 26.4626 24.6 25.6487 24.6 24.8V9.4C24.6 8.84772 24.1523 8.4 23.6 8.4H21.3ZM9.20001 10.4V24.8C9.20001 25.1183 9.32644 25.4235 9.55148 25.6485C9.77653 25.8736 10.0818 26 10.4 26H21.4C21.7183 26 22.0235 25.8736 22.2485 25.6485C22.4736 25.4235 22.6 25.1183 22.6 24.8V10.4H9.20001Z" />
<path fill-rule="evenodd" clip-rule="evenodd" d="M13.7 13.9C14.2523 13.9 14.7 14.3477 14.7 14.9V21.5C14.7 22.0523 14.2523 22.5 13.7 22.5C13.1477 22.5 12.7 22.0523 12.7 21.5V14.9C12.7 14.3477 13.1477 13.9 13.7 13.9Z" />
<path fill-rule="evenodd" clip-rule="evenodd" d="M18.1 13.9C18.6523 13.9 19.1 14.3477 19.1 14.9V21.5C19.1 22.0523 18.6523 22.5 18.1 22.5C17.5477 22.5 17.1 22.0523 17.1 21.5V14.9C17.1 14.3477 17.5477 13.9 18.1 13.9Z" />
</svg>
