<svg width="32" height="32" viewBox="0 0 32 32" fill="none" xmlns="http://www.w3.org/2000/svg">
<path fill-rule="evenodd" clip-rule="evenodd" d="M16.6429 2.28571H15.3572C12.1618 2.28571 9.57149 4.87606 9.57149 8.07142V12.5714H8.28578C6.86562 12.5714 5.71436 13.7227 5.71436 15.1429V28C5.71436 29.4202 6.86562 30.5714 8.28578 30.5714H23.7144C25.1345 30.5714 26.2858 29.4202 26.2858 28V15.1429C26.2858 13.7227 25.1345 12.5714 23.7144 12.5714L22.8572 12.5714H19.4287V12.5714H12.1429V8.07143C12.1429 6.29622 13.582 4.85714 15.3572 4.85714H16.6429C18.0092 4.85714 19.1763 5.70956 19.6416 6.91159L19.6421 6.89844C19.6421 6.89844 19.9507 8 21.1315 8C22.1289 8 22.2838 7.15314 22.3079 6.88999C21.7625 4.26122 19.4334 2.28571 16.6429 2.28571ZM22.3305 7.00456L22.4286 8.0411C22.4267 7.68717 22.3931 7.34075 22.3305 7.00456ZM8.28579 28V15.1429H23.7144V28H8.28579Z" fill="#4364E8"/>
<mask id="mask0" mask-type="alpha" maskUnits="userSpaceOnUse" x="5" y="2" width="22" height="29">
<path fill-rule="evenodd" clip-rule="evenodd" d="M16.6429 2.28571H15.3572C12.1618 2.28571 9.57149 4.87606 9.57149 8.07142V12.5714H8.28578C6.86562 12.5714 5.71436 13.7227 5.71436 15.1429V28C5.71436 29.4202 6.86562 30.5714 8.28578 30.5714H23.7144C25.1345 30.5714 26.2858 29.4202 26.2858 28V15.1429C26.2858 13.7227 25.1345 12.5714 23.7144 12.5714L22.8572 12.5714H19.4287V12.5714H12.1429V8.07143C12.1429 6.29622 13.582 4.85714 15.3572 4.85714H16.6429C18.0092 4.85714 19.1763 5.70956 19.6416 6.91159L19.6421 6.89844C19.6421 6.89844 19.9507 8 21.1315 8C22.1289 8 22.2838 7.15314 22.3079 6.88999C21.7625 4.26122 19.4334 2.28571 16.6429 2.28571ZM22.3305 7.00456L22.4286 8.0411C22.4267 7.68717 22.3931 7.34075 22.3305 7.00456ZM8.28579 28V15.1429H23.7144V28H8.28579Z" fill="white"/>
</mask>
<g mask="url(#mask0)">
<rect width="45.7143" height="45.7143" fill="#4364E8"/>
</g>
</svg>
