<svg id="Camada_1" data-name="Camada 1" xmlns="http://www.w3.org/2000/svg" viewBox="0 0 24 24"><title>tc-icons-maximize</title><path d="M20.96765,2.13558a.89677.89677,0,0,1,.89677.89677V8.14391a.89678.89678,0,0,1-.89677.89677H20.7883a.89678.89678,0,0,1-.89677-.89677V5.48769l-5.36916,5.37046a.89677.89677,0,0,1-1.26822,0l-.12682-.12682a.89677.89677,0,0,1,0-1.26822l5.35449-5.35464H15.85609a.89678.89678,0,0,1-.89677-.89677V3.03235a.89678.89678,0,0,1,.89677-.89677Zm-17.75595,0h7.89153A.89677.89677,0,0,1,12,3.03235V3.2117a.89677.89677,0,0,1-.89677.89677H4.10847l-.0009,15.78306h15.784V12.89677A.89677.89677,0,0,1,20.7883,12h.17935a.89677.89677,0,0,1,.89677.89677l-.00013,7.87614.00013.01539v.17935a.89677.89677,0,0,1-.89677.89677L3.22709,21.86429l-.01539.00013H3.03235a.89677.89677,0,0,1-.89677-.89677V3.03235a.89677.89677,0,0,1,.89677-.89677Z"/></svg>