<svg id="Camada_1" data-name="Camada 1" xmlns="http://www.w3.org/2000/svg" viewBox="0 0 24 24"><defs><style>.cls-1{fill-rule:evenodd;}</style></defs><title>tc-icons-share</title><path class="cls-1" d="M2.5344,20.08494a.80419.80419,0,0,0,.27228.05455.72239.72239,0,0,0,.62591-.38137c1.71547-3.26684,3.64821-5.96187,9.58325-5.77141v2.45a.95544.95544,0,0,0,.57183.8441.76264.76264,0,0,0,.87137-.19046l7.26869-6.1255A.70058.70058,0,0,0,22,10.36578a.76155.76155,0,0,0-.29909-.5991L14.43176,4.02209a.9085.9085,0,0,0-1.41592.7082V7.20757C3.3785,8.29667,2.50713,15.29355,2.153,18.31538c-.05409.3541-.08136.68046-.13591.89865a.76624.76624,0,0,0,.51728.87091M13.34266,8.2694a.89853.89853,0,0,0,.76228-.81683V5.16574l6.61551,5.25459-6.61551,5.58094V13.71444a.87454.87454,0,0,0-.78955-.81683C7.5708,12.65262,5.09351,14.8849,3.324,17.689,3.75941,14.53126,5.039,9.1135,13.34266,8.2694"/></svg>