<svg width="32" height="32" viewBox="0 0 32 32" fill="none" xmlns="http://www.w3.org/2000/svg">
<path fill-rule="evenodd" clip-rule="evenodd" d="M14.5546 19.2504L27.7602 6.53698C28.2149 6.09922 28.2286 5.37573 27.7908 4.92103C27.3531 4.46632 26.6296 4.45258 26.1749 4.89034L13.7423 16.8595L9.60941 12.5907L15.7719 6.52837C16.2218 6.08572 16.2277 5.36213 15.7851 4.91218C15.3424 4.46223 14.6189 4.4563 14.1689 4.89895L7.23581 11.7194C7.11993 11.8229 7.02332 11.9523 6.95595 12.1053C6.93044 12.1625 6.90987 12.2215 6.89424 12.2814L4.61537 20.2575C4.37212 21.1088 5.14767 21.9015 6.00416 21.6769L14.0042 19.5789C14.2287 19.5201 14.4144 19.4027 14.5546 19.2504ZM5.57164 26.2857C5.01936 26.2857 4.57164 26.7334 4.57164 27.2857V27.5714C4.57164 28.1237 5.01936 28.5714 5.57164 28.5714H26.4288C26.9811 28.5714 27.4288 28.1237 27.4288 27.5714V27.2857C27.4288 26.7334 26.9811 26.2857 26.4288 26.2857H5.57164ZM7.36403 18.9573L11.5333 17.8639L8.55526 14.788L7.36403 18.9573Z" />
<mask id="mask0" mask-type="alpha" maskUnits="userSpaceOnUse" x="4" y="4" width="25" height="25">
<path fill-rule="evenodd" clip-rule="evenodd" d="M14.5546 19.2504L27.7602 6.53698C28.2149 6.09922 28.2286 5.37573 27.7908 4.92103C27.3531 4.46632 26.6296 4.45258 26.1749 4.89034L13.7423 16.8595L9.60941 12.5907L15.7719 6.52837C16.2218 6.08572 16.2277 5.36213 15.7851 4.91218C15.3424 4.46223 14.6189 4.4563 14.1689 4.89895L7.23581 11.7194C7.11993 11.8229 7.02332 11.9523 6.95595 12.1053C6.93044 12.1625 6.90987 12.2215 6.89424 12.2814L4.61537 20.2575C4.37212 21.1088 5.14767 21.9015 6.00416 21.6769L14.0042 19.5789C14.2287 19.5201 14.4144 19.4027 14.5546 19.2504ZM5.57164 26.2857C5.01936 26.2857 4.57164 26.7334 4.57164 27.2857V27.5714C4.57164 28.1237 5.01936 28.5714 5.57164 28.5714H26.4288C26.9811 28.5714 27.4288 28.1237 27.4288 27.5714V27.2857C27.4288 26.7334 26.9811 26.2857 26.4288 26.2857H5.57164ZM7.36403 18.9573L11.5333 17.8639L8.55526 14.788L7.36403 18.9573Z" />
</mask>
<g mask="url(#mask0)">
<rect width="45.7143" height="45.7143" />
</g>
</svg>
