<svg id="Camada_1" data-name="Camada 1" xmlns="http://www.w3.org/2000/svg" viewBox="0 0 24 24"><defs><style>.cls-1{fill-rule:evenodd;}</style></defs><title>tc-icons-trade-ideas</title><path class="cls-1" d="M12.0634,3.2746c-.12632,0-.3375.16876-.50625.31653a1.47062,1.47062,0,0,1-1.18076.50624,1.377,1.377,0,0,1-.8857-.6116.43751.43751,0,0,0-.29506-.18972c-.04243,0-.06341.021-.08438.021-.10535.04194-.16875.12633-.18972.12633a8.62143,8.62143,0,0,0,1.18076,3.20527,21.33769,21.33769,0,0,0,3.6691,0A10.65269,10.65269,0,0,0,15.01555,3.4648c0-.1268-.08437-.16875-.10534-.16875-.08438-.02145-.21118.04195-.31653.18972a1.37424,1.37424,0,0,1-.94861.65355,1.48182,1.48182,0,0,1-1.13882-.54819C12.35847,3.44336,12.16875,3.2746,12.0634,3.2746Zm.33736,6.74781a.18146.18146,0,0,1,.16874.16875v.86472a1.82519,1.82519,0,0,1,1.687,1.62361.16151.16151,0,0,1-.16874.18972h-.86472a.16014.16014,0,0,1-.16875-.12632.61228.61228,0,0,0-.59014-.46382h-.75938a.91026.91026,0,0,0-.90666.77987.87633.87633,0,0,0,.86472.94909h.65354a2.0967,2.0967,0,0,1,2.06646,2.27715A2.12529,2.12529,0,0,1,12.59048,18.12v.88569a.18147.18147,0,0,1-.16875.16875h-.86424a.18147.18147,0,0,1-.16875-.16875v-.86472a1.82477,1.82477,0,0,1-1.687-1.62361.1613.1613,0,0,1,.16875-.18972h.86424a.16014.16014,0,0,1,.16875.12632.61369.61369,0,0,0,.59062.4643H12.253a.91068.91068,0,0,0,.90667-.78034.876.876,0,0,0-.86424-.9491h-.56965A2.12952,2.12952,0,0,1,9.57493,13.333a2.08509,2.08509,0,0,1,1.79236-2.25618v-.88569a.18146.18146,0,0,1,.16875-.16875Zm1.83445-2.08719a19.13778,19.13778,0,0,1-2.25618.12632,19.39907,19.39907,0,0,1-2.25618-.12632C7.572,9.60078,5.39973,12.59535,5.39973,15.21c0,3.47937,2.44638,5.54583,6.5793,5.54583s6.57929-2.06646,6.57929-5.54583C18.55832,12.59535,16.386,9.60078,14.23521,7.93522ZM8.7318,2.07286a1.59427,1.59427,0,0,1,1.81334.675v.021c.0634-.04242.12632-.10535.18972-.14777a2.12356,2.12356,0,0,1,1.32854-.6116,1.88,1.88,0,0,1,1.32854.675l.12633.12632c0-.021,0-.021.021-.04195a1.54578,1.54578,0,0,1,1.75041-.654,1.45749,1.45749,0,0,1,.991,1.39193c0,.35847-.12633,1.11784-1.22319,3.437,2.44639,1.89819,4.78694,5.22978,4.80791,8.22388C19.86541,19.322,16.78694,22,12,22c-4.78646,0-7.86541-2.678-7.86541-6.83242,0-2.9941,2.31958-6.30472,4.72354-8.20243A9.244,9.244,0,0,1,7.67736,3.44336,1.45558,1.45558,0,0,1,8.7318,2.07286Z"/></svg>