<svg id="Camada_1" data-name="Camada 1" xmlns="http://www.w3.org/2000/svg" viewBox="0 0 24 24"><title>tc-icons-estate</title><path d="M19.64786,6.92294,14.72678,2.0018H5.63748A1.81783,1.81783,0,0,0,3.81967,3.81967V20.18033A1.81783,1.81783,0,0,0,5.63748,21.9982h12.725a1.81789,1.81789,0,0,0,1.81787-1.81787V8.20834A1.81783,1.81783,0,0,0,19.64786,6.92294Zm-5.83-3.10327,4.54462,4.54462H13.81784ZM5.77341,20.28427,5.50327,3.92587l6.36157-.105.07507,4.544a1.81783,1.81783,0,0,0,1.84766,1.78759l4.54394-.075.1651,9.99683Z"/></svg>