<svg id="Camada_1" data-name="Camada 1" xmlns="http://www.w3.org/2000/svg" viewBox="0 0 24 24"><title>tc-icons-pen</title><path d="M5.89141,10.60058,4.95668,13.8721l3.27154-.85793ZM19.71694,2.83469a.89677.89677,0,0,1,1.2439,1.29208l-10.36256,9.976a.87693.87693,0,0,1-.206.165l-.01235.00623a.85046.85046,0,0,1-.15921.07021c-.016.00539-.03164.01-.04736.01428l-.00635.00152-6.27736,1.6462A.89676.89676,0,0,1,2.7999,14.89232L4.59343,8.615l.01009-.03335.00906-.027.02273-.05642.01257-.02686c.01072-.02314.02237-.04514.0348-.06642l.01563-.02416a.8464.8464,0,0,1,.161-.19083l5.43692-5.34849a.89682.89682,0,0,1,1.33308,1.19469L11.554,4.12,6.71819,8.87657,9.96089,12.226Zm.087,16.78781a.89677.89677,0,0,1,0,1.79354H3.66216a.89677.89677,0,0,1,0-1.79354Z"/></svg>