<svg id="Camada_1" data-name="Camada 1" xmlns="http://www.w3.org/2000/svg" viewBox="0 0 24 24"><title>tc-icons-filters</title><path d="M7.51617,3.92911a.89677.89677,0,1,0,.89677.89677A.89676.89676,0,0,0,7.51617,3.92911Zm0-1.79353a2.69142,2.69142,0,0,1,2.54191,1.80694.78783.78783,0,0,1,.14839-.01341H20.96765a.89677.89677,0,1,1,0,1.79353H10.20647a.90175.90175,0,0,1-.14887-.0123,2.69132,2.69132,0,0,1-5.08334-.0011.78772.78772,0,0,1-.14838.0134H3.03235a.89677.89677,0,1,1,0-1.79353H4.82588a.90184.90184,0,0,1,.14887.01231A2.69083,2.69083,0,0,1,7.51617,2.13558Zm8.96766,8.96765A.89677.89677,0,1,0,17.38059,12,.89677.89677,0,0,0,16.48383,11.10323Zm0-1.79353a2.69143,2.69143,0,0,1,2.5419,1.80694.7879.7879,0,0,1,.14839-.01341h1.79353a.89677.89677,0,0,1,0,1.79354H19.17412a.90184.90184,0,0,1-.14887-.01231,2.69131,2.69131,0,0,1-5.08333-.0011.78783.78783,0,0,1-.14839.01341H3.03235a.89677.89677,0,0,1,0-1.79354H13.79353a.90175.90175,0,0,1,.14887.01231A2.69085,2.69085,0,0,1,16.48383,9.3097Zm-6.27736,8.96766a.89677.89677,0,1,0,.89676.89676A.89676.89676,0,0,0,10.20647,18.27736Zm0-1.79353a2.69142,2.69142,0,0,1,2.54191,1.80694.78775.78775,0,0,1,.14839-.01341h8.07088a.89677.89677,0,1,1,0,1.79353H12.89677a.903.903,0,0,1-.14888-.0123,2.69131,2.69131,0,0,1-5.08333-.00111.78783.78783,0,0,1-.14839.01341H3.03235a.89677.89677,0,1,1,0-1.79353H7.51617a.90284.90284,0,0,1,.14887.0123A2.69082,2.69082,0,0,1,10.20647,16.48383Z"/></svg>