<svg id="Camada_1" data-name="Camada 1" xmlns="http://www.w3.org/2000/svg" viewBox="0 0 24 24"><title>tc-icons-calculator</title><path d="M18.97484,4.02875H5.02516V8.01438H18.97484ZM12.9964,12v1.99281H11.0036V12ZM9.01079,12v1.99281H7.018V12Zm3.98561,3.98562v1.99282H11.0036V15.98562ZM16.982,12v5.97844H14.98921V12ZM9.01079,15.98562v1.99282H7.018V15.98562Zm9.96405-5.97843H5.02516v9.96406H18.97484Zm0-7.97125a1.99281,1.99281,0,0,1,1.99281,1.99281v15.9425a1.99281,1.99281,0,0,1-1.99281,1.99281H5.02516a1.99281,1.99281,0,0,1-1.99281-1.99281V4.02875A1.99281,1.99281,0,0,1,5.02516,2.03594Z"/></svg>