<svg id="Camada_1" data-name="Camada 1" xmlns="http://www.w3.org/2000/svg" viewBox="0 0 24 24"><title>tc-icons-trash</title><path d="M12.9964,3.03235H11.0036a.9964.9964,0,0,0-.99641.9964v.99641h3.98562V4.02875A.9964.9964,0,0,0,12.9964,3.03235Zm1.09605,6.97484a.89676.89676,0,0,1,.89676.89676v6.17772a.89676.89676,0,0,1-.89676.89677h-.19928a.89677.89677,0,0,1-.89677-.89677V10.904a.89677.89677,0,0,1,.89677-.89676Zm-3.98562,0a.89677.89677,0,0,1,.89677.89676v6.17772a.89677.89677,0,0,1-.89677.89677H9.90755a.89676.89676,0,0,1-.89676-.89677V10.904a.89676.89676,0,0,1,.89676-.89676ZM16.982,7.018H7.018V19.97125a.9964.9964,0,0,0,.99641.9964h7.97124a.9964.9964,0,0,0,.99641-.9964ZM12.9964,1.03954a2.98921,2.98921,0,0,1,2.98922,2.98921l-.00039.996,4.08566.0004a.89677.89677,0,0,1,.89676.89676v.19929a.89677.89677,0,0,1-.89676.89676l-1.09675-.0006.0007,12.95388a2.98921,2.98921,0,0,1-2.98922,2.98921H8.01438a2.98921,2.98921,0,0,1-2.98922-2.98921L5.025,7.01737,3.92911,7.018a.89676.89676,0,0,1-.89676-.89676V5.92192a.89676.89676,0,0,1,.89676-.89676l4.08477-.0004.0005-.996A2.98921,2.98921,0,0,1,11.0036,1.03954Z"/></svg>