<svg id="Camada_1" data-name="Camada 1" xmlns="http://www.w3.org/2000/svg" viewBox="0 0 24 24"><title>tc-icons-proposal-details</title><path d="M12.90278,6.16667a.76389.76389,0,0,1,.76389.76389v.13888a.76389.76389,0,0,1-.76389.76389H6.09722a.76389.76389,0,0,1-.76389-.76389V6.93056a.76389.76389,0,0,1,.76389-.76389Zm-5,3.33333a.7639.7639,0,0,1,.76389.76389v.13889a.76389.76389,0,0,1-.76389.76389H6.09722a.76389.76389,0,0,1-.76389-.76389v-.13889A.7639.7639,0,0,1,6.09722,9.5Zm3.33333,3.33333A.76389.76389,0,0,1,12,13.59722v.13889a.7639.7639,0,0,1-.76389.76389H6.09722a.7639.7639,0,0,1-.76389-.76389v-.13889a.76389.76389,0,0,1,.76389-.76389ZM9.56944,16.16667a.76388.76388,0,0,1,.76389.76388v.13889a.76388.76388,0,0,1-.76389.76389H6.09722a.76389.76389,0,0,1-.76389-.76389v-.13889a.76389.76389,0,0,1,.76389-.76388ZM20.33333,4.5H17v15h3.33333Zm-5,0H3.66667v15H15.33334Zm5.83333-1.66667A.83334.83334,0,0,1,22,3.66667V20.33333a.83334.83334,0,0,1-.83333.83334H2.83333A.83334.83334,0,0,1,2,20.33333V3.66667a.83334.83334,0,0,1,.83333-.83334Z"/></svg>