<svg id="Camada_1" data-name="Camada 1" xmlns="http://www.w3.org/2000/svg" viewBox="0 0 24 24"><defs><style>.cls-1{fill-rule:evenodd;}</style></defs><title>tc-icons-blog</title><path class="cls-1" d="M2.4653,8.32261a13.61185,13.61185,0,0,1,2.074.22618A16.13022,16.13022,0,0,1,9.02091,10.012c4.148,2.09794,6.66766,5.86294,6.66766,11.54574a1.02895,1.02895,0,1,1-2.0579,0c0-4.87423-2.05763-7.94879-5.53855-9.70936a14.1032,14.1032,0,0,0-3.91013-1.273c-.4682-.08255-.90174-.137-1.28835-.16876-.22541-.01852-.38018-.0254-.45212-.02624A1.029,1.029,0,1,1,2.4653,8.32261Zm0-7.07227c.174.00208.48048.01572.90075.05025.68954.05666,1.45514.15283,2.27832.298a24.88914,24.88914,0,0,1,6.91285,2.256c6.35814,3.21583,10.20395,8.96232,10.20395,17.70357a1.02895,1.02895,0,1,1-2.05789,0c0-7.93268-3.38374-12.98874-9.07486-15.8672A22.86237,22.86237,0,0,0,5.28708,3.62519c-.75829-.13369-1.46119-.222-2.08954-.27362-.37046-.03044-.62883-.04193-.756-.0434a1.029,1.029,0,1,1,.0238-2.05783ZM4.389,16.45045a3.12887,3.12887,0,0,1,2.22334.92573,3.006,3.006,0,0,1,.90981,2.20742.0202.0202,0,0,0,0,.033A3.006,3.006,0,0,1,6.61237,21.824a3.12879,3.12879,0,0,1-2.22334.92573A3.02927,3.02927,0,0,1,2.16455,21.824a3.0639,3.0639,0,0,1-.91436-1.97769l-.01137-.21381v-.06482a3.09259,3.09259,0,0,1,.92573-2.1915A3.02931,3.02931,0,0,1,4.389,16.45045Z"/></svg>