<svg width="32" height="32" viewBox="0 0 32 32" fill="none" xmlns="http://www.w3.org/2000/svg">
<path fill-rule="evenodd" clip-rule="evenodd" d="M15.3572 2.28571H16.6429C19.8383 2.28571 22.4286 4.87606 22.4286 8.07142V12.5714H23.7144C25.1345 12.5714 26.2858 13.7227 26.2858 15.1429V28C26.2858 29.4202 25.1345 30.5714 23.7144 30.5714H8.28578C6.86562 30.5714 5.71436 29.4202 5.71436 28V15.1429C5.71436 13.7227 6.86562 12.5714 8.28578 12.5714H9.57149V8.07142C9.57149 4.87606 12.1618 2.28571 15.3572 2.28571ZM12.1429 12.5714H19.8572V8.07143C19.8572 6.29622 18.4181 4.85714 16.6429 4.85714H15.3572C13.582 4.85714 12.1429 6.29622 12.1429 8.07143V12.5714ZM8.28579 15.1429V28H23.7144V15.1429H8.28579Z" fill="#4364E8"/>
<mask id="mask0" mask-type="alpha" maskUnits="userSpaceOnUse" x="5" y="2" width="22" height="29">
<path fill-rule="evenodd" clip-rule="evenodd" d="M15.3572 2.28571H16.6429C19.8383 2.28571 22.4286 4.87606 22.4286 8.07142V12.5714H23.7144C25.1345 12.5714 26.2858 13.7227 26.2858 15.1429V28C26.2858 29.4202 25.1345 30.5714 23.7144 30.5714H8.28578C6.86562 30.5714 5.71436 29.4202 5.71436 28V15.1429C5.71436 13.7227 6.86562 12.5714 8.28578 12.5714H9.57149V8.07142C9.57149 4.87606 12.1618 2.28571 15.3572 2.28571ZM12.1429 12.5714H19.8572V8.07143C19.8572 6.29622 18.4181 4.85714 16.6429 4.85714H15.3572C13.582 4.85714 12.1429 6.29622 12.1429 8.07143V12.5714ZM8.28579 15.1429V28H23.7144V15.1429H8.28579Z" fill="white"/>
</mask>
<g mask="url(#mask0)">
<rect width="32" height="32" fill="#4364E8"/>
</g>
</svg>
