<svg id="Camada_1" data-name="Camada 1" xmlns="http://www.w3.org/2000/svg" viewBox="0 0 24 24"><title>tc-icons-compare-proposals</title><path d="M16.23611,6.16667A.76388.76388,0,0,1,17,6.93056v.13888a.76388.76388,0,0,1-.76389.76389h-.97222A.76388.76388,0,0,1,14.5,7.06944V6.93056a.76388.76388,0,0,1,.76389-.76389Zm-7.5,0A.76388.76388,0,0,1,9.5,6.93056v.13888a.76388.76388,0,0,1-.76389.76389H6.09722a.76389.76389,0,0,1-.76389-.76389V6.93056a.76389.76389,0,0,1,.76389-.76389ZM17.90278,9.5a.76389.76389,0,0,1,.76388.76389v.13889a.76388.76388,0,0,1-.76388.76389H15.26389A.76388.76388,0,0,1,14.5,10.40278v-.13889A.76389.76389,0,0,1,15.26389,9.5ZM7.06944,9.5a.76389.76389,0,0,1,.76389.76389v.13889a.76388.76388,0,0,1-.76389.76389H6.09722a.76389.76389,0,0,1-.76389-.76389v-.13889A.7639.7639,0,0,1,6.09722,9.5Zm10,3.33333a.76388.76388,0,0,1,.76389.76389v.13889a.76389.76389,0,0,1-.76389.76389H15.26389A.76389.76389,0,0,1,14.5,13.73611v-.13889a.76388.76388,0,0,1,.76389-.76389Zm-8.33333,0A.76388.76388,0,0,1,9.5,13.59722v.13889A.76389.76389,0,0,1,8.73611,14.5H6.09722a.7639.7639,0,0,1-.76389-.76389v-.13889a.76389.76389,0,0,1,.76389-.76389Zm9.16667,3.33334a.76388.76388,0,0,1,.76388.76388v.13889a.76388.76388,0,0,1-.76388.76389H15.26389A.76388.76388,0,0,1,14.5,17.06944v-.13889a.76388.76388,0,0,1,.76389-.76388Zm-10,0a.76389.76389,0,0,1,.76389.76388v.13889a.76389.76389,0,0,1-.76389.76389H6.09722a.76389.76389,0,0,1-.76389-.76389v-.13889a.76389.76389,0,0,1,.76389-.76388ZM20.33333,4.5h-7.5v15h7.5Zm-9.16666,0h-7.5v15h7.5Zm10-1.66667A.83334.83334,0,0,1,22,3.66667V20.33333a.83334.83334,0,0,1-.83333.83334H2.83333A.83334.83334,0,0,1,2,20.33333V3.66667a.83334.83334,0,0,1,.83333-.83334Z"/></svg>