<svg id="Camada_1" data-name="Camada 1" xmlns="http://www.w3.org/2000/svg" viewBox="0 0 24 24"><path d="M3.64,17.37V8.6h8.78l1.49-1.5H3.64V5.79A1.32,1.32,0,0,1,5,4.47H6.27v1h1.5v-1h7.78v1L18,3H17V1.43H15.55V3H7.77V1.43H6.27V3H5A2.81,2.81,0,0,0,2.15,5.79V17.64a2.74,2.74,0,0,0,.2,1Z"/><path d="M19.67,8.6v9A1.31,1.31,0,0,1,18.36,19H8l-1.5,1.5H18.36a2.82,2.82,0,0,0,2.81-2.81V5.82L18.39,8.6Z"/><path d="M23.39.61a.78.78,0,0,0-1.12,0L.61,22.27a.77.77,0,0,0,0,1.12.77.77,0,0,0,1.12,0L23.39,1.73A.77.77,0,0,0,23.39.61Z"/></svg>