<svg id="Camada_1" data-name="Camada 1" xmlns="http://www.w3.org/2000/svg" viewBox="0 0 24 24"><title>tc-icons-plus</title><path d="M12.22419,3.03235a.89677.89677,0,0,1,.89677.89676V10.879h6.94993a.89677.89677,0,0,1,.89676.89677v.44838a.89677.89677,0,0,1-.89676.89677H13.121v6.94993a.89676.89676,0,0,1-.89677.89676h-.44838a.89676.89676,0,0,1-.89677-.89676V13.12006l-6.94993.0009a.89676.89676,0,0,1-.89676-.89677v-.44838a.89676.89676,0,0,1,.89676-.89677l6.94993-.00089v-6.949a.89677.89677,0,0,1,.89677-.89676Z"/></svg>