<svg id="Camada_1" data-name="Camada 1" xmlns="http://www.w3.org/2000/svg" xmlns:xlink="http://www.w3.org/1999/xlink" viewBox="0 0 24 24"><defs><style>.cls-1{clip-rule:evenodd;}.cls-2{fill-rule:evenodd;}.cls-3{clip-path:url(#clip-path);}.cls-4{isolation:isolate;}.cls-5{clip-path:url(#clip-path-2);}.cls-6{clip-path:url(#clip-path-3);}</style><clipPath id="clip-path"><path class="cls-1" d="M16.48383,6.61941a.89677.89677,0,0,1,0,1.79353H12a.89677.89677,0,1,1,0-1.79353Zm0,4.48382a.89677.89677,0,0,1,0,1.79354H12a.89677.89677,0,0,1,0-1.79354Z"/></clipPath><clipPath id="clip-path-2"><rect x="-8.6256" y="-6.83207"  /></clipPath><clipPath id="clip-path-3"><rect x="11.10323" y="6.61941" width="6.27736" height="6.27736"/></clipPath></defs><title>tc-icons-tools</title><path d="M19.17413,2.13556H2.13556V21.86438H19.17413a2.69015,2.69015,0,0,0,2.69031-2.69025V4.82587A2.69016,2.69016,0,0,0,19.17413,2.13556ZM6.61938,20.07086H3.92914V3.92908H6.61938Zm13.45148-.89673a.89705.89705,0,0,1-.89673.89673H8.413V3.92908H19.17413a.8971.8971,0,0,1,.89673.89679Z"/><path class="cls-2" d="M16.48383,6.61941a.89677.89677,0,0,1,0,1.79353H12a.89677.89677,0,1,1,0-1.79353Zm0,4.48382a.89677.89677,0,0,1,0,1.79354H12a.89677.89677,0,0,1,0-1.79354Z"/><g class="cls-3"><g class="cls-4"><rect x="-8.6256" y="-6.83207"  /><g class="cls-5"><rect x="11.10323" y="6.61941" width="6.27736" height="6.27736"/><g class="cls-6"><rect x="6.61941" y="2.13558"  /></g><rect x="-8.6256" y="-6.83207"  /><g class="cls-5"><rect x="11.10323" y="6.61941" width="6.27736" height="6.27736"/><g class="cls-6"><rect x="-13.10943" y="-11.3159"  /></g></g></g></g></g></svg>