<svg id="Camada_1" data-name="Camada 1" xmlns="http://www.w3.org/2000/svg" viewBox="0 0 24 24"><title>tc-text-editor-strikethrough</title><path d="M12.32385,2a10.26854,10.26854,0,0,1,2.98387.43011,5.12581,5.12581,0,0,1,2.5,1.74731L15.71094,6.086A3.47982,3.47982,0,0,0,14.34,4.87634a4.33869,4.33869,0,0,0-2.01613-.457,4.88836,4.88836,0,0,0-1.78763.28225,3.2124,3.2124,0,0,0-1.14248.72581,2.56426,2.56426,0,0,0-.60483.9543,2.92474,2.92474,0,0,0-.17473.94086A2.39876,2.39876,0,0,0,9.3131,9.17742,5.42846,5.42846,0,0,0,11.047,10.22581l.2409.09034,9.14542.00094a.937.937,0,1,1,0,1.87406l-8.07346-.00093-3.733.001-.002-.001-5.05809.00093a.937.937,0,1,1,0-1.87406l3.03791.00063-.03347-.05159a5.39942,5.39942,0,0,1-.69892-2.94355A5.07293,5.07293,0,0,1,7.37761,3.828,6.304,6.304,0,0,1,9.3803,2.52419,7.45242,7.45242,0,0,1,12.32385,2Zm5.3285,12.0639a5.4323,5.4323,0,0,1,.34355,2.049,5.68645,5.68645,0,0,1-.5242,2.47312,5.48927,5.48927,0,0,1-1.41129,1.85484,6.2613,6.2613,0,0,1-2.09678,1.15591A8.1087,8.1087,0,0,1,11.383,22a9.38548,9.38548,0,0,1-3.46774-.64516,5.70194,5.70194,0,0,1-2.60753-1.98925l2.12366-1.828A4.23975,4.23975,0,0,0,9.219,19.08333a5.34681,5.34681,0,0,0,2.24462.49732,4.57011,4.57011,0,0,0,1.31721-.20162,4.00143,4.00143,0,0,0,1.22311-.60484,3.29856,3.29856,0,0,0,.90055-.99462,2.64411,2.64411,0,0,0,.34945-1.371,2.05512,2.05512,0,0,0-.69892-1.6801,5.41972,5.41972,0,0,0-1.03607-.66462Z"/></svg>