<svg id="Camada_1" data-name="Camada 1" xmlns="http://www.w3.org/2000/svg" viewBox="0 0 24 24"><title>tc-text-editor-attach</title><path d="M8.691,16.70143l1.71575-1.71575,2.6571-2.65709a9.307,9.307,0,0,1,.75354-.728l-.1878.14607a2.51312,2.51312,0,0,1,.53326-.313c-.07419.03015-.14838.0626-.22258.09275a2.57843,2.57843,0,0,1,.64457-.17622c-.08115.0116-.16462.02319-.24577.03246a2.62828,2.62828,0,0,1,.633,0c-.08115-.01159-.16463-.02319-.24578-.03246a2.48371,2.48371,0,0,1,.64457.17622c-.07419-.03015-.14839-.0626-.22259-.09275a2.615,2.615,0,0,1,.53328.313l-.1878-.14607a2.4768,2.4768,0,0,1,.42662.42662l-.14608-.18781a2.513,2.513,0,0,1,.313.53328c-.03014-.07419-.0626-.14839-.09274-.22259a2.57884,2.57884,0,0,1,.17621.64457c-.01159-.08115-.02319-.16462-.03245-.24577a2.6282,2.6282,0,0,1,0,.633c.01159-.08115.02318-.16462.03245-.24577a2.4838,2.4838,0,0,1-.17621.64457c.03014-.0742.0626-.14839.09274-.22258a2.61524,2.61524,0,0,1-.313.53327l.14608-.18781a8.58794,8.58794,0,0,1-.66775.69558l-1.27754,1.27754-2.82172,2.82172a10.90807,10.90807,0,0,1-.96917.9112l.1878-.14607a5.26924,5.26924,0,0,1-1.0735.61906c.07419-.03014.14838-.0626.22258-.09274a5.06378,5.06378,0,0,1-1.26131.34547c.08115-.0116.16462-.02319.24577-.03246a5.11486,5.11486,0,0,1-1.33086,0c.08115.01159.16462.02318.24577.03246a5.06378,5.06378,0,0,1-1.26131-.34547c.07419.03014.14839.0626.22258.09274a4.95275,4.95275,0,0,1-1.07119-.6237l.18781.14607A5.03208,5.03208,0,0,1,4.5964,18.503l.14607.18781a4.81692,4.81692,0,0,1-.626-1.07119c.03015.0742.06261.14839.09275.22259a5.06316,5.06316,0,0,1-.34547-1.26131c.01159.08115.02318.16462.03246.24577a5.11406,5.11406,0,0,1,0-1.33087c-.01159.08115-.02319.16462-.03246.24577a5.06292,5.06292,0,0,1,.34547-1.26131c-.03014.07419-.0626.14839-.09275.22258a4.95374,4.95374,0,0,1,.6237-1.07118l-.14607.18781A12.7524,12.7524,0,0,1,5.72555,12.63l2.04267-2.04267q1.259-1.259,2.518-2.518l2.147-2.147c.30141-.30142.6005-.60283.90425-.90425a5.20508,5.20508,0,0,1,.47994-.422l-.1878.14608a4.89821,4.89821,0,0,1,1.07118-.6237c-.0742.03014-.14839.0626-.22258.09274a5.0629,5.0629,0,0,1,1.26131-.34546c-.08115.01159-.16462.02318-.24577.03245a5.11494,5.11494,0,0,1,1.33087,0c-.08115-.01159-.16463-.02318-.24578-.03245a5.0629,5.0629,0,0,1,1.26131.34546c-.07419-.03014-.14838-.0626-.22258-.09274a4.95339,4.95339,0,0,1,1.07119.6237L18.501,4.5961a5.03175,5.03175,0,0,1,.90192.90194l-.14606-.18781a4.89868,4.89868,0,0,1,.6237,1.07118c-.03014-.07419-.0626-.14838-.09274-.22258a5.06333,5.06333,0,0,1,.34546,1.26131c-.01159-.08115-.02318-.16462-.03246-.24577a5.11494,5.11494,0,0,1,0,1.33087c.0116-.08115.02319-.16462.03246-.24577a5.06333,5.06333,0,0,1-.34546,1.26131c.03014-.07419.0626-.14839.09274-.22258a4.95333,4.95333,0,0,1-.6237,1.07118l.14606-.1878a4.88058,4.88058,0,0,1-.422.47994.928.928,0,1,0,1.31232,1.31232A5.8402,5.8402,0,0,0,21.958,7.20451,5.79332,5.79332,0,0,0,19.12,2.79689a5.88386,5.88386,0,0,0-4.985-.43822,5.99,5.99,0,0,0-2.11224,1.3471l-.24113.24114-1.42361,1.4236L8.19021,7.53839,5.93886,9.78974,4.237,11.49158A10.971,10.971,0,0,0,3.05454,12.8039a5.847,5.847,0,0,0,7.68611,8.43268,8.91787,8.91787,0,0,0,1.84559-1.55577l2.09832-2.09831,1.95225-1.95225.38256-.38257a3.39085,3.39085,0,0,0,.9854-2.41133,3.33509,3.33509,0,0,0-1.20566-2.54348,3.40949,3.40949,0,0,0-1.368-.68862,3.55434,3.55434,0,0,0-1.56272,0,3.38642,3.38642,0,0,0-1.64156.939l-.53791.53792L9.58832,13.18182,7.68244,15.0877l-.30837.30837a.93993.93993,0,0,0,0,1.31232A.95922.95922,0,0,0,8.691,16.70143Z"/></svg>