<svg id="Camada_1" data-name="Camada 1" xmlns="http://www.w3.org/2000/svg" viewBox="0 0 24 24"><title>tc-text-editor-list-02</title><path d="M21.21739,2.77433a1.0352,1.0352,0,1,1,0,2.07039H7.75983a1.0352,1.0352,0,0,1,0-2.07039ZM4.23188,2V6.39751H3.33747v-3.354l-.882.7764-.528-.6087L3.36232,2Zm16.98551,8.5383a1.0352,1.0352,0,1,1,0,2.0704H7.75983a1.0352,1.0352,0,0,1,0-2.0704ZM3.4617,9.68944a1.81636,1.81636,0,0,1,.559.08385,1.302,1.302,0,0,1,.45342.24845,1.12957,1.12957,0,0,1,.30124.413,1.43037,1.43037,0,0,1,.1087.57764,1.54973,1.54973,0,0,1-.04348.382,1.29359,1.29359,0,0,1-.12112.31056,1.41741,1.41741,0,0,1-.18323.25776,3.00852,3.00852,0,0,1-.22981.22982L2.971,13.34161H4.92132v.81988H1.853v-.98758l1.70808-1.53416a3.21214,3.21214,0,0,0,.26087-.26708.51181.51181,0,0,0,.13043-.34783.42227.42227,0,0,0-.16149-.35093.594.594,0,0,0-.37888-.12733.52038.52038,0,0,0-.40683.16149.65119.65119,0,0,0-.1646.39752l-.93168-.06832a1.51558,1.51558,0,0,1,.14286-.59317,1.24666,1.24666,0,0,1,.32919-.41926,1.38612,1.38612,0,0,1,.48137-.25155A2.05592,2.05592,0,0,1,3.4617,9.68944Zm17.75569,8.61284a1.0352,1.0352,0,1,1,0,2.07039H7.75983a1.0352,1.0352,0,0,1,0-2.07039ZM3.3499,17.45342a2.19061,2.19061,0,0,1,.56211.07142,1.37935,1.37935,0,0,1,.47515.22361,1.11871,1.11871,0,0,1,.32609.382,1.15745,1.15745,0,0,1,.12112.54659,1.027,1.027,0,0,1-.19255.62733.88233.88233,0,0,1-.559.3354v.01863a.87032.87032,0,0,1,.35093.118.94742.94742,0,0,1,.25776.22981,1.00739,1.00739,0,0,1,.16149.31056,1.19011,1.19011,0,0,1,.0559.36646,1.24976,1.24976,0,0,1-.12733.57764,1.2075,1.2075,0,0,1-.34161.413,1.4625,1.4625,0,0,1-.50311.24534A2.26261,2.26261,0,0,1,3.32505,22a1.83854,1.83854,0,0,1-1.01553-.27329,1.32778,1.32778,0,0,1-.56211-.86336l.98137-.22981a.66932.66932,0,0,0,.20186.37267.65439.65439,0,0,0,.45031.13665.58406.58406,0,0,0,.45031-.15839.57676.57676,0,0,0,.146-.40683.46983.46983,0,0,0-.07764-.28882.46386.46386,0,0,0-.20187-.15217.89284.89284,0,0,0-.2795-.059q-.15528-.00931-.31056-.00932H2.89027v-.80745h.30435a1.71507,1.71507,0,0,0,.25466-.01863.7271.7271,0,0,0,.2267-.07143.423.423,0,0,0,.1646-.14907.45729.45729,0,0,0,.06211-.25155.40868.40868,0,0,0-.15838-.3292.5906.5906,0,0,0-.3882-.13043.5468.5468,0,0,0-.36025.118.541.541,0,0,0-.18634.29193l-1.02484-.21118a1.41119,1.41119,0,0,1,.2236-.48758,1.2313,1.2313,0,0,1,.354-.32609,1.56311,1.56311,0,0,1,.45652-.18323A2.31966,2.31966,0,0,1,3.3499,17.45342Z"/></svg>