<svg id="Camada_1" data-name="Camada 1" xmlns="http://www.w3.org/2000/svg" viewBox="0 0 24 24"><title>tc-text-editor-bold</title><path d="M8.83577,13.27916v5.20607h2.7605a4.09242,4.09242,0,0,0,2.58165-.66874,2.47281,2.47281,0,0,0,.832-2.049q0-2.48833-3.55366-2.48834Zm0-3.36314h2.46112A4.50929,4.50929,0,0,0,13.793,9.38336a1.99071,1.99071,0,0,0,.7776-1.76517,1.76514,1.76514,0,0,0-.83982-1.64851A5.47568,5.47568,0,0,0,11.06361,5.472H8.83577ZM4.59782,2h6.22085Q15.06828,2,16.989,3.20918a4.21133,4.21133,0,0,1,1.92068,3.84914,4.8484,4.8484,0,0,1-.83981,2.93934,3.35926,3.35926,0,0,1-2.23562,1.38026V11.514a4.31275,4.31275,0,0,1,2.72162,1.58632,5.15934,5.15934,0,0,1,.83981,3.091,5.08943,5.08943,0,0,1-1.97511,4.27683A8.53923,8.53923,0,0,1,12.05505,22H4.59782Z"/></svg>