<svg id="Camada_1" data-name="Camada 1" xmlns="http://www.w3.org/2000/svg" viewBox="0 0 24 24"><title>terminal-videos</title><path d="M15.791,11.60343,10.20876,8.30484A.45776.45776,0,0,0,9.934,8.23938a.46442.46442,0,0,0-.42574.46226v6.59672a.46356.46356,0,0,0,.70028.40481l5.582-3.29814a.46231.46231,0,0,0,.00044-.8016Zm-1.22266.43554-4.13648,2.45156V9.51793l4.20284,2.48185Z"/><path d="M18.59684,4.17972H5.40316A4.01878,4.01878,0,0,0,1.38915,8.194V15.806a4.01878,4.01878,0,0,0,4.014,4.01424H18.59684a4.01878,4.01878,0,0,0,4.014-4.01424V8.194A4.01878,4.01878,0,0,0,18.59684,4.17972ZM21.68723,15.806a3.05735,3.05735,0,0,1-3.09039,3.09017H5.40316A3.05735,3.05735,0,0,1,2.31277,15.806V8.194A3.05735,3.05735,0,0,1,5.40316,5.10379H18.59684A3.05735,3.05735,0,0,1,21.68723,8.194Z"/></svg>