<svg id="Camada_1" data-name="Camada 1" xmlns="http://www.w3.org/2000/svg" viewBox="0 0 24 24"><title>terminal-trade-ideas</title><path d="M12,21.651c4.587,0,7.551-2.56487,7.551-6.53446-.02129-2.99036-2.42929-6.21385-4.65775-7.94284l-.11908-.09252.06435-.136A10.48386,10.48386,0,0,0,16.02386,3.6438a1.25155,1.25155,0,0,0-.845-1.19083,1.3298,1.3298,0,0,0-1.49838.55511l-.005.39389-.43924-.43511a1.659,1.659,0,0,0-1.17411-.6087,1.85379,1.85379,0,0,0-1.15167.52992l-.038.03069a1.09471,1.09471,0,0,0-.08954.06961,1.38964,1.38964,0,0,1-.11106.08565l-.29107.19237V2.9577A1.42269,1.42269,0,0,0,9.24323,2.349,1.34769,1.34769,0,0,0,8.84,2.41175a1.24756,1.24756,0,0,0-.90549,1.16976A9.03217,9.03217,0,0,0,9.077,6.963l.0671.136L9.025,7.19293c-2.20395,1.74-4.576,4.96165-4.576,7.92361C4.449,19.08613,7.413,21.651,12,21.651ZM8.78338,3.58151V3.39373h.12573a.65289.65289,0,0,1,.17931-.1113l.04145-.01328c.07969-.02977.27961-.076.54366.23129A1.19358,1.19358,0,0,0,10.437,4.04a1.25651,1.25651,0,0,0,.98519-.43878c.31305-.27343.48709-.37373.63984-.37373.14359,0,.30824.10626.56839.36641a1.28665,1.28665,0,0,0,.97213.485,1.16444,1.16444,0,0,0,.78733-.55236.523.523,0,0,1,.51915-.27206.33279.33279,0,0,1,.24527.34763,10.46759,10.46759,0,0,1-1.24259,3.21433l-.04626.09572-.1058.00962c-.57709.05222-1.18923.07832-1.8064.07832s-1.23938-.0261-1.83685-.07832l-.1042-.00916-.047-.093A8.58464,8.58464,0,0,1,8.78338,3.58151ZM9.64422,7.852,9.7049,7.8053l.07626.0087a18.89276,18.89276,0,0,0,2.198.1232,18.68105,18.68105,0,0,0,2.198-.1232l.07626-.0087.06069.04671c2.08326,1.614,4.32569,4.58883,4.32569,7.30621,0,3.534-2.49,5.64408-6.66064,5.64408s-6.66064-2.11006-6.66064-5.64408C5.31852,12.44084,7.561,9.466,9.64422,7.852Z"/><path d="M14.15792,16.19562a1.88407,1.88407,0,0,0-.49076-1.429,1.84862,1.84862,0,0,0-1.35617-.6032h-.64305a1.04048,1.04048,0,0,1-.76213-.3371,1.05467,1.05467,0,0,1-.27527-.80014,1.08552,1.08552,0,0,1,1.07885-.93984h.747a.78642.78642,0,0,1,.76282.59907l.8345-.01786a1.65266,1.65266,0,0,0-1.50686-1.4093l-.17428-.01282v-1.025l-.82923.02153.02176,1.01312-.16214.02245a1.85915,1.85915,0,0,0-1.60212,2.01662,1.91074,1.91074,0,0,0,1.92937,1.65526h.56015a1.03863,1.03863,0,0,1,.7619.3371,1.05569,1.05569,0,0,1,.2755.80014,1.08552,1.08552,0,0,1-1.07885.93984h-.747a.78642.78642,0,0,1-.76282-.59908l-.83472.01787a1.65309,1.65309,0,0,0,1.50708,1.4093l.17428.01282v1.025l.829-.02152L12.3932,17.861l.158-.02519A1.89917,1.89917,0,0,0,14.15792,16.19562Z"/></svg>