<svg id="Camada_1" data-name="Camada 1" xmlns="http://www.w3.org/2000/svg" viewBox="0 0 24 24"><title>terminal-plantao</title><path d="M18.01377,19.77154a8.22814,8.22814,0,0,0,.61079-.76124c.1011-.14443.23168-.33579.34361-.53618a4.66381,4.66381,0,0,0,.275-.58853,6.61094,6.61094,0,0,0,.34843-1.26041,7.1514,7.1514,0,0,0,.1041-1.57694,5.86562,5.86562,0,0,0-.51932-2.21181,6.257,6.257,0,0,0-1.01158-1.50533c-.16248-.18234-.343-.36708-.56807-.581-.09267-.08756-.18836-.17511-.28584-.26237-.11675-.10441-.2359-.20851-.35565-.31262l-.0337-.02919a12.7174,12.7174,0,0,1-1.38889-1.33954,6.88685,6.88685,0,0,1-.69564-.98389,5.279,5.279,0,0,1-.37551-.76034A5.98914,5.98914,0,0,1,14.09443,5.116a10.1496,10.1496,0,0,1,.25034-2.553l.08786-.35775a.56658.56658,0,0,0-.00482-.15766.4984.4984,0,0,0-.29125-.362.484.484,0,0,0-.12637-.0346l-.10592-.00421-.02407.00331a.4968.4968,0,0,0-.1697.05416.39607.39607,0,0,0-.062.04A11.5976,11.5976,0,0,0,12.48319,2.8341c-.2034.21664-.39807.43809-.5789.65743-.14894.18084-.29487.36889-.43388.55935A7.6459,7.6459,0,0,0,9.88294,7.97533a5.50779,5.50779,0,0,0-.00662.65533,5.23421,5.23421,0,0,0,.12246.89724,5.62092,5.62092,0,0,0,.45133,1.25409l.19889.36437c.06739.11584.136.235.19708.35805.04212.08455.08184.17211.11824.26027a2.46111,2.46111,0,0,1,.16248,1.65968,1.69525,1.69525,0,0,1-.25124.51211,1.65941,1.65941,0,0,1-1.29411.67879l-.00932.0003a2.24815,2.24815,0,0,1-.47119-.05325,2.183,2.183,0,0,1-.52956-.18625,1.996,1.996,0,0,1-.69113-.58763,3.23209,3.23209,0,0,1-.51993-1.141,7.25832,7.25832,0,0,1-.20912-1.78936l.00121-.31142a.54525.54525,0,0,0-.04544-.21663.49945.49945,0,0,0-.41732-.28524l-.01324-.0003a.52216.52216,0,0,0-.15977.02076l-.05446.02016a1.30838,1.30838,0,0,0-.15586.07371,2.807,2.807,0,0,0-.33579.21183,3.6904,3.6904,0,0,0-1.0203,1.19,6.013,6.013,0,0,0-.65262,3.00464,8.1288,8.1288,0,0,0,.46306,2.62612,7.6887,7.6887,0,0,0,3.44514,4.12635,7.80924,7.80924,0,0,0,1.9708.78832,8.104,8.104,0,0,0,4.08331-.02949,7.7372,7.7372,0,0,0,2.27229-1.03023A7.87458,7.87458,0,0,0,18.01377,19.77154Zm-4.01081,1.354a6.97087,6.97087,0,0,1-1.82577.2395c-.08936,0-.17842-.0018-.26809-.00481a7.21894,7.21894,0,0,1-1.66-.25455,6.80249,6.80249,0,0,1-1.76951-.77207,6.72331,6.72331,0,0,1-2.093-2.05384,6.84348,6.84348,0,0,1-.91318-2.15284,7.32605,7.32605,0,0,1-.18806-1.873,5.59045,5.59045,0,0,1,.247-1.56069l.46667-1.46351.36347,1.49239A5.16358,5.16358,0,0,0,6.757,13.83988a3.22861,3.22861,0,0,0,1.09011,1.25379,2.98966,2.98966,0,0,0,.55514.28554,3.27749,3.27749,0,0,0,.62433.17331,2.83227,2.83227,0,0,0,.76876.03671,2.645,2.645,0,0,0,1.30043-.49586,2.61239,2.61239,0,0,0,.547-.53648,2.665,2.665,0,0,0,.414-.80126,3.00337,3.00337,0,0,0,.12517-1.14155,3.94312,3.94312,0,0,0-.25546-1.09914,5.4081,5.4081,0,0,0-.23228-.51812l-.154-.27952c-.07131-.12277-.14383-.24793-.20912-.37762a4.51115,4.51115,0,0,1-.37129-1.029,4.3285,4.3285,0,0,1-.09358-.63758c-.01053-.15255-.01353-.30359-.009-.44952a6.2454,6.2454,0,0,1,1.1217-3.17344c.086-.13269.17662-.26327.26959-.39175l-.0009-.0009.14292-.19287.0003.0003.69805-.93756.01445,1.28a7.45842,7.45842,0,0,0,.37009,2.42122c.05957.17271.127.3406.19978.49917.0674.14563.14563.29757.24733.47811a7.84158,7.84158,0,0,0,.85993,1.23814,10.00218,10.00218,0,0,0,.733.76726c.09448.08725.19317.17782.29246.26778.13.11524.263.23078.396.346.33038.28614.70468.6102,1.04167.96163a6.41107,6.41107,0,0,1,.70227.87016,4.20945,4.20945,0,0,1,.29486.50729,5.193,5.193,0,0,1,.45855,2.671c-.01625.2043-.04272.41161-.07823.61712a5.74172,5.74172,0,0,1-.22145.86956,3.96836,3.96836,0,0,1-.29126.66977c-.0686.12336-.148.24432-.22927.36226a7.309,7.309,0,0,1-.52354.67579,6.98457,6.98457,0,0,1-1.36963,1.19692A6.79768,6.79768,0,0,1,14.003,21.12552Z"/></svg>