<svg id="Camada_1" data-name="Camada 1" xmlns="http://www.w3.org/2000/svg" viewBox="0 0 24 24"><title>terminal-cursos</title><path d="M20.84124,5.12431H12.46533V3.15876a.46533.46533,0,0,0-.93066,0V5.12431H3.15876a.46526.46526,0,0,0-.46533.46533V16.48688a.46526.46526,0,0,0,.46533.46533H8.82627L6.4678,20.5881a.4653.4653,0,1,0,.78083.50628l2.687-4.14217h4.12876l2.687,4.14217a.4653.4653,0,1,0,.78083-.50628l-2.35847-3.63589h5.66751a.46527.46527,0,0,0,.46533-.46533V5.58964A.46527.46527,0,0,0,20.84124,5.12431Zm-.46533,10.89724H3.62409V6.055H20.37591Z"/><path d="M5.71807,15.13315a.464.464,0,0,0,.32908-.13625L9.813,11.23109l2.494,2.49379a.465.465,0,0,0,.658,0L17.8166,8.87337v1.35838a.46533.46533,0,0,0,.93066,0V7.75006a.467.467,0,0,0-.00912-.091c-.00279-.01415-.008-.02718-.0121-.04077a.43685.43685,0,0,0-.01433-.046.47762.47762,0,0,0-.02438-.04635c-.00615-.01117-.01117-.02289-.01825-.03369a.46383.46383,0,0,0-.12917-.12917c-.01061-.00708-.022-.01173-.03295-.01787a.2769.2769,0,0,0-.0925-.0389c-.01378-.0041-.027-.0095-.04133-.01229a.46775.46775,0,0,0-.091-.00912H15.80024a.46533.46533,0,1,0,0,.93066h1.35839L12.636,12.738l-2.494-2.494a.465.465,0,0,0-.658,0L5.38917,14.33893a.46524.46524,0,0,0,.3289.79422Z"/></svg>