<svg id="Camada_1" data-name="Camada 1" xmlns="http://www.w3.org/2000/svg" viewBox="0 0 24 24"><title>terminal-cotacoes</title><path d="M19.089,7.09911H16.8678a.51681.51681,0,0,0,0,1.03362h.99834l-3.49421,3.49346L12.38111,9.63556a.53288.53288,0,0,0-.73055,0L7.72393,13.56219a.51739.51739,0,0,0,0,.73056.53021.53021,0,0,0,.73093,0l3.561-3.56136,1.991,1.991a.55058.55058,0,0,0,.73037-.00038l3.8299-3.83029v.97445a.51672.51672,0,0,0,1.03343,0L19.5996,7.70487a.862.862,0,0,0,.00607-.08914A.51721.51721,0,0,0,19.089,7.09911Z"/><path d="M4.29514,3.77824a.51721.51721,0,0,0-.51662.51662V19.70514a.517.517,0,0,0,.51662.51662H19.70467a.517.517,0,0,0,0-1.034H4.81158V4.29486A.51705.51705,0,0,0,4.29514,3.77824Z"/></svg>