<svg id="Camada_1" data-name="Camada 1" xmlns="http://www.w3.org/2000/svg" viewBox="0 0 24 24"><title>terminal</title><path d="M14.32213,2.84047H8.71305A1.67477,1.67477,0,0,0,7.04017,4.51335v11.045a.714.714,0,0,0,1.2212.501.697.697,0,0,0,.20371-.5001V4.51335a.24826.24826,0,0,1,.248-.248h5.60908a.71246.71246,0,0,0,0-1.42491Z"/><path d="M10.04467,19.52217a.71281.71281,0,0,0-1.08535-.748l-1.44609.93431A.25224.25224,0,0,1,7.19,19.60854L1.66957,10.04728a.24931.24931,0,0,1,.08834-.34188L5.15943,7.6762a.7133.7133,0,0,0-.36829-1.32708.70807.70807,0,0,0-.36171.09893L1.03671,8.47111a1.67864,1.67864,0,0,0-.60677,2.28707l5.51853,9.561a1.66384,1.66384,0,0,0,1.01871.78074,1.6142,1.6142,0,0,0,.439.05966,1.68994,1.68994,0,0,0,.83683-.22322l.01789-.01076,1.47317-.95468A.7068.7068,0,0,0,10.04467,19.52217Z"/><path d="M10.21924,15.37529a1.67768,1.67768,0,0,0,.61344,2.29025l4.932,2.8459a1.67189,1.67189,0,0,0,2.28249-.61361l5.5224-9.56481a1.67771,1.67771,0,0,0-.61342-2.29026L18.02807,5.19688a1.67654,1.67654,0,0,0-2.28626.61334Zm6.75994-8.84635a.2447.2447,0,0,1,.21637-.12621.19977.19977,0,0,1,.12139.0359L22.2398,9.28147a.23507.23507,0,0,1,.11232.1488.24915.24915,0,0,1-.02007.18826l-.00115.002-5.5212,9.56276a.24474.24474,0,0,1-.21638.1262.25492.25492,0,0,1-.11486-.03006l-.00519-.00281-4.92812-2.84586a.23555.23555,0,0,1-.11234-.14872L11.43,16.269a.273.273,0,0,1,.02677-.1752Z"/></svg>