<svg id="Camada_1" data-name="Camada 1" xmlns="http://www.w3.org/2000/svg" viewBox="0 0 24 24"><title>terminal-eventos</title><path d="M20.509,7.272a2.36731,2.36731,0,0,0-2.364-2.36294H16.72641V3.49073h-.94522V4.90908H8.218V3.49073H7.27255V4.90908H5.855A2.36642,2.36642,0,0,0,3.491,7.27286V18.14507a2.36677,2.36677,0,0,0,2.364,2.3642H18.145a2.36677,2.36677,0,0,0,2.364-2.3642ZM19.5627,18.14424A1.41943,1.41943,0,0,1,18.145,19.56217H5.855a1.41987,1.41987,0,0,1-1.41856-1.41793V9.6358H19.5627Zm0-9.45386H4.43647V7.272A1.42,1.42,0,0,1,5.855,5.85367H7.27338V6.7991H8.218V5.85451h7.56322v.94543h.94522V5.85451H18.145A1.41907,1.41907,0,0,1,19.5627,7.272Z"/></svg>