<svg width="24" height="24" viewBox="0 0 24 24" fill="none" xmlns="http://www.w3.org/2000/svg">
<path fill-rule="evenodd" clip-rule="evenodd" d="M10.275 4.5C10.0363 4.5 9.8074 4.59482 9.63861 4.7636C9.46983 4.93239 9.37501 5.16131 9.37501 5.4V6.3H14.475V5.4C14.475 5.16131 14.3802 4.93239 14.2114 4.7636C14.0426 4.59482 13.8137 4.5 13.575 4.5H10.275ZM15.975 6.3V5.4C15.975 4.76348 15.7222 4.15303 15.2721 3.70294C14.822 3.25286 14.2115 3 13.575 3H10.275C9.63849 3 9.02804 3.25286 8.57795 3.70294C8.12787 4.15303 7.87501 4.76348 7.87501 5.4L7.725 6.3H6L5.99473 6.30002H4.50688C4.08887 6.30002 3.75 6.6358 3.75 7.05002C3.75 7.46423 4.08887 7.80002 4.50688 7.80002H5.25V18.6C5.25 19.2365 5.50286 19.847 5.95294 20.2971C6.40303 20.7471 7.01348 21 7.65 21H16.35C16.9865 21 17.597 20.7471 18.0471 20.2971C18.4971 19.847 18.75 19.2365 18.75 18.6V7.80002H19.4931C19.9111 7.80002 20.25 7.46423 20.25 7.05002C20.25 6.6358 19.9111 6.30002 19.4931 6.30002H18.0053L18 6.3H15.975ZM6.75 18.6V7.80002H17.25V18.6C17.25 18.8387 17.1552 19.0676 16.9864 19.2364C16.8176 19.4052 16.5887 19.5 16.35 19.5H7.65C7.41131 19.5 7.18239 19.4052 7.0136 19.2364C6.84482 19.0676 6.75 18.8387 6.75 18.6ZM10.125 10.5C10.5392 10.5 10.875 10.8124 10.875 11.1977V15.8023C10.875 16.1876 10.5392 16.5 10.125 16.5C9.71079 16.5 9.375 16.1876 9.375 15.8023V11.1977C9.375 10.8124 9.71079 10.5 10.125 10.5ZM13.875 10.5C14.2892 10.5 14.625 10.8124 14.625 11.1977V15.8023C14.625 16.1876 14.2892 16.5 13.875 16.5C13.4608 16.5 13.125 16.1876 13.125 15.8023V11.1977C13.125 10.8124 13.4608 10.5 13.875 10.5Z"/>
</svg>
