<svg id="Camada_1" data-name="Camada 1" xmlns="http://www.w3.org/2000/svg" viewBox="0 0 24 24"><defs><style>.cls-1{stroke:#000;stroke-miterlimit:10;stroke-width:0.5px;}</style></defs><title>zoom-out</title><path class="cls-1" d="M14.79594,3.358a.50835.50835,0,0,1,.50835.50835V7.67078a.1271.1271,0,0,0,.217.08986l4.14761-4.1488.00007-.00006a.50835.50835,0,0,1,.71892.00006l-.00007.00007V3.612a.50836.50836,0,0,1,0,.71886l.00007.00006L16.24012,8.47975a.12708.12708,0,0,0,.08987.21694h3.80366A.50836.50836,0,0,1,20.642,9.205v.00019a.50835.50835,0,0,1-.50835.50835H14.79594a.50835.50835,0,0,1-.50835-.50835V3.86635a.50836.50836,0,0,1,.50835-.50835Z"/><path class="cls-1" d="M9.205,20.642h0a.50836.50836,0,0,1-.50835-.50835h0V16.32918a.1271.1271,0,0,0-.217-.08986l-4.1488,4.1488a.50834.50834,0,0,1-.71892,0h0L3.61188,20.388a.50834.50834,0,0,1,0-.71892h0l4.1488-4.1488a.12709.12709,0,0,0-.08986-.217H3.86635A.50836.50836,0,0,1,3.358,14.795v-.00019a.50836.50836,0,0,1,.50835-.50835H9.20523a.50836.50836,0,0,1,.50835.50835h0v5.33888a.50836.50836,0,0,1-.50835.50835H9.205Z"/></svg>