<svg width="32" height="32" viewBox="0 0 32 32" fill="none" xmlns="http://www.w3.org/2000/svg">
<path fill-rule="evenodd" clip-rule="evenodd" d="M14.5282 6.28306C14.9775 6.0301 15.4844 5.89722 16 5.89722C16.5156 5.89722 17.0225 6.0301 17.4718 6.28306C17.9211 6.53601 18.2976 6.90049 18.565 7.34133L18.5679 7.34608L18.5679 7.34609L27.0379 21.4861L27.046 21.4999C27.308 21.9535 27.4466 22.4678 27.448 22.9917C27.4495 23.5155 27.3138 24.0306 27.0544 24.4857C26.795 24.9408 26.4209 25.32 25.9694 25.5857C25.518 25.8513 25.0048 25.9941 24.481 25.9999L24.47 26V26H7.53002H7.51903L7.51903 25.9999C6.99523 25.9941 6.48206 25.8513 6.03059 25.5857C5.57912 25.32 5.20507 24.9408 4.94567 24.4857C4.68627 24.0306 4.55055 23.5155 4.55201 22.9917C4.55348 22.4678 4.69208 21.9535 4.95403 21.4999L4.96215 21.4861L13.4322 7.34609L14.29 7.85995L13.435 7.34133C13.7024 6.90049 14.0789 6.53601 14.5282 6.28306ZM15.1462 8.3766L6.68271 22.5058C6.59753 22.6556 6.55249 22.8249 6.55201 22.9973C6.55152 23.1719 6.59676 23.3436 6.68322 23.4953C6.76969 23.647 6.89437 23.7734 7.04487 23.8619C7.19404 23.9497 7.36342 23.9973 7.53642 24H24.4636C24.6366 23.9973 24.806 23.9497 24.9552 23.8619C25.1057 23.7734 25.2303 23.647 25.3168 23.4953C25.4033 23.3436 25.4485 23.1719 25.448 22.9973C25.4476 22.8249 25.4025 22.6556 25.3174 22.5058L16.855 8.37859L16.8538 8.3766C16.7648 8.23055 16.6397 8.10977 16.4906 8.02583C16.3409 7.94151 16.1719 7.89722 16 7.89722C15.8282 7.89722 15.6592 7.94151 15.5094 8.02583C15.3603 8.10977 15.2353 8.23055 15.1462 8.3766ZM16 12C16.5523 12 17 12.4477 17 13V17C17 17.5523 16.5523 18 16 18C15.4477 18 15 17.5523 15 17V13C15 12.4477 15.4477 12 16 12ZM16 20C15.4477 20 15 20.4477 15 21C15 21.5523 15.4477 22 16 22H16.01C16.5623 22 17.01 21.5523 17.01 21C17.01 20.4477 16.5623 20 16.01 20H16Z" />
</svg>
