<svg id="Camada_1" data-name="Camada 1" xmlns="http://www.w3.org/2000/svg" viewBox="0 0 24 24"><title>arroba</title><path d="M21.144,12a9.1396,9.1396,0,1,0-4.55646,7.91182.8773.8773,0,0,0,.40763-.53518.86794.86794,0,0,0-.0898-.66453.87952.87952,0,0,0-1.20112-.31966A7.388,7.388,0,1,1,19.38754,12c0,.12411-.00222.24842-.00888.37252a.73522.73522,0,0,0,.00242.10645l.004.03542-.00282.03552a1.70494,1.70494,0,0,1-3.40439-.13662v-3.513a.87826.87826,0,0,0-1.59967-.50087l-.18546.268-.28575-.1568a3.9783,3.9783,0,1,0,.84131,6.361l.25366-.243.25.2464a3.45955,3.45955,0,0,0,5.89178-2.42232l-.01312-.012.00606-.139-.01594-.14872.02179-.021C21.14361,12.08829,21.144,12.0444,21.144,12ZM12,14.22143A2.22143,2.22143,0,1,1,14.22143,12,2.22391,2.22391,0,0,1,12,14.22143Z"/></svg>