<svg id="Camada_1" data-name="Camada 1" xmlns="http://www.w3.org/2000/svg" viewBox="0 0 24 24"><defs><style>.cls-1{fill:#fff;}.cls-2{fill:#486ee5;}</style></defs><title>bag-white-line-blue</title><path class="cls-1" d="M14.15,8.145a18.33707,18.33707,0,0,1-2.15.12,18.59234,18.59234,0,0,1-2.15-.12c-2.06,1.59-4.13,4.44995-4.13,6.94,0,3.29,2.34,5.29,6.28,5.29,3.92,0,6.26-1.97,6.28-5.29C18.28,12.595,16.21,9.735,14.15,8.145Z"/><path class="cls-1" d="M14.78,3.735c-.08-.02-.2.04-.31.19a1.3,1.3,0,0,1-.9.62,1.42977,1.42977,0,0,1-1.09-.52c-.14-.14-.32-.31-.42-.31-.12,0-.32.17-.48.31a1.4201,1.4201,0,0,1-1.13.48,1.30967,1.30967,0,0,1-.84-.58c-.13-.19-.21-.19-.29-.19H9.24a.57323.57323,0,0,0-.18.17,8.18133,8.18133,0,0,0,1.13,3,20.46028,20.46028,0,0,0,3.5,0,10.11036,10.11036,0,0,0,1.19-3C14.88,3.735,14.86,3.755,14.78,3.735Z"/><path class="cls-2" d="M14.92,7.205c1.08-2.18,1.16-2.94,1.16-3.28a1.39,1.39,0,0,0-.94-1.33,1.48,1.48,0,0,0-1.67.62h0l-.12-.12a1.81,1.81,0,0,0-1.27-.64h0a2,2,0,0,0-1.27.58l-.18.14h0a1.52,1.52,0,0,0-1.73-.64,1.38,1.38,0,0,0-1,1.31A8.89,8.89,0,0,0,9,7.225c-2.29,1.8-4.51,4.97-4.51,7.8,0,4,2.94,6.52,7.51,6.52s7.51-2.52,7.51-6.52C19.48,12.195,17.25,9.025,14.92,7.205ZM9.24,3.735h.08c.08,0,.16,0,.29.19a1.31,1.31,0,0,0,.84.58,1.42,1.42,0,0,0,1.13-.48c.16-.14.36-.31.48-.31h0c.1,0,.28.17.42.31a1.43,1.43,0,0,0,1.09.52,1.3,1.3,0,0,0,.9-.62c.11-.15.23-.21.31-.19s.1,0,.1.17a10.11,10.11,0,0,1-1.19,3,20.45009,20.45009,0,0,1-3.5,0,8.18,8.18,0,0,1-1.13-3A.57337.57337,0,0,1,9.24,3.735ZM12,20.375c-3.94,0-6.28-2-6.28-5.29,0-2.49,2.07-5.35,4.13-6.94a18.57968,18.57968,0,0,0,2.15.12,18.32881,18.32881,0,0,0,2.15-.12c2.06,1.59,4.13,4.45,4.13,6.94C18.26,18.405,15.92,20.375,12,20.375Z"/></svg>