<svg id="Camada_1" data-name="Camada 1" xmlns="http://www.w3.org/2000/svg" viewBox="0 0 24 24"><title>bell</title><path d="M11.37151,2.04921v2.179h-.90095a6.53707,6.53707,0,0,0-5.11233,6.45327v2.2a8.42288,8.42288,0,0,1-.859,3.68759l-.9219,1.90665a.62857.62857,0,0,0,.56571.90094H8.962a3.08,3.08,0,0,0,6.07614,0h4.819a.62855.62855,0,0,0,.56571-.90094L19.48,16.54813a8.4229,8.4229,0,0,1-.83808-3.66664v-2.2a6.53708,6.53708,0,0,0-5.11234-6.43232h-.90094v-2.2Zm.62856,18.73126a1.82284,1.82284,0,0,1-1.76-1.4038h3.52A1.82286,1.82286,0,0,1,12.00007,20.78047Zm5.38472-10.099v2.2a9.70073,9.70073,0,0,0,.98475,4.23234l.4819,1.00571H5.14871l.50285-1.00571a9.7009,9.7009,0,0,0,.9638-4.23234v-2.2A5.30089,5.30089,0,0,1,10.701,5.48537h2.59807A5.3009,5.3009,0,0,1,17.38479,10.68151Z"/></svg>