<svg id="Camada_1" data-name="Camada 1" xmlns="http://www.w3.org/2000/svg" viewBox="0 0 24 24"><title>bell-add</title><path d="M19.62718,5.65846H16.64752V2.6788a.6298.6298,0,1,0-1.2596,0V5.65846H12.40827a.6298.6298,0,0,0,0,1.2596h2.97965V9.89771a.6298.6298,0,0,0,1.2596,0V6.91806h2.97966a.6298.6298,0,0,0,0-1.2596Z"/><path d="M18.48,16.96389a7.77511,7.77511,0,0,1-.77364-3.38466V11.54848a6.03775,6.03775,0,0,0-.04454-.7383,1.885,1.885,0,0,1-1.11588.89247v1.87658a8.955,8.955,0,0,0,.909,3.90683l.44483.92835H5.251l.46418-.92835a8.95465,8.95465,0,0,0,.88968-3.90683V11.54848A4.8932,4.8932,0,0,1,10.37626,6.752h.207a1.78353,1.78353,0,0,1,.07245-1.16043h-.49221a6.03422,6.03422,0,0,0-4.71912,5.95691v2.03075a7.7748,7.7748,0,0,1-.793,3.404l-.851,1.76a.58023.58023,0,0,0,.52219.83164H8.771a2.84306,2.84306,0,0,0,5.60877,0h4.44837a.58022.58022,0,0,0,.52222-.83164Zm-6.90463,3.90678a1.68263,1.68263,0,0,1-1.62459-1.29583H13.2A1.68264,1.68264,0,0,1,11.57538,20.87067Z"/></svg>