<svg id="Camada_1" data-name="Camada 1" xmlns="http://www.w3.org/2000/svg" viewBox="0 0 24 24"><title>bell-block</title><path d="M7.35664,12.88152v-2.2a5.301,5.301,0,0,1,4.08578-5.19626h2.59812a5.31293,5.31293,0,0,1,.83982.27421l.94729-.94728A6.53284,6.53284,0,0,0,14.271,4.249h-.901v-2.2H12.11291V4.22808h-.901a6.53718,6.53718,0,0,0-5.11244,6.4534v2.2a8.42291,8.42291,0,0,1-.216,1.87477L7.3457,13.2941C7.3513,13.15673,7.35689,13.01933,7.35664,12.88152Z"/><path d="M21.16443,18.47586l-.94287-1.92763a8.42345,8.42345,0,0,1-.83809-3.66671v-2.2a6.51174,6.51174,0,0,0-.684-2.95194l-.95383.95384a5.28208,5.28208,0,0,1,.38062,1.9981v2.2a9.701,9.701,0,0,0,.98479,4.23242l.4819,1.00573H8.30939L7.05222,19.37684H9.70335a3.08,3.08,0,0,0,6.07627,0h4.8191a.6286.6286,0,0,0,.56571-.901Zm-8.42295,2.30479a1.8229,1.8229,0,0,1-1.76-1.40381h3.52A1.82286,1.82286,0,0,1,12.74148,20.78065Z"/><path d="M20.91463,2.6198a.68205.68205,0,0,0-.96481,0L2.97338,19.59624a.68222.68222,0,1,0,.9648.96481L20.91463,3.5846A.682.682,0,0,0,20.91463,2.6198Z"/></svg>