<svg id="Camada_1" data-name="Camada 1" xmlns="http://www.w3.org/2000/svg" viewBox="0 0 24 24"><title>board</title><path d="M20.39676,3.1204H3.60279a1.78083,1.78083,0,0,0-1.77854,1.779V19.10061a1.78083,1.78083,0,0,0,1.77854,1.779h16.794a1.78121,1.78121,0,0,0,1.779-1.779V4.89939A1.78121,1.78121,0,0,0,20.39676,3.1204ZM3.60279,4.485h16.794a.41515.41515,0,0,1,.41443.41443v6.50684H3.18881V4.89939A.41478.41478,0,0,1,3.60279,4.485ZM20.39676,19.515H3.60279a.41478.41478,0,0,1-.414-.41443V12.81845H20.81119v6.28216A.41515.41515,0,0,1,20.39676,19.515Z"/></svg>