<svg id="Camada_1" data-name="Camada 1" xmlns="http://www.w3.org/2000/svg" viewBox="0 0 24 24"><title>cache</title><path d="M12,2.049c-4.94491,0-9.951,1.18555-9.951,3.45128,0,.02337.00085.04674.00212.06969L2.049,18.50015c0,2.2653,5.00609,3.45085,9.951,3.45085s9.951-1.18555,9.951-3.45085V5.50028C21.951,3.23455,16.94491,2.049,12,2.049Zm8.45822,9.83839a.26632.26632,0,0,1,.04165.113c0,.59788-2.89207,1.9993-8.49987,1.9993s-8.49987-1.40142-8.502-1.9806l.01742-.10708-.0153-.00892V7.39674C5.22152,8.35835,8.44631,8.95113,12,8.95113c3.55326,0,6.77848-.59278,8.49987-1.55482v4.33513l-.12111.01488ZM3.50013,18.41176V13.89689C5.22237,14.8585,8.44759,15.45128,12,15.45128s6.77763-.59278,8.49987-1.55439v4.60326c0,.59787-2.89207,1.99972-8.49987,1.99972S3.50013,19.098,3.501,18.50355l.0068-.02805.0136-.03187ZM12,7.5c-5.6078,0-8.49987-1.40185-8.49987-1.99972C3.50013,4.902,6.3922,3.50013,12,3.50013S20.49987,4.902,20.49987,5.50028C20.49987,6.09815,17.6078,7.5,12,7.5Z"/></svg>