<svg id="Camada_1" data-name="Camada 1" xmlns="http://www.w3.org/2000/svg" viewBox="0 0 24 24"><title>calendar-add</title><path d="M22.43944,17.84444H19.20982V14.61483a.68263.68263,0,0,0-1.36526,0v3.22961H14.61494a.68264.68264,0,0,0,0,1.36527h3.22962v3.22962a.68263.68263,0,0,0,1.36526,0V19.20971h3.22962a.68264.68264,0,0,0,0-1.36527Z"/><path d="M12.68284,17.87658H3.60432A1.27544,1.27544,0,0,1,2.33,16.6029V7.82967H17.87669v4.85306a1.9679,1.9679,0,0,1,1.45293.04866V5.1035a2.73005,2.73005,0,0,0-2.72639-2.72528H15.32888V.878H13.877V2.37822H6.3296V.878h-1.452V2.37822H3.60432A2.72939,2.72939,0,0,0,.87793,5.10439V16.60376A2.72979,2.72979,0,0,0,3.60432,19.3304H12.732a1.96719,1.96719,0,0,1-.04917-1.45382ZM2.33,5.1035A1.27581,1.27581,0,0,1,3.60432,3.82937H4.87845v1H6.3296V3.83025H13.877V4.8302h1.45185V3.83025h1.27435A1.27488,1.27488,0,0,1,17.87669,5.1035V6.37763H2.33Z"/></svg>