<svg width="32" height="32" viewBox="0 0 32 32" fill="none" xmlns="http://www.w3.org/2000/svg">
<path fill-rule="evenodd" clip-rule="evenodd" d="M13.7771 6.70468C14.9859 5.43177 17.0141 5.43177 18.2229 6.70468L19.1745 7.70672C19.3161 7.85583 19.5127 7.94026 19.7183 7.94026H21.3818C22.8588 7.94026 24.0566 9.1381 24.0566 10.6163V12.2803C24.0566 12.4685 24.1273 12.6499 24.2548 12.7883L25.5425 14.187C26.4858 15.2115 26.4858 16.7885 25.5426 17.813L24.2548 19.2117C24.1273 19.3501 24.0566 19.5315 24.0566 19.7197V21.3837C24.0566 22.8619 22.8588 24.0597 21.3818 24.0597H19.7183C19.5127 24.0597 19.3161 24.1442 19.1745 24.2933L18.2229 25.2953C17.0141 26.5682 14.9859 26.5682 13.7771 25.2953L12.8255 24.2933C12.6839 24.1442 12.4873 24.0597 12.2817 24.0597H10.6182C9.14124 24.0597 7.94344 22.8619 7.94344 21.3837V19.7197C7.94344 19.5315 7.87268 19.3501 7.74519 19.2117L6.45745 17.813C5.51418 16.7885 5.51418 15.2115 6.45745 14.187L7.74519 12.7883C7.87268 12.6499 7.94344 12.4685 7.94344 12.2803V10.6163C7.94344 9.1381 9.14124 7.94026 10.6182 7.94026H12.2817C12.4873 7.94026 12.6839 7.85583 12.8255 7.70672L13.7771 6.70468ZM19.3106 5.67175C17.5103 3.77608 14.4897 3.77608 12.6894 5.67175L11.9596 6.44026H10.6182C8.3123 6.44026 6.44344 8.31018 6.44344 10.6163V11.9876L5.35395 13.171C3.88202 14.7696 3.88202 17.2304 5.35395 18.829L6.44344 20.0124V21.3837C6.44344 23.6898 8.3123 25.5597 10.6182 25.5597H11.9596L12.6894 26.3282C14.4897 28.2239 17.5103 28.2239 19.3106 26.3282L20.0404 25.5597H21.3818C23.6877 25.5597 25.5566 23.6898 25.5566 21.3837V20.0124L26.6461 18.829C28.118 17.2304 28.118 14.7696 26.6461 13.171L25.5566 11.9876V10.6163C25.5566 8.31018 23.6877 6.44026 21.3818 6.44026H20.0404L19.3106 5.67175ZM15.5726 9.245C15.2758 9.245 15.0066 9.41882 14.8845 9.68925L13.0529 13.745H12.0161C11.5503 13.745 11.1011 13.927 10.768 14.2547C10.4346 14.5829 10.245 15.0306 10.245 15.5V18.9999C10.245 19.4693 10.4346 19.917 10.768 20.2452C11.1011 20.5729 11.5503 20.7549 12.0161 20.7549H13.5403H19.2676C19.6897 20.7585 20.1007 20.6125 20.4252 20.341C20.7511 20.0685 20.9682 19.6872 21.0334 19.2659L21.0336 19.2649L21.7345 14.7662L21.7347 14.7651C21.7737 14.5118 21.7563 14.2532 21.6839 14.0075C21.6114 13.7618 21.4857 13.5354 21.3164 13.3438C21.1472 13.1522 20.9384 13 20.705 12.897C20.4731 12.7945 20.222 12.7428 19.9687 12.745H17.8517V11.5C17.8517 10.898 17.6086 10.3231 17.1799 9.90122C16.7516 9.47969 16.1732 9.245 15.5726 9.245ZM16.0025 10.8823L14.2953 14.6625V19.2449H19.2712H19.2796L19.2796 19.245C19.346 19.2457 19.4087 19.2227 19.4564 19.1828C19.5038 19.1432 19.5327 19.0902 19.5412 19.035L19.5414 19.0337L20.2423 14.5349L20.2424 14.5347C20.2475 14.5014 20.2452 14.4673 20.2356 14.4347C20.2259 14.402 20.2089 14.3708 20.1849 14.3437C20.1608 14.3164 20.1303 14.2939 20.0949 14.2782C20.0595 14.2626 20.0205 14.2545 19.9808 14.2549L19.9724 14.255V14.255H17.0967C16.6798 14.255 16.3417 13.917 16.3417 13.5V11.5C16.3417 11.3063 16.2637 11.1181 16.1207 10.9775C16.0845 10.9418 16.0449 10.91 16.0025 10.8823ZM12.7853 15.255V19.2449H12.0161C11.943 19.2449 11.8753 19.2162 11.8272 19.1689C11.7795 19.122 11.755 19.061 11.755 18.9999V15.5C11.755 15.4389 11.7795 15.3779 11.8272 15.331C11.8753 15.2837 11.943 15.255 12.0161 15.255H12.7853Z" fill="#4364E8"/>
</svg>
