<svg id="Camada_1" data-name="Camada 1" xmlns="http://www.w3.org/2000/svg" viewBox="0 0 24 24"><title>cart</title><path d="M19.70156,12.736,21.1328,6.60157a.588.588,0,0,0-.54224-.68164H6.75906L6.41754,4.31827A.5775.5775,0,0,0,5.86937,3.875H3.41566a.55985.55985,0,0,0,0,1.11969H5.41424l.00906.04251,2.10835,9.94865c.08469.37811.3241.64122.58337.64122H18.34176l.00592.00034a.56033.56033,0,0,0,.0014-1.12039l-.00662.00035H8.57363l-.28506-1.334H19.15966A.57873.57873,0,0,0,19.70156,12.736Zm-.98483-.68234H8.05613L6.9915,7.03927H19.88556Z"/><path d="M10.16309,16.14318A1.99091,1.99091,0,1,0,12.154,18.13409,1.99323,1.99323,0,0,0,10.16309,16.14318Zm0,2.86248a.87157.87157,0,1,1,.87157-.87157A.86248.86248,0,0,1,10.16309,19.00566Z"/><path d="M16.29718,16.14318a1.99091,1.99091,0,1,0,1.99091,1.99091A1.99323,1.99323,0,0,0,16.29718,16.14318Zm0,2.86248a.87157.87157,0,1,1,.87157-.87157A.86248.86248,0,0,1,16.29718,19.00566Z"/></svg>