<svg id="Camada_1" data-name="Camada 1" xmlns="http://www.w3.org/2000/svg" viewBox="0 0 24 24"><defs><style>.cls-1{stroke:#000;stroke-miterlimit:10;stroke-width:0.22743px;}</style></defs><title>chart-board</title><path class="cls-1" d="M20.83407,5.12988H12.465V3.16593a.465.465,0,0,0-.9299,0v1.964H3.16593a.46489.46489,0,0,0-.46495.465v10.8884a.46488.46488,0,0,0,.465.465H8.82885L6.47229,20.58113a.46492.46492,0,1,0,.78019.50587l2.68481-4.13881h4.12542L16.74752,21.087a.46492.46492,0,1,0,.78019-.50587l-2.35656-3.63294h5.66292a.46488.46488,0,0,0,.46495-.465V5.59484A.46489.46489,0,0,0,20.83407,5.12988Zm-.465,10.88841H3.63088V6.05979H20.36912Z"/><path class="cls-1" d="M5.72316,15.13061a.46357.46357,0,0,0,.32882-.13614l3.76275-3.76276,2.49195,2.49177a.4646.4646,0,0,0,.65744,0L17.81189,8.8759v1.35729a.465.465,0,0,0,.9299,0V7.75351a.467.467,0,0,0-.00911-.09094c-.00279-.01414-.008-.02716-.01209-.04073a.43632.43632,0,0,0-.01433-.04594.47576.47576,0,0,0-.02436-.04631c-.00613-.01116-.01116-.02288-.01822-.03366a.46352.46352,0,0,0-.12907-.12907c-.01061-.00707-.022-.01172-.03292-.01786a.27735.27735,0,0,0-.09244-.03887c-.01376-.00409-.027-.00948-.04128-.01227a.46722.46722,0,0,0-.09095-.00912H15.79716a.465.465,0,0,0,0,.92991h1.35729l-4.519,4.51876-2.492-2.492a.4646.4646,0,0,0-.65744,0L5.39453,14.337a.46486.46486,0,0,0,.32863.79358Z"/></svg>