<svg id="Camada_1" data-name="Camada 1" xmlns="http://www.w3.org/2000/svg" viewBox="0 0 24 24"><title>chat</title><path d="M13.5212,1.51843H10.479A9.46119,9.46119,0,0,0,1.02862,10.969V21.5387a.83652.83652,0,0,0,.48411.8711.8254.8254,0,0,0,.33005.07177c.40762,0,.76431-.3352,1.17708-.72327A4.15419,4.15419,0,0,1,5.3231,20.41921h8.1981a9.45039,9.45039,0,0,0,0-18.90078Zm0,17.53031H5.3231a4.38585,4.38585,0,0,0-2.777,1.318l-.14676.13064V10.969A8.08917,8.08917,0,0,1,10.479,2.8889H13.5212a8.07992,8.07992,0,0,1,0,16.15984Z"/><path d="M13.19846,10.7533a2.49814,2.49814,0,1,0-3.80091-2.132,2.5172,2.5172,0,0,0,1.19663,2.132,4.126,4.126,0,0,0-2.826,3.912v1.37821h8.24516V14.66573A4.09868,4.09868,0,0,0,13.19846,10.7533Zm-1.2987.91193a3.00329,3.00329,0,0,1,2.99965,3.00007v.25527H8.8999V14.6653A3.00347,3.00347,0,0,1,11.89976,11.66523Zm-1.375-3.04391a1.37488,1.37488,0,1,1,1.375,1.37519A1.37647,1.37647,0,0,1,10.52478,8.62132Z"/></svg>