<svg id="Camada_1" data-name="Camada 1" xmlns="http://www.w3.org/2000/svg" viewBox="0 0 24 24"><title>circle-down</title><path d="M12,7.4534a.52407.52407,0,0,0-.52233.525v6.25008c0,.13382-.05712.17732-.09132.1916-.0342.01361-.10427.02291-.19725-.07006L8.93042,12.08468a.51368.51368,0,0,0-.36477-.16371.48157.48157,0,0,0-.12353.0166.57784.57784,0,0,0-.397.39682.49585.49585,0,0,0,.14644.49112l3.35117,3.394a.65013.65013,0,0,0,.46522.19525h.001a.654.654,0,0,0,.4702-.19924l3.32892-3.39a.4952.4952,0,0,0,.1471-.49146.57761.57761,0,0,0-.39714-.39648.49661.49661,0,0,0-.48813.14711L12.81123,14.35c-.093.093-.164.08367-.19758.06973-.03387-.01395-.09132-.05745-.09132-.19127V7.97839A.52407.52407,0,0,0,12,7.4534Z"/><path d="M12,2.856A9.144,9.144,0,1,0,21.144,12,9.15434,9.15434,0,0,0,12,2.856Zm0,17.24068A8.09685,8.09685,0,1,1,20.097,12,8.10578,8.10578,0,0,1,12,20.09668Z"/></svg>