<svg id="Camada_1" data-name="Camada 1" xmlns="http://www.w3.org/2000/svg" viewBox="0 0 24 24"><title>clips</title><path d="M19.06049,11.90849a4.8921,4.8921,0,0,0,1.40357-4.01923A4.89683,4.89683,0,0,0,15.55338,3.499a4.70276,4.70276,0,0,0-1.683.30331,5.071,5.071,0,0,0-1.78194,1.13587L5.36175,11.66523a9.00934,9.00934,0,0,0-.97421,1.0839,4.97057,4.97057,0,0,0-.70881,4.16434,4.89924,4.89924,0,0,0,2.9842,3.26481,4.97744,4.97744,0,0,0,4.20495-.32179,7.0996,7.0996,0,0,0,1.48575-1.241l3.892-3.89259a2.8125,2.8125,0,0,0,.81852-2.0023,2.782,2.782,0,0,0-.99942-2.11084,2.81111,2.81111,0,0,0-1.13645-.57314,2.967,2.967,0,0,0-1.3008,0,2.79589,2.79589,0,0,0-1.36316.7806L8.09152,14.99008a.72769.72769,0,0,0-.20073.52309.637.637,0,0,0,.19766.463.722.722,0,0,0,.99614-.00347l3.76-3.7598c.05427-.05427.10816-.1097.16224-.16551.10912-.11278.22094-.22825.3393-.33564l-.00577-.0077.16108-.12509.00674.00847c.04176-.02656.08391-.0512.12644-.07468L13.63,11.50164l.0025-.00077.18938-.07891.00346.00847c.05812-.01847.11625-.03425.17475-.04811l-.00115-.01078.03021-.00346c.04908-.00578.09854-.0127.14762-.01963l.03214-.00462.00153.01155q.07131-.00231.14261,0l.00135-.01155c.07082.0077.14357.0177.21459.0281l-.00154.01039q.08775.02021.173.04734l.00327-.0077.15858.06621.03406.01386-.005.01231c.04292.0231.08487.04773.12587.07352l.00692-.00885.16109.12509-.00616.00809c.03291.03079.06467.06235.09546.09507l.0077-.00577.12586.16166-.00847.00654c.02637.04157.0512.08391.07448.12625l.011-.00423.00077.00192.0793.19015-.00847.00346c.01847.05774.03445.11624.04811.17475l.01078-.00115.00231.01963c.00635.05311.01385.10777.02136.16127l.004.02887-.01174.00154q.002.0716,0,.14319l.01213.00154c-.00828.07005-.01829.1428-.02829.21362L15.6448,13.029c-.01347.05851-.02925.11625-.04734.17283l.0077.00308-.06736.16166-.01309.03156-.01174-.005c-.02329.04272-.04792.08468-.07371.12548l.00885.00693-.12586.16166-.00712-.00539c-.09334.102-.19265.199-.28984.29369-.0535.05234-.107.10431-.15916.157l-3.65818,3.659c-.17591.17744-.35662.35989-.55119.52771l.00346.00424-.16147.12586-.00539-.00693a4.61719,4.61719,0,0,1-.58987.34065l.0025.00616-.02348.01-.16744.06929v.00038l-.00173.00039-.00173-.00385a4.44437,4.44437,0,0,1-.70477.19322l.00077.00655-.07236.00885c-.036.00462-.07217.00962-.10778.01463l-.03041.00462-.00077-.00539a4.54435,4.54435,0,0,1-.74518,0l-.00077.00539c-.07063-.00809-.14338-.0181-.214-.02849l.001-.00616a4.47152,4.47152,0,0,1-.704-.19322l-.00173.00385L7.13,18.86881l-.00058-.00038L6.962,18.79876l-.0231-.00962.0025-.00578A4.378,4.378,0,0,1,6.3527,18.44l-.004.00539V18.445l-.01231-.00924-.14954-.11624.00269-.00347a4.40688,4.40688,0,0,1-.505-.505l-.00346.0027L5.68064,17.813l-.112-.144-.01328-.01694.00424-.00346a4.25205,4.25205,0,0,1-.3443-.5893l-.00578.00231-.00923-.02232L5.13,16.87113v-.00038l-.00058-.00154.004-.00154a4.4346,4.4346,0,0,1-.19341-.70516l-.00655.00077L4.92391,16.084c-.00423-.03272-.00866-.06543-.01328-.09777l-.00481-.03348L4.911,15.952a4.49694,4.49694,0,0,1-.00039-.7448l-.0052-.00077c.00809-.07083.0181-.14357.0283-.214l.00654.00077a4.44963,4.44963,0,0,1,.19322-.70477l-.004-.00154L5.13,14.28569l.06774-.16243.01174-.02848.006.00231a4.38,4.38,0,0,1,.34334-.58853l-.00539-.00423.00924-.01155.11663-.15012.00365.0027c.20285-.23865.429-.4592.649-.674.06813-.06659.13607-.13279.20285-.19938l5.96879-5.9688c.1915-.19207.383-.38414.5764-.57621.08257-.08237.16937-.16243.2629-.24172L13.34,5.68181l.16051-.12471.001-.00077.00385.005a4.31081,4.31081,0,0,1,.5891-.34334l-.0023-.00577.02424-.01.16629-.06929.00057-.00038.00154-.00039.00173.00385a4.44642,4.44642,0,0,1,.705-.19322l-.00077-.00654.0714-.00886q.05543-.00693.11066-.015l.02848-.00423.00077.00539a4.41928,4.41928,0,0,1,.74519,0l.00077-.00539c.07044.00808.14318.01809.214.02848l-.001.00616a4.51233,4.51233,0,0,1,.704.19322l.00174-.00385.00154.00039.00077.00038.1682.07006.02194.00924-.00231.00577a4.366,4.366,0,0,1,.58853.34334l.004-.00539.01463.01155.14723.11432-.00251.00346a4.44567,4.44567,0,0,1,.50462.50462l.00346-.00231.11259.14472.01328.01694-.00481.00385a4.31107,4.31107,0,0,1,.343.58891l.00578-.00231.01058.0254.0689.16552.00058.00154-.004.00154a4.43477,4.43477,0,0,1,.19341.70515l.00655-.00077.00962.07929c.00423.03233.00866.065.01328.097l.00481.03426-.0052.00077a4.49694,4.49694,0,0,1,.00039.7448l.0052.00077c-.00809.07082-.0181.14357-.0283.214l-.00654-.00077a4.43425,4.43425,0,0,1-.19322.70438l.004.00154-.00058.00154-.0689.16551-.01058.02541-.006-.00231a4.37078,4.37078,0,0,1-.343.58814l.00519.00423-.03156.04042-.0945.12163-.00308-.00231c-.0764.09007-.15742.17783-.2421.26251a.733.733,0,0,0-.20131.52578.6346.6346,0,0,0,.19823.46036A.71393.71393,0,0,0,19.06049,11.90849Z"/></svg>