<svg id="Camada_1" data-name="Camada 1" xmlns="http://www.w3.org/2000/svg" viewBox="0 0 24 24"><title>clipboard-chart</title><path d="M16.673,3.308H7.327A2.85372,2.85372,0,0,0,4.4763,6.15868V17.841A2.854,2.854,0,0,0,7.327,20.692h9.346a2.854,2.854,0,0,0,2.85068-2.851V6.15868A2.85372,2.85372,0,0,0,16.673,3.308ZM10.598,7.37368h2.804A1.91822,1.91822,0,0,0,15.3179,5.45777V4.3365H16.673a1.82416,1.82416,0,0,1,1.82219,1.82218V17.841A1.82443,1.82443,0,0,1,16.673,19.6635H7.327A1.82443,1.82443,0,0,1,5.50479,17.841V6.15868A1.82416,1.82416,0,0,1,7.327,4.3365h1.3548V5.45777A1.91828,1.91828,0,0,0,10.598,7.37368Zm3.6914-1.91591a.88826.88826,0,0,1-.88742.88742H10.598a.88854.88854,0,0,1-.88774-.88742V4.3365h4.57914Z"/><path d="M14.22638,13.26315a.442.442,0,0,0-.44147.44147v.12218a2.38384,2.38384,0,1,0,2.54072,2.54071h.12218a.44194.44194,0,0,0,.44147-.44147A2.66586,2.66586,0,0,0,14.22638,13.26315Zm0,3.10436h1.20805A1.49827,1.49827,0,1,1,13.78491,14.718v1.208A.442.442,0,0,0,14.22638,16.36751Zm1.72494-.88294H14.66785V14.20175A1.793,1.793,0,0,1,15.95132,15.48457Z"/><path d="M7.29147,9.40924a.47962.47962,0,0,0,.4789.4789h8.08114a.4789.4789,0,0,0,0-.9578H7.77037A.47962.47962,0,0,0,7.29147,9.40924Z"/><path d="M7.77037,12.22473h6.91284a.47906.47906,0,0,0,0-.95811H7.77037a.47906.47906,0,0,0,0,.95811Z"/><path d="M10.47741,13.60321h-2.707a.47906.47906,0,0,0,0,.95812h2.707a.47906.47906,0,1,0,0-.95812Z"/></svg>