<svg id="Camada_1" data-name="Camada 1" xmlns="http://www.w3.org/2000/svg" viewBox="0 0 24 24"><title>comment-star</title><path d="M21.19748,4.314A6.644,6.644,0,0,0,10.043,5.313H9.05878A7.65892,7.65892,0,0,0,1.409,12.96281v8.47676a.74965.74965,0,0,0,.43418.765.73011.73011,0,0,0,.28944.062c.35149,0,.64093-.26875.99242-.59955a3.29793,3.29793,0,0,1,1.79873-1.05443h6.57466a7.65686,7.65686,0,0,0,7.53-6.345A6.641,6.641,0,0,0,21.19748,4.314Zm-9.699,15.058H4.92377a3.57794,3.57794,0,0,0-2.27428,1.07511V12.96281A6.41479,6.41479,0,0,1,9.05878,6.55352h.49133a6.72252,6.72252,0,0,0-.21116.99333,6.6527,6.6527,0,0,0,5.75893,7.43867,6.7189,6.7189,0,0,0,.84439.05349,6.58866,6.58866,0,0,0,1.6904-.2242A6.4168,6.4168,0,0,1,11.49843,19.372ZM21.40848,9.08265a5.51419,5.51419,0,1,1-5.48221-6.212,5.57642,5.57642,0,0,1,.70719.04508,5.5146,5.5146,0,0,1,4.775,6.16694Z"/><path d="M18.15551,11.659q-.42075-1.28451-.84064-2.569,1.095-.79187,2.19-1.5846l-2.70315.00521q-.41426-1.28578-.83019-2.57162-.41427,1.28583-.83023,2.57162l-2.70227-.00521q1.095.79314,2.18917,1.5846-.41944,1.28451-.83976,2.569,1.09107-.79709,2.18309-1.59333Q17.064,10.8628,18.15551,11.659Z"/></svg>