<svg id="Camada_1" data-name="Camada 1" xmlns="http://www.w3.org/2000/svg" viewBox="0 0 24 24"><title>comments</title><path d="M15.65968,2.55419H13.51093A6.87715,6.87715,0,0,0,7.37372,6.39792a6.85109,6.85109,0,0,0-5.87,6.75449v7.46488a.76594.76594,0,0,0,.44516.7671.74557.74557,0,0,0,.29221.06142c.35284,0,.62628-.2574.94392-.55626.39391-.35871.98968-.9001,1.51425-.9001h5.78985a6.80039,6.80039,0,0,0,6.10044-3.76119h2.71166c.52379,0,1.11877.541,1.515.90128.31646.29807.5899.55547.94274.55547a.74141.74141,0,0,0,.29025-.061.76608.76608,0,0,0,.44712-.7675V9.39122A6.84464,6.84464,0,0,0,15.65968,2.55419ZM15.0909,16.22826a5.50882,5.50882,0,0,1-4.60183,2.46834H4.69922a3.05258,3.05258,0,0,0-1.90269.82735V13.15241a5.52476,5.52476,0,0,1,4.069-5.338,6.80946,6.80946,0,0,0,6.64536,8.41388Zm6.113-6.837v6.37193a3.0518,3.0518,0,0,0-1.9027-.82774H13.51093a5.54419,5.54419,0,1,1,0-11.08837h2.14875A5.55048,5.55048,0,0,1,21.20387,9.39122Z"/></svg>