<svg id="Camada_1" data-name="Camada 1" xmlns="http://www.w3.org/2000/svg" viewBox="0 0 24 24"><title>comment</title><path d="M13.21983,3.52322H10.78017A7.65893,7.65893,0,0,0,3.1304,11.173v8.47677a.74962.74962,0,0,0,.43417.765.72972.72972,0,0,0,.28945.062c.35148,0,.64093-.26878.99241-.59958a3.29786,3.29786,0,0,1,1.79873-1.05443h6.57467a7.64978,7.64978,0,0,0,0-15.29955Zm0,14.05905H6.64516a3.57788,3.57788,0,0,0-2.27426,1.0751V11.173a6.41479,6.41479,0,0,1,6.40927-6.40927h2.43966a6.40927,6.40927,0,0,1,0,12.81854Z"/></svg>