<svg id="Camada_1" data-name="Camada 1" xmlns="http://www.w3.org/2000/svg" viewBox="0 0 24 24"><title>compass</title><path d="M12,1.9235A10.0765,10.0765,0,1,0,22.0765,12,10.0765,10.0765,0,0,0,12,1.9235Zm0,18.89344A8.81694,8.81694,0,1,1,20.81694,12,8.81694,8.81694,0,0,1,12,20.81694Z"/><path d="M14.36924,9.99226c-.00378-.00945-.01008-.017-.01449-.02645a.5298.5298,0,0,0-.0359-.06739.56034.56034,0,0,0-.04345-.063.82486.82486,0,0,0-.10832-.10832.56266.56266,0,0,0-.063-.04346.52974.52974,0,0,0-.06739-.03589c-.00945-.00441-.017-.01071-.02645-.01449L8.21816,7.4026a.62978.62978,0,0,0-.81556.81556l2.22627,5.78958c.00378.00945.01008.017.01449.02645a.5298.5298,0,0,0,.0359.06739.56034.56034,0,0,0,.04345.063.82486.82486,0,0,0,.10832.10832.56266.56266,0,0,0,.063.04346.52974.52974,0,0,0,.06739.03589c.00945.00441.017.01071.02645.01449l5.794,2.23068a.62978.62978,0,0,0,.81556-.81556Zm-1.71868.466-2.19227,2.19226-1.36977-3.562Zm-1.30112,3.08592L13.5417,11.352l1.36978,3.562Z"/></svg>