<svg width="32" height="32" viewBox="0 0 32 32" fill="none" xmlns="http://www.w3.org/2000/svg">
<path d="M22.6001 18.2H20.6123C20.3076 18.2002 20.0126 18.3064 19.7777 18.5004C19.5428 18.6943 19.3827 18.964 19.3249 19.2631C19.2671 19.5622 19.3151 19.8721 19.4608 20.1397C19.6065 20.4072 19.8408 20.6157 20.1234 20.7295L22.1415 21.5371C22.4242 21.6508 22.6584 21.8593 22.8041 22.1269C22.9498 22.3944 22.9979 22.7043 22.9401 23.0034C22.8822 23.3025 22.7222 23.5722 22.4873 23.7662C22.2524 23.9602 21.9573 24.0664 21.6526 24.0666H19.6668" stroke="#74788C" stroke-width="1.6" stroke-linecap="round" stroke-linejoin="round"/>
<path d="M21.1333 18.2V17.4667" stroke="#74788C" stroke-width="1.6" stroke-linecap="round" stroke-linejoin="round"/>
<path d="M21.1333 24.8V24.0667" stroke="#74788C" stroke-width="1.6" stroke-linecap="round" stroke-linejoin="round"/>
<path d="M15.2666 21.1334C15.2666 22.6893 15.8847 24.1815 16.9849 25.2818C18.0851 26.382 19.5773 27.0001 21.1333 27.0001C22.6892 27.0001 24.1814 26.382 25.2816 25.2818C26.3818 24.1815 26.9999 22.6893 26.9999 21.1334C26.9999 19.5775 26.3818 18.0852 25.2816 16.985C24.1814 15.8848 22.6892 15.2667 21.1333 15.2667C19.5773 15.2667 18.0851 15.8848 16.9849 16.985C15.8847 18.0852 15.2666 19.5775 15.2666 21.1334Z" stroke="#74788C" stroke-width="1.6" stroke-linecap="round" stroke-linejoin="round"/>
<path d="M7.93335 18.2H12.3334" stroke="#74788C" stroke-width="1.6" stroke-linecap="round" stroke-linejoin="round"/>
<path d="M12.3333 18.2V10.8667" stroke="#74788C" stroke-width="1.6" stroke-linecap="round" stroke-linejoin="round"/>
<path d="M15.2666 13.8V12.3334" stroke="#74788C" stroke-width="1.6" stroke-linecap="round" stroke-linejoin="round"/>
<path d="M9.3999 18.2V13.8" stroke="#74788C" stroke-width="1.6" stroke-linecap="round" stroke-linejoin="round"/>
<path d="M11.6 24.0667H6.46671C6.27864 24.0759 6.09065 24.047 5.91401 23.9818C5.73737 23.9166 5.57572 23.8164 5.43875 23.6872C5.30178 23.558 5.19232 23.4025 5.11694 23.2299C5.04155 23.0574 5.00179 22.8714 5.00004 22.6831V6.54978C4.99707 6.15205 5.14809 5.7686 5.42148 5.47972C5.69487 5.19083 6.06942 5.01893 6.46671 5H16.8595C17.2482 5.00008 17.621 5.15447 17.896 5.42924L20.7041 8.23742C20.9789 8.51237 21.1333 8.88515 21.1334 9.27387V11.6" stroke="#74788C" stroke-width="1.6" stroke-linecap="round" stroke-linejoin="round"/>
</svg>
