<svg id="Camada_1" data-name="Camada 1" xmlns="http://www.w3.org/2000/svg" viewBox="0 0 24 24"><defs><style>.cls-1{fill:#f0f2f5;}.cls-2{fill:#8cabc8;}</style></defs><title>diamond-blue-grey</title><polygon class="cls-1" points="2.814 9.771 2.814 8.608 5.782 4.543 6.645 4.008 17.337 4.008 18.2 4.543 21.176 8.621 21.129 9.81 11.991 19.663 2.814 9.771"/><path class="cls-1" d="M17.138,4.70743l.578.35778,2.75256,3.77095L20.441,9.5243l-8.45021,9.11083L3.51305,9.49678V8.83616L6.26556,5.06521l.578-.35778H17.138M17.53554,3.31H6.446l-.338.20925-.578.35777-.23222.14375-.161.22051-2.7525,3.771-.26873.36813v1.66479l.373.402,8.47773,9.13836L11.9909,20.69l1.02448-1.10459,8.45021-9.11084.35107-.37847.02064-.51585.02758-.68814.0195-.48651-.2871-.39337-2.75256-3.771-.161-.22051L18.45153,3.877l-.578-.35777-.338-.20925Z"/><path class="cls-2" d="M11.88069,18.63518A.39237.39237,0,0,0,12.211,18.47l8.11993-8.94568h-5.505L12.211,17.91952c0,.02753,0,.02753-.02753.02753,0,.02752,0,.02752-.02752.02752-.02753.02753-.02753.05505-.05505.05505l-.02753.02753a.20869.20869,0,0,1-.1101.055h-.08258a.20811.20811,0,0,1-.1101-.02752h0a.20867.20867,0,0,1-.1101-.055L11.633,18.0021l-.055-.055a.09611.09611,0,0,1-.02753-.05505l-.02752-.02753L9.12817,9.49681H3.40293l8.11994,8.94569A.43327.43327,0,0,0,11.88069,18.63518Z"/><polygon class="cls-2" points="8.908 8.836 6.155 5.065 3.403 8.836 8.908 8.836"/><polygon class="cls-2" points="14.11 9.524 9.871 9.524 11.908 16.626 14.11 9.524"/><path class="cls-2" d="M17.0279,4.70743H6.73348L9.32085,8.25818l2.28459-3.19292a.34406.34406,0,0,1,.5505,0l2.5048,3.22044Z"/><polygon class="cls-2" points="11.908 5.863 9.761 8.836 14.22 8.836 11.908 5.863"/><polygon class="cls-2" points="17.606 5.065 15.101 8.836 20.358 8.836 17.606 5.065"/></svg>