<svg id="Camada_1" data-name="Camada 1" xmlns="http://www.w3.org/2000/svg" viewBox="0 0 24 24"><defs><style>.cls-1{fill:#1e2b3d;}</style></defs><title>diamond-solid-dark</title><path class="cls-1" d="M12,19a.39443.39443,0,0,0,.332-.166L20.49407,9.8419h-5.5336L12.332,18.28063c0,.02767,0,.02767-.02767.02767,0,.02767,0,.02767-.02767.02767-.02767.02767-.02767.05533-.05534.05533l-.02766.02767a.20977.20977,0,0,1-.11068.05534H12a.20912.20912,0,0,1-.11067-.02767h0a.20971.20971,0,0,1-.11067-.05534l-.02767-.02766-.05534-.05534A.0966.0966,0,0,1,11.668,18.253l-.02766-.02767L9.2332,9.81423H3.47826l8.16206,8.99209A.4355.4355,0,0,0,12,19Z"/><polygon class="cls-1" points="9.012 9.15 6.245 5.36 3.478 9.15 9.012 9.15"/><polygon class="cls-1" points="14.241 9.842 9.98 9.842 12.028 16.98 14.241 9.842"/><path class="cls-1" d="M17.17391,5H6.82609L9.42688,8.56917l2.29644-3.20949a.34585.34585,0,0,1,.55336,0l2.51779,3.23716Z"/><polygon class="cls-1" points="12.028 6.162 9.87 9.15 14.352 9.15 12.028 6.162"/><polygon class="cls-1" points="17.755 5.36 15.237 9.15 20.522 9.15 17.755 5.36"/></svg>