<svg id="Camada_1" data-name="Camada 1" xmlns="http://www.w3.org/2000/svg" viewBox="0 0 24 24"><defs><style>.cls-1{fill:#fff;}.cls-2{fill:#8cabc8;}</style></defs><title>diamond-blue-white</title><polygon class="cls-1" points="2.814 9.771 2.814 8.608 5.782 4.543 6.645 4.009 17.337 4.009 18.2 4.543 21.176 8.621 21.129 9.81 11.991 19.663 2.814 9.771"/><path class="cls-1" d="M17.138,4.70742l.578.35789,2.7525,3.77093-.02753.68813-8.45017,9.11078L3.51312,9.49685V8.83624l2.7525-3.77093.578-.35789H17.138M17.53559,3.31H6.44607l-.338.20925-.578.35788-.23213.14375-.161.22051L2.3844,8.01232l-.2687.36812v1.66478l.373.402,8.47771,9.1383L11.991,20.69l1.02445-1.10459,8.45017-9.11077.3511-.37847.02063-.516.02754-.68814.01946-.4865-.28705-.39325-2.7525-3.77093-.161-.22051-.23212-.14375-.578-.35788L17.53559,3.31Z"/><path class="cls-2" d="M11.88072,18.6351A.39235.39235,0,0,0,12.211,18.47L20.3309,9.52432h-5.505L12.211,17.91945c0,.02753,0,.02753-.02752.02753,0,.02752,0,.02752-.02752.02752-.02753.02753-.02753.05505-.055.05505l-.02753.02753a.20865.20865,0,0,1-.1101.055h-.08257a.20814.20814,0,0,1-.11011-.02752h0a.20867.20867,0,0,1-.1101-.055L11.633,18.002l-.055-.05505a.09611.09611,0,0,1-.02753-.05505l-.02752-.02753L9.12822,9.4968H3.403l8.11988,8.94563A.43326.43326,0,0,0,11.88072,18.6351Z"/><polygon class="cls-2" points="8.908 8.836 6.156 5.065 3.403 8.836 8.908 8.836"/><polygon class="cls-2" points="14.11 9.524 9.871 9.524 11.908 16.626 14.11 9.524"/><path class="cls-2" d="M17.0279,4.70745H6.73355L9.3209,8.25817l2.28457-3.1929a.34407.34407,0,0,1,.5505,0L14.66075,8.2857Z"/><polygon class="cls-2" points="11.908 5.863 9.761 8.836 14.22 8.836 11.908 5.863"/><polygon class="cls-2" points="17.606 5.065 15.101 8.836 20.358 8.836 17.606 5.065"/></svg>