<svg id="Camada_1" data-name="Camada 1" xmlns="http://www.w3.org/2000/svg" viewBox="0 0 24 24"><title>emoji-flag</title><path d="M16.12183,7.81a.471.471,0,0,1,0-.618l3.35946-3.89869.00943-.01273a.93934.93934,0,0,0,.151-.50951.95052.95052,0,0,0-.94778-.9492H5.44338a.93427.93427,0,0,0-.53546.16842.84479.84479,0,0,0-.54961.78833V21.33416a.844.844,0,0,0,1.688,0v-8.154H18.69391a.94379.94379,0,0,0,.77842-1.48324Zm-2.49895,0,2.99572,3.47692H6.8634a.47375.47375,0,0,1-.47319-.47318v-6.626a.47376.47376,0,0,1,.47319-.47319h9.75568L13.62288,7.192A.47049.47049,0,0,0,13.62288,7.81Z"/></svg>