<svg id="Camada_1" data-name="Camada 1" xmlns="http://www.w3.org/2000/svg" viewBox="0 0 24 24"><title>emoji-airplane</title><path d="M19.986,4.04671a2.75739,2.75739,0,0,0-3.89492,0L14.03133,6.106,6.87509,4.64963a1.37817,1.37817,0,0,0-1.26481.39109L4.5672,6.08427a1.38149,1.38149,0,0,0,.00047,1.972,1.2667,1.2667,0,0,0,.37081.25617l4.57615,2.31072L8.1281,12.0092l-2.17343-.385a1.39661,1.39661,0,0,0-1.22424.393L3.62178,13.1254a1.40612,1.40612,0,0,0-.392,1.229,1.4475,1.4475,0,0,0,.392.74256,1.41617,1.41617,0,0,0,.39393.276l3.18395,1.49692,1.538,3.09008a1.27447,1.27447,0,0,0,.26277.38543,1.37,1.37,0,0,0,.74775.393,1.30409,1.30409,0,0,0,.23117.02029,1.41933,1.41933,0,0,0,.99307-.41327l1.04308-1.04308a1.43853,1.43853,0,0,0,.393-1.22329L12.023,15.90411l1.38652-1.386,2.30458,4.562a1.20446,1.20446,0,0,0,.26278.38591,1.38188,1.38188,0,0,0,1.97152-.00048l1.04307-1.04354a1.376,1.376,0,0,0,.39157-1.26387L17.9102,10.0174,19.986,7.94162A2.7574,2.7574,0,0,0,19.986,4.04671ZM18.82921,6.78485,16.14626,9.46826l1.59741,7.8889-.7152.7152-3.17877-6.308-3.585,3.585L10.77,18.23464l-.71661.71662L8.405,15.62341,5.022,14.03874l.77605-.77653,2.88486.50527,3.585-3.585L5.96033,7.00422l.71473-.71473,7.87238,1.61345L17.24737,5.203a1.12017,1.12017,0,0,1,1.58184,0,1.13659,1.13659,0,0,1,0,1.58184Z"/></svg>