<svg id="Camada_1" data-name="Camada 1" xmlns="http://www.w3.org/2000/svg" viewBox="0 0 24 24"><title>emoji-hearth</title><path d="M16.32965,2.81338h-.00048A5.89686,5.89686,0,0,0,12.00071,4.7297a5.85039,5.85039,0,0,0-7.89739-.70293A5.88522,5.88522,0,0,0,1.82138,8.66283c0,7.56384,9.38959,12.14754,9.78918,12.33907l.3892.18635.38968-.18635c.39959-.192,9.78918-4.78089,9.78918-12.33955A5.86488,5.86488,0,0,0,16.32965,2.81338Zm4.0454,5.84945c0,5.62346-6.61371,9.56131-8.37529,10.51-1.76158-.94919-8.37481-4.888-8.37481-10.51a4.04574,4.04574,0,0,1,7.586-1.95831l.78879,1.42238L12.789,6.70405a4.046,4.046,0,0,1,7.586,1.95878Z"/></svg>