<svg id="Camada_1" data-name="Camada 1" xmlns="http://www.w3.org/2000/svg" viewBox="0 0 24 24"><title>emoticon-add</title><path d="M21.483,6.11585H18.77024V3.28469a.25931.25931,0,0,0-.2594-.2594h-.84168a.25931.25931,0,0,0-.25939.2594V6.11585H14.697a.25931.25931,0,0,0-.2594.2594v.78909a.25931.25931,0,0,0,.2594.2594h1.71843l0,0h.99431V10.281a.25931.25931,0,0,0,.25939.2594h.3873v0h.45438a.25931.25931,0,0,0,.2594-.2594V7.42374H21.483a.25931.25931,0,0,0,.2594-.2594V6.37525A.25931.25931,0,0,0,21.483,6.11585Z"/><path d="M12.902,16.56565a4.39874,4.39874,0,0,0,1.96719-1.96717.66748.66748,0,0,0-1.194-.597,3.06381,3.06381,0,0,1-5.48072,0,.66748.66748,0,0,0-1.194.597A4.39877,4.39877,0,0,0,12.902,16.56565Z"/><path d="M7.93113,11.63008a1.00121,1.00121,0,1,0-1.00119-1.00122A1.00121,1.00121,0,0,0,7.93113,11.63008Z"/><path d="M18.26878,12.13575c.00119.05433.00817.10718.00817.1618a7.34659,7.34659,0,1,1-5.09314-6.988c.562-.26264.69489-.52023.56244-1.222a8.67773,8.67773,0,1,0,5.86566,8.21c0-.17427-.00664-.3469-.01677-.51862A2.17429,2.17429,0,0,0,18.26878,12.13575Z"/><path d="M13.93839,9.62766a1.00121,1.00121,0,1,0,1.00122,1.0012A1.00121,1.00121,0,0,0,13.93839,9.62766Z"/></svg>