<svg id="Camada_1" data-name="Camada 1" xmlns="http://www.w3.org/2000/svg" viewBox="0 0 24 24"><defs><style>.cls-1{stroke:#000;stroke-miterlimit:10;stroke-width:0.27291px;}</style></defs><title>folder</title><path class="cls-1" d="M22.03423,9.67419V9.58558c0-.02215,0-.02215-.02215-.0443,0-.02215,0-.02215-.02215-.0443,0-.02215-.02216-.02215-.02216-.0443s-.02215-.02215-.02215-.0443a.02169.02169,0,0,0-.02215-.02215l-.02215-.02215-.02215-.02215c-.02215,0-.02215-.02215-.0443-.02215s-.02215-.02215-.0443-.02215-.02215-.02215-.0443-.02215H19.53121c0-.0443.02215-.06646.02215-.11076a2.57131,2.57131,0,0,0-2.56947-2.56947H10.47161V5.31052a1.57875,1.57875,0,0,0-1.5727-1.5727H3.53847a1.57875,1.57875,0,0,0-1.5727,1.5727v12.9138a2.04016,2.04016,0,0,0,.39872,1.19613.02169.02169,0,0,0,.02215.02215,2.02476,2.02476,0,0,0,1.63914.81958H17.006a2.78516,2.78516,0,0,0,2.52517-2.28152h0l2.503-8.15142V9.67419Zm-3.38905-.53162a.19973.19973,0,0,0,.02215.11076H5.57632c-.02215,0-.02215,0-.0443.02215-.02215,0-.02215,0-.0443.02215-.02215,0-.02215.02215-.0443.02215a.02169.02169,0,0,0-.02215.02215c-.02215,0-.02215.02215-.0443.02215l-.02215.02215c0,.02215-.02215.02215-.02215.0443a.07732.07732,0,0,0-.02216.0443c0,.02215-.02215.02215-.02215.0443s-.02215.02215-.02215.0443v.02215L2.82965,17.24969V7.45913H16.96173A1.6827,1.6827,0,0,1,18.64518,9.14257ZM3.53847,4.6017H8.89891a.69012.69012,0,0,1,.68667.68667V6.5731H2.8518V5.28837A.67614.67614,0,0,1,3.53847,4.6017ZM16.96174,19.354H4.00363a1.13966,1.13966,0,0,1-.79742-.33226l2.81313-8.88239h14.996l-2.348,7.57551V17.737h0C18.57873,18.11357,18.15787,19.354,16.96174,19.354Z"/></svg>