<svg width="32" height="32" viewBox="0 0 32 32" fill="none" xmlns="http://www.w3.org/2000/svg">
<path fill-rule="evenodd" clip-rule="evenodd" d="M19.9959 6.32922C20.719 5.60616 21.6996 5.19995 22.7222 5.19995C23.7447 5.19995 24.7254 5.60616 25.4485 6.32922C26.1715 7.05228 26.5777 8.03295 26.5777 9.05551C26.5777 9.80695 26.3584 10.5358 25.9551 11.1564L27.5658 12.7677C27.8781 13.0802 27.878 13.5867 27.5655 13.8991C27.253 14.2114 26.7465 14.2113 26.4341 13.8988L24.8239 12.2879C24.2031 12.6915 23.474 12.9111 22.7222 12.9111C21.6996 12.9111 20.719 12.5049 19.9959 11.7818C19.2728 11.0587 18.8666 10.0781 18.8666 9.05551C18.8666 8.03295 19.2728 7.05228 19.9959 6.32922ZM24.9777 9.05551C24.9777 9.64689 24.7455 10.2143 24.3315 10.6359L24.3175 10.6496L24.3033 10.6642C23.8816 11.0786 23.3139 11.3111 22.7222 11.3111C22.124 11.3111 21.5503 11.0734 21.1273 10.6504C20.7043 10.2274 20.4666 9.65372 20.4666 9.05551C20.4666 8.4573 20.7043 7.88359 21.1273 7.46059C21.5503 7.03759 22.124 6.79995 22.7222 6.79995C23.3204 6.79995 23.8941 7.03759 24.3171 7.46059C24.7401 7.88359 24.9777 8.4573 24.9777 9.05551ZM5.99521 8.46189C6.12024 8.33686 6.28981 8.26663 6.46662 8.26663H16.7333C17.1751 8.26663 17.5333 7.90845 17.5333 7.46663C17.5333 7.0248 17.1751 6.66663 16.7333 6.66663H6.46662C5.86546 6.66663 5.28893 6.90544 4.86384 7.33052C4.43876 7.7556 4.19995 8.33214 4.19995 8.93329V10.4C4.19995 11.0011 4.43876 11.5777 4.86384 12.0027C5.28893 12.4278 5.86546 12.6666 6.46662 12.6666H16.7333C17.1751 12.6666 17.5333 12.3085 17.5333 11.8666C17.5333 11.4248 17.1751 11.0666 16.7333 11.0666H6.46662C6.28981 11.0666 6.12024 10.9964 5.99521 10.8714C5.87019 10.7463 5.79995 10.5768 5.79995 10.4V8.93329C5.79995 8.75648 5.87019 8.58691 5.99521 8.46189ZM9.19995 17C9.19995 16.5581 9.55812 16.2 9.99995 16.2H21.7333C22.1751 16.2 22.5333 16.5581 22.5333 17C22.5333 17.4418 22.1751 17.8 21.7333 17.8H9.99995C9.55812 17.8 9.19995 17.4418 9.19995 17ZM5.99995 16.2C5.55812 16.2 5.19995 16.5581 5.19995 17C5.19995 17.4418 5.55812 17.8 5.99995 17.8H6.99995C7.44178 17.8 7.79995 17.4418 7.79995 17C7.79995 16.5581 7.44178 16.2 6.99995 16.2H5.99995ZM9.33328 22C9.33328 21.5581 9.69145 21.2 10.1333 21.2H21.8666C22.3085 21.2 22.6666 21.5581 22.6666 22C22.6666 22.4418 22.3085 22.7999 21.8666 22.7999H10.1333C9.69145 22.7999 9.33328 22.4418 9.33328 22ZM5.99995 21.2C5.55812 21.2 5.19995 21.5581 5.19995 22C5.19995 22.4418 5.55812 22.7999 5.99995 22.7999H6.99995C7.44178 22.7999 7.79995 22.4418 7.79995 22C7.79995 21.5581 7.44178 21.2 6.99995 21.2H5.99995ZM9.33328 27C9.33328 26.5581 9.69145 26.2 10.1333 26.2H21.8666C22.3085 26.2 22.6666 26.5581 22.6666 27C22.6666 27.4418 22.3085 27.7999 21.8666 27.7999H10.1333C9.69145 27.7999 9.33328 27.4418 9.33328 27ZM5.99995 26.2C5.55812 26.2 5.19995 26.5581 5.19995 27C5.19995 27.4418 5.55812 27.7999 5.99995 27.7999H6.99995C7.44178 27.7999 7.79995 27.4418 7.79995 27C7.79995 26.5581 7.44178 26.2 6.99995 26.2H5.99995Z" />
</svg>