<svg id="Camada_1" data-name="Camada 1" xmlns="http://www.w3.org/2000/svg" viewBox="0 0 24 24"><title>funnel</title><path d="M20.64834,3.40824a.98588.98588,0,0,0-.90571-.53925H4.24837a1.01174,1.01174,0,0,0-.90571.53969A1.03857,1.03857,0,0,0,3.412,4.44809l5.68431,7.97545a1.41483,1.41483,0,0,1,.26741.7951l.00089,6.94981a1.062,1.062,0,0,0,.4664.7951l.00533.00311a1.01283,1.01283,0,0,0,.85995.11682l3.28657-1.23618a.97525.97525,0,0,0,.64452-.94169V13.18977a1.40941,1.40941,0,0,1,.26474-.79111L20.57593,4.453A.97781.97781,0,0,0,20.64834,3.40824Zm-10.399,8.13535-5.185-7.27051H18.89778l-5.181,7.2643a2.68322,2.68322,0,0,0-.55169,1.65239v5.41912l-2.368.91059V13.18977A2.67567,2.67567,0,0,0,10.24938,11.54359Z"/></svg>