<svg id="Camada_1" data-name="Camada 1" xmlns="http://www.w3.org/2000/svg" viewBox="0 0 24 24"><defs><style>.cls-1{fill:#1e2b3d;}.cls-2{fill:#fff;}</style></defs><title>hammer-blue-white</title><path class="cls-1" d="M18.61173,19.93586a1.57117,1.57117,0,0,1-1.0419-.40761l-5.4416-4.89459-.64679.73926a1.91584,1.91584,0,0,1,.24036,1.76677,2.02694,2.02694,0,0,1-1.867,1.30491,1.89769,1.89769,0,0,1-1.24829-.47177L4.46107,14.49072a1.89878,1.89878,0,0,1-.59726-2.15362A1.95985,1.95985,0,0,1,5.686,11.01285a2.0506,2.0506,0,0,1,.86475.19814L9.95032,7.14011a1.90587,1.90587,0,0,1-.2248-1.74837A2.05143,2.05143,0,0,1,11.614,4.06419a1.94944,1.94944,0,0,1,1.24358.45572l4.10627,3.49533a1.97783,1.97783,0,0,1,.59325,2.22863,1.91034,1.91034,0,0,1-1.788,1.27849h-.00048a2.05655,2.05655,0,0,1-.83951-.18588l-.69231.81569L19.694,17.06044a1.57491,1.57491,0,0,1,.45124,1.7696A1.66947,1.66947,0,0,1,18.61173,19.93586Z"/><path class="cls-2" d="M11.614,4.78883a1.226,1.226,0,0,1,.78465.29193l4.09547,3.48668a1.2556,1.2556,0,0,1-.72507,2.23043,1.57033,1.57033,0,0,1-.9906-.40407l-1.54964,1.82636,5.98055,5.37915a.92771.92771,0,0,1-.59754,1.61186.84954.84954,0,0,1-.56469-.22825l-5.98055-5.37915-1.54964,1.771A1.26692,1.26692,0,0,1,9.855,17.72006a1.18,1.18,0,0,1-.777-.29754L4.92718,13.93583a1.244,1.244,0,0,1,.75893-2.19821,1.56423,1.56423,0,0,1,1.01208.4272l4.20616-5.03633A1.27652,1.27652,0,0,1,11.614,4.78883m0-1.44927A2.75247,2.75247,0,0,0,9.04542,5.14129a2.59544,2.59544,0,0,0,.0401,1.90411L6.3143,10.36358a2.64317,2.64317,0,0,0-3.13294,1.72994,2.643,2.643,0,0,0,.82808,2.964l4.13639,3.47473a2.60439,2.60439,0,0,0,1.7092.6371,2.72819,2.72819,0,0,0,2.5463-1.77813,2.55947,2.55947,0,0,0,.09973-1.44739l4.5769,4.11664a2.29832,2.29832,0,0,0,1.53386.6,2.39674,2.39674,0,0,0,2.21156-1.57538,2.28844,2.28844,0,0,0-.65967-2.57643l-4.76716-4.28792A2.61621,2.61621,0,0,0,18.23618,10.497a2.71854,2.71854,0,0,0-.79479-3.02642L13.33813,3.97723l-.02175-.01815A2.66581,2.66581,0,0,0,11.614,3.33956Z"/></svg>