<svg width="24" height="24" viewBox="0 0 24 24" fill="none" xmlns="http://www.w3.org/2000/svg">
<path fill-rule="evenodd" clip-rule="evenodd" d="M20.9571 4.54289C21.3476 4.93342 21.3476 5.56658 20.9571 5.95711L18.511 8.4032C18.6019 8.48352 18.6903 8.56387 18.7761 8.64394C19.5342 9.35157 20.1134 10.0569 20.5038 10.5858C20.6996 10.8511 20.8494 11.0741 20.952 11.2337C21.0034 11.3135 21.043 11.3777 21.0707 11.4236C21.0846 11.4465 21.0955 11.4649 21.1034 11.4784L21.1131 11.4949L21.1162 11.5003L21.1174 11.5023L21.1178 11.5032C21.118 11.5035 21.1182 11.5039 20.25 12C21.1182 12.4961 21.118 12.4965 21.1178 12.4968L21.1174 12.4977L21.1162 12.4997L21.1131 12.5051L21.1034 12.5216C21.0955 12.5351 21.0846 12.5535 21.0707 12.5764C21.043 12.6223 21.0034 12.6865 20.952 12.7663C20.8494 12.9259 20.6996 13.1489 20.5038 13.4142C20.1134 13.9431 19.5342 14.6484 18.7761 15.3561C17.2697 16.762 14.9746 18.25 12 18.25C10.9627 18.25 10.0079 18.069 9.14052 17.7737L7.45711 19.4571C7.06658 19.8476 6.43342 19.8476 6.04289 19.4571C5.91385 19.3281 5.82745 19.1725 5.78369 19.008L18.8346 5.95711C19.0961 5.69562 19.1825 5.32535 19.0938 4.99198L19.5429 4.54289C19.9334 4.15237 20.5666 4.15237 20.9571 4.54289ZM5.96558 15.9977L7.39002 14.5733C7.10429 14.3546 6.83696 14.1258 6.58857 13.8939C5.94049 13.2891 5.44149 12.6819 5.10536 12.2265C5.04569 12.1456 4.99136 12.0698 4.94242 12C4.99136 11.9302 5.04569 11.8544 5.10536 11.7735C5.44149 11.3181 5.94049 10.7109 6.58857 10.1061C7.89475 8.88695 9.72464 7.75 12 7.75C12.6853 7.75 13.3303 7.85315 13.9327 8.03062L15.4946 6.46864C14.465 6.03294 13.2971 5.75 12 5.75C9.02536 5.75 6.73025 7.23805 5.22393 8.64394C4.46576 9.35157 3.88663 10.0569 3.49621 10.5858C3.30044 10.8511 3.15058 11.0741 3.04798 11.2337C2.99664 11.3135 2.95702 11.3777 2.92928 11.4236C2.91541 11.4465 2.9045 11.4649 2.89658 11.4784L2.88692 11.4949L2.88378 11.5003L2.88263 11.5023L2.88216 11.5032C2.88195 11.5035 2.88176 11.5039 3.75 12L2.88176 11.5039C2.70608 11.8113 2.70608 12.1887 2.88176 12.4961L3.75 12C2.88176 12.4961 2.88195 12.4965 2.88216 12.4968L2.88263 12.4977L2.88378 12.4997L2.88692 12.5051L2.89658 12.5216C2.9045 12.5351 2.91541 12.5535 2.92928 12.5764C2.95702 12.6223 2.99664 12.6865 3.04798 12.7663C3.15058 12.9259 3.30044 13.1489 3.49621 13.4142C3.88663 13.9431 4.46576 14.6484 5.22393 15.3561C5.45303 15.5699 5.70037 15.7856 5.96558 15.9977ZM12.2042 9.75914C12.1369 9.75309 12.0688 9.75 12 9.75C10.7574 9.75 9.75 10.7574 9.75 12C9.75 12.0688 9.75309 12.1369 9.75914 12.2041L12.2042 9.75914ZM20.25 12L21.1182 11.5039C21.2939 11.8113 21.2939 12.1887 21.1182 12.4961L20.25 12ZM17.0937 9.82054L14.097 12.8172C13.8687 13.4025 13.4025 13.8687 12.8172 14.097L10.7757 16.1385C11.168 16.2106 11.5763 16.25 12 16.25C14.2754 16.25 16.1053 15.113 17.4114 13.8939C18.0595 13.2891 18.5585 12.6819 18.8946 12.2265C18.9543 12.1456 19.0086 12.0698 19.0576 12C19.0086 11.9302 18.9543 11.8544 18.8946 11.7735C18.5585 11.3181 18.0595 10.7109 17.4114 10.1061C17.3087 10.0102 17.2028 9.91486 17.0937 9.82054Z" />
</svg>
