<svg id="Camada_1" data-name="Camada 1" xmlns="http://www.w3.org/2000/svg" viewBox="0 0 24 24"><title>home</title><path d="M20.40875,9.66349,12.39552,3.13157a.63079.63079,0,0,0-.7902.00042L3.59292,9.66266a.62959.62959,0,0,0-.24083.49711V20.37345a.63452.63452,0,0,0,.63384.63384H20.01407a.63452.63452,0,0,0,.63384-.63384V10.15977A.62772.62772,0,0,0,20.40875,9.66349Zm-6.98639,5.171v4.90511H10.57764V14.83451Zm.63384-1.26767H9.9438a.63451.63451,0,0,0-.63383.63384v5.53894H4.61976v-9.2738L12.00084,4.439l7.3794,6.02686v9.2738H14.69V14.20068A.63451.63451,0,0,0,14.0562,13.56684Z"/></svg>