<svg id="Camada_1" data-name="Camada 1" xmlns="http://www.w3.org/2000/svg" viewBox="0 0 24 24"><defs><style>.cls-1{fill:none;}</style></defs><circle class="cls-1" cx="12" cy="12" r="10.01"/><path d="M12,23.44A11.44,11.44,0,1,1,23.44,12,11.44,11.44,0,0,1,12,23.44ZM12,1.93A10.07,10.07,0,1,0,22.07,12h0A10.08,10.08,0,0,0,12,1.93Z"/><path d="M11,14.47A4.68,4.68,0,0,1,11.23,13a3.92,3.92,0,0,1,.8-1.21l1-1.06a2.39,2.39,0,0,0,.67-1.61,1.81,1.81,0,0,0-.44-1.3A1.6,1.6,0,0,0,12,7.33a1.9,1.9,0,0,0-1.3.42,1.44,1.44,0,0,0-.49,1.15H8.78A2.66,2.66,0,0,1,9.7,6.83,3.36,3.36,0,0,1,12,6a3.28,3.28,0,0,1,2.34.8,3,3,0,0,1,.83,2.21,4,4,0,0,1-1.28,2.72l-.86.86a2.61,2.61,0,0,0-.58,1.84ZM11,17a.89.89,0,0,1,.22-.6.81.81,0,0,1,.64-.24.86.86,0,0,1,.65,1.44.86.86,0,0,1-.65.23.78.78,0,0,1-.86-.68Z"/></svg>