<svg width="166" height="115" viewBox="0 0 166 115" fill="none" xmlns="http://www.w3.org/2000/svg">
<path opacity="0.5" d="M45.7256 23.4551C45.7256 10.5012 56.2117 0 69.147 0H141.961C154.897 0 165.383 10.5012 165.383 23.4551V91.2143C165.383 104.168 154.897 114.669 141.961 114.669H69.147C56.2117 114.669 45.7256 104.168 45.7256 91.2143V23.4551Z" fill="#E9EEF8"/>
<path d="M1.0752 24.5627C1.0752 18.8054 5.73569 14.1382 11.4847 14.1382H135.748C141.497 14.1382 146.158 18.8054 146.158 24.5627V92.3218C146.158 98.0791 141.497 102.746 135.748 102.746H11.4847C5.73569 102.746 1.0752 98.0791 1.0752 92.3218V24.5627Z" fill="white"/>
<path fill-rule="evenodd" clip-rule="evenodd" d="M0.619141 24.5627C0.619141 18.5535 5.48353 13.6821 11.4841 13.6821H135.748C141.748 13.6821 146.613 18.5535 146.613 24.5627V92.3219C146.613 98.331 141.748 103.202 135.748 103.202H11.4841C5.48353 103.202 0.619141 98.331 0.619141 92.3219V24.5627ZM11.4841 14.5943C5.98657 14.5943 1.52997 19.0573 1.52997 24.5627V92.3219C1.52997 97.8273 5.98657 102.29 11.4841 102.29H135.748C141.245 102.29 145.702 97.8273 145.702 92.3219V24.5627C145.702 19.0573 141.245 14.5943 135.748 14.5943H11.4841Z" fill="#3F5DD7"/>
<path d="M0.833984 24.719C0.833984 18.9618 5.49448 14.2946 11.2435 14.2946H34.4744V102.848H11.2435C5.49447 102.848 0.833984 98.1809 0.833984 92.4236V24.719Z" fill="#F4F7FC"/>
<path fill-rule="evenodd" clip-rule="evenodd" d="M0.619141 24.7191C0.619141 18.7099 5.48353 13.8385 11.4841 13.8385H135.799C141.8 13.8385 146.664 18.7099 146.664 24.7191V92.4236C146.664 98.4328 141.8 103.304 135.799 103.304H11.4841C5.48354 103.304 0.619141 98.4328 0.619141 92.4236V24.7191ZM11.4841 14.7506C5.98657 14.7506 1.52997 19.2137 1.52997 24.7191V92.4236C1.52997 97.929 5.98658 102.392 11.4841 102.392H135.799C141.297 102.392 145.754 97.929 145.754 92.4236V24.7191C145.754 19.2137 141.297 14.7506 135.799 14.7506H11.4841Z" fill="#3F5DD7"/>
<path d="M9.13574 24.8884C9.13574 23.8089 10.0096 22.9338 11.0875 22.9338H12.9092C13.9871 22.9338 14.861 23.8089 14.861 24.8884V26.7127C14.861 27.7922 13.9871 28.6673 12.9092 28.6673H11.0875C10.0096 28.6673 9.13574 27.7922 9.13574 26.7127V24.8884Z" fill="#4965D9"/>
<path fill-rule="evenodd" clip-rule="evenodd" d="M9.13574 39.6782C9.13574 39.4264 9.33964 39.2222 9.59116 39.2222H21.2758C21.5274 39.2222 21.7312 39.4264 21.7312 39.6782C21.7312 39.9301 21.5274 40.1343 21.2758 40.1343H9.59116C9.33964 40.1343 9.13574 39.9301 9.13574 39.6782Z" fill="#3F5DD7"/>
<path fill-rule="evenodd" clip-rule="evenodd" d="M48.6396 25.3445C48.6396 25.0926 48.8435 24.8884 49.0951 24.8884H70.5126C70.7641 24.8884 70.968 25.0926 70.968 25.3445C70.968 25.5964 70.7641 25.8006 70.5126 25.8006H49.0951C48.8435 25.8006 48.6396 25.5964 48.6396 25.3445Z" fill="#3F5DD7"/>
<path fill-rule="evenodd" clip-rule="evenodd" d="M45.3151 34.5311C45.5666 34.5311 45.7705 34.6561 45.7705 34.8102L45.7705 47.9342C45.7705 48.0883 45.5666 48.2133 45.3151 48.2133C45.0636 48.2133 44.8597 48.0883 44.8597 47.9342L44.8597 34.8102C44.8597 34.6561 45.0636 34.5311 45.3151 34.5311Z" fill="#3F5DD7"/>
<path fill-rule="evenodd" clip-rule="evenodd" d="M127.647 25.3445C127.647 25.0926 127.851 24.8884 128.103 24.8884L130.627 24.8884C130.879 24.8884 131.083 25.0926 131.083 25.3445C131.083 25.5964 130.879 25.8006 130.627 25.8006L128.103 25.8006C127.851 25.8006 127.647 25.5964 127.647 25.3445Z" fill="#3F5DD7"/>
<path fill-rule="evenodd" clip-rule="evenodd" d="M9.13574 46.5584C9.13574 46.3065 9.33964 46.1023 9.59116 46.1023H23.5659C23.8174 46.1023 24.0213 46.3065 24.0213 46.5584C24.0213 46.8102 23.8174 47.0144 23.5659 47.0144H9.59116C9.33964 47.0144 9.13574 46.8102 9.13574 46.5584Z" fill="#3F5DD7"/>
<path fill-rule="evenodd" clip-rule="evenodd" d="M9.13574 53.4385C9.13574 53.1866 9.33964 52.9824 9.59116 52.9824H17.2682C17.5197 52.9824 17.7236 53.1866 17.7236 53.4385C17.7236 53.6904 17.5197 53.8946 17.2682 53.8946H9.59116C9.33964 53.8946 9.13574 53.6904 9.13574 53.4385Z" fill="#3F5DD7"/>
<path d="M48.7637 36.9257C48.7637 35.963 49.543 35.1826 50.5043 35.1826C51.4656 35.1826 52.2449 35.963 52.2449 36.9257C52.2449 37.8884 51.4656 38.6688 50.5043 38.6688C49.543 38.6688 48.7637 37.8884 48.7637 36.9257Z" fill="#3F5DD7"/>
<path fill-rule="evenodd" clip-rule="evenodd" d="M88.4493 31.925C84.8562 31.925 81.9434 34.842 81.9434 38.4404V56.0317C81.9434 59.63 84.8562 62.547 88.4493 62.547H91.7807L96.3816 67.1545L100.982 62.547H111.22C114.813 62.547 117.726 59.63 117.726 56.0317V38.4404C117.726 34.8421 114.813 31.925 111.22 31.925H88.4493Z" fill="white"/>
<path fill-rule="evenodd" clip-rule="evenodd" d="M92.185 61.5697L96.3816 65.7724L100.578 61.5697H111.22C114.274 61.5697 116.75 59.0902 116.75 56.0317V38.4404C116.75 35.3818 114.274 32.9023 111.22 32.9023H88.4493C85.3951 32.9023 82.9193 35.3818 82.9193 38.4404V56.0317C82.9193 59.0902 85.3951 61.5697 88.4493 61.5697H92.185ZM96.3816 67.1545L91.7807 62.547H88.4493C84.8562 62.547 81.9434 59.63 81.9434 56.0317V38.4404C81.9434 34.842 84.8562 31.925 88.4493 31.925H111.22C114.813 31.925 117.726 34.8421 117.726 38.4404V56.0317C117.726 59.63 114.813 62.547 111.22 62.547H100.982L96.3816 67.1545Z" fill="#3F5DD7"/>
<path d="M112.521 57.9863C112.521 54.3879 115.434 51.4709 119.027 51.4709H151.557C155.15 51.4709 158.063 54.3879 158.063 57.9863V70.3653C158.063 73.9636 155.15 76.8806 151.557 76.8806H113.823C113.104 76.8806 112.521 76.2972 112.521 75.5776V57.9863Z" fill="white"/>
<path fill-rule="evenodd" clip-rule="evenodd" d="M151.557 52.4482H119.027C115.973 52.4482 113.497 54.9277 113.497 57.9863V75.5776C113.497 75.7575 113.643 75.9033 113.823 75.9033H151.557C154.611 75.9033 157.087 73.4239 157.087 70.3653V57.9863C157.087 54.9277 154.611 52.4482 151.557 52.4482ZM119.027 51.4709C115.434 51.4709 112.521 54.3879 112.521 57.9863V75.5776C112.521 76.2972 113.104 76.8806 113.823 76.8806H151.557C155.15 76.8806 158.063 73.9636 158.063 70.3653V57.9863C158.063 54.3879 155.15 51.4709 151.557 51.4709H119.027Z" fill="#3F5DD7"/>
<path opacity="0.3" fill-rule="evenodd" clip-rule="evenodd" d="M124.703 62.5108C124.703 62.7627 124.907 62.9669 125.159 62.9669H143.087C143.339 62.9669 143.543 62.7627 143.543 62.5108C143.543 62.259 143.339 62.0548 143.087 62.0548H125.159C124.907 62.0548 124.703 62.259 124.703 62.5108Z" fill="#3F5DD7"/>
<path opacity="0.3" fill-rule="evenodd" clip-rule="evenodd" d="M130.947 68.9903C130.947 68.7384 131.151 68.5342 131.403 68.5342H144.503C144.755 68.5342 144.959 68.7384 144.959 68.9903C144.959 69.2421 144.755 69.4463 144.503 69.4463H131.403C131.151 69.4463 130.947 69.2421 130.947 68.9903Z" fill="#11D69A"/>
<path opacity="0.3" fill-rule="evenodd" clip-rule="evenodd" d="M124.703 60.0937C124.703 60.3456 124.907 60.5498 125.159 60.5498H146.513C146.764 60.5498 146.968 60.3456 146.968 60.0937C146.968 59.8419 146.764 59.6377 146.513 59.6377H125.159C124.907 59.6377 124.703 59.8419 124.703 60.0937Z" fill="#3F5DD7"/>
<path opacity="0.3" fill-rule="evenodd" clip-rule="evenodd" d="M130.947 66.5724C130.947 66.3205 131.151 66.1163 131.403 66.1163H149.332C149.583 66.1163 149.787 66.3205 149.787 66.5724C149.787 66.8243 149.583 67.0285 149.332 67.0285H131.403C131.151 67.0285 130.947 66.8243 130.947 66.5724Z" fill="#11D69A"/>
<path d="M118.377 61.0324C118.377 60.0697 119.156 59.2893 120.118 59.2893C121.079 59.2893 121.858 60.0697 121.858 61.0324C121.858 61.9951 121.079 62.7755 120.118 62.7755C119.156 62.7755 118.377 61.9951 118.377 61.0324Z" fill="#3F5DD7"/>
<path d="M125.271 67.7723C125.271 66.8096 126.051 66.0292 127.012 66.0292C127.973 66.0292 128.753 66.8096 128.753 67.7723C128.753 68.735 127.973 69.5154 127.012 69.5154C126.051 69.5154 125.271 68.735 125.271 67.7723Z" fill="#11D69A"/>
<path d="M52.0156 91.5401C52.0156 81.2849 60.3171 72.9714 70.5576 72.9714H89.4248C99.6652 72.9714 107.967 81.2849 107.967 91.5401C107.967 101.795 99.6652 110.109 89.4248 110.109H70.5576C60.3171 110.109 52.0156 101.795 52.0156 91.5401Z" fill="white"/>
<path fill-rule="evenodd" clip-rule="evenodd" d="M89.4248 73.9487H70.5576C60.8561 73.9487 52.9915 81.8246 52.9915 91.5401C52.9915 101.255 60.8561 109.131 70.5576 109.131H89.4248C99.1263 109.131 106.991 101.255 106.991 91.5401C106.991 81.8246 99.1263 73.9487 89.4248 73.9487ZM70.5576 72.9714C60.3171 72.9714 52.0156 81.2849 52.0156 91.5401C52.0156 101.795 60.3171 110.109 70.5576 110.109H89.4248C99.6652 110.109 107.967 101.795 107.967 91.5401C107.967 81.2849 99.6652 72.9714 89.4248 72.9714H70.5576Z" fill="#3F5DD7"/>
<path fill-rule="evenodd" clip-rule="evenodd" d="M83.8945 91.3772C83.8945 91.1073 84.113 90.8885 84.3825 90.8885H94.4667C94.7362 90.8885 94.9546 91.1073 94.9546 91.3772C94.9546 91.6471 94.7362 91.8658 94.4667 91.8658H84.3825C84.113 91.8658 83.8945 91.6471 83.8945 91.3772Z" fill="#3F5DD7"/>
<path fill-rule="evenodd" clip-rule="evenodd" d="M89.2624 97.0781C88.9929 97.0781 88.7744 96.8593 88.7744 96.5895L88.7744 86.4908C88.7744 86.2209 88.9929 86.0021 89.2624 86.0021C89.5318 86.0021 89.7503 86.2209 89.7503 86.4908L89.7503 96.5895C89.7503 96.8593 89.5318 97.0781 89.2624 97.0781Z" fill="#3F5DD7"/>
<path d="M78.0392 86.9794C78.0392 89.6781 75.8546 91.8659 73.1597 91.8659C70.4649 91.8659 68.2803 89.6781 68.2803 86.9794C68.2803 84.2806 70.4649 82.0929 73.1597 82.0929C75.8546 82.0929 78.0392 84.2806 78.0392 86.9794Z" fill="white"/>
<path fill-rule="evenodd" clip-rule="evenodd" d="M73.1597 90.8886C75.3156 90.8886 77.0633 89.1384 77.0633 86.9794C77.0633 84.8204 75.3156 83.0702 73.1597 83.0702C71.0039 83.0702 69.2562 84.8204 69.2562 86.9794C69.2562 89.1384 71.0039 90.8886 73.1597 90.8886ZM73.1597 91.8659C75.8546 91.8659 78.0392 89.6781 78.0392 86.9794C78.0392 84.2806 75.8546 82.0929 73.1597 82.0929C70.4649 82.0929 68.2803 84.2806 68.2803 86.9794C68.2803 89.6781 70.4649 91.8659 73.1597 91.8659Z" fill="#3F5DD7"/>
<path fill-rule="evenodd" clip-rule="evenodd" d="M70.2327 94.9606C67.6277 94.9606 65.5159 97.0755 65.5159 99.6842C65.5159 99.9541 65.2975 100.173 65.028 100.173C64.7585 100.173 64.54 99.9541 64.54 99.6842C64.54 96.5357 67.0887 93.9833 70.2327 93.9833H75.7628C78.9068 93.9833 81.4555 96.5357 81.4555 99.6842C81.4555 99.9541 81.237 100.173 80.9675 100.173C80.6981 100.173 80.4796 99.9541 80.4796 99.6842C80.4796 97.0755 78.3678 94.9606 75.7628 94.9606H70.2327Z" fill="#3F5DD7"/>
<path opacity="0.3" fill-rule="evenodd" clip-rule="evenodd" d="M54.6191 41.8053C54.6191 42.0572 54.823 42.2614 55.0746 42.2614H66.7592C67.0107 42.2614 67.2146 42.0572 67.2146 41.8053C67.2146 41.5534 67.0107 41.3492 66.7592 41.3492H55.0746C54.823 41.3492 54.6191 41.5534 54.6191 41.8053Z" fill="#3F5DD7"/>
<path opacity="0.3" fill-rule="evenodd" clip-rule="evenodd" d="M54.6191 44.8883C54.6191 45.1402 54.823 45.3444 55.0746 45.3444H66.7592C67.0107 45.3444 67.2146 45.1402 67.2146 44.8883C67.2146 44.6364 67.0107 44.4322 66.7592 44.4322H55.0746C54.823 44.4322 54.6191 44.6364 54.6191 44.8883Z" fill="#3F5DD7"/>
<path opacity="0.3" fill-rule="evenodd" clip-rule="evenodd" d="M54.6191 38.7219C54.6191 38.9738 54.823 39.178 55.0746 39.178H69.0493C69.3008 39.178 69.5047 38.9738 69.5047 38.7219C69.5047 38.47 69.3008 38.2658 69.0493 38.2658H55.0746C54.823 38.2658 54.6191 38.47 54.6191 38.7219Z" fill="#3F5DD7"/>
<path opacity="0.3" fill-rule="evenodd" clip-rule="evenodd" d="M54.6191 35.6387C54.6191 35.8905 54.823 36.0947 55.0746 36.0947H62.7516C63.0031 36.0947 63.207 35.8905 63.207 35.6387C63.207 35.3868 63.0031 35.1826 62.7516 35.1826H55.0746C54.823 35.1826 54.6191 35.3868 54.6191 35.6387Z" fill="#3F5DD7"/>
<path d="M48.7637 53.214C48.7637 52.2514 49.543 51.4709 50.5043 51.4709C51.4656 51.4709 52.2449 52.2514 52.2449 53.214C52.2449 54.1767 51.4656 54.9572 50.5043 54.9572C49.543 54.9572 48.7637 54.1767 48.7637 53.214Z" fill="#3F5DD7"/>
<path opacity="0.3" fill-rule="evenodd" clip-rule="evenodd" d="M54.6192 56.6832V58.2893C54.6192 58.8416 55.0669 59.2893 55.6192 59.2893H65.9804C66.5327 59.2893 66.9804 58.8416 66.9804 58.2893L66.9804 56.6832V55.0771C66.9804 54.5248 66.5327 54.0771 65.9804 54.0771H55.6192C55.0669 54.0771 54.6191 54.5248 54.6192 55.0771L54.6192 56.6832Z" fill="#3F5DD7"/>
<path opacity="0.3" fill-rule="evenodd" clip-rule="evenodd" d="M54.6191 61.1765C54.6191 61.4284 54.823 61.6326 55.0746 61.6326H66.7592C67.0107 61.6326 67.2146 61.4284 67.2146 61.1765C67.2146 60.9246 67.0107 60.7204 66.7592 60.7204H55.0746C54.823 60.7204 54.6191 60.9246 54.6191 61.1765Z" fill="#3F5DD7"/>
<path opacity="0.3" fill-rule="evenodd" clip-rule="evenodd" d="M54.6191 51.9269C54.6191 52.1787 54.823 52.3829 55.0746 52.3829H62.7516C63.0031 52.3829 63.207 52.1787 63.207 51.9269C63.207 51.675 63.0031 51.4708 62.7516 51.4708H55.0746C54.823 51.4708 54.6191 51.675 54.6191 51.9269Z" fill="#3F5DD7"/>
<path d="M104.281 45.3465C104.281 44.0333 103.778 42.7738 102.884 41.8452C101.989 40.9166 100.775 40.3949 99.5101 40.3949C98.2447 40.3949 97.0312 40.9166 96.1364 41.8452C95.2417 42.7738 94.739 44.0333 94.739 45.3465C94.739 51.1234 92.3535 52.774 92.3535 52.774H106.667C106.667 52.774 104.281 51.1234 104.281 45.3465Z" stroke="#F76E2B" stroke-width="1.5" stroke-linecap="round" stroke-linejoin="round"/>
<path d="M100.81 56.0316C100.678 56.2298 100.488 56.3943 100.26 56.5086C100.032 56.623 99.7727 56.6831 99.5092 56.6831C99.2457 56.6831 98.9868 56.623 98.7584 56.5086C98.53 56.3943 98.3402 56.2298 98.208 56.0316" stroke="#F76E2B" stroke-width="1.5" stroke-linecap="round" stroke-linejoin="round"/>
<line x1="99.7715" y1="39.1903" x2="99.7715" y2="39.6449" stroke="#F76E2B" stroke-width="1.5" stroke-linecap="round"/>
</svg>
