<svg   viewBox="0 0 176 115" fill="none" xmlns="http://www.w3.org/2000/svg">
<path opacity="0.5" d="M45.3008 23.5227C45.3008 10.5315 55.8323 0 68.8235 0H141.953C154.944 0 165.476 10.5315 165.476 23.5227V91.4773C165.476 104.469 154.944 115 141.953 115H68.8235C55.8323 115 45.3008 104.469 45.3008 91.4773V23.5227Z" fill="#E9EEF8"/>
<path d="M0.457031 23.5228C0.457031 17.7489 5.13769 13.0682 10.9116 13.0682H135.713C141.487 13.0682 146.167 17.7489 146.167 23.5228V91.4773C146.167 97.2512 141.487 101.932 135.713 101.932H10.9116C5.13769 101.932 0.457031 97.2512 0.457031 91.4773V23.5228Z" fill="white"/>
<path fill-rule="evenodd" clip-rule="evenodd" d="M0 23.5228C0 17.4963 4.88544 12.6108 10.9119 12.6108H135.713C141.74 12.6108 146.625 17.4963 146.625 23.5228V91.4773C146.625 97.5038 141.74 102.389 135.713 102.389H10.9119C4.88543 102.389 0 97.5038 0 91.4773V23.5228ZM10.9119 13.5256C5.39066 13.5256 0.914773 18.0015 0.914773 23.5228V91.4773C0.914773 96.9986 5.39065 101.474 10.9119 101.474H135.713C141.234 101.474 145.71 96.9986 145.71 91.4773V23.5228C145.71 18.0015 141.234 13.5256 135.713 13.5256H10.9119Z" fill="#3F5DD7"/>
<path d="M0.21582 23.6795C0.21582 17.9056 4.89648 13.225 10.6704 13.225H34.0018V102.034H10.6704C4.89647 102.034 0.21582 97.3532 0.21582 91.5793V23.6795Z" fill="#F4F7FC"/>
<path fill-rule="evenodd" clip-rule="evenodd" d="M0 23.6795C0 17.653 4.88544 12.7676 10.9119 12.7676H135.765C141.792 12.7676 146.677 17.653 146.677 23.6795V91.5793C146.677 97.6058 141.792 102.491 135.765 102.491H10.9119C4.88545 102.491 0 97.6058 0 91.5793V23.6795ZM10.9119 13.6824C5.39065 13.6824 0.914773 18.1582 0.914773 23.6795V91.5793C0.914773 97.1005 5.39066 101.576 10.9119 101.576H135.765C141.286 101.576 145.762 97.1005 145.762 91.5793V23.6795C145.762 18.1582 141.286 13.6824 135.765 13.6824H10.9119Z" fill="#3F5DD7"/>
<path d="M8.55273 24.9602C8.55273 23.8776 9.43036 23 10.513 23H12.3425C13.4251 23 14.3027 23.8776 14.3027 24.9602V26.7898C14.3027 27.8724 13.4251 28.75 12.3425 28.75H10.513C9.43036 28.75 8.55273 27.8724 8.55273 26.7898V24.9602Z" fill="#4965D9"/>
<path fill-rule="evenodd" clip-rule="evenodd" d="M8.55273 39.7926C8.55273 39.54 8.75751 39.3352 9.01012 39.3352H20.7453C20.998 39.3352 21.2027 39.54 21.2027 39.7926C21.2027 40.0452 20.998 40.25 20.7453 40.25H9.01012C8.75751 40.25 8.55273 40.0452 8.55273 39.7926Z" fill="#3F5DD7"/>
<path fill-rule="evenodd" clip-rule="evenodd" d="M48.2275 25.4176C48.2275 25.165 48.4323 24.9602 48.6849 24.9602H70.1952C70.4478 24.9602 70.6525 25.165 70.6525 25.4176C70.6525 25.6702 70.4478 25.875 70.1952 25.875H48.6849C48.4323 25.875 48.2275 25.6702 48.2275 25.4176Z" fill="#3F5DD7"/>
<path fill-rule="evenodd" clip-rule="evenodd" d="M127.578 25.4176C127.578 25.165 127.783 24.9602 128.036 24.9602L130.571 24.9602C130.823 24.9602 131.028 25.165 131.028 25.4176C131.028 25.6702 130.823 25.875 130.571 25.875L128.036 25.875C127.783 25.875 127.578 25.6702 127.578 25.4176Z" fill="#3F5DD7"/>
<path fill-rule="evenodd" clip-rule="evenodd" d="M8.55273 46.6926C8.55273 46.44 8.75751 46.2352 9.01012 46.2352H23.0453C23.298 46.2352 23.5027 46.44 23.5027 46.6926C23.5027 46.9452 23.298 47.15 23.0453 47.15H9.01012C8.75751 47.15 8.55273 46.9452 8.55273 46.6926Z" fill="#3F5DD7"/>
<path fill-rule="evenodd" clip-rule="evenodd" d="M8.55273 53.5926C8.55273 53.34 8.75751 53.1352 9.01012 53.1352H16.7203C16.973 53.1352 17.1777 53.34 17.1777 53.5926C17.1777 53.8452 16.973 54.05 16.7203 54.05H9.01012C8.75751 54.05 8.55273 53.8452 8.55273 53.5926Z" fill="#3F5DD7"/>
<path d="M70.8274 58.6263C70.5712 58.797 70.2297 58.8823 69.8882 58.8823H56.7402C56.3987 58.8823 56.1426 58.797 55.8011 58.6263C48.1171 64.9421 37.7012 79.1954 37.7012 88.2424C37.7012 96.6066 40.2625 101.898 45.7266 106.507C48.8831 109.119 50.6979 109.589 54.1104 110.426C57.5998 111.282 63.2581 111.406 63.2581 111.406C63.2581 111.406 70.3559 111.279 74.6928 110.099C77.186 109.421 79.2797 107.873 80.9018 106.507C86.3659 101.984 88.9273 96.692 88.9273 88.2424C88.9273 79.1954 78.5113 64.9421 70.8274 58.6263Z" fill="white"/>
<path fill-rule="evenodd" clip-rule="evenodd" d="M55.511 58.2729C55.6505 58.1583 55.8444 58.1364 56.0059 58.2171C56.3125 58.3704 56.4963 58.4249 56.7406 58.4249H69.8886C70.1623 58.4249 70.4098 58.3552 70.5741 58.2457C70.7417 58.134 70.9626 58.1451 71.1182 58.2729C75.0026 61.4658 79.5575 66.6455 83.1426 72.1609C86.7164 77.6589 89.385 83.579 89.385 88.2424C89.385 92.5134 88.7376 96.0162 87.3811 99.0345C86.0238 102.055 83.969 104.562 81.195 106.858C79.562 108.233 77.4058 109.835 74.8132 110.541C72.601 111.143 69.7064 111.472 67.3848 111.651C66.2198 111.742 65.1915 111.795 64.4542 111.825C64.0855 111.84 63.7893 111.85 63.585 111.856C63.4828 111.859 63.4036 111.861 63.3498 111.862L63.2883 111.863L63.2683 111.864L63.2671 111.864C63.2671 111.864 63.2667 111.864 63.2585 111.406L63.2671 111.864C63.2611 111.864 63.2545 111.864 63.2485 111.864L63.2487 111.851C63.2484 111.864 63.2485 111.864 63.2485 111.864L63.2472 111.864L63.2311 111.863L63.182 111.862C63.139 111.861 63.0758 111.859 62.9942 111.856C62.8311 111.851 62.5947 111.843 62.3003 111.83C61.7117 111.805 60.8904 111.763 59.9591 111.693C58.1038 111.555 55.7853 111.308 54.0018 110.87C52.3018 110.453 50.9576 110.119 49.6421 109.552C48.3179 108.983 47.0382 108.186 45.4353 106.859L45.432 106.857C42.6592 104.518 40.605 101.99 39.248 98.9705C37.8918 95.9528 37.2441 92.4715 37.2441 88.2424C37.2441 83.579 39.9127 77.6589 43.4865 72.1609C47.0716 66.6455 51.6265 61.4658 55.511 58.2729ZM63.2594 110.949L63.2697 110.949L63.3288 110.947C63.381 110.946 63.4585 110.944 63.5589 110.941C63.7597 110.936 64.0519 110.926 64.4164 110.911C65.1454 110.881 66.1626 110.828 67.3142 110.739C69.6257 110.561 72.4484 110.236 74.5731 109.658C76.966 109.007 78.9965 107.514 80.6076 106.157L80.6105 106.155C83.3001 103.928 85.2576 101.528 86.5468 98.6595C87.837 95.7887 88.4702 92.421 88.4702 88.2424C88.4702 83.8588 85.9308 78.1288 82.3757 72.6594C78.9037 67.3181 74.5188 62.3099 70.7695 59.1722C70.4904 59.2876 70.1828 59.3397 69.8886 59.3397H56.7406C56.4112 59.3397 56.1439 59.2742 55.8719 59.162C52.1198 62.2991 47.7292 67.3123 44.2535 72.6594C40.6983 78.1288 38.1589 83.8588 38.1589 88.2424C38.1589 92.3776 38.7919 95.7242 40.0824 98.5955C41.3718 101.465 43.33 103.887 46.0205 106.156C47.5732 107.441 48.7787 108.185 50.0037 108.712C51.2378 109.243 52.5072 109.562 54.2197 109.982C55.9256 110.4 58.181 110.643 60.0272 110.781C60.9467 110.85 61.7581 110.892 62.3394 110.917C62.63 110.929 62.8629 110.937 63.0229 110.942C63.1029 110.945 63.1646 110.946 63.2062 110.947L63.2532 110.949L63.2594 110.949Z" fill="#3F5DD7"/>
<path d="M69.8891 55.127C70.0598 55.127 70.1452 55.127 70.3159 55.2124L75.8654 49.9208C76.2923 49.494 76.2069 48.8966 75.6947 48.6405L73.731 47.7017C73.1334 47.4456 72.1942 47.3603 71.5966 47.531L69.0353 48.3845C68.4377 48.5552 67.5839 48.4698 67.0716 48.0431L64.2542 45.9947C63.7419 45.6533 62.8882 45.6533 62.4613 45.9947L59.5585 48.0431C59.0462 48.3845 58.1924 48.5552 57.5948 48.3845L55.0335 47.531C54.4359 47.3603 53.4967 47.4456 52.8991 47.7017L51.0208 48.5552C50.4231 48.8112 50.3378 49.4087 50.85 49.8354L56.3995 55.127C56.5703 55.127 56.6557 55.0417 56.8264 55.0417H69.8891V55.127Z" fill="white"/>
<path fill-rule="evenodd" clip-rule="evenodd" d="M63.3263 45.2813C63.7264 45.2813 64.1614 45.3829 64.5084 45.6141C64.5136 45.6176 64.5187 45.6211 64.5237 45.6248L67.3411 47.6732C67.3493 47.6791 67.3572 47.6853 67.3649 47.6917C67.5398 47.8374 67.7956 47.941 68.0905 47.9856C68.3802 48.0295 68.6726 48.0109 68.9013 47.9472L71.4525 47.0971C71.4588 47.095 71.4652 47.093 71.4715 47.0912C71.8406 46.9858 72.2842 46.9657 72.7023 47.0005C73.1225 47.0355 73.5571 47.1294 73.9117 47.2813C73.9175 47.2838 73.9232 47.2864 73.9288 47.2891L75.8998 48.2314C76.2798 48.4214 76.5319 48.7584 76.586 49.1549C76.6397 49.5487 76.4908 49.9429 76.1893 50.2443L76.1816 50.2518L70.6321 55.5435C70.4926 55.6766 70.2845 55.7078 70.112 55.6216C70.0563 55.5938 70.0362 55.5903 70.0279 55.5889C70.0082 55.5857 69.984 55.5845 69.8896 55.5845C69.7903 55.5845 69.6984 55.5529 69.6235 55.4991H56.8269C56.8267 55.4991 56.8264 55.4991 56.8261 55.4991C56.8226 55.499 56.817 55.4987 56.7581 55.5183C56.7556 55.5192 56.753 55.5201 56.7503 55.521C56.6839 55.5432 56.5605 55.5845 56.4001 55.5845C56.2825 55.5845 56.1695 55.5392 56.0844 55.4581L50.5452 50.1762C50.2078 49.8896 50.0088 49.4926 50.0665 49.0695C50.125 48.6412 50.4291 48.3129 50.8363 48.1369L52.7104 47.2853L52.7195 47.2813C53.0741 47.1294 53.5087 47.0355 53.9289 47.0005C54.347 46.9657 54.7906 46.9858 55.1597 47.0912C55.166 47.093 55.1723 47.095 55.1786 47.0971L57.7296 47.9472C57.9413 48.0056 58.2261 48.0106 58.5274 47.9558C58.829 47.901 59.1068 47.7936 59.3007 47.6656L62.1881 45.6281C62.5077 45.3785 62.9361 45.2813 63.3263 45.2813ZM70.2009 54.6906C70.1934 54.6892 70.1858 54.6879 70.1782 54.6866C70.1784 54.6866 70.1781 54.6866 70.1782 54.6866C70.0996 54.6227 69.9988 54.5844 69.8896 54.5844H56.8269C56.708 54.5844 56.6094 54.6071 56.5393 54.6279L51.1662 49.5044C51.1588 49.4974 51.1512 49.4906 51.1433 49.484C50.9761 49.3447 50.9673 49.2342 50.9729 49.1931C50.9783 49.1537 51.0134 49.0562 51.2015 48.9756L51.2105 48.9716L53.084 48.1203C53.3267 48.0171 53.6586 47.941 54.0048 47.9122C54.3506 47.8833 54.6715 47.905 54.8996 47.9683L57.4507 48.8184C57.457 48.8205 57.4634 48.8225 57.4697 48.8243C57.8548 48.9343 58.2921 48.9284 58.691 48.8559C59.0913 48.7831 59.4944 48.6358 59.8127 48.4237L59.8227 48.4168L62.7255 46.3685C62.733 46.3632 62.7403 46.3577 62.7475 46.3519C62.8536 46.2671 63.0597 46.1961 63.3263 46.1961C63.5842 46.1961 63.829 46.2633 63.9942 46.3708L66.7919 48.4048C67.1273 48.6794 67.549 48.8288 67.9535 48.8901C68.3644 48.9523 68.7938 48.9293 69.1614 48.8243C69.1678 48.8225 69.1741 48.8205 69.1804 48.8184L71.7316 47.9683C71.9596 47.905 72.2806 47.8833 72.6264 47.9122C72.9707 47.9408 73.301 48.0163 73.5433 48.1187L75.4938 49.0512C75.6236 49.1171 75.6697 49.2061 75.6796 49.2785C75.6898 49.3534 75.6684 49.4698 75.5459 49.594L70.2009 54.6906Z" fill="#3F5DD7"/>
<path d="M69.8876 58.8822C70.2292 58.8822 70.4853 58.7969 70.8268 58.6262C71.4244 58.2848 71.7659 57.6873 71.7659 57.0045C71.7659 56.0657 71.1683 55.3829 70.3145 55.1269C70.1438 55.1269 70.0584 55.0415 69.8876 55.0415H56.7396C56.5689 55.0415 56.4835 55.0415 56.3127 55.1269C55.459 55.2976 54.8613 56.0657 54.8613 57.0045C54.8613 57.6873 55.2882 58.2848 55.8005 58.6262C56.0566 58.7969 56.3981 58.8822 56.7396 58.8822H69.8876Z" fill="#D2D8E9"/>
<path fill-rule="evenodd" clip-rule="evenodd" d="M56.7258 54.5842C56.7303 54.5842 56.7347 54.5842 56.739 54.5842H69.887C70.0475 54.5842 70.1709 54.6255 70.2373 54.6477C70.24 54.6486 70.2426 54.6495 70.2451 54.6503C70.304 54.67 70.3095 54.6697 70.3131 54.6696C70.3133 54.6695 70.3136 54.6695 70.3139 54.6695C70.3584 54.6695 70.4027 54.676 70.4453 54.6888C71.4663 54.995 72.2227 55.8377 72.2227 57.0046C72.2227 57.8498 71.7947 58.5997 71.053 59.0234C71.0457 59.0276 71.0382 59.0316 71.0307 59.0354C70.6543 59.2235 70.3258 59.3397 69.887 59.3397H56.739C56.3297 59.3397 55.8942 59.2387 55.5462 59.0068C54.9433 58.605 54.4033 57.8797 54.4033 57.0046C54.4033 55.8905 55.1076 54.9313 56.1638 54.6909C56.2585 54.6479 56.3503 54.6177 56.4504 54.6011C56.5527 54.584 56.6509 54.5841 56.7258 54.5842ZM56.6007 55.5034C56.5924 55.5048 56.5723 55.5082 56.5166 55.536C56.4803 55.5542 56.4416 55.5675 56.4018 55.5754C55.7829 55.6992 55.3181 56.2615 55.3181 57.0046C55.3181 57.4951 55.6319 57.9646 56.0535 58.2456C56.2178 58.3551 56.4653 58.4249 56.739 58.4249H69.887C70.1282 58.4249 70.3103 58.3718 70.6098 58.223C71.0568 57.963 71.3079 57.5209 71.3079 57.0046C71.3079 56.3113 70.8903 55.7968 70.2327 55.5808C70.1118 55.5704 70.0184 55.5391 69.9637 55.5208C69.961 55.5199 69.9584 55.519 69.9559 55.5182C69.8969 55.4985 69.8914 55.4988 69.8879 55.4989C69.8876 55.4989 69.8873 55.499 69.887 55.499H56.739C56.6446 55.499 56.6204 55.5001 56.6007 55.5034Z" fill="#3F5DD7"/>
<path fill-rule="evenodd" clip-rule="evenodd" d="M60.3418 76.4161C59.6845 77.1295 59.3316 78.1225 59.3316 79.2214C59.3316 80.3805 59.8508 81.2583 60.69 82.0242C61.5457 82.8051 62.6988 83.438 63.9166 84.1006L63.9729 84.1312C65.1489 84.771 66.3829 85.4423 67.3205 86.287C68.2896 87.16 68.9792 88.251 68.9792 89.7193C68.9792 92.874 66.4691 95.383 63.3138 95.383C60.1585 95.383 57.6484 92.874 57.6484 89.7193C57.6484 89.4667 57.8532 89.262 58.1058 89.262C58.3584 89.262 58.5632 89.4667 58.5632 89.7193C58.5632 92.3685 60.6635 94.4683 63.3138 94.4683C65.9642 94.4683 68.0644 92.3685 68.0644 89.7193C68.0644 88.5845 67.548 87.7231 66.7082 86.9666C65.8519 86.1951 64.6985 85.5674 63.4794 84.9042L63.4774 84.9031C62.2839 84.2537 61.026 83.5693 60.0733 82.6998C59.1036 81.8147 58.4168 80.7082 58.4168 79.2214C58.4168 77.9306 58.8323 76.7044 59.6691 75.7962C60.5113 74.8821 61.7479 74.3259 63.3138 74.3259C66.5144 74.3259 68.2108 76.7974 68.2108 79.2214C68.2108 79.474 68.006 79.6788 67.7534 79.6788C67.5008 79.6788 67.296 79.474 67.296 79.2214C67.296 77.2073 65.9189 75.2406 63.3138 75.2406C61.9769 75.2406 60.9937 75.7086 60.3418 76.4161Z" fill="#3F5DD7"/>
<path fill-rule="evenodd" clip-rule="evenodd" d="M63.3129 94.4681C63.5655 94.4681 63.7702 94.6729 63.7702 94.9255V97.5713C63.7702 97.8239 63.5655 98.0287 63.3129 98.0287C63.0602 98.0287 62.8555 97.8239 62.8555 97.5713V94.9255C62.8555 94.6729 63.0602 94.4681 63.3129 94.4681Z" fill="#3F5DD7"/>
<path fill-rule="evenodd" clip-rule="evenodd" d="M63.3129 71.7654C63.5655 71.7654 63.7702 71.9702 63.7702 72.2228V74.8686C63.7702 75.1213 63.5655 75.326 63.3129 75.326C63.0602 75.326 62.8555 75.1213 62.8555 74.8686V72.2228C62.8555 71.9702 63.0602 71.7654 63.3129 71.7654Z" fill="#3F5DD7"/>
<path fill-rule="evenodd" clip-rule="evenodd" d="M42.055 87.7852C42.3077 87.7852 42.5124 87.99 42.5124 88.2426C42.5124 91.6178 42.9558 94.3031 43.9582 96.617C44.9583 98.926 46.529 100.897 48.8332 102.825C49.6129 103.447 50.6221 103.831 51.6172 103.831C51.8699 103.831 52.0746 104.036 52.0746 104.288C52.0746 104.541 51.8699 104.746 51.6172 104.746C50.3942 104.746 49.1853 104.278 48.258 103.536L48.2503 103.53C45.8609 101.532 44.1884 99.45 43.1188 96.9807C42.0507 94.5151 41.5977 91.6953 41.5977 88.2426C41.5977 87.99 41.8024 87.7852 42.055 87.7852Z" fill="#FFC15C"/>
<path d="M140.287 53.3837C140.287 50.1359 142.92 47.5031 146.168 47.5031H169.481C172.729 47.5031 175.362 50.1359 175.362 53.3837V80.7224C175.362 83.9702 172.729 86.6031 169.481 86.6031H146.168C142.92 86.6031 140.287 83.9702 140.287 80.7224V53.3837Z" fill="white"/>
<path fill-rule="evenodd" clip-rule="evenodd" d="M139.829 53.3835C139.829 49.8831 142.667 47.0455 146.167 47.0455H169.481C172.981 47.0455 175.819 49.8831 175.819 53.3835V80.7222C175.819 84.2226 172.981 87.0602 169.481 87.0602H146.167C142.667 87.0602 139.829 84.2226 139.829 80.7222V53.3835ZM146.167 47.9602C143.172 47.9602 140.744 50.3883 140.744 53.3835V80.7222C140.744 83.7174 143.172 86.1455 146.167 86.1455H169.481C172.476 86.1455 174.904 83.7174 174.904 80.7222V53.3835C174.904 50.3883 172.476 47.9602 169.481 47.9602H146.167Z" fill="#3F5DD7"/>
<path d="M160.435 65.6566C160.241 65.6566 160.083 65.8143 160.083 66.0087C160.083 66.203 160.241 66.3607 160.435 66.3607C160.629 66.3607 160.787 66.203 160.787 66.0087C160.787 65.8143 160.629 65.6566 160.435 65.6566Z" fill="#AA79D0"/>
<path fill-rule="evenodd" clip-rule="evenodd" d="M159.985 66.0086C159.985 65.7601 160.187 65.5585 160.435 65.5585C160.684 65.5585 160.885 65.7601 160.885 66.0086C160.885 66.257 160.684 66.4586 160.435 66.4586C160.187 66.4586 159.985 66.257 159.985 66.0086ZM160.435 65.7546C160.295 65.7546 160.181 65.8684 160.181 66.0086C160.181 66.1488 160.295 66.2626 160.435 66.2626C160.576 66.2626 160.689 66.1488 160.689 66.0086C160.689 65.8684 160.576 65.7546 160.435 65.7546Z" fill="#AA79D0"/>
<path d="M149.398 64.8326C149.399 64.8337 149.4 64.8349 149.401 64.8359C149.401 64.8361 149.401 64.8363 149.401 64.8364L158.061 74.412C158.126 74.4833 158.224 74.5278 158.323 74.5278C158.421 74.5278 158.519 74.4838 158.584 74.412L167.244 64.8364C167.244 64.8363 167.244 64.8361 167.244 64.8359C167.245 64.8349 167.246 64.8337 167.247 64.8326C167.36 64.7042 167.363 64.5157 167.26 64.3844C167.259 64.3831 167.259 64.3816 167.258 64.3804L164.441 60.86C164.375 60.7765 164.273 60.7278 164.166 60.7278C162.731 60.7278 153.646 60.7278 152.479 60.7278C152.372 60.7278 152.271 60.7765 152.204 60.86L149.387 64.3804C149.386 64.3816 149.386 64.383 149.385 64.3844C149.281 64.5171 149.286 64.7057 149.398 64.8326ZM156.41 61.4319H160.235L161.925 64.2483H154.72L156.41 61.4319ZM154.638 64.9523H162.007L158.322 73.3037L154.638 64.9523ZM162.776 64.9523H166.19L159.526 72.3205L162.776 64.9523ZM153.869 64.9523L157.119 72.3205L150.455 64.9523H153.869ZM166.25 64.2483H162.746L161.056 61.4319H163.997L166.25 64.2483ZM152.648 61.4319H155.588L153.899 64.2483H150.395L152.648 61.4319Z" fill="#AA79D0"/>
<path d="M159.027 65.6566H156.415C156.22 65.6566 156.062 65.8142 156.062 66.0087C156.062 66.2031 156.22 66.3607 156.415 66.3607H159.027C159.222 66.3607 159.379 66.2031 159.379 66.0087C159.379 65.8142 159.222 65.6566 159.027 65.6566Z" fill="#AA79D0"/>
<path fill-rule="evenodd" clip-rule="evenodd" d="M155.965 66.0086C155.965 65.76 156.166 65.5585 156.415 65.5585H159.028C159.276 65.5585 159.478 65.76 159.478 66.0086C159.478 66.2571 159.276 66.4586 159.028 66.4586H156.415C156.166 66.4586 155.965 66.2571 155.965 66.0086ZM156.415 65.7546C156.275 65.7546 156.161 65.8683 156.161 66.0086C156.161 66.1489 156.275 66.2626 156.415 66.2626H159.028C159.168 66.2626 159.282 66.1489 159.282 66.0086C159.282 65.8683 159.168 65.7546 159.028 65.7546H156.415Z" fill="#AA79D0"/>
<path d="M99.7754 53.3837C99.7754 50.1359 102.408 47.5031 105.656 47.5031H128.97C132.218 47.5031 134.85 50.1359 134.85 53.3837V80.7224C134.85 83.9702 132.218 86.6031 128.97 86.6031H105.656C102.408 86.6031 99.7754 83.9702 99.7754 80.7224V53.3837Z" fill="white"/>
<path fill-rule="evenodd" clip-rule="evenodd" d="M99.3184 53.3835C99.3184 49.8831 102.156 47.0455 105.656 47.0455H128.97C132.47 47.0455 135.308 49.8831 135.308 53.3835V80.7222C135.308 84.2226 132.47 87.0602 128.97 87.0602H105.656C102.156 87.0602 99.3184 84.2226 99.3184 80.7222V53.3835ZM105.656 47.9602C102.661 47.9602 100.233 50.3883 100.233 53.3835V80.7222C100.233 83.7174 102.661 86.1455 105.656 86.1455H128.97C131.965 86.1455 134.393 83.7174 134.393 80.7222V53.3835C134.393 50.3883 131.965 47.9602 128.97 47.9602H105.656Z" fill="#3F5DD7"/>
<path d="M119.924 65.6566C119.73 65.6566 119.572 65.8143 119.572 66.0087C119.572 66.203 119.73 66.3607 119.924 66.3607C120.119 66.3607 120.276 66.203 120.276 66.0087C120.276 65.8143 120.119 65.6566 119.924 65.6566Z" fill="#47DFB0"/>
<path fill-rule="evenodd" clip-rule="evenodd" d="M119.475 66.0086C119.475 65.7601 119.676 65.5585 119.925 65.5585C120.173 65.5585 120.375 65.7601 120.375 66.0086C120.375 66.257 120.173 66.4586 119.925 66.4586C119.676 66.4586 119.475 66.257 119.475 66.0086ZM119.925 65.7546C119.784 65.7546 119.671 65.8684 119.671 66.0086C119.671 66.1488 119.784 66.2626 119.925 66.2626C120.065 66.2626 120.179 66.1488 120.179 66.0086C120.179 65.8684 120.065 65.7546 119.925 65.7546Z" fill="#47DFB0"/>
<path d="M108.887 64.8326C108.888 64.8337 108.889 64.8349 108.89 64.8359C108.89 64.8361 108.89 64.8363 108.89 64.8364L117.551 74.412C117.615 74.4833 117.713 74.5278 117.812 74.5278C117.91 74.5278 118.008 74.4838 118.073 74.412L126.733 64.8364C126.733 64.8363 126.733 64.8361 126.733 64.8359C126.734 64.8349 126.735 64.8337 126.736 64.8326C126.849 64.7042 126.852 64.5157 126.75 64.3844C126.749 64.3831 126.748 64.3816 126.747 64.3804L123.931 60.86C123.864 60.7765 123.763 60.7278 123.656 60.7278C122.22 60.7278 113.136 60.7278 111.968 60.7278C111.861 60.7278 111.76 60.7765 111.693 60.86L108.877 64.3804C108.876 64.3816 108.875 64.383 108.874 64.3844C108.77 64.5171 108.776 64.7057 108.887 64.8326ZM115.899 61.4319H119.725L121.414 64.2483H114.209L115.899 61.4319ZM114.127 64.9523H121.496L117.812 73.3037L114.127 64.9523ZM122.266 64.9523H125.679L119.015 72.3205L122.266 64.9523ZM113.358 64.9523L116.608 72.3205L109.945 64.9523H113.358ZM125.739 64.2483H122.236L120.546 61.4319H123.486L125.739 64.2483ZM112.137 61.4319H115.078L113.388 64.2483H109.884L112.137 61.4319Z" fill="#47DFB0"/>
<path d="M118.517 65.6566H115.904C115.709 65.6566 115.552 65.8142 115.552 66.0087C115.552 66.2031 115.709 66.3607 115.904 66.3607H118.517C118.711 66.3607 118.869 66.2031 118.869 66.0087C118.869 65.8142 118.711 65.6566 118.517 65.6566Z" fill="#47DFB0"/>
<path fill-rule="evenodd" clip-rule="evenodd" d="M115.453 66.0086C115.453 65.76 115.655 65.5585 115.903 65.5585H118.516C118.765 65.5585 118.966 65.76 118.966 66.0086C118.966 66.2571 118.765 66.4586 118.516 66.4586H115.903C115.655 66.4586 115.453 66.2571 115.453 66.0086ZM115.903 65.7546C115.763 65.7546 115.649 65.8683 115.649 66.0086C115.649 66.1489 115.763 66.2626 115.903 66.2626H118.516C118.656 66.2626 118.77 66.1489 118.77 66.0086C118.77 65.8683 118.656 65.7546 118.516 65.7546H115.903Z" fill="#47DFB0"/>
</svg>
