<svg width="32" height="32" viewBox="0 0 32 32" fill="none" xmlns="http://www.w3.org/2000/svg">
<path fill-rule="evenodd" clip-rule="evenodd" d="M5 5C4.44772 5 4 5.44772 4 6V15C4 15.5523 4.44772 16 5 16H27C27.5523 16 28 15.5523 28 15V6C28 5.44772 27.5523 5 27 5H5ZM6 14V7H26V14H6ZM5 18C4.44772 18 4 18.4477 4 19V28C4 28.5523 4.44772 29 5 29H27C27.5523 29 28 28.5523 28 28V19C28 18.4477 27.5523 18 27 18H5ZM6 27V20H26V27H6ZM9 9.5C8.44772 9.5 8 9.94772 8 10.5C8 11.0523 8.44772 11.5 9 11.5L15 11.5C15.5523 11.5 16 11.0523 16 10.5C16 9.94772 15.5523 9.5 15 9.5H9ZM21 9.5C20.4477 9.5 20 9.94772 20 10.5C20 11.0523 20.4477 11.5 21 11.5H23C23.5523 11.5 24 11.0523 24 10.5C24 9.94772 23.5523 9.5 23 9.5H21ZM8 23.5C8 22.9477 8.44772 22.5 9 22.5H15C15.5523 22.5 16 22.9477 16 23.5C16 24.0523 15.5523 24.5 15 24.5H9C8.44772 24.5 8 24.0523 8 23.5ZM20 23.5C20 22.9477 20.4477 22.5 21 22.5H23C23.5523 22.5 24 22.9477 24 23.5C24 24.0523 23.5523 24.5 23 24.5H21C20.4477 24.5 20 24.0523 20 23.5Z" />
</svg>
