<svg id="Camada_1" data-name="Camada 1" xmlns="http://www.w3.org/2000/svg" viewBox="0 0 24 24"><title>lamp</title><path d="M19.76757,8.71367A8.07559,8.07559,0,0,0,12.52708,1.377,7.77636,7.77636,0,0,0,8.13987,15.88758a1.57581,1.57581,0,0,1,.77189,1.37609v2.4661a3.08757,3.08757,0,0,0,6.16527,0v-2.4661a1.62272,1.62272,0,0,1,.84341-1.40569A7.75836,7.75836,0,0,0,19.76757,8.71367ZM11.99933,21.33028a1.6079,1.6079,0,0,1-1.6079-1.60051v-1.3021h3.20594v1.3021A1.60791,1.60791,0,0,1,11.99933,21.33028Zm3.17635-6.74974A3.14427,3.14427,0,0,0,13.6245,16.948h-.88534V10.15388a.73983.73983,0,1,0-1.47966,0V16.948h-.8878a3.0432,3.0432,0,0,0-1.49939-2.33787A6.30067,6.30067,0,0,1,11.9944,2.8394h.00493q.217,0,.434.0148a6.6165,6.6165,0,0,1,5.85947,5.93839A6.28611,6.28611,0,0,1,15.17568,14.58054Z"/></svg>