<svg id="Camada_1" data-name="Camada 1" xmlns="http://www.w3.org/2000/svg" viewBox="0 0 24 24"><title>list</title><path d="M5.32535,5.36284H4.1196a.72409.72409,0,0,0,0,1.44818H5.32535a.72409.72409,0,0,0,0-1.44818Z"/><path d="M5.32535,11.27591H4.1196a.72409.72409,0,1,0,0,1.44818H5.32535a.72409.72409,0,0,0,0-1.44818Z"/><path d="M5.32535,17.189H4.1196a.72409.72409,0,1,0,0,1.44818H5.32535a.72409.72409,0,0,0,0-1.44818Z"/><path d="M9.123,6.811H19.8806a.72409.72409,0,0,0,0-1.44818H9.123a.72409.72409,0,0,0,0,1.44818Z"/><path d="M19.8806,11.27591H9.123a.72409.72409,0,0,0,0,1.44818H19.8806a.72409.72409,0,0,0,0-1.44818Z"/><path d="M19.8806,17.189H9.123a.72409.72409,0,0,0,0,1.44818H19.8806a.72409.72409,0,0,0,0-1.44818Z"/></svg>