<svg width="32" height="32" viewBox="0 0 32 32" fill="none" xmlns="http://www.w3.org/2000/svg">
<path d="M14.6667 7.84267V25.6533C14.6663 26.206 14.4709 26.7407 14.1149 27.1634C13.7589 27.5861 13.2651 27.8695 12.7206 27.9639C12.1761 28.0582 11.6158 27.9574 11.1383 27.6791C10.6609 27.4008 10.297 26.963 10.1107 26.4427L7.24804 18.2427M7.24804 18.2427C6.11633 17.7615 5.18562 16.9054 4.61341 15.8169C4.0412 14.7284 3.86265 13.4756 4.10795 12.2705C4.35326 11.0655 5.00736 9.9822 5.95957 9.204C6.91178 8.4258 8.10361 8.00047 9.33337 8H11.776C17.2427 8 21.9427 6.35467 24 4V22.6667C21.9427 20.312 17.244 18.6667 11.776 18.6667H9.33337C8.61688 18.6677 7.90757 18.5226 7.24804 18.2427ZM24 17.3333C25.0609 17.3333 26.0783 16.9119 26.8285 16.1618C27.5786 15.4116 28 14.3942 28 13.3333C28 12.2725 27.5786 11.2551 26.8285 10.5049C26.0783 9.75476 25.0609 9.33333 24 9.33333V17.3333Z" stroke="#4364E8" stroke-width="2" stroke-linecap="round" stroke-linejoin="round"/>
</svg>
