<svg id="Camada_1" data-name="Camada 1" xmlns="http://www.w3.org/2000/svg" viewBox="0 0 24 24"><defs><style>.cls-1{fill:#1e2b3d;}</style></defs><title>moderador-solid-dark</title><path class="cls-1" d="M12,4.5A7.5,7.5,0,1,0,19.5,12,7.5,7.5,0,0,0,12,4.5Zm2.853,10.06341a.50826.50826,0,0,1-1.01652,0v-3.2453l-1.39959,2.48736a.507.507,0,0,1-.87386,0l-1.39979-2.48736v3.2453a.50815.50815,0,0,1-1.0163,0V9.43694a.51388.51388,0,0,1,.50814-.50858.50229.50229,0,0,1,.45469.28536L12,12.60179l1.89019-3.38807a.5019.5019,0,0,1,.45469-.28536.51389.51389,0,0,1,.50816.50858Z"/></svg>