<svg id="Camada_1" data-name="Camada 1" xmlns="http://www.w3.org/2000/svg" viewBox="0 0 24 24"><title>money-circle</title><path d="M12,3.73813A8.26187,8.26187,0,1,0,20.26187,12,8.2508,8.2508,0,0,0,12,3.73813Zm0,15.42216A7.16029,7.16029,0,1,1,19.16029,12,7.1695,7.1695,0,0,1,12,19.16029Z"/><path d="M13.70745,11.94492a3.92955,3.92955,0,0,0-.75274-.459c-.2754-.12852-.51408-.23868-.75275-.3672a2.34447,2.34447,0,0,1-.56915-.36719.61814.61814,0,0,1-.22032-.47735.65964.65964,0,0,1,.22032-.56915,1.06962,1.06962,0,0,1,.64259-.1836,1.463,1.463,0,0,1,.66095.14688,2.108,2.108,0,0,1,.60587.44063l.8629-.99142a2.86438,2.86438,0,0,0-1.72581-.95471V6.96944H11.541V8.18118a2.15393,2.15393,0,0,0-1.30354.73439,2.20822,2.20822,0,0,0-.47735,1.43206,1.76591,1.76591,0,0,0,.22031.89962,2.70172,2.70172,0,0,0,.56915.64259,3.92912,3.92912,0,0,0,.75275.459c.257.12852.51407.257.75275.38556a2.3858,2.3858,0,0,1,.56915.40391.69474.69474,0,0,1,.22032.51407.76431.76431,0,0,1-.22032.60587,1.07529,1.07529,0,0,1-.716.202A2.21007,2.21007,0,0,1,11.082,14.295a3.25667,3.25667,0,0,1-.84454-.51407l-.75275,1.15666a3.10949,3.10949,0,0,0,.97306.60587,4.352,4.352,0,0,0,1.08323.29376v1.175h1.1383V15.7821a2.173,2.173,0,0,0,1.836-2.25824,1.93156,1.93156,0,0,0-.22032-.95471A3.12767,3.12767,0,0,0,13.70745,11.94492Z"/></svg>