<svg id="Camada_1" data-name="Camada 1" xmlns="http://www.w3.org/2000/svg" viewBox="0 0 24 24"><title>money</title><path d="M15.75394,12.5999a4.07676,4.07676,0,0,0-2.98959-1.33021h-.03271V6.14848h.36653a1.981,1.981,0,0,1,1.87124,1.33527h1.54944a3.54418,3.54418,0,0,0-3.22529-2.89336.60511.60511,0,0,1-.56192-.60349v-1.732H11.22292V4.03459a.60473.60473,0,0,1-.52267.59926,4.10214,4.10214,0,0,0-3.5342,4.44894,4.20549,4.20549,0,0,0,4.10456,3.64031v5.12884h-.36652a1.98077,1.98077,0,0,1-1.87124-1.33569H7.4834a3.54419,3.54419,0,0,0,3.22529,2.89336.6051.6051,0,0,1,.56192.60349v1.732h1.50872V19.96541a.605.605,0,0,1,.51-.59758A4.19208,4.19208,0,0,0,16.83705,15.749,4.15739,4.15739,0,0,0,15.75394,12.5999Zm-6.348-2.16074A2.60013,2.60013,0,0,1,8.72731,8.4679a2.66848,2.66848,0,0,1,2.5433-2.31412V11.2689A2.56223,2.56223,0,0,1,9.40592,10.43916Zm5.869,5.09294a2.6691,2.6691,0,0,1-2.54331,2.31454V12.7311a2.56455,2.56455,0,0,1,1.8647.82974A2.60132,2.60132,0,0,1,15.275,15.5321Z"/></svg>