<svg width="20" height="24" viewBox="0 0 20 24" fill="none" xmlns="http://www.w3.org/2000/svg">
<path fill-rule="evenodd" clip-rule="evenodd" d="M10.0001 0C10.5524 0 11.0001 0.447715 11.0001 1V3.68533C12.4869 3.89991 13.8751 4.58908 14.9498 5.66381C16.2626 6.97656 17.0001 8.75704 17.0001 10.6136C17.0001 13.9662 17.7171 16.0482 18.378 17.2597C18.7098 17.868 19.0329 18.267 19.2573 18.5039C19.3698 18.6227 19.4581 18.7014 19.5114 18.7457C19.538 18.7679 19.5558 18.7815 19.5635 18.7873L19.5664 18.7894C19.9249 19.0356 20.0835 19.4861 19.9572 19.9033C19.8295 20.3251 19.4407 20.6136 19.0001 20.6136H13.9533C13.6581 22.5314 12.0006 24 10.0001 24C7.99959 24 6.34209 22.5314 6.04685 20.6136H1.00008C0.559411 20.6136 0.170684 20.3251 0.0429858 19.9033C-0.0833568 19.4861 0.0752824 19.0356 0.433767 18.7894L0.436625 18.7873C0.444325 18.7815 0.462178 18.7679 0.4888 18.7457C0.542016 18.7014 0.6304 18.6227 0.742875 18.5039C0.967304 18.267 1.29039 17.868 1.62218 17.2597C2.28301 16.0482 3.00008 13.9662 3.00008 10.6136C3.00008 8.75704 3.73758 6.97656 5.05033 5.66381C6.12507 4.58907 7.5133 3.8999 9.00009 3.68532V1C9.00009 0.447715 9.44781 0 10.0001 0ZM8.09596 20.6136C8.35497 21.418 9.10956 22 10.0001 22C10.8906 22 11.6452 21.418 11.9042 20.6136H8.09596ZM16.8508 18.6136C16.7747 18.4889 16.6983 18.3569 16.6222 18.2174C15.783 16.6789 15.0001 14.2609 15.0001 10.6136C15.0001 9.28747 14.4733 8.0157 13.5356 7.07802C12.5979 6.14034 11.3262 5.61356 10.0001 5.61356C8.674 5.61356 7.40223 6.14034 6.46454 7.07802C5.52686 8.0157 5.00008 9.28747 5.00008 10.6136C5.00008 14.2609 4.21715 16.6789 3.37797 18.2174C3.30188 18.3569 3.22549 18.4889 3.1494 18.6136H16.8508Z"/>
</svg>
