<svg id="Camada_1" data-name="Camada 1" xmlns="http://www.w3.org/2000/svg" viewBox="0 0 24 24"><title>photo</title><path d="M4.56237,20.78991a2.7137,2.7137,0,0,1-2.7046-2.70459V8.61922a2.71369,2.71369,0,0,1,2.7046-2.7046H7.14018l.84519-2.26087a.67619.67619,0,0,1,.63389-.4437h6.76148a.6762.6762,0,0,1,.63389.44372l.84519,2.26087h2.57781a2.71369,2.71369,0,0,1,2.7046,2.7046v9.4661A2.7137,2.7137,0,0,1,19.43763,20.79H4.56237Zm0-1.3523H19.43763a1.33482,1.33482,0,0,0,1.3523-1.35229V8.61922a1.33482,1.33482,0,0,0-1.3523-1.3523H16.395a.67618.67618,0,0,1-.63389-.43316l-.85574-2.27144H9.09466L8.23892,6.83376a.67621.67621,0,0,1-.63389.43318H4.56237a1.33482,1.33482,0,0,0-1.3523,1.3523v9.4661a1.33484,1.33484,0,0,0,1.3523,1.35232ZM12,17.74724a4.395,4.395,0,1,1,4.395-4.395A4.40528,4.40528,0,0,1,12,17.74724ZM12,16.395a3.04268,3.04268,0,1,0-3.04267-3.04267A3.03248,3.03248,0,0,0,12,16.395Z"/></svg>