<svg id="Camada_1" data-name="Camada 1" xmlns="http://www.w3.org/2000/svg" viewBox="0 0 24 24"><defs><style>.cls-1{stroke:#000;stroke-miterlimit:10;stroke-width:0.182px;}</style></defs><title>player</title><path class="cls-1" d="M5.42,4.15464A4.05156,4.05156,0,0,0,1.37082,8.20385v7.59229A4.05158,4.05158,0,0,0,5.42,19.84536H18.58a4.05156,4.05156,0,0,0,4.04921-4.04921V8.20386A4.05157,4.05157,0,0,0,18.58,4.15465H5.42Zm0,1.0123H18.58a3.01924,3.01924,0,0,1,3.03691,3.03691v7.59229A3.01924,3.01924,0,0,1,18.58,18.83306H5.42a3.01924,3.01924,0,0,1-3.03691-3.03691V8.20386A3.01924,3.01924,0,0,1,5.42,5.167ZM9.93585,8.20385A.50621.50621,0,0,0,9.46924,8.71v6.58a.508.508,0,0,0,.76714.44289l5.56766-3.29a.5062.5062,0,0,0,0-.87787l-5.56766-3.29A.50615.50615,0,0,0,9.93585,8.20385Zm.5457,1.39981L14.53867,12,10.48155,14.4042Z"/></svg>