<svg id="Camada_1" data-name="Camada 1" xmlns="http://www.w3.org/2000/svg" viewBox="0 0 24 24"><title>player-block</title><path d="M9.3356,9.37686c0-.48432.23885-.68164.6581-.43882l3.901,2.2901c.41924.24309.39359.64011-.02566.88293l-3.86233,2.2901c-.41845.24308-.67106.04523-.67106-.43881Z"/><path d="M13.30291,20.10551v-.48933a8.16977,8.16977,0,1,1,6.26855-8.31059,3.61424,3.61424,0,0,1,1.00017.689c.0038-.10805.00824-.216.00824-.325a9.17479,9.17479,0,1,0-7.21941,8.95879A2.44474,2.44474,0,0,1,13.30291,20.10551Z"/><path d="M20.60579,15.73357V14.57012a2.54756,2.54756,0,1,0-5.09511,0v1.16345a1.39438,1.39438,0,0,0-1.15314,1.37355v2.99839A1.39593,1.39593,0,0,0,15.75185,21.5h4.61277a1.39593,1.39593,0,0,0,1.39431-1.39449V17.10712A1.39411,1.39411,0,0,0,20.60579,15.73357Zm-4.15137-.02128V14.56978a1.60382,1.60382,0,1,1,3.20763,0v1.14251Zm3.9102,4.84329H15.75185a.45123.45123,0,0,1-.45058-.45076v-2.998a.45123.45123,0,0,1,.45058-.45076h4.61277a.45123.45123,0,0,1,.45058.45076v2.998A.45123.45123,0,0,1,20.36462,20.55558Z"/></svg>