<svg width="32" height="32" viewBox="0 0 32 32" fill="none" xmlns="http://www.w3.org/2000/svg">
<path fill-rule="evenodd" clip-rule="evenodd" d="M9.14333 7.21006C9.40588 6.94751 9.76198 6.80001 10.1333 6.80001C10.5046 6.80001 10.8607 6.94751 11.1232 7.21006C11.3858 7.47261 11.5333 7.82871 11.5333 8.20001V14.8C11.5333 14.9768 11.463 15.1464 11.338 15.2714C11.213 15.3964 11.0434 15.4667 10.8666 15.4667C10.6898 15.4667 10.5202 15.3964 10.3952 15.2714C10.2702 15.1464 10.1999 14.9768 10.1999 14.8V12.6C10.1999 12.1582 9.84178 11.8 9.39995 11.8C8.95812 11.8 8.59995 12.1582 8.59995 12.6V14.8C8.59995 15.4012 8.83876 15.9777 9.26384 16.4028C9.68892 16.8279 10.2655 17.0667 10.8666 17.0667C11.4678 17.0667 12.0443 16.8279 12.4694 16.4028C12.8945 15.9777 13.1333 15.4012 13.1333 14.8V8.20001C13.1333 7.40436 12.8172 6.6413 12.2546 6.07869C11.692 5.51608 10.9289 5.20001 10.1333 5.20001C9.33763 5.20001 8.57457 5.51608 8.01196 6.07869C7.44935 6.6413 7.13328 7.40436 7.13328 8.20001V8.86998H5.99995C5.00584 8.86998 4.19995 9.67587 4.19995 10.67V24.8C4.19995 25.7941 5.00584 26.6 5.99995 26.6H26C26.9941 26.6 27.8 25.7941 27.8 24.8V10.67C27.8 9.67587 26.9941 8.86998 26 8.86998H15.27C14.8281 8.86998 14.47 9.22816 14.47 9.66998C14.47 10.1118 14.8281 10.47 15.27 10.47H26C26.1104 10.47 26.2 10.5595 26.2 10.67V24.8C26.2 24.9104 26.1104 25 26 25H5.99995C5.88949 25 5.79995 24.9104 5.79995 24.8V10.67C5.79995 10.5595 5.88949 10.47 5.99995 10.47H9.39995C9.84178 10.47 10.2 10.1118 10.2 9.66998C10.2 9.22816 9.84178 8.86998 9.39995 8.86998H8.73328V8.20001C8.73328 7.82871 8.88078 7.47261 9.14333 7.21006ZM16 15.4667C15.5581 15.4667 15.2 15.8248 15.2 16.2667C15.2 16.7085 15.5581 17.0667 16 17.0667H24.0666C24.5085 17.0667 24.8666 16.7085 24.8666 16.2667C24.8666 15.8248 24.5085 15.4667 24.0666 15.4667H16ZM10.0666 20.6667C10.0666 20.2249 10.4248 19.8667 10.8666 19.8667H24.0666C24.5085 19.8667 24.8666 20.2249 24.8666 20.6667C24.8666 21.1085 24.5085 21.4667 24.0666 21.4667H10.8666C10.4248 21.4667 10.0666 21.1085 10.0666 20.6667Z" fill="#4364E8"/>
</svg>
