<svg id="Camada_1" data-name="Camada 1" xmlns="http://www.w3.org/2000/svg" viewBox="0 0 24 24"><title>radar</title><path d="M19.83242,4.14715A11.12861,11.12861,0,0,0,7.76064,1.73741,11.33626,11.33626,0,0,0,4.14693,4.14715a.63791.63791,0,0,0,0,.90126l6.71972,6.71972A1.0062,1.0062,0,0,0,10.83755,12,1.16234,1.16234,0,1,0,12,10.83755a1.00607,1.00607,0,0,0-.23276.02976L10.47443,9.59249A2.81451,2.81451,0,0,1,10.91462,9.37,2.72519,2.72519,0,0,1,12,9.15274a2.84727,2.84727,0,1,1,0,5.69452,2.863,2.863,0,0,1-1.6615-.53391,2.66618,2.66618,0,0,1-1.029-1.38766.671.671,0,0,0-.82553-.39444.63591.63591,0,0,0-.37512.82176A4.1408,4.1408,0,0,0,9.612,15.36341,4.1216,4.1216,0,0,0,16.12342,12a4.0999,4.0999,0,0,0-1.20664-2.91922A4.17462,4.17462,0,0,0,12,7.87658a4.0065,4.0065,0,0,0-1.58221.31582,3.85375,3.85375,0,0,0-.85218.47217L7.993,7.09258a6.15137,6.15137,0,0,1,1.58243-.95012A6.4234,6.4234,0,0,1,12,5.6574,6.3272,6.3272,0,1,1,5.657,12a7.91847,7.91847,0,0,1,.0804-1.007A8.901,8.901,0,0,1,5.981,9.99759a.65661.65661,0,0,0-.40643-.80043.66465.66465,0,0,0-.49.04441.61217.61217,0,0,0-.30649.37668A6.37734,6.37734,0,0,0,4.485,10.78958,7.66184,7.66184,0,0,0,4.38079,12a7.60162,7.60162,0,0,0,12.98415,5.36494A7.60857,7.60857,0,0,0,12,4.38124a7.48006,7.48006,0,0,0-2.901.58411A7.12447,7.12447,0,0,0,7.09036,6.18954L5.52281,4.622A9.36541,9.36541,0,0,1,8.23859,2.91408,10.01111,10.01111,0,0,1,12,2.18205,9.82084,9.82084,0,0,1,21.818,12,9.85525,9.85525,0,0,1,12,21.818,9.81971,9.81971,0,0,1,2.18205,12a9.64017,9.64017,0,0,1,.28473-2.33822,10.25569,10.25569,0,0,1,.81-2.21029A.63184.63184,0,0,0,3.02068,6.592a.63946.63946,0,0,0-.84774.27673,11.26657,11.26657,0,0,0-.95545,2.4928A11.10652,11.10652,0,0,0,12,23.09411,11.1364,11.1364,0,0,0,23.09411,12,11.03706,11.03706,0,0,0,19.83242,4.14715Z"/></svg>