<svg width="10" height="14" viewBox="0 0 10 14" fill="none" xmlns="http://www.w3.org/2000/svg">
<path d="M9.99745 6.69556C9.99745 6.46373 9.80955 6.27588 9.57777 6.27588C9.34599 6.27588 9.15809 6.46373 9.15809 6.69556C9.15809 8.98848 7.29263 10.8539 4.9997 10.8539C2.70678 10.8539 0.841319 8.98843 0.841319 6.69556C0.841319 6.46373 0.653413 6.27588 0.421636 6.27588C0.189859 6.27588 0.00195312 6.46373 0.00195312 6.69556C0.00195312 9.31002 2.0199 11.4616 4.58002 11.6755V13.1604H2.71064C2.47886 13.1604 2.29096 13.3483 2.29096 13.5801C2.29096 13.8119 2.47886 13.9998 2.71064 13.9998H7.28871C7.52049 13.9998 7.70839 13.8119 7.70839 13.5801C7.70839 13.3483 7.52049 13.1604 7.28871 13.1604H5.41933V11.6755C7.97945 11.4616 9.99745 9.31002 9.99745 6.69556Z" fill="#767D85"/>
<path d="M4.99922 9.40447C6.49284 9.40447 7.70796 8.18935 7.70796 6.69579V2.70869C7.70796 1.21512 6.49284 0 4.99922 0C3.50565 0 2.29053 1.21512 2.29053 2.70869V6.69579C2.29053 8.18941 3.50565 9.40447 4.99922 9.40447ZM3.12989 2.70869C3.12989 1.67795 3.96847 0.839365 4.99922 0.839365C6.03001 0.839365 6.8686 1.67795 6.8686 2.70869V6.69579C6.8686 7.72653 6.03001 8.56511 4.99922 8.56511C3.96847 8.56511 3.12989 7.72653 3.12989 6.69579V2.70869Z" fill="#767D85"/>
</svg>
