<svg width="32" height="32" viewBox="0 0 32 32" fill="none" xmlns="http://www.w3.org/2000/svg">
<path fill-rule="evenodd" clip-rule="evenodd" d="M25.3358 6.05084C25.0687 5.85214 24.7341 5.76628 24.404 5.81206C24.0708 5.85828 23.7696 6.03491 23.5666 6.30312L23.5656 6.30449L17.3474 14.4826L17.2106 16.7741L19.3813 16.018L25.5993 7.84105L25.6 7.84019C25.8023 7.57196 25.8901 7.2344 25.8439 6.90156C25.7977 6.56835 25.6211 6.26713 25.3528 6.06411L25.3359 6.05094L25.3358 6.05084ZM26.2375 8.32341L26.8743 8.80765L20.509 17.1784C20.4138 17.3036 20.2838 17.398 20.1353 17.4497L16.6036 18.6797C16.351 18.7677 16.0711 18.7236 15.8578 18.5622C15.6445 18.4009 15.5259 18.1436 15.5419 17.8765L15.7648 14.1444C15.7743 13.986 15.8306 13.8341 15.9265 13.7079L22.2909 5.33745L22.2914 5.3367C22.7504 4.73073 23.4312 4.33168 24.1842 4.22723C24.9375 4.12274 25.7015 4.32163 26.3083 4.7802C26.3141 4.78463 26.3199 4.78913 26.3256 4.79372L26.3277 4.79539C26.929 5.25431 27.3248 5.93223 27.4287 6.68172C27.5332 7.43505 27.3343 8.19903 26.8758 8.80577L26.2375 8.32341ZM5.99521 11.1285C6.12024 11.0035 6.28981 10.9333 6.46662 10.9333H15.2667C15.7085 10.9333 16.0667 10.5751 16.0667 10.1333C16.0667 9.69143 15.7085 9.33325 15.2667 9.33325H6.46662C5.86546 9.33325 5.28893 9.57206 4.86384 9.99715C4.43876 10.4222 4.19995 10.9988 4.19995 11.5999V25.5333C4.19995 26.1345 4.43876 26.711 4.86384 27.1361C5.28893 27.5612 5.86546 27.8 6.46662 27.8H25.5334C26.1345 27.8 26.7111 27.5612 27.1361 27.1361C27.5612 26.711 27.8 26.1345 27.8 25.5333V13.7999C27.8 13.3581 27.4419 12.9999 27 12.9999C26.5582 12.9999 26.2 13.3581 26.2 13.7999V25.5333C26.2 25.7101 26.1298 25.8797 26.0048 26.0047C25.8797 26.1297 25.7102 26.2 25.5334 26.2H6.46662C6.28981 26.2 6.12024 26.1297 5.99521 26.0047C5.87019 25.8797 5.79995 25.7101 5.79995 25.5333V11.5999C5.79995 11.4231 5.87019 11.2535 5.99521 11.1285ZM11.8 13.8666H8.7333V23.2666H11.8V13.8666ZM12.5854 12.2667C12.5806 12.2666 12.5757 12.2666 12.5708 12.2666H8.66664C8.25997 12.2666 7.86996 12.4282 7.5824 12.7157C7.29485 13.0033 7.1333 13.3933 7.1333 13.7999V23.3333C7.1333 23.74 7.29485 24.13 7.5824 24.4175C7.86996 24.7051 8.25997 24.8666 8.66664 24.8666H12.6H23.3334C23.74 24.8666 24.13 24.7051 24.4176 24.4175C24.7051 24.13 24.8667 23.74 24.8667 23.3333V15.9999C24.8667 15.5581 24.5085 15.1999 24.0667 15.1999C23.6249 15.1999 23.2667 15.5581 23.2667 15.9999V23.2666H13.4V13.0666C13.4 12.6248 13.0418 12.2666 12.6 12.2666C12.5951 12.2666 12.5902 12.2666 12.5854 12.2667Z" />
</svg>