<svg id="Camada_1" data-name="Camada 1" xmlns="http://www.w3.org/2000/svg" viewBox="0 0 24 24"><title>small-sound</title><path d="M14.26286,10.29283a.4891.4891,0,0,0-.61107.76384,1.27471,1.27471,0,0,1,.4583.95479,1.23889,1.23889,0,0,1-.49649.993.4304.4304,0,0,0-.07639.61107l.0382.03819a.501.501,0,0,0,.66835.07638,2.12614,2.12614,0,0,0,.84022-1.71862A2.16424,2.16424,0,0,0,14.26286,10.29283Z"/><path d="M15.38951,8.91793a.465.465,0,0,0-.66836.07639h0a.46124.46124,0,0,0,.05729.66835,3.01162,3.01162,0,0,1,0,4.69757.4641.4641,0,0,0-.05729.66836h0a.46663.46663,0,0,0,.66836.07638A3.99907,3.99907,0,0,0,16.879,12.01146,4.06012,4.06012,0,0,0,15.38951,8.91793Z"/><path d="M11.41758,8.1732,8.916,10.08278H7.69389a.56265.56265,0,0,0-.57287.57287v2.69252a.56265.56265,0,0,0,.57287.57287H8.916l2.50156,1.90958a.6642.6642,0,0,0,1.06936-.53468V8.68878A.65751.65751,0,0,0,11.41758,8.1732Z"/></svg>