<svg id="Camada_1" data-name="Camada 1" xmlns="http://www.w3.org/2000/svg" viewBox="0 0 24 24"><title>social-facebook</title><path d="M14.40721,8.483a.13057.13057,0,0,1-.13051.13059H13.23709a.46189.46189,0,0,0-.46191.46188V10.164h1.4786a.13049.13049,0,0,1,.13.14152l-.1297,1.53412a.13054.13054,0,0,1-.13007.11956H12.77518v5.092a.13047.13047,0,0,1-.13049.13049h-1.8606a.13047.13047,0,0,1-.13051-.13049v-5.092h-.9303a.13045.13045,0,0,1-.13049-.13049V10.29448a.13046.13046,0,0,1,.13049-.1305h.9303V8.68478a1.86642,1.86642,0,0,1,1.8665-1.8664H14.2767a.13048.13048,0,0,1,.13051.13049Z"/></svg>