<svg id="Camada_1" data-name="Camada 1" xmlns="http://www.w3.org/2000/svg" viewBox="0 0 24 24"><title>social-twitter</title><path d="M9.37053,16.35925c-.0151.00119-.19018,0,0,0Zm.388.01c0-.01936.20418,0,0,0Zm7.34422-7.73961c0,.02592-.08442.089-.13712.15989a4.40864,4.40864,0,0,1-.88628.83439c-.04559.03426-.12223.07-.12223.135a6.18609,6.18609,0,0,1-1.63161,4.51327,6.07271,6.07271,0,0,1-5.89558,1.37851,5.62979,5.62979,0,0,1-1.14016-.456c-.12058-.06574-.23891-.13387-.35525-.21053-.02942-.02394-.05141-.04578-.02626-.06138.02487-.01251.04411-.0135.13585,0a4.02216,4.02216,0,0,0,1.70567-.21828,2.60426,2.60426,0,0,0,1.123-.59525c.00427-.00646.00877-.00646.01324-.01321-.07473-.01748-.14931-.01748-.22385-.03049A2.20148,2.20148,0,0,1,8.0177,12.68841c-.0218-.05472,0-.08332.057-.07229a2.364,2.364,0,0,0,.78273-.02424,1.24064,1.24064,0,0,1-.26518-.081,2.12087,2.12087,0,0,1-1.307-1.69053,1.26145,1.26145,0,0,1-.013-.237c.00427-.05472.0285-.0723.07679-.04171a2.10788,2.10788,0,0,0,.798.22364c-.0898-.07011-.17312-.14687-.25418-.22364a2.097,2.097,0,0,1-.35746-2.47775c.03955-.05928.06579-.05928.11408-.00427a6.42828,6.42828,0,0,0,4.1355,2.105c.04377.00646.048,0,.04151-.04826a2.21784,2.21784,0,0,1,.02168-.86428,2.1019,2.1019,0,0,1,.4087-.8186,2.18588,2.18588,0,0,1,.68439-.55891,2.13654,2.13654,0,0,1,.84834-.23963,2.02912,2.02912,0,0,1,.89425.144,2.12783,2.12783,0,0,1,.58319.35721.97927.97927,0,0,1,.10551.10755.08153.08153,0,0,0,.0837.022,5.187,5.187,0,0,0,1.20481-.4605.06335.06335,0,0,1,.05643-.00447.04066.04066,0,0,1,.00757.05284,1.83579,1.83579,0,0,1-.32645.61432c-.09618.11957-.31488.41511-.47815.44252a4.46613,4.46613,0,0,0,1.05709-.28949c.04079-.01857.12521-.02651.12521,0Z"/></svg>