<svg id="Camada_1" data-name="Camada 1" xmlns="http://www.w3.org/2000/svg" viewBox="0 0 24 24"><title>social-whatsapp</title><path id="WhatsApp" d="M17.87858,11.84859a5.7813,5.7813,0,0,1-8.56169,5.01456L6.12142,17.87858l1.04182-3.0728A5.66685,5.66685,0,0,1,6.335,11.84859a5.772,5.772,0,0,1,11.54357,0ZM12.10686,7.03352a4.83928,4.83928,0,0,0-4.85257,4.81507,4.76449,4.76449,0,0,0,.92437,2.823l-.60627,1.78826,1.86481-.59269a4.82783,4.82783,0,1,0,2.66966-8.83367Zm2.9146,6.1341c-.03567-.0584-.12985-.09367-.2712-.16382-.14161-.07015-.83737-.40993-.9667-.45657-.12972-.04677-.2243-.07028-.31849.07015s-.36538.45657-.44808.55024c-.08256.09392-.165.10568-.3066.0354a3.87251,3.87251,0,0,1-1.13757-.69668,4.23249,4.23249,0,0,1-.78707-.972c-.08243-.14044-.00863-.21634.062-.28623.06375-.063.14161-.16394.21228-.24585a.94078.94078,0,0,0,.14135-.23423.25579.25579,0,0,0-.01176-.246c-.03527-.07015-.31849-.76094-.43632-1.04207-.11783-.28087-.23554-.2341-.31823-.2341-.08243,0-.17688-.01176-.2712-.01176a.52211.52211,0,0,0-.3774.17558,1.56974,1.56974,0,0,0-.495,1.17088,2.71635,2.71635,0,0,0,.57767,1.45175A5.78338,5.78338,0,0,0,12.286,14.15156c1.43842.56186,1.43842.3744,1.69786.35088a1.431,1.431,0,0,0,.95521-.66715A1.17032,1.17032,0,0,0,15.02146,13.16762Z"/></svg>