<svg id="Camada_1" data-name="Camada 1" xmlns="http://www.w3.org/2000/svg" viewBox="0 0 24 24"><title>sort-amount-down</title><path d="M12.56528,5.797H3.17221a.72409.72409,0,1,0,0,1.44817h9.39307a.72409.72409,0,0,0,0-1.44817Z"/><path d="M10.217,11.66765H3.17221a.72409.72409,0,1,0,0,1.44817H10.217a.72409.72409,0,0,0,0-1.44817Z"/><path d="M7.86874,17.14713H3.17221a.7239.7239,0,1,0,0,1.44779H7.86874a.7239.7239,0,1,0,0-1.44779Z"/><path d="M17.50719,4.23146a.72469.72469,0,0,0-.72389.72409V17.297L14.69837,15.212a.72389.72389,0,0,0-1.02393,1.02354l3.31945,3.31984a.76068.76068,0,0,0,.11314.09249l.01758.00955.01949.01032a.68546.68546,0,0,0,.08791.04663.23587.23587,0,0,0,.02637.00841l.047.01453a.47442.47442,0,0,0,.06153.01758.49245.49245,0,0,0,.05772.00649l.026.00192.02713.00305a.20492.20492,0,0,0,.05925,0l.02866-.00305.02484-.00192a.48611.48611,0,0,0,.05734-.00649.466.466,0,0,0,.06573-.01911l.0409-.01262a.24583.24583,0,0,0,.02867-.00879.767.767,0,0,0,.08752-.04663l.02026-.0107.01681-.00917a.7206.7206,0,0,0,.11276-.09249l3.31983-3.31984A.72389.72389,0,1,0,20.3164,15.212L18.23109,17.297V4.95555A.72469.72469,0,0,0,17.50719,4.23146Z"/></svg>