<svg id="Camada_1" data-name="Camada 1" xmlns="http://www.w3.org/2000/svg" viewBox="0 0 24 24"><title>star-white</title><path d="M17.3,20.7241a.568.568,0,0,1-.33538-.1092l-4.96553-3.62327L7.0354,20.61453a.56854.56854,0,0,1-.87584-.63559L8.0693,14.13721,3.09118,10.53392a.56855.56855,0,0,1,.33353-1.02909h.00111l6.14454.01222q.945-2.92345,1.88752-5.84692a.56811.56811,0,0,1,.54082-.39423h.00037a.56907.56907,0,0,1,.5412.39386l.17768.55008q.85566,2.64861,1.70984,5.29721l6.14639-.01222h.00111a.56855.56855,0,0,1,.33353,1.02909q-2.13276,1.5453-4.2659,3.08726l-.71407.5164,1.91159,5.841A.56846.56846,0,0,1,17.3,20.7241Zm-5.30091-5.00477a.568.568,0,0,1,.33538.10921l3.87722,2.82887-1.49255-4.56055a.569.569,0,0,1,.2073-.63781l1.04982-.75923q1.41979-1.02669,2.83961-2.05448l-4.8008.00963h-.00111a.56825.56825,0,0,1-.5412-.39424Q12.73758,7.978,11.99981,5.69536,11.263,7.978,10.525,10.2611a.5686.5686,0,0,1-.5412.39387H9.98273l-4.79821-.00963L9.0721,13.45942a.56887.56887,0,0,1,.20693.63707L7.788,18.65741l3.87574-2.8285A.56837.56837,0,0,1,11.99907,15.71933Z"/></svg>