<svg id="Camada_1" data-name="Camada 1" xmlns="http://www.w3.org/2000/svg" viewBox="0 0 24 24"><title>star</title><path d="M12,21.43811a7.22637,7.22637,0,0,1-7.209-7.22743V5.33886a.56847.56847,0,0,1,.38912-.53947l6.64043-2.20852a.57009.57009,0,0,1,.3589,0l6.64043,2.20852a.56847.56847,0,0,1,.38912.53947v8.87182A7.22637,7.22637,0,0,1,12,21.43811ZM5.92813,5.74885v8.46183a6.0719,6.0719,0,1,0,12.14374,0V5.74885L12,3.72956Z"/><path d="M9.21559,16.56267a.5685.5685,0,0,1-.54014-.74624l.93325-2.83638L7.16343,11.22528a.56853.56853,0,0,1,.33136-1.03053h3.03l.935-2.84193a.56863.56863,0,0,1,1.08028,0l.935,2.84193H16.505a.56862.56862,0,0,1,.33159,1.03053L14.3913,12.98005l.933,2.83638a.56862.56862,0,0,1-.87172.63964L12,14.696,9.547,16.45607A.5677.5677,0,0,1,9.21559,16.56267Zm.04686-5.23079,1.34812.96745a.56862.56862,0,0,1,.20877.63963l-.51881,1.57688,1.3681-.98166a.56866.56866,0,0,1,.663,0l1.36788.98166L13.18066,12.939a.56884.56884,0,0,1,.20855-.63963l1.34834-.96745H13.06361a.56871.56871,0,0,1-.54013-.39089L12,9.34968,11.47652,10.941a.56871.56871,0,0,1-.54013.39089Z"/></svg>