<svg id="Camada_1" data-name="Camada 1" xmlns="http://www.w3.org/2000/svg" viewBox="0 0 24 24"><defs><style>.cls-1{fill:#fc3;}.cls-2{fill:#fff;}</style></defs><title>star-yellow-white</title><path class="cls-1" d="M7.29408,19.96526a.72476.72476,0,0,1-.68878-.94966l1.64553-5.03376L3.961,10.87666a.72468.72468,0,0,1,.42507-1.31151l5.2963.01038q.81414-2.51923,1.62641-5.03848a.72472.72472,0,0,1,.68949-.50243h.00024a.72474.72474,0,0,1,.68949.502q.8145,2.51924,1.62689,5.039l5.298-.01038a.72468.72468,0,0,1,.42506,1.31151l-4.29144,3.1047,1.64694,5.03376a.72468.72468,0,0,1-1.11573.811l-4.27916-3.12216-4.277,3.12169A.72439.72439,0,0,1,7.29408,19.96526Z"/><path class="cls-2" d="M11.99851,4.75925q.89547,2.77091,1.78907,5.5418l5.82526-.01127q-2.35977,1.70926-4.71954,3.4148.90675,2.7681,1.8116,5.53617-2.35414-1.71774-4.70639-3.43359Q9.64719,17.5249,7.294,19.24075q.90393-2.7681,1.80972-5.53617-2.35695-1.70644-4.71765-3.4148l5.82338.01127q.89547-2.7709,1.78907-5.5418m7.61433,5.53053h.00241M11.99852,3.31h-.00068a1.44928,1.44928,0,0,0-1.37879,1.00488Q9.8886,6.58227,9.15538,8.84974L8.755,8.849,4.38885,8.84051H4.386a1.44927,1.44927,0,0,0-.85013,2.623l2.74669,1.98826,1.11519.80715-.57509,1.75928-.90636,2.77268A1.44926,1.44926,0,0,0,8.14891,20.411l2.34953-1.71479,1.50024-1.095,1.51122,1.10254,2.34075,1.70769a1.44927,1.44927,0,0,0,2.23151-1.62188l-.90559-2.76746-.57691-1.763q1.91869-1.38757,3.83733-2.77679a1.449,1.449,0,0,0-.82174-2.64183h-.00241l-.00547,0-4.7649.00921Q14.111,6.58164,13.37755,4.3136A1.44929,1.44929,0,0,0,11.99852,3.31Z"/></svg>