<svg width="32" height="32" viewBox="0 0 32 32" fill="none" xmlns="http://www.w3.org/2000/svg">
<path fill-rule="evenodd" clip-rule="evenodd" d="M0 2.34783C0 1.60345 0.59696 1 1.33333 1H30.6667C31.4031 1 32 1.60345 32 2.34783V21.2174C32 21.9618 31.4031 22.5652 30.6667 22.5652H1.33333C0.59696 22.5652 0 21.9618 0 21.2174V2.34783ZM2.66667 3.69565V19.8696H29.3333V3.69565H2.66667ZM12.8077 6.80083C13.1421 6.60944 13.5527 6.61467 13.8821 6.81453L20.5488 10.858C20.8701 11.0529 21.0667 11.4039 21.0667 11.7826C21.0667 12.1613 20.8701 12.5123 20.5488 12.7072L13.8821 16.7507C13.5527 16.9506 13.1421 16.9558 12.8077 16.7644C12.4733 16.5731 12.2667 16.2145 12.2667 15.8261V7.73913C12.2667 7.35066 12.4733 6.99222 12.8077 6.80083ZM14.4 13.9216L17.9268 11.7826L14.4 9.64361V13.9216ZM1.33333 26.6087C0.59696 26.6087 0 27.2121 0 27.9565C0 28.7009 0.59696 29.3043 1.33333 29.3043H12.2276C12.7767 30.8748 14.2584 32 16 32C17.7416 32 19.2233 30.8748 19.7724 29.3043H30.6667C31.4031 29.3043 32 28.7009 32 27.9565C32 27.2123 31.4031 26.6087 30.6667 26.6087H19.7724C19.2233 25.0383 17.7416 23.913 16 23.913C14.2584 23.913 12.7768 25.0382 12.2276 26.6087H1.33333ZM17.3333 27.9565C17.3333 27.2123 16.7364 26.6087 16 26.6087C15.2636 26.6087 14.6667 27.2123 14.6667 27.9565C14.6667 28.7009 15.2636 29.3043 16 29.3043C16.7364 29.3043 17.3333 28.7009 17.3333 27.9565Z"/>
</svg>
