<svg width="32" height="32" viewBox="0 0 32 32" fill="none" xmlns="http://www.w3.org/2000/svg">
<path fill-rule="evenodd" clip-rule="evenodd" d="M4 6C4 5.44772 4.44772 5 5 5H27C27.5523 5 28 5.44772 28 6V20C28 20.5523 27.5523 21 27 21H5C4.44772 21 4 20.5523 4 20V6ZM6 7V19H26V7H6ZM13.6058 9.30384C13.8566 9.16184 14.1645 9.16572 14.4116 9.31401L19.4116 12.314C19.6526 12.4586 19.8 12.719 19.8 13C19.8 13.281 19.6526 13.5414 19.4116 13.686L14.4116 16.686C14.1645 16.8343 13.8566 16.8382 13.6058 16.6962C13.355 16.5542 13.2 16.2882 13.2 16V10C13.2 9.71178 13.355 9.44584 13.6058 9.30384ZM14.8 14.587L17.4451 13L14.8 11.413V14.587ZM5 24C4.44772 24 4 24.4477 4 25C4 25.5523 4.44772 26 5 26H13.1707C13.5825 27.1652 14.6938 28 16 28C17.3062 28 18.4175 27.1652 18.8293 26H27C27.5523 26 28 25.5523 28 25C28 24.4478 27.5523 24 27 24H18.8293C18.4175 22.8349 17.3062 22 16 22C14.6938 22 13.5826 22.8348 13.1707 24H5ZM17 25C17 24.4478 16.5523 24 16 24C15.4477 24 15 24.4478 15 25C15 25.5523 15.4477 26 16 26C16.5523 26 17 25.5523 17 25Z" fill="#4364E8"/>
</svg>
