<svg id="Camada_1" data-name="Camada 1" xmlns="http://www.w3.org/2000/svg" viewBox="0 0 24 24"><defs><style>.cls-1{fill:#8cabc8;}.cls-2{fill:#fff;}</style></defs><title>tc-blue-white</title><rect class="cls-1" x="3.92114" y="3.92115" width="16.15779" height="16.15779" rx="4.594"/><path class="cls-2" d="M15.48493,4.53231a3.98275,3.98275,0,0,1,3.98276,3.98275v6.96978a3.98278,3.98278,0,0,1-3.98276,3.98285H8.51507a3.98278,3.98278,0,0,1-3.98276-3.98285V8.51506A3.98275,3.98275,0,0,1,8.51507,4.53231h6.96986m0-1.22231H8.51507A5.211,5.211,0,0,0,3.31,8.51506v6.96978A5.211,5.211,0,0,0,8.51507,20.69h6.96986A5.211,5.211,0,0,0,20.69,15.48484V8.51506A5.211,5.211,0,0,0,15.48493,3.31Z"/><path class="cls-2" d="M12.75723,14.01875a1.58723,1.58723,0,0,0,.85728,1.08024,4.52657,4.52657,0,0,0,1.83574.27467h.62185a1.04607,1.04607,0,0,0,1.04608-1.04608h0a.108.108,0,0,0-.108-.108H15.66093a3.20581,3.20581,0,0,1-1.21825-.14063.71408.71408,0,0,1-.38845-.53961,5.73576,5.73576,0,0,1-.149-1.5206,6.02392,6.02392,0,0,1,.149-1.55142.69434.69434,0,0,1,.38844-.52891,3.339,3.339,0,0,1,1.21822-.12872h.40847A1.04369,1.04369,0,0,0,17.11309,8.766h0a.10606.10606,0,0,0-.1058-.10606l-.12584-.0003c-1.89283,0-1.17164-.00476-1.42427-.00476a4.36674,4.36674,0,0,0-1.808.27849,1.63457,1.63457,0,0,0-.89008,1.079,7.1767,7.1767,0,0,0-.19611,2.0057A7.2026,7.2026,0,0,0,12.75723,14.01875Z"/><path class="cls-2" d="M11.885,8.65491H7.09171a.20991.20991,0,0,0-.2099.2099v.78113a.20989.20989,0,0,0,.20989.20989H8.61557v5.33982a.2099.2099,0,0,0,.2099.2099h0a1.1701,1.1701,0,0,0,1.17009-1.1701V9.95912a.1033.1033,0,0,1,.10329-.10329h.9073A1.09444,1.09444,0,0,0,12.09433,8.878.205.205,0,0,0,11.885,8.65491Z"/></svg>