<svg id="Camada_1" data-name="Camada 1" xmlns="http://www.w3.org/2000/svg" viewBox="0 0 24 24"><title>tc-icons-calendar</title><path d="M4.17391,8.95652H19.82609V6.34783a.86957.86957,0,0,0-.86957-.86957L17.217,5.47775l.00036.94254a.7971.7971,0,0,1-.7971.7971h-.14492a.7971.7971,0,0,1-.79711-.7971l-.00051-.94254H8.52145l.00029.94254a.7971.7971,0,0,1-.7971.7971H7.57971a.7971.7971,0,0,1-.7971-.7971l-.00044-.94254-1.73869.00051a.86957.86957,0,0,0-.86957.86957Zm0,1.73913V19.3913a.86957.86957,0,0,0,.86957.86957h13.913a.86957.86957,0,0,0,.86957-.86957V10.69565ZM7.72464,2a.79711.79711,0,0,1,.7971.7971l-.00029.94138h6.9563l.00051-.94138A.7971.7971,0,0,1,16.27537,2h.14492a.7971.7971,0,0,1,.7971.7971l-.00036.94138,1.73949.00065a2.6087,2.6087,0,0,1,2.6087,2.6087V19.3913A2.6087,2.6087,0,0,1,18.95652,22H5.04348a2.6087,2.6087,0,0,1-2.6087-2.6087V6.34783a2.6087,2.6087,0,0,1,2.6087-2.6087l1.73869-.00065.00044-.94138A.7971.7971,0,0,1,7.57971,2Z"/></svg>