<svg id="Camada_1" data-name="Camada 1" xmlns="http://www.w3.org/2000/svg" viewBox="0 0 24 24"><title>tc-icons-settings</title><path d="M12,10.79236A1.20764,1.20764,0,1,0,13.20764,12,1.20763,1.20763,0,0,0,12,10.79236ZM12,8.876A3.124,3.124,0,1,1,8.876,12,3.124,3.124,0,0,1,12,8.876ZM10.85545,5.87425l-.677.20782a6.1777,6.1777,0,0,0-2.4688,1.45678l-.5102.49075-.619-.3435L5.48769,7.07968l-1.11045,2.006,1.70723.9474-.14483.69147a6.28466,6.28466,0,0,0,0,2.551l.14484.69148-.61774.3428-1.0895.60461,1.11045,2.006,1.71175-.94991.5102.49072a6.17789,6.17789,0,0,0,2.46881,1.4568l.677.20782v1.95787h2.28911V18.12575l.677-.20782a6.17789,6.17789,0,0,0,2.46881-1.4568l.51021-.49072.619.34349,1.09278.60642,1.11044-2.006L17.91552,13.967l.14484-.69148a6.28466,6.28466,0,0,0,0-2.551l-.14483-.69147.61772-.3428,1.08951-.6046-1.11044-2.006-1.71176.94992-.5102-.49075a6.17788,6.17788,0,0,0-2.46881-1.45678l-.677-.20782V3.91638H10.85545Zm-1.91639-2.075A1.79753,1.79753,0,0,1,10.73835,2h2.5233a1.79752,1.79752,0,0,1,1.79928,1.79929v.69228a8.09239,8.09239,0,0,1,2.01888,1.19137l.60585-.3362a1.79774,1.79774,0,0,1,2.44656.70233l1.22191,2.20732a1.79559,1.79559,0,0,1-.69505,2.44585l-.60755.33715a8.2685,8.2685,0,0,1,0,1.92122l.60748.33712a1.79544,1.79544,0,0,1,.69542,2.44532L20.1319,17.95151a1.79764,1.79764,0,0,1-2.44631.70172L17.0798,18.317a8.09236,8.09236,0,0,1-2.01887,1.19138v.69228A1.79752,1.79752,0,0,1,13.26165,22h-2.5233a1.79753,1.79753,0,0,1-1.79929-1.79929v-.69228A8.09284,8.09284,0,0,1,6.9202,18.317l-.60586.33621a1.79774,1.79774,0,0,1-2.44655-.70233L2.64587,15.7436a1.79558,1.79558,0,0,1,.69505-2.44584l.60755-.33715a8.267,8.267,0,0,1,0-1.92122L3.341,10.70227A1.79544,1.79544,0,0,1,2.64557,8.257L3.8681,6.04849a1.79763,1.79763,0,0,1,2.44631-.70172l.60579.33617A8.09227,8.09227,0,0,1,8.93906,4.49157Z"/></svg>