<svg id="Camada_1" data-name="Camada 1" xmlns="http://www.w3.org/2000/svg" viewBox="0 0 24 24"><defs><style>.cls-1{fill-rule:evenodd;}</style></defs><title>tc-icons-comment</title><path class="cls-1" d="M13.37539,2.44282H10.62461A8.635,8.635,0,0,0,2,11.06744v9.55692a.84492.84492,0,0,0,.48974.86256.82147.82147,0,0,0,.32616.07026c.39641,0,.72256-.30308,1.119-.67641A3.71776,3.71776,0,0,1,5.96256,19.692h7.41283a8.62462,8.62462,0,0,0,0-17.24923m0,15.85077H5.96256a4.03277,4.03277,0,0,0-2.5641,1.21231V11.06744a7.23257,7.23257,0,0,1,7.22615-7.22616h2.75078a7.22616,7.22616,0,0,1,0,14.45231"/></svg>