<svg id="Camada_1" data-name="Camada 1" xmlns="http://www.w3.org/2000/svg" viewBox="0 0 24 24"><title>tc-icons-close</title><path d="M20.7258,3.51491a.93612.93612,0,0,1,0,1.32391l-7.1616,7.16052,7.1616,7.16184a.93614.93614,0,0,1,0,1.32392l-.24071.24071a.93614.93614,0,0,1-1.32391,0L12,13.56355,4.83882,20.72581a.93615.93615,0,0,1-1.32392,0l-.24071-.24071a.93615.93615,0,0,1,0-1.32392l7.16161-7.16184L3.27419,4.83882a.93614.93614,0,0,1,0-1.32391L3.5149,3.2742a.93614.93614,0,0,1,1.32392,0L12,10.43513,19.16118,3.2742a.93612.93612,0,0,1,1.32391,0Z"/></svg>