<svg width="32" height="32" viewBox="0 0 32 32" fill="none" xmlns="http://www.w3.org/2000/svg">
<path fill-rule="evenodd" clip-rule="evenodd" d="M8.28706 25.7129C7.89654 25.3224 7.89654 24.6892 8.28706 24.2987L10.237 22.3487C10.2367 22.3485 10.2364 22.3483 10.2361 22.3481L11.5504 21.0338C11.5508 21.034 11.5511 21.0341 11.5514 21.0343L14.1917 18.394C14.1914 18.3938 14.1912 18.3935 14.1909 18.3933L18.3933 14.1909C18.3936 14.1912 18.3938 14.1914 18.394 14.1917L21.1797 11.406C21.1794 11.4058 21.1791 11.4056 21.1788 11.4054L22.475 10.1092C22.4753 10.1094 22.4756 10.1096 22.476 10.1098L26.283 6.30272C26.6735 5.9122 27.3067 5.9122 27.6972 6.30272C28.0877 6.69324 28.0877 7.32641 27.6972 7.71693L24.0584 11.3558C25.4242 12.5728 26.738 14.1209 28 16C24.4183 21.3333 20.4183 24 16 24C14.6739 24 13.3855 23.7598 12.1348 23.2793L9.70128 25.7129C9.31075 26.1034 8.67759 26.1034 8.28706 25.7129ZM21.0619 9.25957C19.4404 8.41985 17.7532 8 16 8C11.5817 8 7.58172 10.6667 4 16C5.55182 18.3107 7.18215 20.1209 8.89101 21.4304L10.177 20.1444C8.9054 19.1969 7.66277 17.9195 6.44761 16.3002L6.22461 16L6.44761 15.6998C9.45567 11.6913 12.6321 9.77778 16 9.77778L16.2522 9.78137C17.4318 9.81502 18.5879 10.0853 19.7214 10.6001L21.0619 9.25957ZM17.1096 13.2119C16.7664 13.0752 16.392 13 16 13C14.3431 13 13 14.3431 13 16C13 16.392 13.0752 16.7664 13.2119 17.1096L17.1096 13.2119ZM15.7478 22.2186C15.0038 22.1974 14.2691 22.082 13.5436 21.8706L22.779 12.6351C23.7193 13.4688 24.6435 14.4887 25.5524 15.6998L25.7745 16L25.5524 16.3002C22.5443 20.3087 19.3678 22.2222 16 22.2222L15.7478 22.2186Z" />
</svg>
