<svg id="Camada_1" data-name="Camada 1" xmlns="http://www.w3.org/2000/svg" viewBox="0 0 24 24"><title>tc-icons-company</title><path d="M14.72727,5.63636V7.45455H12.90909V5.63636Zm-3.63636,0V7.45455H9.27273V5.63636Zm3.63636,2.72728v1.81818H12.90909V8.36364Zm-3.63636,0v1.81818H9.27273V8.36364Zm3.63636,2.72727v1.81818H12.90909V11.09091Zm-3.63636,0v1.81818H9.27273V11.09091Zm1.81818,9.09091V16.54545H11.09091v3.63637Zm4.54546,0V3.81818H6.54545V20.18182H9.27273V14.72727h5.45454v5.45455ZM17.45455,2a1.81818,1.81818,0,0,1,1.81818,1.81818V20.18182A1.81818,1.81818,0,0,1,17.45455,22H6.54545a1.81818,1.81818,0,0,1-1.81818-1.81818V3.81818A1.81818,1.81818,0,0,1,6.54545,2Z"/></svg>