<svg id="Camada_1" data-name="Camada 1" xmlns="http://www.w3.org/2000/svg" viewBox="0 0 24 24"><title>tc-icons-log-out</title><path d="M21.06161,12.90453,17.808,16.15817a.982.982,0,1,1-1.3887-1.38871l1.78854-1.78836-7.72815.00086a.982.982,0,0,1,0-1.96392l7.30634-.00085-1.36673-1.3663a.982.982,0,0,1,1.3887-1.3887l2.84953,2.84808a.98574.98574,0,0,1,.483.49422A.9825.9825,0,0,1,21.06161,12.90453ZM14.81174,3.16238a.982.982,0,0,1-.982.982H4.6147V19.85566h8.99081a.982.982,0,0,1,0,1.96392H3.63274a.982.982,0,0,1-.982-.982V3.16238a.982.982,0,0,1,.982-.982h10.197A.982.982,0,0,1,14.81174,3.16238Z"/></svg>