<svg id="Camada_1" data-name="Camada 1" xmlns="http://www.w3.org/2000/svg" viewBox="0 0 24 24"><title>tc-icons-lock</title><path d="M17.45455,11.09091H6.54545v9.09091h10.9091Zm-.9091-1.81818h.9091a1.81818,1.81818,0,0,1,1.81818,1.81818v9.09091A1.81818,1.81818,0,0,1,17.45455,22H6.54545a1.81818,1.81818,0,0,1-1.81818-1.81818V11.09091A1.81818,1.81818,0,0,1,6.54545,9.27273h.9091V6.09091A4.0909,4.0909,0,0,1,11.54545,2h.9091a4.09234,4.09234,0,0,1,4.00676,3.26142.72922.72922,0,0,1-.833.779.988.988,0,0,1-1.05316-.77888l-.00026.00946a2.27358,2.27358,0,0,0-2.12033-1.4528h-.9091A2.27273,2.27273,0,0,0,9.27273,6.09091V9.27273h7.27272Z"/></svg>