<svg id="Camada_1" data-name="Camada 1" xmlns="http://www.w3.org/2000/svg" viewBox="0 0 24 24"><title>tc-icons-hide</title><path d="M7.51221,15.00641a19.31177,19.31177,0,0,1-3.57343-3.86c2.32678-3.56451,5.2497-5.316,8.06134-5.33752a10.30635,10.30635,0,0,1,3.65686,1.025l1.1081-1.08038a9.25705,9.25705,0,0,0-4.765-1.46832c-3.47668,0-6.73187,2.0224-9.68017,6.40667L2,11.14642l.31995.45447a18.788,18.788,0,0,0,4.11187,4.486Z"/><path d="M10.35339,9.18781a2.55323,2.55323,0,0,0-.91333,1.95867l.00006-.00006a2.51325,2.51325,0,0,0,.46,1.44422L13.444,9.04675a2.51316,2.51316,0,0,0-1.44415-.46A2.54819,2.54819,0,0,0,10.35339,9.18781Z"/><path d="M21.68,10.69183c-.12628-.2619-1.3338-1.67035-2.2785-2.754l2.273-2.27308a.85445.85445,0,0,0,.10937-.13385.84338.84338,0,0,0,.07807-.14843.85367.85367,0,0,0,.01391-.59528.82367.82367,0,0,0-.53045-.5304.84542.84542,0,0,0-.87757.2013L18.27277,6.6532,6.59125,18.33466a.91522.91522,0,0,0-.2204.39349c-.00537.02142-.01178.04248-.0155.06415a.85.85,0,0,0,.98657.9848c.01752-.00305.03448-.00806.05182-.01221a.84472.84472,0,0,0,.40417-.22357l1.83625-1.83624a8.82242,8.82242,0,0,0,2.33831.34869c3.47626,0,6.76056-2.26739,9.70752-6.45282l.32-.45453Zm-9.65216,5.81055a6.67876,6.67876,0,0,1-1.11352-.07739l7.40307-7.40308a23.241,23.241,0,0,1,1.74378,2.12451C17.5213,14.58649,14.83923,16.50238,12.02783,16.50238Z"/></svg>