<svg id="Camada_1" data-name="Camada 1" xmlns="http://www.w3.org/2000/svg" xmlns:xlink="http://www.w3.org/1999/xlink" viewBox="0 0 24 24"><defs><style>.cls-1{clip-path:url(#clip-path);}.cls-2{isolation:isolate;}.cls-3{clip-path:url(#clip-path-2);}.cls-4{clip-path:url(#clip-path-3);}.cls-5{clip-path:url(#clip-path-4);}.cls-6{clip-path:url(#clip-path-6);}.cls-7{clip-path:url(#clip-path-8);}</style><clipPath id="clip-path"><path d="M2.13558,9.75809,12.048,1.6872l9.81647,8.07089V22.3128H2.13558Zm1.79353.85252v9.90866H20.07089V10.60538L12.04243,4.00456Z"/></clipPath><clipPath id="clip-path-2"><rect x="-2.34824" y="-2.79663" width="39.45767" height="40.35444"/></clipPath><clipPath id="clip-path-3"><rect x="2.13558" y="1.6872" width="19.72884" height="20.6256"/></clipPath><clipPath id="clip-path-4"><rect x="1.23882" y="1.6872" width="35.87061" height="35.87061"/></clipPath><clipPath id="clip-path-6"><path d="M8.41294,12.44838h7.17412V22.3128H8.41294Zm1.79353,1.79353v6.27736h3.58706V14.24191Z"/></clipPath><clipPath id="clip-path-8"><rect x="8.41294" y="12.44838" width="7.17412" height="9.86442"/></clipPath></defs><title>tc-icons-home</title><path d="M2.13558,9.75809,12.048,1.6872l9.81647,8.07089V22.3128H2.13558Zm1.79353.85252v9.90866H20.07089V10.60538L12.04243,4.00456Z"/><g class="cls-1"><g class="cls-2"><rect x="-2.34824" y="-2.79663" width="39.45767" height="40.35444"/><g class="cls-3"><rect x="2.13558" y="1.6872" width="19.72884" height="20.6256"/><g class="cls-4"><rect x="-2.34824" y="-2.79663" width="28.69649" height="29.59325"/></g><rect x="1.23882" y="1.6872" width="35.87061" height="35.87061"/><g class="cls-5"><rect x="2.13558" y="1.6872" width="19.72884" height="20.6256"/><g class="cls-4"><rect x="-3.24501" y="-2.79663" width="44.83826" height="44.83826"/></g></g></g></g></g><path d="M8.41294,12.44838h7.17412V22.3128H8.41294Zm1.79353,1.79353v6.27736h3.58706V14.24191Z"/><g class="cls-6"><g class="cls-2"><rect x="1.23882" y="1.6872" width="35.87061" height="35.87061"/><g class="cls-5"><rect x="8.41294" y="12.44838" width="7.17412" height="9.86442"/><g class="cls-7"><rect x="3.92911" y="7.96456" width="16.14177" height="18.83207"/></g><rect x="1.23882" y="1.6872" width="35.87061" height="35.87061"/><g class="cls-5"><rect x="8.41294" y="12.44838" width="7.17412" height="9.86442"/><g class="cls-7"><rect x="-3.24501" y="-2.79663" width="44.83826" height="44.83826"/></g></g></g></g></g></svg>