<svg width="24" height="24" viewBox="0 0 24 24" fill="none" xmlns="http://www.w3.org/2000/svg">
    <path fill-rule="evenodd" clip-rule="evenodd" d="M11.9998 0C12.0093 0 12.0188 0.000133033 12.0282 0.000397343C18.6431 0.0153049 24.0008 5.38226 24.0008 12.0006C24.0008 18.6281 18.6281 24.0008 12.0006 24.0008C5.38227 24.0008 0.0153187 18.6431 0.00039645 12.0282C0.000132734 12.0188 0 12.0093 0 11.9998C0 11.9903 0.000134055 11.9807 0.000400387 11.9712C0.0162111 5.36701 5.36692 0.0162671 11.9711 0.000401585C11.9806 0.000134457 11.9902 0 11.9998 0ZM10.9998 7V2.04982C6.27586 2.51923 2.51919 6.27592 2.04982 10.9998H7C7.55228 10.9998 8 11.4475 8 11.9998C8 12.5521 7.55228 12.9998 7 12.9998H2.04966C2.51837 17.7245 6.27537 21.4819 10.9998 21.9514L11 17C11 16.4477 11.4478 16 12 16C12.5523 16 13 16.4478 13 17L12.9998 21.9515C17.7249 21.4828 21.4827 17.7251 21.9515 13H17C16.4477 13 16 12.5523 16 12C16 11.4477 16.4477 11 17 11H21.9514C21.482 6.27546 17.7245 2.51835 12.9998 2.04966V7C12.9998 7.55228 12.552 8 11.9998 8C11.4475 8 10.9998 7.55228 10.9998 7Z"/>
</svg>