<svg xmlns="http://www.w3.org/2000/svg" width="32" height="32" fill="none" viewBox="0 0 32 32">
  <path  fill-rule="evenodd" d="M6 16c0-5.523 4.477-10 10-10s10 4.477 10 10-4.477 10-10 10S6 21.523 6 16zM16 4C9.373 4 4 9.373 4 16s5.373 12 12 12 12-5.373 12-12S22.627 4 16 4zm.824 16.502c1.337-.34 2.175-1.384 2.175-2.645.025-1.375-.724-2.227-2.359-2.88-1.143-.476-1.442-.732-1.442-1.147 0-.443.325-.76 1.023-.76.46 0 .84.09 1.19.25.106.05.182.09.326.172a.436.436 0 00.623-.222l.338-.898a.426.426 0 00-.198-.525 4.294 4.294 0 00-1.57-.496v-.922a.431.431 0 00-.434-.429h-.866a.431.431 0 00-.434.429v1.013c-1.251.342-2.07 1.309-2.07 2.534 0 1.309.816 2.087 2.535 2.757.92.379 1.267.725 1.267 1.208 0 .526-.457.906-1.192.906a3.307 3.307 0 01-1.727-.514.436.436 0 00-.645.212l-.338.918a.426.426 0 00.16.498c.482.332 1.185.57 1.905.652v.958c0 .237.194.429.434.429h.866c.24 0 .433-.192.433-.429v-1.069z" clip-rule="evenodd"/>
</svg>