<svg id="Camada_1" data-name="Camada 1" xmlns="http://www.w3.org/2000/svg" viewBox="0 0 24 24"><defs><style>.cls-1{fill-rule:evenodd;}</style></defs><title>tc-icons-notification</title><path class="cls-1" d="M20.47172,18.36094l-.93511-1.91061a8.25508,8.25508,0,0,1-.81756-3.57714V10.69335a6.65211,6.65211,0,0,0-5.20236-6.51261h-.75923V2H11.24171V4.1601l-.78794.00269a6.64844,6.64844,0,0,0-5.17364,6.52966v2.18074a8.25741,8.25741,0,0,1-.8382,3.59778l-.91358,1.89087a.75678.75678,0,0,0,.682,1.085H8.87611A3.1905,3.1905,0,0,0,11.99286,22a3.22528,3.22528,0,0,0,.53128-.04487,3.1876,3.1876,0,0,0,2.59984-2.5083h4.66571a.757.757,0,0,0,.75652-.75833A.77008.77008,0,0,0,20.47172,18.36094Zm-6.90657,1.08589a1.65291,1.65291,0,0,1-3.13112,0Zm4.628-2.31895.385.8041H5.42461l.40294-.8041a9.80217,9.80217,0,0,0,.96833-4.25469V10.69156a5.0935,5.0935,0,0,1,3.91636-5.01571l2.54509-.00359a5.09373,5.09373,0,0,1,3.946,5.0193v2.18253A9.81677,9.81677,0,0,0,18.19317,17.12788Z"/></svg>