<svg id="Camada_1" data-name="Camada 1" xmlns="http://www.w3.org/2000/svg" viewBox="0 0 24 24"><title>tc-icons-wealth</title><path d="M19.41828,12.08813A4.55082,4.55082,0,0,0,12.99077,5.644c-.17357.17413-.2419.25819-.24049.25585l-.6381,1.06083-.78709-.95552c-.04578-.05557-.119-.14248-.19347-.22731-.06391-.07219-.1-.11127-.12183-.13327a4.55082,4.55082,0,1,0-6.4281,6.44355L12,19.51847ZM20.657,4.40827a6.31318,6.31318,0,0,1-.0002,8.91623L12.95,21.0438a1.33943,1.33943,0,0,1-1.8989.00113L3.34318,13.3245A6.30108,6.30108,0,0,1,11.9999,4.17255,6.29007,6.29007,0,0,1,20.657,4.40827Z"/></svg>