<svg id="Camada_1" data-name="Camada 1" xmlns="http://www.w3.org/2000/svg" viewBox="0 0 24 24"><title>tc-icons-financing</title><path d="M12.67592,5.7555a.4509.4509,0,0,1,.45336.44838v.96456a4.48492,4.48492,0,0,1,1.64122.51972.44616.44616,0,0,1,.20661.54927l-.35311.939a.45528.45528,0,0,1-.65042.23268c-.15123-.08576-.23072-.12823-.34209-.17937a2.8878,2.8878,0,0,0-1.24242-.2631c-.72948,0-1.0698.33266-1.0698.79593,0,.43417.31255.70231,1.50765,1.20057,1.70833.68212,2.49084,1.57414,2.46549,3.01266a2.84343,2.84343,0,0,1-2.273,2.767V17.8614a.45089.45089,0,0,1-.45336.44838h-.905a.45088.45088,0,0,1-.45336-.44838V16.85918a4.56029,4.56029,0,0,1-1.99053-.682A.44565.44565,0,0,1,9.05,15.65592l.35311-.96061a.45537.45537,0,0,1,.67392-.22225,3.45346,3.45346,0,0,0,1.80456.53844c.76881,0,1.24594-.3975,1.24594-.94856,0-.50513-.36259-.86736-1.32419-1.26353-1.79669-.70077-2.64894-1.51509-2.64894-2.88417A2.74192,2.74192,0,0,1,11.31756,7.264V6.20388a.45089.45089,0,0,1,.45336-.44838Zm-.55651-2.72315A8.9682,8.9682,0,1,0,21.18657,12,9.01781,9.01781,0,0,0,12.11941,3.03235Zm0-1.79353A10.82137,10.82137,0,0,1,23,12,10.88125,10.88125,0,0,1,1.23882,12,10.82137,10.82137,0,0,1,12.11941,1.23882Z"/></svg>