<svg width="32" height="32" viewBox="0 0 32 32" fill="none" xmlns="http://www.w3.org/2000/svg">
<path fill-rule="evenodd" clip-rule="evenodd" d="M16 8C20.4183 8 24.4183 10.6667 28 16C24.4183 21.3333 20.4183 24 16 24C11.5817 24 7.58172 21.3333 4 16C7.58172 10.6667 11.5817 8 16 8ZM16 9.77778C12.6321 9.77778 9.45567 11.6913 6.44761 15.6998L6.22461 16L6.44761 16.3002C9.38047 20.2085 12.4734 22.1252 15.7478 22.2186L16 22.2222C19.3678 22.2222 22.5443 20.3087 25.5524 16.3002L25.7745 16L25.5524 15.6998C22.6195 11.7915 19.5266 9.87477 16.2522 9.78138L16 9.77778ZM16 19C17.6569 19 19 17.6569 19 16C19 14.3431 17.6569 13 16 13C14.3431 13 13 14.3431 13 16C13 17.6569 14.3431 19 16 19Z" />
</svg>
