<svg id="Camada_1" data-name="Camada 1" xmlns="http://www.w3.org/2000/svg" viewBox="0 0 24 24"><title>tc-icons-locked</title><path d="M12.45455,3.81818h-.9091A2.27273,2.27273,0,0,0,9.27273,6.09091V9.27273h5.45454V6.09091A2.27273,2.27273,0,0,0,12.45455,3.81818Zm5,7.27273H6.54545v9.09091h10.9091ZM12.45455,2a4.0909,4.0909,0,0,1,4.0909,4.09091V9.27273h.9091a1.81818,1.81818,0,0,1,1.81818,1.81818v9.09091A1.81818,1.81818,0,0,1,17.45455,22H6.54545a1.81818,1.81818,0,0,1-1.81818-1.81818V11.09091A1.81818,1.81818,0,0,1,6.54545,9.27273h.9091V6.09091A4.0909,4.0909,0,0,1,11.54545,2Z"/></svg>