<svg width="32" height="32" viewBox="0 0 32 32" fill="none" xmlns="http://www.w3.org/2000/svg">
<path fill-rule="evenodd" clip-rule="evenodd" d="M26.2857 25.1429C26.2857 25.7737 25.7737 26.2857 25.1429 26.2857H11.4286V5.71431H25.1429C25.7737 5.71431 26.2857 6.22631 26.2857 6.85716V25.1429ZM5.71429 26.2857H9.14286V5.71431H5.71429V26.2857ZM25.1429 3.42859H3.42859V28.5714H9.14287H11.4286H25.1429C27.0366 28.5714 28.5714 27.0366 28.5714 25.1429V6.85716C28.5714 4.96345 27.0366 3.42859 25.1429 3.42859Z" />
<mask id="mask0" mask-type="alpha" maskUnits="userSpaceOnUse" x="3" y="3" width="26" height="26">
<path fill-rule="evenodd" clip-rule="evenodd" d="M26.2857 25.1429C26.2857 25.7737 25.7737 26.2857 25.1429 26.2857H11.4286V5.71431H25.1429C25.7737 5.71431 26.2857 6.22631 26.2857 6.85716V25.1429ZM5.71429 26.2857H9.14286V5.71431H5.71429V26.2857ZM25.1429 3.42859H3.42859V28.5714H9.14287H11.4286H25.1429C27.0366 28.5714 28.5714 27.0366 28.5714 25.1429V6.85716C28.5714 4.96345 27.0366 3.42859 25.1429 3.42859Z"/>
</mask>
<g mask="url(#mask0)">
<rect x="-10.2858" y="-8" width="45.7143" height="45.7143" />
</g>
<path fill-rule="evenodd" clip-rule="evenodd" d="M16 9.14282H21.7143C22.3452 9.14282 22.8572 9.65482 22.8572 10.2857C22.8572 10.9165 22.3452 11.4285 21.7143 11.4285H16C15.3692 11.4285 14.8572 10.9165 14.8572 10.2857C14.8572 9.65482 15.3692 9.14282 16 9.14282ZM16 14.8571H21.7143C22.3452 14.8571 22.8572 15.3691 22.8572 16C22.8572 16.6308 22.3452 17.1428 21.7143 17.1428H16C15.3692 17.1428 14.8572 16.6308 14.8572 16C14.8572 15.3691 15.3692 14.8571 16 14.8571Z" />
<mask id="mask1" mask-type="alpha" maskUnits="userSpaceOnUse" x="14" y="9" width="9" height="9">
<path fill-rule="evenodd" clip-rule="evenodd" d="M16 9.14282H21.7143C22.3452 9.14282 22.8572 9.65482 22.8572 10.2857C22.8572 10.9165 22.3452 11.4285 21.7143 11.4285H16C15.3692 11.4285 14.8572 10.9165 14.8572 10.2857C14.8572 9.65482 15.3692 9.14282 16 9.14282ZM16 14.8571H21.7143C22.3452 14.8571 22.8572 15.3691 22.8572 16C22.8572 16.6308 22.3452 17.1428 21.7143 17.1428H16C15.3692 17.1428 14.8572 16.6308 14.8572 16C14.8572 15.3691 15.3692 14.8571 16 14.8571Z"/>
</mask>
<g mask="url(#mask1)">
<rect x="-10.2856" y="-8" width="45.7143" height="45.7143" />
</g>
</svg>
