<svg id="Camada_1" data-name="Camada 1" xmlns="http://www.w3.org/2000/svg" viewBox="0 0 24 24"><title>tc-small-clessidre</title><path d="M15,6H9V9.18389L11.89017,10.876a1.001,1.001,0,0,1,.2205.0001L15,9.18389Zm-2.88933,7.09386a1.001,1.001,0,0,1-.2205.0001L9,14.78608V18h6V14.78608ZM18,4V6H17V9.75708a1,1,0,0,1-.39694.79771l-.09765.06516L14.174,11.985l2.33141,1.365a1,1,0,0,1,.48771.74569L17,14.21289V18h1v2H6V18H7V14.21289a1,1,0,0,1,.39694-.79771L7.49459,13.35,9.825,11.985,7.49459,10.62a1,1,0,0,1-.48771-.74568L7,9.75708V6H6V4Z"/></svg>