<svg id="Camada_1" data-name="Camada 1" xmlns="http://www.w3.org/2000/svg" viewBox="0 0 24 24"><title>tc-small-settings</title><path d="M11.94974,8a4,4,0,1,0,4,4A4,4,0,0,0,11.94974,8ZM13.37,5a2.65559,2.65559,0,0,0,2.6687,2.66871,2.69174,2.69174,0,0,0,1.34149-.35678l1.37,2.38328a2.68,2.68,0,0,0-.98471,3.63914,2.87375,2.87375,0,0,0,.95616.98471l-1.37,2.38328a2.66877,2.66877,0,0,0-3.63915.97044A2.61122,2.61122,0,0,0,13.35576,19H10.60143A2.65254,2.65254,0,0,0,7.947,16.3313a2.59988,2.59988,0,0,0-1.32721.35677l-1.37-2.38328a2.64656,2.64656,0,0,0,0-4.60958L6.63405,7.31193a2.67214,2.67214,0,0,0,3.63914-.97044A2.7008,2.7008,0,0,0,10.63,5Z"/></svg>