<svg id="Camada_1" data-name="Camada 1" xmlns="http://www.w3.org/2000/svg" viewBox="0 0 24 24"><title>tc-text-editor-underline</title><path d="M7.77735,2V12.38315a4.09891,4.09891,0,0,0,1.08726,3.06,4.38219,4.38219,0,0,0,3.19827,1.06858A4.23029,4.23029,0,0,0,15.164,15.43943a4.1276,4.1276,0,0,0,1.08727-3.075V2h1.83825V12.29721a5.61151,5.61151,0,0,1-1.644,4.27805,6.28811,6.28811,0,0,1-4.51717,1.55431,6.02123,6.02123,0,0,1-4.44618-1.56925,5.81348,5.81348,0,0,1-1.573-4.30794V2ZM4.95218,20.42427l14.10425.08124L19.04782,22,4.94357,21.91876Z"/></svg>