<svg id="Camada_1" data-name="Camada 1" xmlns="http://www.w3.org/2000/svg" viewBox="0 0 24 24"><title>tc-text-editor-quote</title><path d="M6.73812,6.22286A3.366,3.366,0,0,0,3.37618,9.5848a2.54835,2.54835,0,0,0,2.26054,2.68148,2.75852,2.75852,0,0,0,.29577.03131,3.00362,3.00362,0,0,1,.60888.08862c.041.011.08114.02324.12011.03665a1.16324,1.16324,0,0,1,.83443.893c.14472.77787-.5147,1.63741-1.56368,2.51481A11.23088,11.23088,0,0,1,4.183,17.001l-.17016.09282c-.50244.27152-.62887.38527-.63179.53826-.0018.10784.01014.14757-.01093.13372a1.3707,1.3707,0,0,0,.71035-.09318c.1234-.03677.25442-.08125.39193-.1323.17205-.06388.30544-.1184.5161-.2079l.106-.04487A8.25248,8.25248,0,0,0,10.10006,9.5848,3.32327,3.32327,0,0,0,6.73812,6.22286Zm10.52376,0A3.366,3.366,0,0,0,13.89994,9.5848a2.54848,2.54848,0,0,0,2.26091,2.68155,2.71539,2.71539,0,0,0,.29438.03122l.12044.01006a2.511,2.511,0,0,1,.50263.08261c.03586.00994.07109.02083.10532.03262a1.16106,1.16106,0,0,1,.83442.893c.14477.7773-.51487,1.63748-1.5626,2.51383a11.13415,11.13415,0,0,1-1.74913,1.17116l-.17188.09411c-.50134.26963-.62792.38359-.63048.53719-.0018.10784.01014.14757-.01106.13363.12043.08218.703-.04359,1.62013-.43329l.10607-.04488A8.252,8.252,0,0,0,20.62382,9.5848,3.32327,3.32327,0,0,0,17.26188,6.22286ZM6.73812,4.84668A4.69047,4.69047,0,0,1,11.47624,9.5848a9.62067,9.62067,0,0,1-5.8457,8.97134l-.10333.04463c-.22487.095-.32257.13538-.46393.19034a5.93324,5.93324,0,0,1-.96551.29681,3.00049,3.00049,0,0,1-.59611.0654,1.57148,1.57148,0,0,1-.9013-.24658,1.43962,1.43962,0,0,1-.59546-1.298,1.75136,1.75136,0,0,1,.99825-1.5243c.10274-.06272.1839-.108.35465-.20007l.15616-.08524a9.80072,9.80072,0,0,0,1.535-1.024,6.85056,6.85056,0,0,0,1.03676-1.0794c-.05913-.00862-.13627-.0159-.2461-.02429l-.01254-.001a3.51494,3.51494,0,0,1-.44223-.051A3.94752,3.94752,0,0,1,2,9.5848,4.74354,4.74354,0,0,1,6.73812,4.84668Zm10.52376,0A4.69047,4.69047,0,0,1,22,9.5848a9.61976,9.61976,0,0,1-5.8457,8.97134l-.10333.04463c-.2232.09425-.32252.13533-.46413.19036a5.94784,5.94784,0,0,1-.96383.29636,3.00618,3.00618,0,0,1-.5984.06583,1.574,1.574,0,0,1-.9013-.24658,1.43971,1.43971,0,0,1-.59464-1.29832,1.75285,1.75285,0,0,1,.99727-1.52325c.10253-.0627.18383-.1081.35356-.1998l.15741-.08629a9.85041,9.85041,0,0,0,1.5356-1.0238,6.90642,6.90642,0,0,0,1.036-1.07962c-.059-.00859-.13585-.01587-.24531-.02426l-.01226-.00094a3.48526,3.48526,0,0,1-.44238-.051A3.9482,3.9482,0,0,1,12.52376,9.5848,4.74354,4.74354,0,0,1,17.26188,4.84668Z"/></svg>