<svg id="Camada_1" data-name="Camada 1" xmlns="http://www.w3.org/2000/svg" viewBox="0 0 24 24"><title>tc-text-editor-link</title><path d="M13.82058,3.35832a4.55363,4.55363,0,0,1,6.40564.0036l.45885.45888a4.55363,4.55363,0,0,1-.0036,6.40563L18.03189,12.876l-1.28766-1.28764,2.646-2.646a2.73043,2.73043,0,0,0,.0036-3.83758l-.45163-.45164a2.74051,2.74051,0,0,0-3.867.02455c-.03221.02945-.09351.08576-.17974.16536-.14418.13313-.305.28248-.47818.44447-.49461.46259-.98909.93335-1.44965,1.38342q-.11859.11588-.23234.22818a19.98121,19.98121,0,0,0-1.59977,1.70866c-1.14486,1.48951-1.104,1.95889.76869,4.82435l-1.52436.99621C8.12288,10.975,8.01058,9.68525,9.68833,7.50246a20.88485,20.88485,0,0,1,1.76755-1.89919q.11707-.11557.239-.2347c.47112-.46039.97487-.94,1.47849-1.411.17617-.16477.3398-.31676.48676-.45244C13.7486,3.42346,13.81207,3.36515,13.82058,3.35832Zm-.20011,6.21329c2.25693,3.45344,2.36923,4.74314.69147,6.92593a20.88323,20.88323,0,0,1-1.76755,1.89919q-.11707.11557-.239.2347c-.47112.46039-.97487.94-1.47849,1.411-.17617.16477-.33981.31676-.48677.45244-.08846.08168-.15194.14-.16046.14682a4.55363,4.55363,0,0,1-6.40563-.0036l-.45885-.45888a4.553,4.553,0,0,1,.0014-6.40342L5.96619,11.108l1.292,1.28324L4.61007,15.0576a2.73043,2.73043,0,0,0-.00361,3.83757l.45163.45165a2.74051,2.74051,0,0,0,3.867-.02455c.03222-.02945.09352-.08576.17974-.16536.14419-.13313.305-.28247.47819-.44447.49461-.46259.98909-.93335,1.44965-1.38341q.11857-.11589.23234-.22818a19.98355,19.98355,0,0,0,1.59976-1.70867c1.14487-1.48951,1.104-1.95889-.76867-4.82435Z"/></svg>