<svg id="Camada_1" data-name="Camada 1" xmlns="http://www.w3.org/2000/svg" viewBox="0 0 24 24"><title>tc-text-editor-image</title><path d="M17.67779,7.2578a.51089.51089,0,1,0,.51089.51089A.51089.51089,0,0,0,17.67779,7.2578Zm0-1.25373a1.76462,1.76462,0,1,1-1.76461,1.76462A1.76462,1.76462,0,0,1,17.67779,6.00407Zm2.15366-.82118H4.16855a.83333.83333,0,0,0-.83334.83333l-.00021,9.609L9.08056,9.88034l.47207.47239,4.58219,4.58533.746.746-.94414.94414-.74612-.74613L9.08023,11.76894,3.335,17.51351l.00021.47027a.83333.83333,0,0,0,.83334.83333h15.6629a.83332.83332,0,0,0,.83333-.83333l-.00061-1.81944-4.06145-4.0614-2.10493,2.10493-.88651-.88651,2.99144-2.99145,4.06145,4.0611.00061-8.37479A.83332.83332,0,0,0,19.83145,5.18289Zm.50188-1.33522A1.66667,1.66667,0,0,1,22,5.51434V18.48566a1.66667,1.66667,0,0,1-1.66667,1.66667H3.66667A1.66667,1.66667,0,0,1,2,18.48566V5.51434A1.66667,1.66667,0,0,1,3.66667,3.84767Z"/></svg>