<svg id="Camada_1" data-name="Camada 1" xmlns="http://www.w3.org/2000/svg" viewBox="0 0 24 24"><title>tcnews</title><path d="M20.62317,13.70164H17.65392V3.88272a.57488.57488,0,0,0-.57488-.57488H3.37682a.57488.57488,0,0,0-.57488.57488V18.03047a2.66456,2.66456,0,0,0,2.66169,2.66169H18.85254a2.34838,2.34838,0,0,0,2.34552-2.35123l0-.00577V14.27652A.57487.57487,0,0,0,20.62317,13.70164ZM5.46363,19.5309A1.51479,1.51479,0,0,1,3.9517,18.03047V4.4576H16.50416V18.33516a2.32825,2.32825,0,0,0,.33056,1.19574Zm14.58466-1.19574a1.19862,1.19862,0,0,1-2.39437,0V14.8514h2.39437ZM14.03219,7.50445a.57488.57488,0,0,1-.57488.57488H6.29145a.57488.57488,0,1,1,0-1.14976h7.16586A.57489.57489,0,0,1,14.03219,7.50445Zm0,3.73671a.57488.57488,0,0,1-.57488.57488H6.29145a.57488.57488,0,1,1,0-1.14976h7.16586a.5749.5749,0,0,1,.57491.57485l0,.00578Zm-3.70668,3.73671a.57488.57488,0,0,1-.57488.57488H6.29145a.57488.57488,0,1,1,0-1.14976H9.75063a.57488.57488,0,0,1,.57494.57481l-.00006.00869Z"/></svg>