<svg id="Camada_1" data-name="Camada 1" xmlns="http://www.w3.org/2000/svg" viewBox="0 0 24 24"><title>terminal-relatorio</title><path d="M17.79467,2.17979H2.16146a.55949.55949,0,0,0-.55881.55905V18.88025a2.94767,2.94767,0,0,0,2.93973,2.94H19.81826a2.58558,2.58558,0,0,0,2.57909-2.58571v-4.637a.55953.55953,0,0,0-.559-.559H18.35372V2.73884A.55954.55954,0,0,0,17.79467,2.17979ZM4.54214,20.68935a1.83183,1.83183,0,0,1-1.82163-1.80816V3.29788H17.23586v15.93a2.56156,2.56156,0,0,0,.36324,1.31485l.088.14662Zm16.73735-5.53324-.00024,4.0765A1.46419,1.46419,0,0,1,19.819,20.625c-.0246,0-.04919-.00047-.074-.00142a1.45883,1.45883,0,0,1-1.391-1.391l-.00023-4.0765Z"/><path d="M13.6626,6.3121H5.48689a.55881.55881,0,1,0,0,1.11762H13.6626a.55881.55881,0,1,0,0-1.11762Z"/><path d="M13.6626,10.57542H5.48689a.55881.55881,0,1,0,0,1.11762H13.6626a.55881.55881,0,1,0,0-1.11762Z"/><path d="M9.43356,14.83875H5.48689a.55881.55881,0,1,0,0,1.11762H9.43356a.55881.55881,0,1,0,0-1.11762Z"/></svg>