<svg id="Camada_1" data-name="Camada 1" xmlns="http://www.w3.org/2000/svg" viewBox="0 0 24 24"><title>terminal-trad3</title><path d="M13.028,4.07a1.47949,1.47949,0,0,0,.2199-.76943,1.49547,1.49547,0,1,0-2.7322.83909A9.07278,9.07278,0,1,0,13.028,4.07ZM11.7523,2.70229a.598.598,0,1,1-.5978.59823A.59867.59867,0,0,1,11.7523,2.70229ZM12,21.2859a8.18427,8.18427,0,1,1,8.18427-8.18427A8.18374,8.18374,0,0,1,12,21.2859Z"/><path d="M15.02241,9.49584,7.72289,12.41556a.44888.44888,0,0,0,.07867.85681l3.35645.671.30635,1.53174c.18714.93569.29407,1.47081.38414,1.77672a.24676.24676,0,0,0,.0493.21168.44055.44055,0,0,0,.069.07977c.07735.11745.16369.11745.30262.11745a.44924.44924,0,0,0,.41723-.28356c.02871-.07231,2.91928-7.298,2.91928-7.298a.449.449,0,0,0-.58355-.58333Zm-1.70989,3.89968c-.39.97514-.68194,1.70485-.898,2.25356-.20248-1.0124-.435-2.17511-.435-2.17511a.44882.44882,0,0,0-.35193-.35193L9.4582,12.68816l4.92544-1.97Z"/></svg>