<svg id="Camada_1" data-name="Camada 1" xmlns="http://www.w3.org/2000/svg" viewBox="0 0 24 24"><title>terminal-podcasts</title><path d="M12.00011,16.18271a4.96188,4.96188,0,0,1-4.66593-5.20264V6.2465a4.96229,4.96229,0,0,1,4.66593-5.20308A4.96226,4.96226,0,0,1,16.66582,6.2465v4.73357A4.96185,4.96185,0,0,1,12.00011,16.18271Zm0-14.00751A3.83567,3.83567,0,0,0,8.466,6.2465v4.73357a3.83554,3.83554,0,0,0,3.53415,4.07087A3.83552,3.83552,0,0,0,15.534,10.98007V6.2465A3.83565,3.83565,0,0,0,12.00011,2.1752Z"/><path d="M12,19.4211c-4.10048,0-7.43635-2.72378-7.43635-6.07225a.56589.56589,0,1,1,1.13177,0c0,2.72422,2.82812,4.94047,6.30458,4.94047s6.30458-2.21625,6.30458-4.94047a.56589.56589,0,1,1,1.13177,0C19.43635,16.69732,16.10048,19.4211,12,19.4211Z"/><path d="M12,22.95658a.56584.56584,0,0,1-.56589-.56589V18.85123a.56589.56589,0,0,1,1.13178,0v3.53946A.56584.56584,0,0,1,12,22.95658Z"/></svg>