<svg id="Camada_1" data-name="Camada 1" xmlns="http://www.w3.org/2000/svg" viewBox="0 0 24 24"><title>terminal-master</title><path d="M16.6709,2.17694a6.3264,6.3264,0,0,0-6.456,3.4693H9.10748a7.30865,7.30865,0,0,0-7.30041,7.30042v8.33715c0,.40589.21576.51856.28174.54352a.51048.51048,0,0,0,.20623.04627c.26081,0,.52118-.24506.8227-.52906a3.3822,3.3822,0,0,1,1.92273-1.09741h6.46637a7.30564,7.30564,0,0,0,7.20233-6.15784,6.36909,6.36909,0,0,0,1.03259-.64721A6.319,6.319,0,0,0,16.6709,2.17694Zm-5.16406,17.2973H5.04047a3.32043,3.32043,0,0,0-2.08789,1.00049l-.37268.33246V12.94666A6.53528,6.53528,0,0,1,9.10748,6.41907h.78058a6.31884,6.31884,0,0,0,5.18775,8.2948,6.41413,6.41413,0,0,0,.81042.05157,6.25775,6.25775,0,0,0,1.96069-.31628A6.5289,6.5289,0,0,1,11.50684,19.47424ZM21.47626,9.15839A5.64806,5.64806,0,1,1,15.8692,2.7973a5.65,5.65,0,0,1,5.60706,6.36109Z"/><path d="M17.949,11.4295q-.4-1.22124-.79924-2.44245,1.04109-.75286,2.08219-1.50655l-2.57.005Q16.268,6.263,15.8726,5.0405q-.39387,1.22248-.78934,2.445-1.28457-.00246-2.56917-.005,1.04109.75406,2.08135,1.50655-.39878,1.22124-.7984,2.44245,1.03732-.75783,2.07556-1.51484Q16.91119,10.67252,17.949,11.4295Z"/></svg>