<svg id="Camada_1" data-name="Camada 1" xmlns="http://www.w3.org/2000/svg" viewBox="0 0 24 24"><title>termina-tcschool</title><path d="M5.81477,2.03666c-1.27344,0-2.55839.37769-2.55839,1.22143V18.24716c0,3.4036.43007,3.71618,5.11348,3.71618H20.74362V4.1492h-1.837V2.03666ZM4.14834,3.2953l.02436-.01885a3.12866,3.12866,0,0,1,1.64207-.3477H18.17911V4.14944H5.81477a3.13041,3.13041,0,0,1-1.64207-.3477L4.14834,3.783ZM19.85117,5.04091V21.07162H8.36986c-2.35339,0-3.47593-.07294-3.907-.50571-.32384-.32579-.3209-.92427-.316-1.9161L4.1481,4.7724l.08334.02925a4.94462,4.94462,0,0,0,1.583.23926Z"/><path d="M14.21962,18.25474H9.73142A3.00675,3.00675,0,0,1,6.728,15.25147V10.76315A3.00675,3.00675,0,0,1,9.73142,7.75988h4.4882a3.00668,3.00668,0,0,1,3.0034,3.00327v4.48832A3.00668,3.00668,0,0,1,14.21962,18.25474ZM9.73142,8.63715a2.1285,2.1285,0,0,0-2.12612,2.126v4.48832a2.12842,2.12842,0,0,0,2.12612,2.126h4.4882a2.1285,2.1285,0,0,0,2.12612-2.126V10.76315a2.12858,2.12858,0,0,0-2.12612-2.126Z"/><path d="M12.46316,14.30734a1.02206,1.02206,0,0,0,.552.69562,2.91485,2.91485,0,0,0,1.18212.17688h.40045a.67364.67364,0,0,0,.67363-.67363h0a.06953.06953,0,0,0-.06953-.06953H14.333a2.06472,2.06472,0,0,1-.7845-.09055.45981.45981,0,0,1-.25014-.34748,3.69308,3.69308,0,0,1-.096-.97921,3.87887,3.87887,0,0,1,.096-.999.44707.44707,0,0,1,.25014-.34059,2.1501,2.1501,0,0,1,.78448-.08289h.263a.67209.67209,0,0,0,.67209-.67209h0a.0683.0683,0,0,0-.06813-.0683l-.081-.00019c-1.21889,0-.75448-.00307-.91716-.00307a2.81191,2.81191,0,0,0-1.16428.17934,1.0526,1.0526,0,0,0-.57317.69484,4.62153,4.62153,0,0,0-.12629,1.29158A4.63782,4.63782,0,0,0,12.46316,14.30734Z"/><path d="M11.9015,10.85327H8.81481a.13516.13516,0,0,0-.13516.13516v.503a.13516.13516,0,0,0,.13516.13516h.9813v3.4386a.13516.13516,0,0,0,.13517.13516h0a.75349.75349,0,0,0,.75349-.75349V11.69312a.06651.06651,0,0,1,.06651-.06651h.58426a.70478.70478,0,0,0,.70074-.6297A.132.132,0,0,0,11.9015,10.85327Z"/></svg>