<svg id="Camada_1" data-name="Camada 1" xmlns="http://www.w3.org/2000/svg" viewBox="0 0 24 24"><title>terminal-loja</title><path d="M22.445,5.23343a.45264.45264,0,0,0-.33392-.1805H5.66083l-.43771-2.0515a.46992.46992,0,0,0-.43975-.35566H1.895a.449.449,0,0,0,0,.898H4.41745l.04636.21618L6.94563,15.47128c.07589.33966.27854.58825.48119.58825H19.46594a.47829.47829,0,0,0,.45821-.44919.4799.4799,0,0,0-.45042-.44919l-11.67689.00041-.4254-1.99038H20.4279a.46927.46927,0,0,0,.43279-.35074l.00041-.00164,1.68477-7.22109A.45.45,0,0,0,22.445,5.23343Zm-2.37189,7.03978H7.18725L5.845,5.95049H21.547Z"/><path d="M9.83768,17.08713a2.13355,2.13355,0,1,0,2.13355,2.13355A2.13588,2.13588,0,0,0,9.83768,17.08713Zm0,3.36954a1.236,1.236,0,1,1,1.236-1.236A1.22261,1.22261,0,0,1,9.83768,20.45667Z"/><path d="M17.05836,17.08713a2.13355,2.13355,0,1,0,2.13355,2.13355A2.13588,2.13588,0,0,0,17.05836,17.08713Zm0,3.36954a1.236,1.236,0,1,1,1.236-1.236A1.22261,1.22261,0,0,1,17.05836,20.45667Z"/></svg>