<svg width="32" height="32" viewBox="0 0 32 32" fill="none" xmlns="http://www.w3.org/2000/svg">
<path fill-rule="evenodd" clip-rule="evenodd" d="M10 4C9.44772 4 9 4.44772 9 5V7H6C5.44772 7 5 7.44772 5 8V8.75C5 10.2272 5.43689 11.745 6.25985 12.9195C6.97424 13.9391 8.01906 14.7436 9.33548 14.949C9.70837 16.0349 10.3651 17.0293 11.1679 17.8321C12.1994 18.8636 13.5473 19.654 14.999 19.9109V23H12C10.3431 23 9 24.3431 9 26V27C9 27.5523 9.44772 28 10 28H22C22.5523 28 23 27.5523 23 27V26C23 24.3431 21.6569 23 20 23H16.999V19.9113C18.4515 19.6547 19.8002 18.8641 20.8321 17.8321C21.6349 17.0293 22.2916 16.0349 22.6645 14.949C23.9809 14.7436 25.0258 13.9391 25.7402 12.9195C26.5631 11.745 27 10.2272 27 8.75V8C27 7.44772 26.5523 7 26 7H23V5C23 4.44772 22.5523 4 22 4H10ZM23 9V12.7655C23.4139 12.5603 23.7853 12.2241 24.1022 11.7718C24.6229 11.0287 24.9485 10.0257 24.9944 9H23ZM21 8V6H11V8V13C11 14.1748 11.5975 15.4332 12.5821 16.4179C13.5668 17.4025 14.8252 18 16 18C17.1748 18 18.4332 17.4025 19.4179 16.4179C20.4025 15.4332 21 14.1748 21 13V8ZM9 12.7655V9H7.00561C7.05155 10.0257 7.37711 11.0287 7.89778 11.7718C8.2147 12.2241 8.58614 12.5603 9 12.7655ZM11 26C11 25.4477 11.4477 25 12 25H20C20.5523 25 21 25.4477 21 26H11Z" fill="#4364E8"/>
</svg>
