<svg id="Camada_1" data-name="Camada 1" xmlns="http://www.w3.org/2000/svg" viewBox="0 0 24 24"><title>trad3</title><path d="M13.016,4.16234a1.46221,1.46221,0,0,0,.21734-.76046,1.478,1.478,0,1,0-2.70037.82931,8.96707,8.96707,0,1,0,2.483-.06885ZM11.75518,2.81062a.591.591,0,1,1-.59082.59126A.59169.59169,0,0,1,11.75518,2.81062ZM12,21.17772a8.08892,8.08892,0,1,1,8.08892-8.08892A8.0884,8.0884,0,0,1,12,21.17772Z"/><path d="M14.9872,9.525,7.77272,12.41072a.44365.44365,0,0,0,.07775.84682l3.31735.66317.30278,1.51389c.185.92479.29065,1.45368.37966,1.756a.24392.24392,0,0,0,.04873.20922.43572.43572,0,0,0,.06823.07883c.07645.11609.16178.11609.29909.11609a.444.444,0,0,0,.41237-.28025c.02837-.07147,2.88527-7.213,2.88527-7.213A.44373.44373,0,0,0,14.9872,9.525Zm-1.69,3.85425c-.38551.96378-.674,1.685-.88754,2.2273-.20012-1.0006-.42991-2.14977-.42991-2.14977A.44359.44359,0,0,0,11.632,13.109l-2.14414-.42883,4.86806-1.947Z"/></svg>