<svg id="Camada_1" data-name="Camada 1" xmlns="http://www.w3.org/2000/svg" viewBox="0 0 24 24"><title>trash</title><path d="M19.61643,4.81388H15.70064L15.507,3.63054a.94388.94388,0,0,0-.92516-.77455H9.48271a.905.905,0,0,0-.90365.77455L8.38542,4.81388H4.38357a.53789.53789,0,0,0,0,1.07577H5.5454l.92516,13.92041a1.46217,1.46217,0,0,0,1.48456,1.334h8.08976a1.44755,1.44755,0,0,0,1.48456-1.334L18.4546,5.88965h1.16183a.53789.53789,0,0,0,0-1.07577ZM9.63331,3.93175h4.81944l.1506.88213H9.48271Zm6.82036,15.81377a.409.409,0,0,1-.4303.32273H7.95512a.426.426,0,0,1-.43031-.32273L6.62117,5.91116H17.37883Z"/></svg>