<svg id="Camada_1" data-name="Camada 1" xmlns="http://www.w3.org/2000/svg" viewBox="0 0 24 24"><title>user-add</title><path d="M20.85629,18.2738H17.96406V15.38157a.61132.61132,0,0,0-1.22264,0V18.2738H13.84918a.61133.61133,0,0,0,0,1.22265h2.89224v2.89223a.61132.61132,0,0,0,1.22264,0V19.49645h2.89223a.61133.61133,0,0,0,0-1.22265Z"/><path d="M17.96407,18.2738V16.60446a7.68136,7.68136,0,0,0-.43088-1.804.60391.60391,0,0,0-.18044-.0302.61148.61148,0,0,0-.61132.61132V18.2738h-.038v.20736H13.39366a.60863.60863,0,0,0,.45553,1.01529h2.89224V19.816h1.22264v-.31959h.05631V18.2738Z"/><path d="M12.01523,18.88512a1.8224,1.8224,0,0,1,.04816-.404H3.88517v-.95559a6.40405,6.40405,0,0,1,11.96216-3.18675,1.83607,1.83607,0,0,1,1.11454-.74714,7.68158,7.68158,0,0,0-4.22726-3.4139l-.921-.30407.82823-.50466A4.51607,4.51607,0,1,0,5.77008,5.51526a4.56448,4.56448,0,0,0,2.1651,3.855l.81828.50426-.91221.30288a7.73386,7.73386,0,0,0-5.30886,7.34819V19.816h9.74552A1.81375,1.81375,0,0,1,12.01523,18.88512ZM7.11411,5.51526A3.18019,3.18019,0,1,1,10.29449,8.696,3.18377,3.18377,0,0,1,7.11411,5.51526Z"/></svg>