<svg id="Camada_1" data-name="Camada 1" xmlns="http://www.w3.org/2000/svg" viewBox="0 0 24 24"><defs><style>.cls-1{stroke:#000;stroke-miterlimit:10;stroke-width:0.22743px;}</style></defs><title>zoom</title><path class="cls-1" d="M20.13381,9.71354a.50837.50837,0,0,1-.50836-.50837V5.40067a.12709.12709,0,0,0-.217-.08986l-4.1477,4.14888-.00006.00006a.50838.50838,0,0,1-.71894-.00006l.00007-.00007V9.45949a.50837.50837,0,0,1,0-.71887l-.00007-.00007,4.14783-4.14886a.1271.1271,0,0,0-.08988-.21695H14.796a.50836.50836,0,0,1-.50836-.50837V3.86619a.50837.50837,0,0,1,.50836-.50837h5.33781a.50838.50838,0,0,1,.50837.50837v5.339a.50838.50838,0,0,1-.50837.50837ZM3.86637,14.28647h0a.50837.50837,0,0,1,.50837.50836h0v3.80454a.12709.12709,0,0,0,.217.08987l4.14889-4.14889a.50835.50835,0,0,1,.71893,0h0l.00013.00013a.50835.50835,0,0,1,0,.71893h0L5.31076,19.4083a.1271.1271,0,0,0,.08987.217H9.20517a.50837.50837,0,0,1,.50836.50837v.00018a.50837.50837,0,0,1-.50836.50837h-5.339a.50838.50838,0,0,1-.50837-.50837h0v-5.339a.50837.50837,0,0,1,.50837-.50836h.00018Z"/></svg>