<svg width="32" height="32" viewBox="0 0 32 32" fill="none" xmlns="http://www.w3.org/2000/svg">
<path fill-rule="evenodd" clip-rule="evenodd" d="M27.7093 4.29379C27.8024 4.38668 27.8763 4.49703 27.9267 4.61852C27.9771 4.74001 28.003 4.87025 28.003 5.00179C28.003 5.13332 27.9771 5.26356 27.9267 5.38506C27.8763 5.50655 27.8024 5.6169 27.7093 5.70979L20.3453 13.0738H26.0012C26.2664 13.0738 26.5208 13.1791 26.7083 13.3667C26.8959 13.5542 27.0012 13.8086 27.0012 14.0738C27.0012 14.339 26.8959 14.5934 26.7083 14.7809C26.5208 14.9684 26.2664 15.0738 26.0012 15.0738H18.0012C17.736 15.0738 17.4816 14.9684 17.2941 14.7809C17.1066 14.5934 17.0012 14.339 17.0012 14.0738V14.0512C17.0004 14.0348 17 14.0183 17 14.0018C17 13.9853 17.0004 13.9688 17.0012 13.9523V6.07379C17.0012 5.80858 17.1066 5.55422 17.2941 5.36668C17.4816 5.17915 17.736 5.07379 18.0012 5.07379C18.2664 5.07379 18.5208 5.17915 18.7083 5.36668C18.8959 5.55422 19.0012 5.80858 19.0012 6.07379V11.5858L26.2933 4.29379C26.3862 4.20066 26.4965 4.12678 26.618 4.07636C26.7395 4.02595 26.8697 4 27.0013 4C27.1328 4 27.263 4.02595 27.3845 4.07636C27.506 4.12678 27.6164 4.20066 27.7093 4.29379ZM11.5853 19.0018L4.29326 26.2938C4.20029 26.3868 4.12653 26.4971 4.07622 26.6186C4.0259 26.7401 4 26.8703 4 27.0018C4 27.1333 4.0259 27.2635 4.07622 27.385C4.12653 27.5064 4.20029 27.6168 4.29326 27.7098C4.38624 27.8028 4.49662 27.8765 4.6181 27.9268C4.73958 27.9772 4.86978 28.003 5.00126 28.003C5.13275 28.003 5.26295 27.9772 5.38443 27.9268C5.50591 27.8765 5.61629 27.8028 5.70926 27.7098L13.0732 20.3458V26.0018C13.0732 26.267 13.1786 26.5213 13.3661 26.7089C13.5537 26.8964 13.808 27.0018 14.0732 27.0018C14.3385 27.0018 14.5928 26.8964 14.7804 26.7089C14.9679 26.5213 15.0732 26.267 15.0732 26.0018V18.0018C15.0732 17.7366 14.9679 17.4822 14.7804 17.2947C14.5928 17.1071 14.3385 17.0018 14.0732 17.0018H14.0607C14.041 17.0006 14.0211 17 14.0013 17C13.9814 17 13.9616 17.0006 13.9418 17.0018H6.07324C5.80803 17.0018 5.55367 17.1071 5.36614 17.2947C5.1786 17.4822 5.07324 17.7366 5.07324 18.0018C5.07324 18.267 5.1786 18.5213 5.36614 18.7089C5.55367 18.8964 5.80803 19.0018 6.07324 19.0018H11.5853Z" />
</svg>
